<mxfile host="app.diagrams.net" modified="2023-02-22T13:12:08.539Z" agent="5.0 (Windows NT 10.0; Win64; x64) AppleWebKit/537.36 (KHTML, like Gecko) Chrome/109.0.0.0 Safari/537.36" etag="p9D26Wq8OOU6fSkZDw_t" version="20.8.10" type="github">
  <diagram name="Page-1" id="C0_Vi5-Bs5r4CXZ448o9">
    <mxGraphModel dx="794" dy="470" grid="1" gridSize="10" guides="1" tooltips="1" connect="1" arrows="1" fold="1" page="1" pageScale="1" pageWidth="850" pageHeight="1100" math="0" shadow="0">
      <root>
        <mxCell id="0" />
        <mxCell id="1" parent="0" />
        <mxCell id="usa-l6imX2tJEKurcfGp-1" value="" style="rounded=0;whiteSpace=wrap;html=1;strokeColor=none;" parent="1" vertex="1">
          <mxGeometry x="40" y="40" width="760" height="400" as="geometry" />
        </mxCell>
        <mxCell id="usa-l6imX2tJEKurcfGp-2" value="" style="shape=image;verticalLabelPosition=bottom;labelBackgroundColor=default;verticalAlign=top;aspect=fixed;imageAspect=0;image=data:image/png,iVBORw0KGgoAAAANSUhEUgAAAPAAAAIICAYAAABQC2PPAAAAAXNSR0IArs4c6QAAIABJREFUeF7sXQeYU8UW/pOt9CbSQUF67x0R7Aoqza6ASlPpHZEFpIoiIgqKiqIgSlGxi6j03kV6R+l1YWuS9/1n7iTZbLYQ4ZFlZ95bd0lumXvu/HP6OTaXy+WCGYYChgIZkgI2A+AM+d7MpA0FhAIGwGYhGApkYAoYAGfgl2embihgAGzWgKFABqaAAXAGfnlm6oYCBsBmDRgKZGAKGABn4Jdnpm4oYABs1oChQAamwDUBsNPpFJIwRoQ/ISEhsNlsSciUmJgon/FYfYz4tWw297H8XJ/ne34GprmZegamANct17Nem/o31zE/53A4HPKb/9br3G63p/jUGic8j+uc56V2vPeFrgmA4+PjZQJ8KE6If+uH0zePjY11gzw0NFT+9gdW/Vl6HygDrw0z9QxAAQ3I06dP4+LFi8ifPz+yZMkiMw8LC5PfmikRkKdOnUJMTAz0Gk/pEYmP7Nmzyw9HWsfr61w1AHvvSN9++y0GDRqEhIQEtGzZEsOGDZOJXb58GVmzZpUH79u3L37//Xd56DfffBPNmjXDvffei0uXLsl5BPjgwYPx+OOPu3elDPB+zRRvUAoQlOfOncOXX36Jjz76CFu2bBFOy/XboEEDvPzyy7J+w8PDhTtzDS9duhRxcXFuRla0aFE3QH3JxGsdO3YMt9xyC3icZlhpSZ5XDcBabOZEOIGvvvoK9erVQ/PmzfHMM8+gcePGqF69OjZt2oQ//vgDU6dOld/z58/HG2+8gfXr17snTRBXrFgRH3zwAe6+++4r2pFu0PVjHus6U4AMhUDduXMnbr31VnTu3FnAtmHDBrz//vs4ceIEHn74YXz88ceIiIjA8ePHsWPHDrRr1w7R0dEC4kaNGgnTSgmUlFw3b96MatWqicSqN4jUHv2qApiT/OmnnzBmzBj06NEDc+fOFQ764IMPihixZMkS3H777cJduUPddNNNspt9+OGHWLlypVuM/u677zBkyBCsXr1axBNvHfk6v0dz+0xIAa4/rtnx48fjzjvvRO7cuTFx4kQcPHgQNWvWRLdu3fDzzz8LSJ977jmh0JEjR7B37160aNFC1i+/u+2227Bt27YUAUzxnIyMx9auXTtdjOuqAVhP8r333sPo0aPRtm1blCtXDiNHjsTbb7+Nhx56SCZG2Z7HcnfZunWrcGcSo2nTpsKBL1y4gPr162PGjBnyOy0RIhOuJ/PI/4ECBAmH5m46GU8bkrgG9ZrzNqJqkXbx4sW4//77UbhwYRQpUgR///23rOvly5ejfPnybh34n3/+wfbt20WFJLPitUqXLi0cPKXB4zZu3CgbA88jF05LF76qAOYEyIHJdc+fPy/y/7PPPisi9dChQ0Vs7tKlC3LmzIk9e/aIzvD6668LuEkgPuT06dPlh9w6W7ZsBsD/YbGaU5NTgADmOiXoIiMj3ToqxV6uVw7aaU6ePClrL1++fG5DLL/juh43bpxwXdp0cuTIIepip06d5HocvHYgAObcKJLznsWLF5dracNYSu/yqgFY34A7W4UKFcRw9cADD6BWrVro3r276AfUZxctWgRa8KgP0HhFPZk7DcULApjnTpkyRTgyJ2+szwaGV5MC1DMPHDggQORaO3z4sACxSpUqwjEJbnJSirr8nOtUu3Y4D81NyXTIZCgyT5o0KQmj4TG0Pu/atUuAvW/fPlnjAwYMQFRUVDKmpN1HvD51YM7F12vzfwMwb0R9duzYsaLIt2rVSriuBiMn+9tvv+HTTz+VB+G/aaGmwerPP/8UXYI6tBZlDICv5vI11+J6I3elqkYuR6AR1Pz76NGjwj0pHlOM5d8Ue7Ur1BvAvAYt0jRmkWN7D96DzIibAD0u2hLNtexvPWvVkteg8TZv3rzXF8DcgbSz29s57R244a3baiMVH4THaz3ZWx8xS89Q4GpQQAdiaFFXr0OuPb3etD3HO6hIA0+vZ+8AJF9Qan3aWyr15qi+dh3voji8/nUP5LgahDbXMBQwFEibAlddB077luYIQwFDgatFAQPgq0VJcx1DgetAAQPg60B0c0tDgatFAQPgq0VJcx1DgetAAQPg60B0c0tDgatFAQPgq0VJcx1DgetAAQPg60B0c0tDgatFAQPgq0VJcx1DgetAAQPg60B0c0tDgatFAQPgq0VJcx1DgetAAQPg60B0c0tDgatFAQPgq0VJcx1DgetAAQPg60B0c8sbmwJxcMJm/Q9wINTlQDwcCHNGIt6egAhHOBJD4hGGEDhgh43/dcQBIZGATZWmTe8wAE4vpcxxhgLppEAMnAhzEMQuuELsCHECCayu4XLCaY+D3WVXgEakHJNgC0Es7MjGmtDpvIc+zAD4CglmDjcUSIsCLMwTnhAHmyseCWERcLjCkYjLyOo6CTgjYL8UDUdkMbjCVc10wAmn04EQOwGdtAFCWvcyAE6LQkH8vU4q9y7Ilt5SLCk9Fosx6AT1/3qtICbdNZ1aLBLBEu9OVyISXDGIjI/Dhe1LcHLjj4iP+Rc3RR9HQkRuOPOVRI66TyB7qXqALRSh9jDYbCl3cPA3aQPga/oqr+3FCVyW62XZFpY6vRo1xM6ePSvtQFhYzZQzCuz9uZyxcCEciTYgLO4fHF/6FU7t+gUFbimFuM07kKVmbZzfsh55byuJg0fOomD1e5C39iMIicgtGvGVDAPgK6HWNTrW6XShY8fnsGzZMgENKx2+9NJLePzxxzBv3jwMHjzEXfGfU/j111+kbtPcuV9J/TByTQ7W2GadYhYUZxFBFmljvaa4uHjceedd0j2gXr06aNz4dik+rkusslpovXp1MXnyO3INljSqXLkSpk//APv375fi5OT2/OF5LPvCelCVK1dOs+zpNSJZUF/W6bxMjRcJzhjErv8Kh9YtQqkWj+H0zq0IPRONQg+0x66fpyJ/rhwILdUIB7+bghK3P4aISq0Qbg+Dy8VeYnxE9hhLnSMbAAfBUnC5gKeeehrFihVD165dsGvXbqlmuHDht9iyZSumTZsmdbJ1f7gCBQpi1apV6NixvXynqyiy+ufnn38uNZVYUHz37t1Smjc2Nl6qfPbs2VOA2qhRY3z66ScoUeIWKdiWJ09uKQc8ceJb+OKL2cLJBw4ciGzZskrXjDNnzkgrkT59+ghwWYSwQIEC8tvU7U6+gC7DiQiXA67ogzgw9UWEhcQhJHt2hJ25RJaMy3nLwH72HCITDsCZuwhw/hhseUoj/7PvIiQ8lwFwEGDyiqaQkODAc891RJkyZaVnFLlwnTp1MHToK4iJicXMmTPx/fffuUVais4tWz6E6tWrYfjwKOGIBBK5bt26daXwOP9mWVNy4NjYONxxRzMBcN265MBNpPpn6dK3uQH41VdzpZIoNwS29oiNvSzVFPPkySOAXrduHZ5++mnp98OOGhychxGz/QHYgUhHLGJO7sCRmQORt+a9cMZdxtm/f8VNNR9EYmQRhJ7eg9gN85Cjbis4wvMhesP3KPzC+wjJVpitzQwHviIEXeeDKcq2b99ROOddd92JTZs245dffsHixb/hl19+xSuvvCI6KQeL4vO7MmXKYNKkiVIcn4MAZolTNtd64YUXhAP7ApjtbsiBmzS5Xa6ni4bPnz9PgD5w4CABKoF73333olu3rsJp2d6GHQOefPJJEfM1gK8z2YL29tGuRGRNvIALx3fi4KwoVOk5A9HHduPg9+NQ5omJCMtxM2L/XYsDc97ALR3egD0yN3a/9yLKvfAWQrIXNQAO2jebwsQcDpd0sKAxqmHDBpg27X3RP9laZv78BSI+//DD99bZdD3YULduPXTo0B6dOr0gn1M/feKJJ6TxFjtjsDVHSgBu0KAhfvttEUqWLAm7Xelb3pbsPXv24uWXX0JERLh0HaDeawCc/lV1zuVC9sRziDu2BcdnDcYtnd5FQvQxnPjiXRR6/FWE3JQPsSd2Y++8N1Dm8QEIs4Vi++w3Ufa5txGSvRA7C1uSkdGB00/163gkwcMeUewU0Lt3b9E/Wc2fBiw2iGPHOzZ8024dcuxZs2bhrbfelu6OS5cuAUXgvXv3YNy4sdKT6q677pJj2Bnj0KFD0iWDTeTYz4f6MHVecnFybt6fhfWpM1OM5r9pHGOBfraKJac2AE7/AnG5EpBAj+6pv7Fn5lCExZ1BQkgIcsWeQkJ4VlzKkgNZL0fDZo9BTNjNcMTGwJW/DCo88xbsETnTfyNKXi7vqtJXdKo5+GpRQAOYxijqwLT8sqMje0Sx9Qf7SrFav9Y3aUhiY+m+ffth7dp1oqeS27J965w5swWAI0aMwMKFCwWw7DJAkZqfsWfPHXfcISK0Lr4/YcIEFCxYUFrgsEsBDV9sl8k2IPfdd5+A3AD4Ct62Kw6xtnCExp/H4V/eQ8ixzSh8XyfsWvkj8uW4jAL1OuL0r7NwKcyOgrXuxdEfpiC8THMUbtwZNrtq/pde46AB8BW8l2A71OFwgn5bgrx48RIiOlMvZjsQ3emRLS7ZxzZXrlypunz0Ps6NgCAuW7as6NNmXDkFHM5YCZR0uWyIiD2M7d++CUf8cZQuWRMHV/+Egve/iEO/vItyDR7AzvUrkCt/ERS8vzdCshYzfuArJ3fGPYO6M+ASwFFfpbvIZlOWYe3n1W1rvNuE+Hti3aBdA9m7H1DGpdD1mXm8y4lQRzycCEeczYHImL048cdHiN+2FKEJcXBkcyIkJhRnQnOhYJ2HkateW0SH50GukAgTC319Xtn1uyt9yBweI5SK5PF28XiDMqWZeh+TnuOv3xMH/53ZgTjUmQgX7Eiw2WFHHJCYAMfZA7h8/gBcsQ6Eh2dBWJ7SCM1bEM6QSIQ6E2ALCU0zcMP36Y0IHfzrwczwBqCAC4S1S/6vBjdalXuUXn3XHxkMgG+AxWEeIeNQwNtm/F+A694GjBU647x8M1NDAT8itNPN1A15DAUMBTIWBWwuV4IBcMZ6Z2a2hgJuCthcLvFFmGEoYCiQASlgS0w0AM6A781M2VBAWbDj44wObNaCoUBGpYAtPk6HAmTURzDzNhTIvBQwAM687948+Q1AAQPgG+AlmkfIvBQwAM687948+Q1AAQPgG+AlmkfIvBQwAM687948+Q1AAQPgG+AlmkfIvBQwAM687948+Q1AAQPgG+AlmkfIvBQwAM687948+Q1AAQPgG+AlmkfIvBQwAM687948+Q1AAQPgG+AlmkfIvBQwAM687948+Q1AgQwIYF1/4MoaIQf+rlxg/15/XfgCL7+a1jPw+2v5fNf6+oFT+3qdqboh+N79Wr6Dq/OkQQ5gF1wu1eBJE5etNENC2MzLfo1bWyqQxcfHITw8zF0C1JvsCQnxCA3l3FjPN/3DyZrBLpu711HSms5cNNcWYE4nG4KrkqYptwf1V6jlWi7oa30/3+vrZ+Ea03W0bVavKDYz15v2tXzm9K+ZlI4MagA7nQ7p0ePdCpONpo8d+xd3332PHy51NReBulZ09EV8/PEMvPxy92Q0ZI/dnTt3oHv3Hul+EwTrqVMnkStXToSHR8p5/IydERITE2ThsMsCuwZevZGULm+9NQmPPPKQNPhOmdNfTVqm50mu9f38A1jTnW1kSP+EhESEhNgRGhpmbW4GwOl5e0mOIYc6cOAgBg0ajLx58+Dff//FvffeI31vv/vue+zbtxc9evQUrmyz2WXxS5c9OOBwJMrfISGqSRRcNrCHEF+KBgsXrWqpyfNdYIsSfq/+bcOUKVNQvnw5NG/eHOfOncOjjz5mdenjNT1T3bRpkzQLa9HiQZkDfxTweL1Qd+NttgNlE282JWO3P/b4vXQpWgA0ePAg5MiRA6tWrcLzz7+AevXqgd0H2a93zJhRyJkzt7uDIKURbmqcY2hoqIBdNffmnNRC43M4KbRYFcRd7A9gV+1HdRvRu+68D2+8MQFVq1aVa/GaarB1aYi0LxU6AnA4XXjxxRflh90TNR0Vh+JzJViLXW04LhevxY6H3JBYzBwyV74n1S1CA8Im3/NfNjvvS0lG3Vc/C2mt7ud5d5R6wsLUs6trKYmF75j3AJxyHzZu03PjXBYs+Fpo1a5dW/WkNjVfvt82bdpg0aJfpXvj559/Lo3P2SM5e/YcePrpZ1CrVnWEhARnn6ig5MBcBGx43arVI9JtPjY2Bh07dsSkSZOwdu1abN/+NypVqgRyY3aer1GjuuoNFHcZbOb1448/SmPq++67H7ly5sFvv/0mzbrYO5cd7+fNmyuNwLig16xZi8jICFSqVFkWGltsDh8+HIULFxIQt2v3KFq2fEheLlt55st3Ex555GHp4Ldjxw4cP35M2nWeP38BP/30M44dO4aHWrZE8RIlEBERJouGi+yLL+bg+++/w8yZn1oL1YEvvlCAnjXrc3muwYMHY9GiRTKvmTNnYu/e/YiKGuZe/FyclEh4n1OnTokUwsVGEZ/3WbVqNVasWIlixYrKs+fOnRME8KlTJ2TjO3/+nDzLC893EQBXq1ZN5s/vzp49h2bNFC05AZfTISDZsGE9+vcfIN+xeyIX+5kzp/Hnn39ix45daNbsDqFd9uzZrU3AKWD6448/pckagcF3ePPNNwttf/jhR0RGRuKBB+5HwYIFZMM4ffq0fH727Bnpa7xmzWrpoBgTE4ctWzbjoYceFprxuO++Wyh9kDnYx/iHH35A9uzZpItisWJFZPMijb755lvExcWiTZu2spmMHj1KzmG71fbt28NuV2qPN4A/+ugjHD9+HAMHDpAN78CB/ejS5UXMnj07aJuaByWAExPjMWjQENlFR4wYjtBQ3YIC+PabhdIm8/UJr6NAgYLo06cvhgwZjEaNGmHa++9i2bLliBoWhZ07d0mv2x9/+AEfz5gBR6IDPXv2kMXKFp5ff70At912G5566mn06t0bderUkUUSHX0JY8eORtkypdG82V3IkTMH6tSphYceboWuXbtgzpwvpW/ul1/OwbfffIuVq1Zh1GuvoXXr1uj4XEdZtE899Yz09S1Z8lbhLOQUrVq1kWchF9MV+WNiYtCwYUPZ9c+fP49BgwZJ422Obxd+g6VLluKNNybKBsAF5XIl4t5770efPn2kB3C/fv2kDekzzzyFbt1eElWDG92GDRvl2Rcu/BaUZlq1boWePXuibp160gf4l59/kdalefPy+A4YPmKEAGz8+HGoXr0GunXr6ubIFy5ckAXfpUsXVK1aRVqZPvzwI9JcvF69upjwxhsiUYwc8Zo8KzcSPm/Pnr2wdetWvPBCJzzU8gEsWbJMNsHhw6Nw+vQZmTvnkCdPbrRq1Rrde3QXWrz33lTpXczvCC6Cin2OObgBPNquHVavWS20/+yzz/DmxIkiBQ0ZMgSzZ8+S52jZoiWihkchLDQMvXr1wtx5c2WzJHfnvYoWLeIWo5IC+GOcPHkSAwYMUNIEHJjzxRfYtHkrxo4Z5xG9guivoASww5EgIsy7707FunXrZGF26dwJ5cqVBfXOhQu/w5R3p8iC2bhxE95//wO89dZEtHzoAXz//fewiYHGJiLrsX//Fa5Brvrhh9PxxBNPyuLPli2r6LWPP/4YZs+Zg/CwMBGrKH6NHz8WlStVxAP3txSude99d2PpsmXCCWNjY9G8+Z2yyBb9+quIviNHjpCF0e7RR9G2bVvpx1uoUCHRczlHGqzYcPvnn3+E3WaHjTKtiJtO4S7kvBxdu3ZFq1atcPnyJezavQOTJ7+DQgULW/NyimjP+b34Yjc5nlz4wIEDbmljxYrlIo7z2QmQevXqIyTEht//WIw333wTdlsILl68hEYNGwiH37x5M/7++2/0798fiQ6HzJtAXb58mYjwWpR97LHHZFFXq1YFn376GY4cOSznwEYDkEue+bOZs5ArVw5RR7hBccMg177vvnvhdDjQuHET4fqkPa9LUMXHxYukw033jTffEFpdvHgRDRo0xKeffiJSgT8Ar1m7Gu2f7SDN0IsULSL3mz9/gfRVZoPzB+5/AD169EDz5nfg7x07UbJkKbcIzUbqaihdyBfA5N5ssC7D5sSSJX9izJhx+PGHn4MItp6pBCWAyTWUzqYWOhdU/379MWfOF9i0abN0r+/Rk4Yjm+jKr7zyCt58cwKee74D5s2bjxDR40Kwft162cmnTZsqnGDChNeF406dNhUDBwzAW2+9hRkzPkGfvv3cVm4N4EoVCeAWuHjxAlq3aYVfflWckWIlwTh37ldY/NtiAfD418fhxPGTeGvSJOzevQc1a9ZE9+4vITIyi1oHNhtat26DiRMnyu5PUZ2DmxS5zieffCILlwty3LhxwqUmvzMJpUqVQlhYJDVTAUr//v3QpElj4bociYm0yNtEpWjbth22bdsiNCHdPv74Y8TFxYvFnmR8/vnn4XJSNwVub9IEkydPxuLFi2VD5GajN5WwsDBMnPim6H9aUiCACVhy4BEjRorY/sQTj4vuTBH9ueeex7BXh4tEo3R0uwCYNouKFSvgUvRF1KhRS3Ruis8aQM2aNRcxl+/qhU4vyDvnaNiwEd59d4pwakoMX3wxW8C9c8dOcC4UsR98sAXy579JHk7p8U6RbgYNGoDtf23H+++/j3//PSaNzR999FF8NXeeSAdPP/209Vz+AZyUAyeK2vT773/incnvGgCnlwIuVwK6deuORx9tJws8Pi5OuOioUaNw9OhR6Ubfp29fC8AH8Oqrr2LmzBm4867m+PbbhQgPCxc9bPSo0ahWrSoefvhhEc2ocx0/fgKdu3RGt67dUKtWTdStWxeVKldVe7JloSIHLle2NFq2eATR0dFo3eZh/PLrYvcxd999NxYsWICff/pJceDXRuC7hQtx/wMPCjhfeKEznnuuoxik+G+CbOLESdi//4AYprJkySILjtLFSy+9jBUrVmD9+vVuEZrc8bfFvwoIQ+x0YXEjc4l0wWNHjhwuz75jx078/vtiPPLIIyIV/PzzTyhWrJj0C27Tph1eeqmbLPx3prwtelx4WKSIiE1vb4o5c+YIx6W94M2Jb4odgNx8/vyv0bNnd9ERtYuJ9oJ+/foKgBcv/l30VeqUFJWdLqfouL8tWiwqj954CeBOnTqhYsWKcDkTcc8992HkyJGoWbOGHEMpiioG50NJgypJeEQEjhw5CtKXdgFucHy3NEBxfsuWLUW/vv2xdOlS9O7dC8888ywaNKyPy5cvY+nS5eDmw/e9auUq3Hlnc9DgRTqMGTsWW7Zslfs+9dST8h71s3lzYG4W1LMpvdB4FhNzGS0fegjTpk1DyVtLp3f5/l+PC1IO7BDRju4Z7qpnzpxBkcIFERU1XAxSvgAmB541ayb+XPInBvQfgHr1G+DokX+QM2cOvDN5MiIiI7Bu7ToRDxcsmI8iRYrgq6/milj5008/Ik/emyxwKgvmD99/j9dfH49qVWvitddGpAlgLmbObf+BAyhRogQWLfpNDGXktmIdd5HbxmLKlPfwxx9/oHTpUmIsOXf+PD6ZMQM33ZQfq1evtgD8G+LiYtChY3sR8Rs2aOQGMC3X1H8vXbosoieNVuSWBAm56aRJb6N8+QpifClbthyGDn1FNo9evXvJ/W4pUVI2sMOHDuLttyeJvk7x/eLFaOS/OT82b94iwKxcubJY0fUij4qKEiMbdV7qmuTGBw8eQpEihbBx0waxQ7Rs8ZBIJ9oz4A3ghIQ4HD92XKzsVINiY+PE2PjFnC+QJUskevfqg2PHj6N48eLyrrmRUFqpVKmieBvOnj0r3Db6YrSI/evWrcGuXbvRq1dvVKhYEbQl0N03depUaWz+8ksvC7elbn748GFM/3A69u7dJ5tl9erVMWnSW24ffFIr9EeidtHgeeLEcZw5e1pEcRrI7DZupME3ghLAmky0kFI8pL5Kiyl3WOoofGF0wRAc/Hv//n2yMAg+LgBap3Pnziu7MRciB3dTfl6jRk25Do1G27f/hTp1aiMkJOnLobGD3I26KLkOxfY6depaIrQTGzeuR8WKlcRqeuHCRQECF+7Wrdvk/pxr7tx5krxtcQG5XDh44AAOHd4vC4g7e7t27fDA/Q/i3LkLOHToIKpXrynnHT16RKy9lSpVSdI/lr5Kcm41t2rIly+vAIfcRUsn3BD47Mp1w03JgXXrNog0QQ5I6y3Fc1qOSbMNG9R3BH3RokWTrVIaFf/6a7twdl6XwN6yhc96GhUqlEfBggXdbhklQkOMiIUKFRRRXL8D0ovvICwsHLVr13R/zuNXr14rnJRWcKob48ePF9pT8uB3nCe9Aty8a9euLXOkd2LVqjWyCfC9UrLR73rbtq3CwQlY+tvpLqQERLsBz6efl4OBOjS28Z3RGHbkyBH5PEeO7ChV6jbrmsHrCw5qAGudSPlVlb+X3IyLRL0ATVjFObVf1+mkH5jH0yKqAMyFT9AoHVH5DrkgCWata3tWLvUjpSPxmvRXctGpoXyvIj5a0Tqa8xAs1Oc4T71o9TVVBJllTYbyWxPsFCvJgch9qAKqOSp/qve/1WfKQER3En/xex3Fpf3Y+hjvZ1J0Iw3VnLXOyN+aFtoHnpwWai68H3Vuqibh4eTO6jl5vaS+Wof7HSn6hyA0VNGOIOI1tG6t/df8jJ4GRTc7mje/SwBcs2Z1xMcnCq3p+2WQBWmsbAg6gkq8XvIOPXPnO1I+aBXxpiOslD+cNkQdPad86+q+fBYO/W8VARi84BWams4MyRjO/+GDax119H94hGt0C240tF7T4FizZi0/d7m2YabX6LGu2WUNgK8Zac2FA6EAAXzhwnlRmzTnDuQ6meUcA+DM8qYz0HN6MoOCW3wNBpIaAAfDWzBzMBQIkAIGwAESzpxmKBAMFDAADoa3YOZgKBAgBQyAAyScOc1QIBgoYAAcDG/BzMFQIEAKGAAHSDhzmqFAMFDAADgY3oKZg6FAgBQwAA6QcOY0Q4FgoIABcDC8BTMHQ4EAKWAAHCDhzGmGAsFAAQPgYHgLZg6hbP7LAAAgAElEQVSGAgFSwAA4QMKZ0wwFgoECBsDB8BbMHAwFAqSAAXCAhDOnGQoEAwUMgIPhLZg5GAoESAED4AAJZ04zFAgGChgAB8NbMHMwFAiQAgbAARLOnGYoEAwUMAAOhrdg5mAoECAFDIADJJw5zVAgGChgABwMb8HMwVAgQAoYAAdIOHOaoUAwUMAAOBjegpmDoUCAFDAADpBw5jRDgWCggAFwMLwFMwdDgQApYAAcIOHMaYYCwUABA+BgeAtmDoYCAVLAADhAwpnTDAWCgQIGwMHwFswcDAUCpIABcICEM6cZCgQDBQyAg+EtmDkYCgRIAQPgAAlnTjMUCAYKGAAHw1swczAUCJACBsABEs6cZigQDBQwAA6Gt2DmYCgQIAUMgAMknDnNUCAYKGAAHAxvwczBUCBAChgAB0g4c5qhQDBQwAA4GN6CmYOhQIAUMAAOkHDmNEOBYKCAAXAwvAUzB0OBAClgABwg4cxphgLBQAED4GB4C2YOhgIBUsAAOEDCmdMMBYKBAgbAwfAWzBwMBQKkgAFwgIQzpxkKBAMFDICD4S2YORgKBEgBA+AACWdOMxQIBgoYAAfDWzBzMBQIkAIGwAESzpxmKBAMFDAADoa3YOZgKBAgBQyAAyScOc1QIBgoYAAcDG/BzMFQIEAKGAAHSDhzmqFAMFDAADgY3oKZg6FAgBQwAA6QcOY0Q4FgoIABcDC8BTMHQ4EAKWAAHCDhzGmGAsFAAQPgYHgLZg6GAgFSwAA4QMKZ0wwFgoECBsDB8BbMHAwFAqSAAXCAhDOnGQoEAwUMgIPhLZg5GAoESAED4AAJZ04zFAgGChgAB8NbMHMwFAiQAgbAARLOnGYoEAwUMAAOhrdg5mAoECAFDIADJJw5zVAgGChgABwMb8HMwVAgQAoYAAdIOHOaoUAwUMAAOBjegpmDoUCAFDAADpBw5jRDgWCggAFwMLwFMwdDgQApYAAcIOHMaYYCwUABA+BgeAtmDoYCAVLAADhAwpnTDAWCgQIGwMHwFswcDAUCpIABcICEM6cZCgQDBQyAg+EtmDkYCgRIAQPgAAlnTjMUCAYKGAAHw1swczAUCJACBsABEs6cZigQDBQwAA6Gt2DmYCgQIAUMgAMknDnNUCAYKGAAHAxvwczBUCBACmQ6ADudTotULtjtIQGSLe3THA4H7HYbbDZ7soNdLjUHf985HImw2+0pfOeAzaYu53S6EBoamvZE4ILL5YLT5ULIFTwvz9H3AqybWndzOh3u+ds8B8lnnufmOfo8F0h3PpfvtdLxAKkeou+XEj3/6/WD/fxMB2CbzYWEhARZTHZ7egAQ2CtUi5ybRPJ7xMbGIDQ0LBkABWhOBVLf8/gd139iogJPSAjBkfYGpDYsp4A4JCQs3Q/DTYbn8icsLDzJealf04XExER59tBQdV5iYoL85oapQHz1RmJiPFwu0oPXTpseV+/OwXGlTAdgcjiCZPTosfDlHlfzlTRp0hiNGjUSoPqOLVs249tvv4FbGIDLzZnKlSuL1q1b+QXbpUsX8cYbE0FwZcmSBZ06dUbu3LnTmLYL586dwVtvTb4i8BBnhQoVxrPPPpvsGUi/f/75B59+OgOJiZy7ZzhdDhQqWBAdOjyH8HAF4F9+/QUrV66A3RYiG8nVHNxMSI9hw4YZAF9NwgbvtdQCCo8IBbkxOcXVFusAO3r26I2xY7lJJOc4CxbMw6OPtVX3d4UBNnJVckob2j/7HKZNe9/vnE6ePIEiRQvLsVmzZsHmzX+hRPFbUie1zYVTp46jWLHiwk3V0L+9T+U8+bmiD3FWs2ZtrFq1Ci5n0mew2V3Yvv0vVK1a2e8mWK1aDaxevRpwkSO6MGBgf0ya9JZc2mVd3/8crnzVaMni8qUY2GyGA185BTPcGf4AfLXEOs1dCOBeGDt2XCoAbqN0zCQAtlsAnkqBMxllkwN4G0oUvzUdAD6BYsWKpQFgBTYN4vQD2HeeLqQIYNkYNI2uDicm96VqYACc4YAY6ISTAzhHjjzIli2rGGACGdS9wsPDcOzYP6JfKw6cNoB5jssVijx5KAbTaBSCNm3aYvCgQcKBuTjz5btJ9DsODWAaxyIiwrB06TIULVos1SkTMKdOnsGDDz6ImNgYOfbcuVPuZ6WYy3vExyud/dKlaMTFxQjYq1ev6ZcDU2LYvXsX7ryzORwORU/SLjr6EhIT41ClSjW/HJhGNz5L3rx5LToFQm11TlxcHGJjY2WuBsCB0zEDnpkcwP36DkK/fn3/g1HLifj4RLR86AGsW7c23QAOCwuF3RaBP/74E2XKlBEA7dixAy1bPiScKjQsFEuXLMGtt5ZMBmByyhw5cqap91GEvynfzVixYoVb3G3WvAm2bt0i1yxbtqzcPzQkUv797LNP44cfv5e5VK9ewy+AHU4ajlyIjr6AEHuEnNenTx989tlncLoSUbVqVf8iNIA6depg4cLvRB/+L2PMmNGYPPkdxMVfRkhIqOHA/4WYGepc0TtdCI8Ic7tJBg16BVHDhonepwxb6dOLlatFcUr+btS4IdauXZ0EwImOBISHkdPKxYVUC+bPw+NPPCbciB6lDRs2oVz58jKvdevXo2nT28XQFhEeiXXr1qNUqdtkTidPHRNRmPcKCbEjIUFZe9UclNvH10Zkgx0FChbCgf0H3OJ8teqVhYPynHLlymHNmrUIDVFAbNOmFb77fqF8V7NmLSxbutzaJDRdeJTSZG38r+Up6tq1Cz7++GOZS5UqVbFq1WrYxEpOHbgfJk2aKNevXbseli5Z6tbxybn5LKnZIUgLWq8VCXmsC8NHRGHMmDFwOhMMB85QAPyvk7UpQw1FR22FHjhgCEaMGIbEROWrVC6bpL5Pf7elS4eLTxuqGjWuj7Vr1yQBMMVN+myVb1cBbf78+WLdJYApVi5fvlyAxO/IGevVqy8GrrDQCKxbtwG33XabbBKnz5xAiRIl3HqkskkpQ5yAwOZCYkJSAxXnVqBAAezbu99t2a5Rsxr+/vtvmU/58uWxZs1qhNhpMXahbbs2WLjwGwFUrVq1sGjRYkRGZJHH9/hy+S8L0EJP4MUXX8Qnn3wiLiMCf/HixYgIz+oF4Ddl3rVrN8DyZcvcGw3B6XDQVZWyS4/XJJflPTWAo4a/irFjCWC+A6MD/1dYZJzzUwEwFwh9mL/88guiL11M/ZlcQKVKlVG6dBm3P9cfgF1IFN/tH3/8jvPnL8g1Y2Ji8c8/R2XhkmuWLFlScWOLo+/Zs0ctVBe/K2VtNE6cOXsKvXr1kuPoRnr+ee1Gor/WAYqV2k/sPfmbbroJb701CXApTnf0nyOIj49HfHwcCtxcAJ06v2BZmj0A5j0o1g8bFgWXUwVl3HHHHciTJ68XxyRLVAD+/vvvsWnTJgFi3rz58MILz8Pl9ObA/gFMa/b27X/DBT/2B5mv2jiyZ8+Oe+65x3JpuWAArN5wpvMDqwXnnwNzkdIoU75CWRw4sDeNTcmGqKjXMGjgQPdx/gBMlwvBUK9ePVngHO3bP4dpU6daXMiFJk0aYY1wbn7XHu+//z6cDnIbFxo0aIj1G6hXy1KW//J6WbNmtdxIJWQTiIm9jJw5s6fg29YqgQLiubMXkSWL0nm9o6W8ObCOFlPfq81k5co1qFGjeupuN3GJWcPtRqII7R/AdLW9OuxV2Kz3koToLsWVKbCXvLWk2Ac05zcANgD2EqEHY8SIKFkc5IrlK5T7PwO4sYixxEpyANfH+g3r3P7Z1AGc0/Jte8PA212jwHhlANYgt2PliisAsMsCvlsHDgTA5ODUtA2AU+ImmY8DW4EE3oEcgwYOQVTUSAG005mIcuXL4MCBA1eHA1tGrnr162LTpg0CxPbPPo8JEyaI2Mvx1NPPYsuWLaDa3bpNKwwb9qrFaW14/PEnsG3bX5qlye/ISMU9F377LQoXLiTXjI2Ls3y9NGylPs6dveSHA6tzunTpjN9++w2MqGKY4unTZ9wun3QB2B2o4YmDHjCwDyZNmgSXy4bateti+bKlcIl47MLYcaPx6qvkwP78wvxMGa9K3nqb4cB+XqsBMFwYNGgIoob9fwBMcTdr1lwiBrss49ayZUtRunRpWdCbt2zG3XffJUYrGmdWLF/hdiPpKCnlr1ZW7927d8vGwx/6RbkBpTVSA3BMzCXRvxlKuf/AXgEcfa4c6QOw791phe6NSZPeDhDANPzZDIBTeKkGwP9nACu3T1KL68YNm1G+fAW44MTmzRvRoEF9y1Bkx6aNm1GqlAK3HppzV6teFbt27ZKPac2mscfhSLCs6ClHl509E50iBxaNk7YpO7Bnzy7x6arkBGDVyrWoXr2a1zyUdZ2DG46Xp8zymCkuawCc1pYa+PcGwNcBwN4+T3LizZu3oXy5imKkWrd+LRo3biRvlFlAG9ZvtPzAnpdMFxe5MAG8c+dOty5PMFHs5UgtUSM1DqzvQpF2955dqFKlijtqa9XKNahWrZrbWq7c2t4A1imIioOTcxoABw7O9JxpAOwXwLRC70+Dfum0QvvRgVMGsAv//HsU7747RbheRHiEZDTRZeQ9nOL6dWHZ8uWIjr4onI+cd+rUaYiNpQhsQ9eu3cRS7W8Me3UkIiJ0iqB/f7c/AL8z+R3xG/P22bLmSGKR3rVrJ44fP2ZZyLOhZs2abp9tqhx47GjLCp2SDqxF6FLYsWOnsUL7vFADYAJ44FBERQ0XsY9iaLnyBPC+awhgN58TLrV581aUL1chyf2UTzgtN9J2lChuuZFiYpAzl7JCMzb78KEjuOmm/NY1rzxxgG4dXw6sxXhuGHXr1sXSpcutjCOgS9dO+Pjjj0SKSJ7M4E8HVhtHym4kz5zFiFWSAN5l+bKNH9i9guLjrnKCZnr4/nU9JnksdHIA042UHgCPTNsP7JcDi5DrtrBu3rRVOJv38ACYbiTtB1aLPmU/cA6rGIDdAvDNnoipK6S5Pw7s8UPbULcuQyKXuUXoLl1fkFDKwAGsUzuTyBpWUocF4L+p7yux3PiBFZ0MB/biwDp4oVHjxjh06GCaS75f3wHo1q2LO+HdbyCHHwBny5YduXLlgdOhuOUvv/xqWaGVKBwfz4wmej+daNasKTZupPvJhojwLBIWGZ8Qj8jILPjpx59QpEgROTIm5jKKFCkEFiwICwvDzp27cVM+cuC0Q0K9H5TGMGWMcmLf/v144IEHcPmyymKCREvZpNJGlcpV8eWXXyIiQrm0AgXw22+/Df7EJ8T5SfZX96M1nmmTixf/ZoVUGgAbDuyV0K85sLLAqp/01JuiNVhxSpVZk14Aq0isaVaMNHU8FSfN+zN5oUmTJmAIJl1CKkFBRVI91LI1vvhithVTDVSvXh07dzE6ScUSJyTES+0rFcatEwRoTUo/iI8cOYL8+fMJiBUtnJ6KHJav1pGoI8JUmZz/AmDt//VX+ICx3bJtJJLOKg5a08lwYMOB3RU5Bg4cimGvsiQLwWQRJh1rXh9LvZnJBI0aN0iWzKCzlbwDOTp0eB7vvfcemCmkFqauU+HCxg0b0JgAlsJ3KsZZJ8G3aPEw5s2dJ6V4+H216lUsK7RdCtY5XXQj6Qwl9Ry0TOuCdkzWUBxZ/Vb+3hDR+10uxe2oO998cwEV40wAs66XjWWBFJhtdptIDjxWJXwoQqXOgRlKyUAOF2rVqo3ly5dZ8dWaj6iMqpSGSgZRxiw9oqJexbjxY2WTM8kMaQqLN9IByXVgAjhqWFS6MpD8UUIDLL0AFg48bZo7uYCA0pV31q9fj8aNG4sVWoAtu4SaswB43jxZ/Py8arWKFoBDJHWPIHA4KX57SuPwM51hRSAkBbD3eXQ/2XDk8D+4+eb8agOR+4vQbD22p1Kl4s6eypqpA1iV1OE5zAdODuArX1/DooZhzJhR7oAXU5HjymmYQc9IDuBnnumA55577sqL3FnZMpp7dO7yvNSKSlqRQ+ULJwml9AHw9u3bcDFaZSpdunQJs2fPFkBSOv32269x+vRpAXFqAM6ZIzceeeQRVTbH5sSXX85BbOxlAW+2bNnQqlUbJV247Ji/YA4uXowW0T9f3vy4//77waQLftehQwcrMyoR2XPkQKVKldyW5r179+DEyRPk3ciRMwcqVqDvOj0c2APgChUqYOpUlgwKYAgHtsnzTZ/+PmbOnCnPazhwALTMuKckB/CVGnrcz25ly7j/LZk4Kn7XU1InZQCrND2AFSzXSCGA1JMZWrR4yC8H5v0qVawCcm9tpS1arAhOnjwu88mf/2YcPnzESrC3oUbNyti2bZvMs2zZ8ti6hdU5VNRU27ZtsfA7Vsx0SF6vd1G7Tp1ewIxPZsg869ahG8mTmJ8eDszztLQSWFE7LbJrqURJAQbAGReNAcxcvXxVkUMvhHQovH5lZ5+yMO6UODt69uyFsWNY1C49AE5POiE5cMv0A7hoUQVgGxSADx1xFx5IFcDtWktCPzmbb1XKpACuIzW5roQDXz0AJ62eaQAcAAwy6ims50SDSP78+b2qNP6Xp/EGvyf4gBUqRo4cAbjolnFKlY1NmzbKgn+hU0cruF9V0rjrrruxYcN6sTg/+eRTYvDheSqQg35gclYnknPgSti5c4dsEpUrV5Y6VBSLyeXKl6+IkydPiQhduFBhyUXWccv+Aays4J6KHHbUrlVXChFoS3P3Hi/iyy+/EkNZjRo18N133yE8TEV7pcaBhw17BVOnTf3Phez8vaWQkHAxBh479m+a9cH+y1sO1nMzoR/YiYRElV2jyrRcm0EjFAETGhLuBWCV0B8RGSYVMViFgz8EHovLcfDzyMgIqWaRXgDzPJYI0p0UyJH27T1gRWK5rHYndvfzphfA7A5ht9mQaFXrXLFiKapWZTKDSmKgnctuV4XrUwNwfEKMgEtXHbmaFFeFD1jZxHRmuJp0DeJredeMClB0voKnUznGDuHAmzdvVmdaZWi0SLl50xaUK6cjsRQX1+6lBg0bCHemm8eXA7M4HTmwvo5c2nINHTroCaXUBe+0uJsagJmP/P33C8VHrX2z2ki3csUqVKtW3adnUlpGLM5K0/xa0ftaXfcKXvR1OjQTcuD/N6WVns3Qw02bFQfWC1oDY+PGzanEQqctQvsD8OFDR71ioZM+c/oA7Nno9DxXrVxvpRMmB0zKHPj/Te/Mdb9MC+A///zd/aaLlyiBW29RtZcJttWrV0ly/H8ZRYsWR6lSpdzlXl9+uTv27WN8NZ2nmsuq39Omvi+tT5IOBfyePXti9549AnrqnXfeeadYXu02Oz76+EOcPHlSjmNBeeqrmgN7AzghIQ4rVq60as660Knz89i/n9lWdrnvhx9+aDmDXKB/ddWqFcKBc+XKJYEXSge2YdJbb0uFTDWS6v5duna2YqEdPskMAN1PR44c/i/klNBRboJmJKVAJgSwn2SGgCpy+FtKVp1klw09e/TF2LHjvcRN7+N9s4PSIwKyLvS/EvvM4Slqd4voyqqoHZMZVEfEw4f+cXPgU6fZG6mIu4SPf7dZ0jn5b62SclZTly5d8PEMJjMQwNV9Crv3Vb2RkriR0kMDnWvsksqdkk6YLCw0PbS7cWFvABxwQn8KAJaPdXMzAtjfAktPep/veQTwcQvAuioleyP5Ali1JvXmwKdOnUCx4kWtcjvKT518+AKYhd19m5tdTQD7zsAfnTzZVwbA/jchA+A0AOxdr1kHIXi6/FnCpBWu6PmcfuAeGD1qjBJ3LRFUg5n1mENDvXrlugu6KYuxiME2up8UYCRP2eWS3khcyLwPk/w3bdyE4sXZddCBuPhY5MuXTyzDIaGh0omB9aB57KlTp0ScV9Z3FXGlL8yoKl7fYdXSkthpiW4KQY0aNfHHH3+4uzaw2ocOzfTdmFhAgIXdyYGrVquGZUuXIkS6PbCkjj8OrMCpuzJIkXqfzFa2ltH9qm699VYJPvFtyaINdCwHfC29CsHKww2A0wDwyJEjpZi6BnKDBg3c9Z31SxV3UWgo/vrrL5Qoodp9fvHFF3IeoFwxP//8CypWZOgh8PXX86VihhsEllWai/GJJx7H669PkIVKPfSBBx50W69Z7O7996fJXAi6229vhr1794rYXKZsafz++2J3kgDdPadOnxCwsnnZpk3rZdNQ6bQKPCyhe+jQIQEcwy45WI2TsdC6UJ5yF6mAlb59+0j4oko5TMqNGR7JBmo2u+q0QB3dbnV78A9gtYlMnz4dTz75pLVpJeXC48aPA+mv2q+EIEf2HMmkBz0NFsr3m9EUrMi7SvPKpABOGonlvyoljTw2jBjxGgb0H+g2RtVvUE/cOipk0rPguOB37dyD4la/3lmzP0fHjh3hciUKGFevWYMqlVVBOLZWeexx9gfmZUJVf2DJ/mEoZUfpD6x68jrRoGEjbFivEvpbtGwh2UhctAS3zkbiPCpXqor169e6M3aKFitshVICN+cvgEOHD0vAg8V6rd8uHDx4EJWrVEFcHDtR2HD48FHp1uDBp0fc7tyZoZTUc/XwRLLNnv0FWj3SRrKXFFU85w0Y0A+T3qYOzKwnDXyV5kgD2lNPPe3lWmP+pArrHP/6GCmxS4lARbQlX/W8HsF9+fJld6howKGxVwlU/8/LGAADGDRocAplZRWABw4YaPlFgfoN6loA9ixSLiJyql07d6N48RLy/mbNniUAdkrklx1r1qyTJHgurgUL5uPRx/z1B7ahffsOeP/9D7w6MzSwKnIwlNInFrpqZezcpQw7lSpVwYYN69yF5IoWYyjlMZmLioUmgH0DVxSAK1WujPj4S3KsAnDBJKl7ekHSej1jhmpg5hkqNVED2B94BgywGnzbCGBvn7Ad0z/4EE8/nRKAx2LYsGFeEXOezCz3FuIGcIwB8P9z57h+91IB8G3atrZioZ2oW6cB6tSpa3EI4Is5s3Dq1EnhBI8/8SRat2pj5cMCXIz79u9OokuKHma344XnX3BXqNi3fx9+/OEH6flD0e718W/glltUM+4FC+YlAXDTpk2QI0d24elMt2O9KSY6ECcvvfwidu9mMTemEyYFMPXso0ePCoAKFy6M1q1bqcRDF4SzsUoHuV6u3LlFVPUH4BMnTqB7jx5ITIy1OOLH4j7yB0RvAOfJk0cK7olP22VH3779JVjF36BuvHDhQuGyly9H47ffFrklgT59+uGeu+8ROrFdas0aNakZy/fzF8zF7FmzkorrPrYubgi0MXw55ytLhM5cVulMyIHVCnfXMLa5wGqL/fr3lWgnhgaePnUGWbJGeIw90mxbdwe15DhpU6oWC3VQNhVr2vQOrGaLFAC9evbCuHFjVZ6vK2kyehIAI0xqP5cvX07O27R5A+rXryd6pNK7mdCvuJZ3OqHOOlJIcEkeMAFAfTE0NAwHDxwSIxY3Ac5BDGzSqyjpkO/FSObwyk/2v71qAPNb9npiXi/nqZumpbYpK6btwv4D+1GuXBl3AQFt4OMzqnamy7zqZqdtrZfeU8ygFBE7c4FX1l5mK2qnKk8q0GlJcPLkKejXr7foojaESa6sGHzAMEi1wGWRiFrnOU9zKRX3bEPjxk2sihxA9+7d8frrr3tV+LBS4VzAgq8VB1ZVJkKgitqp9qKbt2xE3bp1hJt4uiyohZwcwHpTcSImNgZ58rDjg4rxPnjwMPLflF/qaumCAB4Aa2DoBa+fyVfPTAogdjGkCK0BLNlIcoh//dQNaLe5wImDBw+hTJnbADs3DGWhp9uLLURr165jtR5V5YC8Q0D1BuBrexCDmbt3MF+UX+Ehtb0lQ3+X6QCc/G25MPmdtzBwoDJUcZw7dwHhYbp7X9rvl9k5BGOjRg2xdp3qMkgLNBtQOxKVfmwPUdk+FDnnz18geh+5JW+pyspWlPuvWbMGd9zRVDrdq4ocHsOPN4B1jLWeHZMg2PqTnFQAfEC5kXg+S+1wQ9LWZIczToDD1i6eOlO6lafqwiDlcnwYGo1YKokekqnknQ+sJAVVGkfryJqeqgG66nHEvOTSZdgyVfWForSg+h85JFGCvZI1V/ZqRmE9ptPdWlwMW6Cl+9olpKT95q//EQbAcCE+PhaJjkQpCkcXSZYs2cQPm96hRei4uBj3oidow8PDxALNWlRdu3WyEg9cOHfuvPQ0UrWovDszQObAKpAhIUqsvfPO5thsxVBrALPsFQH21FNPSfVMrfeuW7cWDiddODZUr17DaprtQr6b8onlW+vAzzz7BA4dOiz7SfHit4q+zEqWHIMHD8KKlcv8pFq6ZP7nz58XANetUz8JgMeMHY1ff/1Z9Sf2kXyHDBmKe+65WzYwSgYeANswZcq7ePzxJyVF8dKly3jssUc9hi7tr3a/CFXmh0R+6cXuaNeurVtfTu+7utGOMwCWN+pP1wpEn/Kvs/mW1PFmbb4A1gtM6b0uNGxUH+vXs72otxFLxTxU1VboVFelS4rU0d+rAVyzVlVs3cqKHDapyLFl82Z3F4W27oR+f+1ZVOE76ppJAexC126d8dFHH1ozSUq7D6fPwJNPPiH3oNVbRGjhwDZMn/4RnqYbCXacOXsahQoV8KrppStr6gfUFmy7+Mpffql7pvT9er9uA+BrviUrMdi7Jlb6AKw7M9CNpPoDJ6/IoRL60xr58xdI4kaqUbOK1bJUAXjrFqY5qlpTbduyIse3lkHIdxPzB2CVHsm2pKozg++w4cPpn/gAuLQFYLqRPsLTTz8l9z979gwKFrzZ8ot7Ak6SX9MAWNPEABiQTBlaRz3L1WMJoV+3ePFiVp1kYMuWzYiOVj5Tfq5CGVWgAfN92avId5DLzp03F6eszCENYPFqOp2YMOENFClSzOc0VZFy6NCh2L9/r8gItWrWRO8+fSyrNtC/X1/ppcRBFeDrr7+2jGw2PPhAC0REMJQRyJkrF96d8q67frUCsK6JVc6qiaUB3EZK6pDD58mTD82aNZMidmooulCnLlqkGFq2bOGupsS0qbEAACAASURBVLnkz6XYtm2rWNU8x6uzOnfuZjVss4l7rkdPck5ar224//4HxXdO+l24cF5cYU4XK2sCNWrUwi233CJRXSwq8M03X1vitXLLMcMrtXK0aW1sN8L3BsAA3n57kuh+CdLZT1ttuWjteO21UejZo6e4dDgaNWpsFY8Dhg8fjv79+8nCJoib3tEUa63idHpxULdkhYwlfy6RLB3v4SnzmrwuMq+nS+Co4u4q+op1mTVAtBWdHJ7pj7lz5xarM+d6iFbo/CwPy41Au7vU7/RU5OB5TGagoSo0ROnHnuHC3zu2o1GjBoi+dFGA+Mknn6N1q3YICdH1opOeQd3Y8zx8DrUZjB49BqNeGy1+YF0DWxu/3n33fTzz9DMICwtBfHwicubKLpFt9BO/Pv5NC8A3AgwDfwYDYACTJ0/CgIGMtkq0/JOaA9vx2sjX0KtXb7cLiQDesIG1rSAN0QYOGCALj5ZTVV1SWaH14ILmRrBq5WpUqcJILM9QAFTuEt+hgOfpv6u5n7L0+mYTOYUDZ8+eTTYgAkVV5GBvJAv44u9V510pgEOssjl6jjSu7dixHTVrVrfmbsfMmZ/hkYdbiQXcH1dUUor211r6tc2JsWNHIyqKRfXZ31jRwQ3gKVPx3HMd5bOYmFjkyUs3GcV4cmAC+GXDgTObH9jfXjf5nbfRp08fd2SWx5lox8gRr0kQv07CZzLDxo0awCMxoH9/t7+ySZPbkwGYFmou6pUrV6NqFU9zbM5DNeNWGTlpiYJJQc7jZalbj+NCbFwM8ubNI64ptlk5cOCgAJiuIhWEQveOkiLSA2B/VSndtLM58fff21G9elULdDbMmvU5HnmktapXYGVneXoHKxeT5sCe67gwatRIjBo1Cswm8t3Hpr43Fc8++6x8Tut83rx54XAqPfytiRPRqVNndzM3T9aXvzd8435mODA5cCoALl++AsqULotEB5tvOUWkvHhR6blly1REmTJlxPUUGxcr3R0IIu/BCKnw8AhJKAgLUzqpm5NJ7yMbBg4aJG6ltEbdOvXQv39f4UBsoP3Syy/j6NEj4lLiZrBo0a+Ii48XN9Kdd94l9yVoc2TPhenTP3D3OPqvACYX5IZx5sxpSJ8kGzBnzhypZML6d6VKlsK4cePc6X00bv38y89IiE+w/LjKH87BKpw1a9RKDm4Av/76K3766WdRG6geDBo4yEo/BH744Qf88efviI9zgGmHX8yebapSprWAbozvk4urk9+ZrDiw1bpSFpc7RzeVp7YKu6v+QXbs2sVkBp/SODbqbFRilSjtPRRXdaFJk4buwu7qeytqyzuKCja0aPGIlY2kuFXVqpWwc9ffPhNMHop0c/6CVjaSxYFrWYXdXbCs0NvczyuF3ReyqF3ywu6eG3nTUAWoqP7AVnvRqjUk+0rnHatkhklyunpm0le7kT7G00894zd8avz4cVLih1JFyVtZkYMWd3U/T3Mz3ZnhslvCuDHWafqeIhNy4LQATMKp9iRpjmsGYN5ZpdR5fqxQyrkLLMMUrN5IAbiRCGDxA2sA03qsnjZ9AE5OmdSK2l1bADPyLAymN1Kaq/XGOEBbOlmLWVfQ2LptK/7880/hwPzsl19/kqyZtEaF8lVQrlw50ctCQ0LRsWMHRGbJ4nWa8uXSeMQwwWxZmZDuxcesJIWhQ1/Bnr3eIjRnovKBF//+G86dOysnNWzYCK+NHK24mM2OWZ/PxOkz7JuU8qCuzCQHJtyrLoNA/wF9cPjQIdkemFXEsE5NiyVLlmDLli0y71tvLYXRo0epnOU0RmoAnjnzU/z4449yhejoaInYUq4iBnJoDsyIuHisW7dOqo9wbN2yFcuWMWHCgYIFC2LixInugJMv5nyOb775xtrg7Pj8s1mZMqwy03FguiHo0uCipj+TY9CgQRg8aJD4TbmQK1aqgH37WAky9RE17DX069fPaukJqRi5es2qJCcxBjksLBx//kE3Uo0k3+lQSlqqkxuiyRKdaNhQBXIQiNR1qdMylDFb1uzizkomsvtMme4ZXSZHA1hVuGCyhANHjh5ClSpV3E28mTfMGGrOSRmWXO6SOqlRIzUAK8uxMm4xEqtipYpISGDTcA+AeQw3Iz4Pk0M4pr43De3bP2vp/NoXrSQT9k9WxjmCncUB+HfaG01a7zSjfZ/pAOxwxItRJHt2lXrH8erQoQJigoRxy5WrVJTgibTGyJGj0ac3rdfKFdS0Ka3QSQFMCzQXGt1IVasm9QMz/pcGMAIp6fAETjRs2NAdiUVXtGqdYkPWrNmwfp0/AOukCXVF+oVZcpb3CZESN9wIlF+Zz3/k6EFUrVrVDWACLH/+mwT0yjJO/T15GqJnvopbpqYDc9PUFTVoHa9QsRyc0gZVA5ihlA6cOXsWRYsWtTZEG957dxqeeeZpidPWLiZlSXch0cG4dfU3NxqRWXzcXWm9vxvh+0wJYBqocubM5e7VM2TwULzyymArfZAAroz9+9PBgaNGYPDgwYiPTxCRt1nzO7Bq1UofDqy6LCg3EgGsmp155yS7gSJGHgU7yXN1kQM3xPr1G5Jck+DKkiVSanMxikmCPKy0Op2dow1k5OL0EfMcDWBv8BGw1atXR/Ql1d6UVm3VN0pJp6rAneJslABUxwZtZCPbUwe+9NJLUjSAXJ7+7mXLlrqt3vSv67pWrOHFPk6SfwxI+CVrYpHr0rrPwgSSYwxgyjvvoUOH9qkWqyMnVpuMp83LjQDM9D5DpgMwQ/gYcbVuHZuJKU63bu16sZqyWiQ/+/mnH3EpHTpwlAVg4pEg2rZtCy5LFQzPYKYTx9y583HsGHvrAnfc0RydOj1v9SwKwdChQ7CHxem4CTRrhueff156AxOELJTHnsHeQ20ANnz66Sc4ffqM6IVFixSXAgIabOwkeP7COZEqKBKzLnOIPakbi9eJi4vDxo3rYQ9RFvJq1aoJtyYdjh87jgEDBiEuXvWSYpXNW2+9xXL5WJzeMvbRDcbql5xa9uzsK1zBzRE/nfkJfv7pZ7lG0aJF8NBDDyEkVN2PInOhQoVkE+BGyHRKnRm1adNm/PnnEjiZdpniiqYUE45PP50J34CT9IIgIx+X6QDsL/No8juTrEAO75jflJeMfuEeAHtxpGSrQeWwsoIFOSbv377985g2daqb2yo3EiO4bGj/bEepPOmvgJvn0pYbqVpF7NypjF+VKrKoHZMeFLCS9gdOmszgf8EmfV4CePfuXahStSocTBEEsHLlKtSooaQI77kkvV7yLC5thSYdateujeXLlqaresb4131rYiWfOXVnY4XOyFvQf567Sujv06d3mtFQvrdKDmB/k/HNRmLlyRd8ANzAC8CqqF3q5WGUcalqNWYj7fIBsMoOIqdjHWkO32yk9JCMnDt9AE77av4B7K+4vPe1WJVytE9RO38AZqSbcSOl/RZumCOcomMtX77CnTi+afNGifrxF5OsH1tZOyEtQy5cUPpihw7P44nHH/cCm/bb2lCoUGGULn2bp8F3vbpWf2CgfYeOmDZ1muiT1DEZXSXVJWFD/fr10bhRY+u2Sbkiq0uyDakyjGkAq/M8HJinukSvPHdeidDZsmUD+xUrozuv6c8opcTy+vUbSCECHnf48EG8+NJLlrHPholvvoWyZctYZYY8FUZ43p49e/HPP/+IgTBrliyoVauWmy4ffDAN33zzrVjV2Yfq8ccfg9Phy/GV6F21WnWESCF8YPbszzB79iyhk+do9deB/ftF7TAcOC51Ye2Gwa31ILT4sv4SU+w0YAcNHCx6aGqV/Wl0IYhV3StVp1n3vE1MUG4PVX9Kjd69+mLEiBGiz3kafFsidIdnMW3aNDegyG1VXSeXgLzJ7bcjPp5uFs+ypUjLqpRffjlHEvMVgClCE8B2VKpYxcqS8lYDlB7977//olz5MoiLoz5OIxQV7KSirpq7DQf2HxSfq/I1u8BnC49Q1muK0mqear5qfuq8rt264eOPZ0iaIJuwsci8bv6tkkRcotcfPHgA5cqVhcun2gbdWszWot9Xu7uU8YvlgJInSDATjH7hyzEX5b2ZQI4bDakpPA8XGBcF/cAJiSrvdMjgVzBkyCC31dTfqWxdwkXWuDGzkWgV1kEaKvhDD70wCWAG6avKkk4puerWgS0AMzaY8coeyy6k5nSjxo3BNia+g8YfdnygsSb9AHbixImTKF3mNqv7gndRPs8d1DbOwu5HULBAIZkT/eV8ZlWjii42uqOUHzppYoIL3V7sghkzPpLnrVChElauXOkGIuO05XibC3v37kbVqlWQkJA00o1fM32RANaVQ+j+ogRBAPuOkSNHYPz41xEXf9kAOJNgV3ERR4IAOE/ePO6AARZ2HzJ4ULJkAx5Pjq2ya1i61YEGDRq6s5F06l7SXklKt+vRozfGjxtr5bhCzmN/YPK99h2eFatwWGiEAFHlGiuRlJtDw0aNxPKaZNiABx+8X2pbsWtD2gBWZ3PzOH36JG659VawzahyXylXkOKmqq4yfdKcA2tlsQSPXy4txelsAmTOWXFHFd3VpUsnfD5rplyH/m6VR6ys3hRz6SYKjwjFvn10I1VyA1jcW3KtRKnjtWzZcnc9Mu0f12mI6omU5BA1PApjx4yR4n+GA2ciBDOAgJyFvYr0YOOsChXK+Q0EYBFy+jcJVup3v//+O86cOSOnshhb2zZt3EEGnvhpm/QbZpilBB0kJmLVqlVSrpZc6PjxYyJi6nrK48ePd7cNvXjxgtwjuTjvRP6bbxIuFWL3FaG1DsyWL2qBd+3aVXR1Ln6GKH7/w0IBHufz5Zx5IhZTDz1x4jh69uyFWGmtwk3iQYSHRyo920uy4HcjR9KNRL+zC//8869EoXFj4z1vb9oURQqzckkismXPhiaNG1vNzYDPP5+JH3/8QSLfLl26KFlTiYlKPaD/uGnTphJcQh24cePb3QBmhZE5c76QjaZAgQKYMOF1tzRgAGxtZ5kvH9ifeyi568PiX/jwo+no1q2rO/3Ne68TK/SgwV71o3yzdIT/JNsePa1VGIAQis2bt1hgT2sn1ZlG2gpNHVglM1Rib6R1FO2VBODdG8l3DufORkt3Qw7VWqUi4hO8/NeWOO07m5Ur1okbiVx4+/bt0hTNZlMRVbNnz5HeSJ7h0cVTbG7mYiRWSq1VAJWN9Ipw55Ilb8OOv3e5k0yioqIwdiwlHHJg9kZiaxU+u28hvLRomrG/N35geX+pAfgDC8DJgejXD+zu2JDUmOS9THx7I6UfwPoqvgBWvZEkYstqDKZ6Ix1Pks2kz/YL4PikASj+aOIfwEr0Trk3UkrtRTkbXdTOX28kDeAhKp0wTQDHWr2RUnufGRus/maf6QCswxhZVlVboanzFS5cyE/whAsffpQ2gBPilXV2z55diJE2nXbky3uThAXqShSMVIqJoWUZWLz4NwwazEoerAsdii2bt7o5MKOudu3a6Tb6uF+aiyJmThFhqbPSyNS1a2ccPnJIOGKxYsXQqVMnVdIGNqnlFX0pWiznjAajcUjr6hrAnBtF6M5dusgxqQ/lRqIFmbov25B2797DnVXEBnDMluJcaO3etVv5pzkmTZooFTs4PK46lYTw6qvD0OLBlhJaSamg9G2l3aqM4sBDhE5FihTH3K/miyWbY9GiRZJBpvXkhd9+b/KBb7z9KfkTUWejTpo1GwukKa5KMfiVV17xo3emD8CJCVZNrNsbYY1kI9nQu3dfjBnN1D/qoAlocnsTd19hZclNsAxcodi8aQvKly8v3JKVLVm2h8H6SYcNjzzcGrNnf+7upqDjpqmfM4QzX768llGMvZFYUie/iP7Hjv+D0qVLiy7M4eHAyg+tDGlpZ/KoQnueGl68XkQke0jZpOQNAypoB2AhevqzNX1V8oSSGjxD/a1it1XmFfX7FcuXwymtVT0cWLmqwmRj0o3I2bamc+fOUj6IyQwsoJ+eZ7jR1ngm5MC0KgNZsmS1OJJNwDtkyBA/JVk0gLulrAMPHixlZcgR72h2O9asYTKDDT179saY0WOtBAAn6tdv6AZwWHiYdANUi5q9kdjcjABmaVr2RqoPF5TByTNsePihNhLYIG1RLEuytiozvzZ79uyyKRBIrErJmljkwMeOHxUAM+7ZG8AKvArAjCdOOpKrDNpSrRMTpF2L+zAX4uISEBZuw9atWwTAOttL+7g9HNhzbYKOIOYGwN5IzEfWfmDNgVmV0ulkhwvW1lLW+QmvT0CXrp0lU4quLvqmxZqvzQQ3GlJTeJ5MB2CWcuFiYY0laQMCYODAIRgyeLAsAN3bR/s5aYF+8cVuUvbU1xjk0YFdSEhwoPmdzbB6tQJw9+69xI3EPkQEN62rmzYxUV71DlJN1hKFg7AlSjn2RnLSjbRJStc6nKrErUrDU72FWrZohTlzWPspKbckEC9disbNBQqIm4x+UwZMKA5sw6mTp1CseDGrWZpL2qNERmaV++nNwLfcj3KfqVQ9nVygPlMuLHJVPrP+Tq8vm90pMdmUIrTITpcUo7vo11UuKw8Q3efZQlG9Gt1IOovJhXHjUwqlNIXd3XTLfFZoh/hzf/rpJxX77IIYSHTYIz8bFjUcZ8+cEhr9vWOHNNxS+atJhwZwQjzT9UKk3ebF6AtiSDp+/Ljy+9qYC2tHvXoNpLgcx8qVK/Dmm29KS1BOoU2b1sidO5+IiOXLV0SJEmwSrpIg+vXrK8EPnNett5TGvffdi8QEPRdtKLPh5pvzo0aNmm4dsXnz5ggPJ1clgE+jWPGibgCz8TgL7PF+jJNmLrSv+EnwsncwgyViY5Xuzl6+1LWFqx87Lu1NEhMVV/cAGFK8fcGCBW4AU51gAAyfgVFhL7/8kuXS8pzHXlR58+VDq0daqY3SBmzatEH84jrB3+to01rFIkbm48Cp9EHSHKd8hXI4cGCfD1yT18jyn8ygxMNZs2ehY8f2Ahpy8zVr1qFKZVVWlov70cfaWaVhPf1++F37Z5/DtGnvuatNkJOt36BCN325pC4ax28qVarkLjjvu9Ewzc8bwN7XKlNGt1ZJmlyQWjJDUjeSL110PLhnFqq1ypPuihyMCpPODEmh78cbkFJdMsOB3Rtm5uPAvsvbi3tYImP5CmVx4EDaFTlSzkZyYdbszywAq0LrVw5gitkuEUV1b6RkPmWplKG4sAfAyV1i5IjXDsAqDjwVqnr1RmJJnUMS1qnbi6ZxcgpfGwBnYgAro82xY8fciz9r1qzIkSOHGEPoIvEGcIkSt6BkyVLukEomnF++TFeRDT179EaPHj29KlRosrowb95ciVSiVZYc69tvF6JihYpywHffL5SuAjqUsXr1alIih6J2s2Z346knnxR9nDpj69ZtsHUrm4/xlimV3gHKlS0vheNUyRkPiKk/M7G/Z88eos96D96PCfXTP/jA3bXhzNlTiGFQhA3Yt38f7r77bneY5YL5X6vgDdhx9OhRvPLKUEtXB3bv2iU1rRjtRWMaq3zouPB+fftJoQIavSh6SzMza4psjyqtTuGU86gG+ASAeU1Zc3e70Ii1r6WHMgNXpLdUSv78wLaJjHBWphOhaYjhjxS1s1bKwIEDJO+UoOFnzNzRIvSoUaMl1FB955ASN7ozA5MKCMLkOhpASzONNQSvbn6mrbKhVjUKZf0Nxdo1a1FWwi5tIgY3adxEWaj5P+msYAEvhVK3vIc2wLGml4/xGgULFsC+ffvc1l29MLULib9ZeI+j3aOt8d1337mt7ir2WXFZJl6o/r921KxZE0uW/Om23DNa7bPPPkdCYpxU9aDfWVfI0H2XZQ8S4x2lEmWIGz16NEaNek2sy9Vr1BArdHoqa7Ady+sTJogoTiMhewvb/KZJZgQYBj7HTAhglaKWM2dOq00HMGjgQHEl0eijAKxFaBtGjRqDHt17IjRMhejRPaIATPApi6y2Znu/BpXFw8qPNgEpfaYaiDxPg5vfrV+3EeXKVRBL9+bNG1C3Xj03L0maKOGbx+vREXUROt/NhAAsVKgI9u7dk6y6pJ57aCg5l7p26zYPC4BVpUy1eeh56xJE0h+4bn38+suviKQfGEC3bi/i05mfIiE+FtWqV7eykRRIufHRBaWzmlR1TaVzjxs3HgyLZIAG0xCXLlmSRtNutZlxwx07dhzsIcqSfuH8RVNWNvB9ICOdqRYAg/l1l7+BAwdixIgoxMbGiTW2StVKYvlV3QlHC4BVkzJ2J2xkNTfTBd1Sf3ZyNi58HUShjlbAI+johlmzep34gclxaXkll/e3KWgjFrtA8Fy6mpIGR6iACe8ieTyOkWb795MDKy6rM6y4kanOh9yMVFZR23atpDOD9rcmfTpFO4KPAP7jjz8kgIKjS5cu0uCMASgUn8mBk3c1TE4rcmB2KKQfm7WzV6xYYcU0K07NOWoph64ovYkw15rnkQYmGykj4e8/z9UbwOpidevWRZ06dSz/ZgiaNWsqlRwJmLJlykpHeeW7hLiULlxQmTu+4PE3NVaXpC7LQBGKsb4A5oJ87LHHxC/N+zGUsEiRIsktzu62LxK6IZlCvXr3xD//HPHBWAhs9hDJoMqZI4dkP3Hh33PPPe48W/YtYgglJQpm+bCckG6f2rYdG3ynDmCex6T/xx57AglWMYOqVaoid548sNtcuHDxArZs2Sp+YjX8JZCob2rWqIms2bLKhhEZGYlFixa7ddm2bdqhfv26AmRKFgMHDnK3gFmzZi02btggIrsB8H8GRUa6gAYwqzwkdXmoToGhuHjhksWRroZRRImgUtRusy4P68/1omjYvj1rYk2XnN+Uh3dNLN/WKioB//AhthdlIIcGkOdZPA2+bVZvpC1ukLVtp3ojpcyB/Re0k2SGVm1EqtmyZRtq1mLWUmrgVe9h+vSP8PTTz0g45tmz51CwEFuiqvfy7pQPpNsFNzlugjlyZJOC7mrw4lRhTFG7lLfHjITLdM81LQCH4eKFaD+hhem+gc+Buqgdq1KqSh7Jh/7MZgH4A7icutKlv/umBmAm6hPAR70AnPQafrsTWjW/dG8k/wD2Pxd+6h/AeoP0txGqmEeVTkgA23H27FkLwKrW9LtTpqcAYE0b6ukGwJkewAUKFETBgoWUYcVlw/LlK/2WcUkJwtQpKUoyo0ZlO3kGrchsf9mwYX2JEebIly+/RDR5DFT6HMY7t8KQIcwxlvZH0tjaV1QXK67Nhjp1ayVrS6q4nh27d++R+3A65GAsBO/b4JsuJxrPlrMKhmUfY6F6lsNJnnyQEnhVTaxRo8biLnHrMBZac+CkAOZ3LLBXqlQpi052DBs2HPffd79sOr4AfuONt9Cx43PimmLh+kKFWepHpS8WKVIMBW4u6G6xws4Xuv9xoFttRjwv01mhNQdkeRctQg8e/Ir4NMkFFAAUF0vv0EXbmt7RFGvWrE5yGq3Mqn8vrd9K/OvQ4QVMeWeK1z0cIhFKKVnZTtnKXnFuhiDSteQ9tL6qrue7/3oaehPIXNQFxIi1330/zYHpymESA8HBsE4OpgkWKEAx1u42JqVMB+4yyq2kGmwrsT8lAPM7qhI0fslw0Uqvez4l58ChoapXFQfpqGhIvdqOCa+/gW7duoGx13QjKcOeMsRlpmEADBeGDh2GIUOGWsH9ajFqbqUB4mvdtVaggI0dHbjAmjRphLXrkgLYcx0VQMLjO3bohClT3nE3q5ZrEbtOSEYPjU60yhIQDRrUt4roqTt6+5WTL1QVQ6y5rtYTpT/woYPJODCBQOszy7jGJzAfmDWxDomBSnH51Gs3y9NIAQO1+UhxPjuwbetW1Kpd06uYgBKhufGwsLtYr+kHltYtgmT5/tw56sAFLCu9cg9xiMXdqhGmNjk7JkyYIEkmKlCGm43HFWYAfENTILkOPGjQEERFDXfXqPI8PgvZ6bQ+taAciZ7UO3IEqzuLLDBGG61ZmxTA/kip4p2npho5pDKQXGjA7oTrGQvtQkREOOLjeU8ubHIv35RDb26s9ETFgQvhwIH9bgDXqlUd2/7aKt+rTYU/ShTez7KyBSx1AnTj8HkVkBQ3VIXw+Nw0LEVEKtcUc6LVBgNs3cac5kZu0GkacPOpV68uFi36LblPGokCYLZZ0SoDXXfcGHUapNqQFIBZR+zll1+UUr4qowruWlo39PL1eTjDgeFCagBevmIJvvrqKyv53iaBB1mzZBcyrly5XIw3LHbHxdmgfn3YLX9xSouIC61E8RKS++rhzn54aTIAQ7gXQzclicFmQ/9+ffDPv0eTnKzakNrxzjvvIWeOnLKwIyOzoEWLB92uqR9//E6qdajkfH26AnCLBx8SsZqbx/HjJ6SQnPZh9+2rspGo8/M7gkj3+X3qyaelmDuDVE6fOSMVM5KWnlWclhFwd99Nl1ZSFYXF8NiDSUWBqfHNNwswd+7cJGV71Td2NGrYWMrX0n1Nzv/GhDdAkTuzDQPgNACsS+oorhOC48dOIHfuvLJOPv/8M3R8rqPyH9vs2LVrV5r9etUCS9s95Y8Dt2jxMObNnS+g4z1VaxVfN5IqOK/cSNRlU7IAey91VcRdFXvXnDvl1ir+spFmz5qDVq1aWxdNj13Ud17Jz/HfWkWpIaonsE2MWKa1Sqbatq5MhL4yAO9OJ4DTJrgbwF7phC1aPIJ5c+dZFmJYnRnS4wdO+34eY5gCFv+7e4//5mZpAzg990vrGH+9kXxVBOMHzsQcmKGUakEMHDQYw6OirJ4/KtJJ67afzPgELPxOXYsuoR07diB37jxyHlMGWUhOh/v9te0v3HLLrfIdxUxyQh2brPRIBQ5dYUO7alSFDl+DEWOsE9Ckye3SrYGzatGyBebNmyc+YsWBPWVlNRwkXNJmw6GDh1LwA3uCV6TnkFVYXt+fxd91+19aru+4oxlYsICDuivbhvJYNlVTSfrqzu9/MA0tHnxQKMrk/P8+XJj09iQR03V3RJV3pKzSbPkSvCDbpgAAIABJREFUGxcvpYkMB/7v1M5AV9Ac2DsWehCGDx/mjr2twgbfVkL/yBGjpPWoKtoWYgFKRVSFhSuA0tBCAw9tPAQ5R69evfDaa8yyUdZnVmzcskWV1OnQoSOmTJns7g/c5PbGWLeOrUE9Qwf801CmrkkAt0wTwExKkA3BvT35ezVqjlQJKpSvID15dUWOx59oJ3qoZAdVZ8bREndUmPZxq4wibnJ0UykE9+j5EmbMmCGbTuqdFdO/VKa88y46dOiQRA3QG8bw4VFSLSTRYUIp06OwpJ/qQX+kqsSYJWsWt9TIGNuoqFfd1s9y5VmRY788yYjhozBwYH/hNEwwYL2q9cIR6RZRnNCTpaMWNkf3l7tjwoTx7h7ADP5niR0OAvjdKVOsYmysl8X+wEmt18xm4lDXU9ekDkyjjuh+LorQ/nRgJT2knFOrXFFq3v9r7zrAq6jS9jtzWxpJCL1LUakBpdtdG4oFQUXsZVUUu66iCIhl7QUrtgXL6ooFREDU313FAghItYBK7zU9t0z5n/ebO2kEUkRMJmf2YWNyZ+ae857znu87XztOIMeiHxbFXTY2hpxztuQVU9IdfngvOSLFTVhwkh8cdxGNVQxecU4yBK4ZfjVef/11qcnlXI4/ujKX63uXp0o8NOHFV3HRRReJ9b3sxWykJ554Up2NVNcqctBnyyqH9eqlxRMWnLKyd999V3xi+iQzaO26NTJnxt37gBz/6UhSZiMdjUWLmU4o9Cozr4rDH2+5+RbJc3VcHCUPN2O882V48cXnRQIzW4kEnr/ALZuz9yl/5pk83OwdsUJzMenduxdWrCy7B66YNSQfNQdK0EMP7SR+ZtcqPOyCoZgxY4YQkWVev/rqy6IkCLdljhHNOfjMTUMcfu1VmDhxohS7c847clIoK7qIDZMYeK97bKrr831m/Au45pqrpCyvU4rXyUyScRk3Do8//gSisUKVzFARyF76nFFTnAhvv/02fPFT7zp17ITMzMyikwQ/nj4deSxOB6Bb1+7o1Klj/DMbn376KXZnZVVI4EMOPgS9evUsknbO6YQkvoaOnTqhX98+RRbffv37xgvQ7QtpG6mpKfFEAx3BQBB9+vYu8tEWP1nRwdnAPffcgc2bt0jbuJ8/88xBcTXZxulnnCYVLkksSnFKYCcuu/jiEsFwyFtvuUWS/HkNv/ZqTJz4L1mweC7UPaPvqVS21ozpMzBt2jQxD7Rq2Qr33DPKcSYzS6xPH7Rt207+m5JZzjiOS+ily5Zi+bLlisB1TQKXn0yw92D7fS9eFUs7hho6EpjJDFShy5DBZjH3ZejUsXOF6+T2HVuLDkFLSkzCkqXL0aZ169LPSWhj3M2yF3eVk43EQA5HnXYuMT/J8aIMvXTiqWmF7hYPAXXdNw6Z+vbtg6+//kbOdnIIfA0mTnxN3tOj+2GY9/338cAY991lu8fvtfHwI//EmDFjBJeePXth7py5e6jeFLrhcFQWsOJspHirxQgXUOcDVzh7PHNDeaSr2C9bue6X8+49CFz6TSTDkiXLq07gpCR5jkEhpWSj1M1yopX25m8un8BCZ6xfvzFOYK0cArukYQ51SQLbcQlMAgM9ehyOefPmSdH14sWhIgLzfGASeJ4icOUmm7MA1zUJzAgjpxZUCekTT6WrAm57v1WkH88hphsJkqHEfVv//keIFZpSh3tH7kHdpISFCxbj0EM7imSj+8m1ajsB/A4h+dmOndtEdeXfuG9cvGhZ3O/suJzkMHFwb8qjQfeejugSmNKXFUGculeO5N6wYRMaNmwg31lWArunNxA/RoV98QVDIum2siSs8ZVXXpHorszMw0oR2M0g4mfO3ps1vGj8KpbAxKpXr96YPfvr+H6c7XcSFZx/Jho2bFjOkTNOfa3srGwVibVfJnANfwmNL5wQbQ5qU+RfLD7X9482npLPITBLzIwdO1p8xG49KEddtTFl6ge45JJL4lUpbaSkpImll37OC4ZdgCeffELaSNKeNvA0LF1C9xNw3PHH4o033ohbgk34fUwRdN5JIxAraEJzak8tXbIcDRo0LLdDLoG5sHTu7LiRNPpu40kc7sJSlsBfz/5O6lbxoj98wIBT47HilsQr00BIy3RZCXzffePw/PPMvtKl4N2sWZ/EXU3FBGZdLi48PPLGKWqn4Yknn8QFw86XdzpGrGKLvNsxVuSglZrrnCwmdeyqcxKYBKb0TUpOLDrZzkkrrFyJnPLmh3v2j2NfcVTXm268CSxdQ6njBnU4W1IbH374vhDYqfnkSlhHhb300kvx8ksvxRMRgP6MxFq4QIh69qCz8c477xRpxo7l2CEwT0+oX7++EIpEKA6l3LPFJSUwCexYoR13kJOw4NSkZiG8Hod1Fx84r3lz5yMzk2cCOwRmCVgn2cNySMSKn6aF7t1Lq9B0w73w4guS/NCrZ0989dXseAG6YgLzWCPncjOPdLw04SVccsml8XRMU7KmtLgV2r2b7YzRFy8SfX9thWrPKlDnCFxePnAolCSTq3QFyMoPIlVdEoyuFzdj5+abbimqmugEezgEoVR9773Jkqhe1s3iBHlcjueee06imUpnIwFnnTUE/3nnHSGQEznlWJx5H481TU2tJ59JLPT6DWjYgLHQzsJQ8urV+3AxYnHh4aFnJLBbytWxPttS7ZHHnNL45tTBBuZ8N18kcHEoZWY5JyyU3QPbGD1mlBwlw4sJDzxe1afTel1ShXa2FtRY3IXwuWdfEJebm3TBz+ti0v6+ZqIiMGycffY5YCmZPbNnKkdiJxRSw1133Ynff+eJDjpcArOoHSfqs88+J+cC8WrRojmaN2fhuj2vli1bivuJBqCyBG7btgOGDB4sqjZL4LKwPN1AVSXwF198jt1Zu0QtTU5OwQkn/K2oZvRbb72JlSt/lWJxu3fvlOAMd2GrLoGXLV8q0pzvycjIwLHHHhv3LRcTOBTySZWNhx9+uKiwwa7dWVizejVMy0L99PoSEVeVQguVG73afZciMGyMvHO0lJWtfgig42I56uj+mD//+z0IXFTUTtxIDOS4QtTDfV1OpFTpfGBX4vIznibhWKEPqjKBy3elOa0pqoklxeNKW9WrR2DRO8p0tdh1VexG4vnAvTB37rwiA5xzvOhY2Wa0a9tO1Pa6qCYrCVwKgT2zkUbeOQb33Te26CiQqq/JzjsrT+Ar8dKESib0F2UjlfbDOgT+sZoELq+HTh/+HALvDdGSfmC6kXpi7pzvi9xIisAVz0QlgSmBR47GuHvHiSRzLJ2VM4ZIHrBe7K4pl8Dx830ZbeVWpbzsMhKYEnjvvlpKLRqPqG4uXOhUs/T5WYXDkMCQlJRkKTDfunVb2VczY6h+RgYs09lL8hAxul3KvTS+g1ZuTcrvOIkTjhVpX4XdXQnMtvz400+i6tNoxVzihARagg0YMVuSIObOnVMUF15+I/gcT2Z4RE5ZYJ+KAzmcvf1jjz0qtcp8fkZ3tZWsLOfIVEeqO/jvj8yniolSU+9QBGZC/8jRUlLHcfdoOOmkU7BhQ5mC6eWMIM+5lcJq8VTAKhGYluZ9BFu4KjTdM27Zm42bNqJbty5F1vOWLVvEy9/q6ND+EEye/G7cgqxJFY7iKKvSjT/jzAFSzZKkPeigdpg5Y0aVCOxYzw0YtKCLQ92Ww9NY4IBGKIZXNm/eXIrPl7+AFC+QOTk5UkrHMKISe+1EYjkEDodZp8vx23MxYziqG0rJ2PVhw4bJOcd1+VIELkFg98iRQzvybCQnG2nvl4b772OiAzOVnAm5Pwjs5Ao7ric3Xc/NHuKJim3btYl/5rp8KEH96J7J40y+luSIUkEq5XSge4/OUj2EEpjJDAsXLCyykp9z7tlF6YTFWVaOej13zgL06NE9LvnYRsfiTZJdfc1VePPNSSWKudMqX/Y0RbcxDExxMJPgE9EGTMl+Kklg/o0YEAta8tPrZxQdDM6idjdcP6KUFrO3BcvLBFcELkFg9+Q8J52wovOBNdx77wNyMJp7/XECu8YeWyQZgxvsEuGIW7duQZuDHKOV489279fRtWumnHJYmRS+vv0Ow/LlP4rU7dSxCxYtWlgk9Yaefw5mzpwpElEU1RKHm30/b6EQ2C1gUPKUweuvH4GJk14TsvFfRYufu00pLpEb24PAxe+wUFBQKGc8uT5pBrswWIY+7+IspcptfbxEaEXgcglMCeyeY7S34d7/BCZZeGYRXTduQj/9xQzQ4Gf0M0+ZMjU+YW38447bJKuIe2keo3LLLbcWFRTY1yTt1Plg5Ofni+ROSa4n5ya5e8nvvvtatg8szrdhw3qMHj26yF997fDrRTUm+Zo149lI5xepsLS+s6a0IwUrIhLLzzqLz+TJkyV9kVFcZffAbh+ortM2MXXq1LjNAcjOzpJC8Pwufn7bbbcXFSXwEkEr6osisFvUbuz9cdXViJ8P7OQD70uF3n8SuNjNsmTJEvTu05tFYxAKhbDoh2Xo0OFgxxNTxAsn2KH8hP6KyANk7c6Tkxqcq+z9brUOG7/+tkLSLItVYacRcrxon7745ptvy5H4e8vsKh9J+n3HjGU2klkOgfee7XXvuHvx8EM81ZAx5X6VjVQR073z+Z5uJCkrW9MJXGoA3LORumHFip+rODRaBQSO01qzyiGw8xmNTH379JM9954quyJwFQfkD92uJHANk8BLly5Gv35HSFYRQzQX/bAEHTp0iLPKseoyBJOqKsMaV6xYUeUJkJtTUHQwN41DVM+dA8yLL0rdVat+R9++/ZCXl1fmO3g+cD/M/uqrIgOeWKXjIaPck3Jv60ZNaZp7zu+ex9WwasmDD/5TzvllNhJzjN2ieHSZuW46J7uLoZROO53zgf9ZdMB3bk6uk5BRxy5F4BpGYBppsrOz4yl+Bq6//nr8IiQtzsQhsekPnTTxdTkGpapXWlr9eCaUhfXr12PIOecgHGa8c7HKSqKwUsmzzz4jlu247BUV2qmJ5UdaWmqRCn7vvfdi+ozpiEZi6NylM/791ltFe9Innngcb/37raIKnSXbO/LOkTjxxBOkQCBVYRZ+dwn8yisv4cUXJyAai0re88cfTytaFHJzc8WgxYWObWJIqRvPXVU8avP9dZTANoIh5sGKQoiRI0fhvnH3xdVBC44bqWIjFgve3XnnHUWTuDwrtFs3ywnkcGppXX7ZlZgwYYK4YSipmDPsKJ5OZpFjXXYOWut/RP94NpK7N3WMRMwHZiUPTmznficeu+wlVmQePyKfuVK2+EiVtWvXonuPHigs5KHlTkE8ya6yNPTs1Qdfz/5qj2AJSkMn8cAJGuF17bXD8fobk+S57t174Lvvvil67q677sAzzz4br1jpbuadtk6aOAnDhp0vWU38XpHaccv7I4887BQbhC3len/5uaS2YUvlTQtWHDX+VnE5odpM1vLaXvcIrDlnz1KCuRN+5J2j4qGUTiJ+5y5dKkFgYMzocbj77pH7DOSghKBvl2VlFy1aJN951d+H45lnxos7iKfYBwKsUO2QlpFNTnJE2WQGR+o55Vx9CPhDWLqMkVjxihw282WdZH5ZluLHnPL72ScmLrgpg8UTwZKIrcMOOxz5BSQw1VSH3FxYmBY4+6uvK2Xdvf6G6ySQIxKOST7wt9+SwI6P+M6Rt2P8+Kfj7Sp2fTF3euLESRgyZAh8fp4IqcUrYDqqthNKOcqJhW7XAb/8/KvX+PeH+6MIzMLuRQR2KkZMfm8ycnOzKwT3sB49xXLqSqHyJDCtpJQsU6ZMwfbt2+WdHQ/tjGOOOUZIRp/qh1PeA328JGaH9geLW8cJ4ihOZqBk7NKlK66+eriES1J682hNqXABDWnpGTh/6HkIBh3r8quvvYKCgnyRqDyTl/nHfl/pqCUSNScnG+++O9khvGbh5Zcn4JdffnaKHrRpgxEjbogHXTgVMva8KPVs1EupJ1KUFSSZxnjOOUMqILCjcZw/9AL06dNXVGG6y4YOPb8oMV8RuMIpWPdK6jjVN/Ymgaurgu0jmWEfR3S6IZLHHHMEvo9nMV126eV4+eWX45K2dDaSczbSlKLgCseNtFJGuWuX7qJqu1fLVs2xfftW+bVRoyay19VQkZHHxrnnDcHHH39U4qByV/XeG4GdKiQ85G3w4MHluqXKl8AlVWnniJSyfmBFYEXgPRGotQRmYffyzkYqh8CaBcZJFxO4aSUJzGykc/DxdBLYOU7FuVwS7yW2GTpKH25WEvbyVOiS/l3n3eUlMygCKwJXisB333UPRo26O54Y4D6y9yCC0hPb2W8y6WDAqSdhzpzvSuUDO8nwjrRxwwbd4Am6SagqH3PM0fG6VDouvvhiTJjwIrh95F74iCOOxMKFC+W+wWefAybcO4kOGnpQAq+kYUdH1y6Zcp9rCHMk8DZ5rknj5li16rd4ITne4lhuLdOpD1ZcZI7ZSJTA0yTriVsD7qm5T2fihVPStTQubuTV2//+D846a7C4dYiHuHxE4tsYedfteOaZZ0qEftqwqLLbNOL5xdjFbCqq0rNn0zXlaEIM8njwnw9ItZT27TuIEZBF+HiZdH/B3mNbUPGU99Ydag8MSNpdgwYMlHelTkmL7d4GnBPZlUg8iNqHdevWoLCQGTTFFTloGIrFLMmc+fkXBl0UP8esHU72lya8Albi4LVq1WqMuJ4FzJ1YZ4Y1Olk5QHp6Gpo2bSZhhyTI2rVrZHLvSWDAJTBLSCWEEtGqdeuiRACnDSSYjvbtD8bUqR9Al0JyxemEbHePHofJ2chFBe/K2WE41S9tjB8/Hp/Mmin/3blzFymc7+y5bezavQPMOiLZN23ahBNP/FtRW3i+0ZAh54oazvDOc849tyjy67Zbb8NJJ50oxi0Wtjtr0KCiGG0mkVx00YVS2K8uX3WOwI7f0EZiYmJRmh4ljWtQKlYZKwpJLPbLlizF47qAbr75Vjz0z4dkogYCfvSVkxlYkYPPOcH+JD2l8oL5i9CxYydpz5IlS9G/f38x6pRMJHBcPI60dM4oKq3e8gQJxiO7eb0tWzUToxmDKNxsJvfcJudJHT7d72QjLVxQZGl284H5fUyw/9//vkJITl+gpXxPFdp13Vx73dV48803JE6biRVz584tseemJZzBHTpWr1kjJ104KrqGSZNex9DzhgkuWVnZaNGipRTH4zXhxQm47LJL5D4GrzRs1FAWL17MFb7xxpsqsa/3Nr3rHIFpKSWpWJvJlbh7uk9dX+y+B7/skaCu68aRwDdLhJGjNtvo3/9IcSPxovXYIbBfSLpwgUNgXsuWLUOfPn0kxrfsVbadxacF+uS0+oULWL3SccG4Etghfnnxzk4xgS5dumHe3DlF2wcS+PPPP5cql3I20pdfVlBv2VGprxtxHd54Y5K4sugH/vbbb4vqbLn94Gfr1q2TQA/TJBF1vPbaRAw973zRZiilW7ZsVVSD67nnn8OVV1wh2gazkRo1blhCcj+CESOuVyp03SvsbiESjcqe103Hc1XEYsJYexzhsSeV6asNlNoSOntEklPHkUcchUGDBsWlpY2nn36mqKidS3xOTAZx3H7b7WjShMeZAOvXr8MzzzwbjzAq+a10FpUORbRB9dlRhxs3aorbbrsFvnht5HvHjUFeHn27ez7n7IH5iY6mzZrh1ltuLjqk7O2335TD2xgb0rpVa4kE23vVCybzO/tpWsfnzJkrEVWNGzfGLXxnUSqk0w+GWzKLiHtb9ptq83nnDRU/NA+cI4EfeughUZd5DR4yGEdQGxEbQ1SSHtxUxYEDB+K4445TEriuEdjbCpXqXV1DoM6p0HVtgFV/vY2AIrC3x1f1zuMIKAJ7fIBV97yNgCKwt8dX9c7jCCgCe3yAVfe8jYAisLfHV/XO4wgoAnt8gFX3vI2AIrC3x1f1zuMIKAJ7fIBV97yNgCKwt8dX9c7jCCgCe3yAVfe8jYAisLfHV/XO4wgoAnt8gFX3vI2AIrC3x1f1zuMIKAJ7fIBV97yNgCKwt8dX9c7jCCgCe3yAVfe8jYAisLfHV/XO4wgoAnt8gFX3vI2AIrC3x1f1zuMIKAJ7fIBV97yNgCKwt8dX9c7jCCgCe3yAVfe8jYAisLfHV/XO4wgoAnt8gFX3vI2AIrC3x1f1zuMIKAJ7fIBV97yNgCKwt8dX9c7jCCgCe3yAVfe8jYAisLfHV/XO4wgoAnt8gFX3vI2AIrC3x1f1zuMIKAJ7fIBV97yNgCKwt8dX9c7jCCgCe3yAVfe8jYAisLfHV/XO4wgoAnt8gFX3vI2AIrC3x1f1zuMIKAJ7fIBV97yNgCKwt8dX9c7jCCgCe3yAVfe8jYAisLfHV/XO4wgoAnt8gFX3vI2AIrC3x1f1zuMIKAJ7fIBV97yNgCKwt8dX9c7jCCgCe3yAVfe8jYAisLfHV/XO4wgoAnt8gFX3vI2AIrC3x1f1zuMIKAJ7fIBV97yNgCKwt8dX9c7jCCgCe3yAVfe8jYAisLfHV/XO4wgoAnt8gFX3vI2AIrC3x1f1zuMIKAJ7fIBV97yNgCKwt8dX9c7jCCgCe3yAVfe8jYAisLfHV/XO4wgoAnt8gFX3vI2AIrC3x1f1zuMIKAJ7fIBV97yNgCKwt8dX9c7jCCgCe3yAVfe8jYAisLfHV/XO4wgoAnt8gFX3vI2AIrC3x1f1zuMIKAJ7fIBV97yNgCKwt8dX9c7jCCgCe3yAVfe8jYAisLfHV/XO4wgoAnt8gFX3vI2AIrC3x1f1zuMIKAJ7fIBV97yNgCKwt8dX9c7jCCgCe3yAVfe8jYAisLfHV/XO4wgoAnt8gFX3vI2AIrC3x1f1zuMIKAJ7fIBV97yNgCKwt8dX9c7jCCgC1+IB1mFI6y3ogK0DGgAtBsAu1avSvwGaHeCN0GBDs/mpDUvz1WIk6m7TFYFr8djbsGCTtCRv/NK0snTdg89C3uLLuZ90VlftQ0ARuPaNWVGLLc2K/7ftCF9YKMtf+XsZTovM1Zwn+CT/KQLXzomgCFw7x01abSPmSGBNi/+kSmzuKXLjBNaEtIBu+8lgwLahy58smHawFiNRd5uuCFyLxp48pLx0pCaQFTOwM7cAOYURhC3uY3X4bXcv697tcFUIb1Fi2/DBhm5ZSAn5kZ6UgLR6iUjy6dCF6A7bHamsrpqOgCJwTR+hePssGppgCHWzwjZ+2VqAHzdFECva/1IKU6rq0LQoAAM2/CBldd1CwAQSNRP1QhZ0XwSa5kPM0BA2bOg+Hd3a1kf7tFQk6rmIaSHYdgKCisE1fnYoAtf4IXIbaMLQbKzJMvDtsvWIaCHE9ERYKGs91mBpVKMtR7W2dfjsQnRuHkTPNg2RalnQgwBt1ZatozBmYeu2LCxdmY205GT0O6wJkvUwfKBKrSzTNX16KAJTXbQtOPtDV+TYsCwbuk4C2OQBTNP93RnS+HZSfkYiUQQCAeg6rcH7W2zZ0gb+b112GF+uyEK2nQzNYpsdNbnkZVFGaxosK4aQHkOG38CRnZuiQWoMSaAkToCtm3E1XBeFms9sKYjghxWboNsajstsg2SN31h5AhNDBy/ZWsfxKR8LF1PLsuReUdltG4GAD6bJ91T+e2s6wf7s9ikCg+Q04PORfI47RghDA4+uIRaLIRwuRGJikkzKgoJCJCcnC3m4pbQsUyZdMBiURUDTil06+2PwTNOUtu2OmJi+aANyrCTE9AToXFhASVt8kQsWpS588FthZPhycHy3FmiZrAtpoflh04DFfa6o2+6iZcOwwthl2vh6/hq0atgQme0aIcFdpSrVEeLhLISusWxvixmxFd+zZQpZnUUwLGq93+9XBK4U3nFBEo24a2AVnvLErSQpJ04EW7Zswtat29CqVSs0atQI/oBjpd2yZQsuuOACDBkyBNdddw3G3Xs/FixYgImTJuKyyy7HtGkf4eWXX8H27dtxzz13C3n3JoVdqROXN3HJuS9p7UhXyzJETf5hzS7M3WpDo2Ygi4QPxW6k4realL7wIcXMxlGH1EP7xikIkSSWBp9mQdciMEWy+oriPXRbhx3TEAna2JobwzeLf0W/Hu3QOjkUl+8MFClfuXDICOTm5mDLls3Izy9Ey5bNBUd3QeTDjlQu1nD4zKxZn2Lx4sX4xz9uw8CBZ+DOO+/ACSccLwvjnr7qks+W99+emJRV7kQdlMBxK6ttIScnBxdccCEyu3dFz5498cUXXyA7OxuvvPIKgoEgxo4dh/bt2+Piiy+CT9dx8smn4KOPpiI7OwcDBw7E9/PnIy8vTyamSGXZV9oIBgMijXy+YouwYVCS8ncbRlzi65oTEbXnRelqSHSUDhM7YzqmL9gkqnNFF2Oz+K+RtQ2Dj2iPZJ+GQGWirGxHerNtsxatRr20NPRvl46QTet2CH7LBheHss0Nhwvw3XdzcP/9D+Dcc89FcnISpk+fgXbt2mHcuHFISAgiHI7IFkP25dBEs9F1P959dzLmzp2LJ554DJs2bURaWrpoMsSJC4PP5xcNiH9ztCT+nVJel5/UTvz+UEWQePrzOktgTozBgwfjuuuuxSkDThY1jvveZ599Flu3bMXVV18j5K5fvz5OP30gvp/3PZYtW4bevXth7NixOOmkk7F4yRL897//FSl+2mmnyd/79++Pd955RybbxRdfjOOPP04mEBeH9957H4XhfBxyyCG48cYbkJ7WYK8EBkzZy3KH+uuOCP67IgthLanCyWiK+m+hdysfeh+UjqBGhbpitV62DZoG04zix20RrNq4DQMOa4skOwZTS4DfAsySZoJ4S3JysnHppZfhqaeeQOvWbYR4BQUFuOmmm3HZZZfh8MMPw9ixY9C+fQd89913SExMFMwPP7xnnMBz8Oijj4kGw/tTU1MxatQ96Nq1C374YTEyMjLwj3/cjtatW6KwMILXX39dSM9F88gjj8SVV/69hGSvEB7P3VBnCfzrr79i0KBBWLBgvuxveXFFD4d9q3qrAAAgAElEQVTDojLPmDEDN910E0488US5jz5U/pw2bRo2bdqEk046CUuXLcebb76BwsIwhg8fjjPPPAM9ex6O0aNHY/HiJbjjjjvw6aefiHp+zTXD8eSTT+Kgtq3x6KOPyiR/8IGH9mr0sjVGVdG8ZGLJpjx8uyYGQ6s42MLmvtKO4fTDm+Cgek4UVmX25WIm06iiG9gSC+LzOcsw6JhuSDOpcofEuGWVQ+C33/43VqxYKdKWFxcPqsu//fYrHn74ETz55BOyqI0aNQrDhp2PTz6ZJTjMnPmJaDPz5n2Pxx9/XBZJvqNBgwwMGHAqnn76KcH+/fc/wOTJ7+HDD9/HlClT8dFHH+G5554VyXz77f/AsGEX4KSTTixjhPQcT/faoTpL4CVLluDyyy/HwoULxHjiTD4Ttq2JNP3ss08wYsQNOOGEEypNYE7CSZMmITW1nkjg664bIdLj7bffRkJCorzH79eh+zQh9KezPt8HgZ2oKqrQ36/Lw9yNpFjFklQzDfjtMM7p1xyNQ9wuMMmhoufoYybRLehWFDu1REz7cinOOCoTjbhnligtWqz3bO5TTz0lKjElrrsTpxSmXYB2gsmT/4OBA0/H7NlfCbmp5Rx55FH49NNZ+Pzz/8O3335XisAZGdR4zsCiRT+I2s3tCrcuvP+2227DiBEjkJKSLIaulStX4tVXX8OUKR/GVfOK+uk9YtdBAjuDyD0X1eCvvvpf3OBCFdrC2rXrcPPNt+DDDz8UNffEE0/CoEFnyWclJfDJ5UjgM844XZ6jJZUX33PllVeK1Ni1axf69esLv98HwzAQCAQxePCQcmcUiWLogJ8+WyuGRVvD+HptTHy6OhcZqrpaALpI6OJAZ4nSMsXDi7N7NEKbVB8sW6uYv0JfA1EtCL8Zxu5oAJ/PXY7Tju6Beohw1woT7NOe0VlfffUl3n33XTz33HNxdjvx2bNnz8Znn/0f7rzzH9JPktXno4pui2SdOnUKZs2ahblz55UrgVeu/EUWU9op/va3EzBr1ieySAwYcAqCQWffSyyTkpJw6qkDROrXRfdTnSUwpcSDDz4oZLrhhuuRnp4uUoNq78knnyyGK0pgR4Xek8BUoZeVUaHPOOMMITCNWHw/J9w111wtbqannnpSVOe0tHoysVetWo0bbrhhnwT20eJsxfB7jolZP+2GoSfAZzsphKbmh0ZylkodtGHwc9vGES119G7TAH5xj1V0UX2OwYIfuhHFT5sLsGrTLpzY+2AErajIfS4YzveVvqLRCK666mqccsopGDr0XCESLctUb//1r9dAiTpkyLliA3DtDNRqqD5TneZ+tqwKfeqpp2HFil9kQXAJ/MknMzF16lTZjlCroTR/+eVXkZnZDUcddZRoPJXZKlSERG37vE4T2DCieOqpp/HZZ58jJSVFJst1112HQYPOlNV8zJixYijhqs8JQ5XwjTdex5YtW3H++efLpPzggw9kD3zJJZfIP05aqn4k8OjRY3DppReLJfv551+UfTWNMrm5uXjmmfFo27bdXuYLLb+MiNDhs2LYben4aMEGZNv1JONIZxqh2LOLfdeyBQAjrCzodhRpxi6cc3RHpPmoGu87MEL8xzARsGMIG8Dny7cgNTkJPds2QiK9TRJIopcbHW2aMeTl5eP222+XRYlGKrrS7r//fnTp0kms9H//+9WYPHmyqNpUoc877zxMnPgvMQD+8MMiMf5xweQ76tdPx4UXXoRvvpktajuxOu+8oWJrSExMwC233IadO3dKm5o2bYrx458W8jr+5P0dRFPz6VxnCVxyaAoLC+PGF1smoDMPbBQWRkVN4z8auCitqR5zwuTn54vriC4SBlrQ1cEgD/7kPSQ8rdO8l3+jG4m/8x1JSYniItm7yue4kUwE4LctGLqGeWtysHhjAUw94OxXxf9aOvKLf2GMlc+KwjLCOKZTA2Q2S0Gwgugwh8CU3Ba2FGr4Ys6POKF3ZzQVP7Crou+bHHTzsH9O4Ilf3EeUoMSGJKYNwOUXDYVUfRnBRj83txN81o1mI47EyHE5Afn5BfGFwVmICgryZVGipsNn6/KlCMzJa1EtZQQRXTDuRKW0YKQQkwOcIAQ3aMENAXQmZPHf3YAFJ6rLDcPke2nhtmQh4DtIZv733iWjDZ8dQ0wLgmo0NAvbDQ2zFm1EthmUZAPJKioVg+NQjSGWtELnw48GvnwMzGyEZqmJpYhYipLxd5gwkB0Dps1bhQ7N0tG7dQMEfX4JuazMRaxcPNz7KW2JhbPn9yEajQm5eRFDYutEb5X8BidihJ85EXGOBkD8+S7i6EaV8G91cd9bEi1F4MrMzr/kntKhT6ZmY11uAWb/vBPZRhJ0qrSi2pK4ejxBH0J8CXKQmW+ivj+KY7s1RtPUIII2s5kC8QIeJLoGy+DiZWNHQRhzV25D1BfCCZmtkAoTeiXcVn8JNOpLixBQBK4lk4G73ogP2Lo7gnk/UxIzNYG74TiBhcQSYVwUy+1qDH4rgk5NA+jToTGSbRshnwlT96HA1pEbs7BucxZ++X0rmmSkoV9mS9QzY87i4K/b6mltmBqKwLVhlIrS7A2hbFZUx/JNhfhlc64k8nMv7NThoC7qJmQ47hzZElgx+BFGSLOQ5Pch2UfV1BC/dyRagFAwgO6HtEXL+olI8NGh5BfXka9MKZ5aAlWdaqYicK0ZbtKT8pbqsYYYNLFOZ+VHUJAfgcEIKIexpXatYuwSQ5gTiUwxzVJa3N0m+jU0SE1E/XqJSLD5RsfaTJeRGKAUgWv87FAErvFD5DbQ2e1SbWaIJV1FttTAYf4vDW2MlKK1zPETO8FXTuyjqfkgoZmUrRYrdUhRHVJUDGlOWqRTV4t2Xr9tSmIDS/Soq2YjoAhcs8dHtU4hsE8EFIHVBFEI1GIEFIFr8eCppisEFIHVHFAI1GIEFIFr8eCppisEFIHVHFAI1GIEFIFr8eCppisEFIHVHFAI1GIEFIFr8eCppisEFIHVHFAI1GIEFIFr8eCppisEFIHVHFAI1GIEFIFr8eCppisEFIHVHFAI1GIEFIFr8eCppisEFIHVHFAI1GIEFIFr8eCppisEFIHVHFAI1GIEFIFr8eCppisEFIHVHFAI1GIEFIFr8eCppisEFIHVHFAI1GIEFIFr8eCppisEFIHVHFAI1GIEFIFr8eCppisEqklg58hLXjweUl0KAYVA1RFwDyR3j67V4By9WpWr2gTmmbo+P09Gr9z5sVVplLpXIeB1BNxzj9lPHorO85Cdc1+rxqcqE5gSl//8Acgh1epSCCgE/hgCPLQ8FjXgl+Nc/2QCc7WIRqNIqReSU9NdNeCPdUE9rRCoawgUH+BumTYKCiIIhRKqDEK1JHBBQQHS6ycr8lYZbvWAQsBFoJjApmkjL7cASUnJVYanWgQuLCwUAqtLIaAQqC4CxQTmfjhrdy5SUupV+WWKwFWGTD2gENgfCCgC7w8U1TsUAn8hAiSxBUcCFygJ/BeOhPpqhUA1ECCBzTiBCxWBq4GgekQh8BcioAj8F4Kvvloh8EcRUAT+owiq5xUCfyECisB/IfjqqxUCfxQBReA/iqB6XiHwFyJQCwnMMEzbtiV42+fzSSC3xFb7/fLTzcwgqoFAYA9w+TwjwbZs2YJ27drJ525Ip2EYWLhwIXr16oVQKFTtgWE7+C6+d+nSpdKOzMzMar+vpj1IDIk/++dmk7G/P/30E3r27FnTmuvh9tRCAl988cUYOXIkOnbsKOS99957hchjxoyRgfr888/x/vvv44UXXkAwGHSyNEpcnHCrVq3C888/j4ceegjfffcdsrKyMGjQIOTm5uLMM8/Ef/7zHzRr1qzaA88FhhP63XffxaxZs3DfffcVLRbVfmkNepAYso+TJk2ScTjiiCOwdetW3HDDDXjvvfdqUEu93pRaSOBbb74FXbt1w6WXXgrbsnDawNNE+k77+GPYlo2HH34YLVu1xEUXXSSTbPny5cjJyUH/fv2xZs0aNGvaVCTH5q1b0LhRI/zrX/8SAp955lnIzOyGpUuXoVu3rigoKMTmzZuRXj8dP//8Mw4++GC0aNFC3smLUpzSunHjxmjdurW8u2vXrkUaQHZ2tkzobt264eyzz0abNm1kMeG7ONn79OmDpMREaJqONWvXoFHDRvh91e9C9ORkJ8zU1QxWr14t7+dnLVu2lAWLJKIkZBso4Q/r0QN+fwCaBvz0409o0/YgzJ8/H6mpqejRo4e8j/dv2LABKSkpohl06dwFLVo0lwwWGzYKCwqwaNEihBIS0L17d+h8maZJn3/55Rfs3LlTNIm01FTs3LkLY8eOlf716dtHfv7666/o0qWLtI2L6w8//IBIJCJSmRoN+0MpzT7wXl5sW3kLrdept3/6VwsJPHP6DHz88cd4/oUX8Nuvv+LFCROwcsUKTP3oI9CjPXToULzy2quoV68errvuOiFv27ZtsXb1GpGwDzzwABo2bIiHH3kEN914I+644w7EYjF06tQJ4+67D3379MGnn34qE3zsvWNxaMeOaNSoEX788UfccsstOProo4WEt912m0xyTlBOzN9++02kravKk3QXXnghmjdvjjPOOAMXXHABbrzxRjAOvEGDBkK8saPH4LjjjpN3cRKv37Aejz72GJrGFxkSgQvMZ599JgvIypUrMWDAAFxxxRVCgH/84x845JBDUJCXL+R67rnnpG+nnHIKehx+mLRr3bp1ssDcf//92L17Ny677DIcdNBBgs+c777D3XfdjVMGDMCG9etx/fXXy/u4+HBRI8Yk3n333yfPEgcS8IH7H0A0EsE999yD+vXry/vuGnU3zj//fMycORPbt2+XPnHxYL/Ybmo7lNYnnngi2rdvLxhwbEj0Z599VtqjrqoiUAsJzMlKiTZ9+nQ88sgj6Ny5M9auXYvevXvL6v/3v/8d7743WSb9lClTRFUmqXZs34ETTzgBb7zxhkyexx9/HI89/jjef+895Ofn4/IrrkC4sFD2v//3f/8nkpufz5g5QyTnt99+K6owyX355Zfj3HPPxcCBAwXxl19+WdR2fielISclyUMJfPzxx+Oss87CtGnTsGTJEowaNUqe4XcOHnS2PHP33XejzUEH4dprh4vEc/fxXASoSXzyyScywXft2iWkfeKJJ2TLwIWBhGAG6HuT38OMmTPx+qRJQvJHHntUsOG7hgwZItsCEobtnj17tvz9999+x5jRo/H666/j5JNPFpIRR14PPfywaCutWrXC8y++IP3jxYXjqSeexIsvvogHH3wQ/Y84QnDNzs3BeeedJ/iQvFwIrrzySiEw8eR3vPbaazjppJNw++23C3bEYNiwYfL73/72t6rOXnU/aiGBTcPEVX//u0gU7ocnTpyITZs2ySrOfSwl4Z13jRRSkIwkOwlomRYuu/RSIQAlCScrn+HEpHS56qqrRDoefvjh+O9//ysS+JVXXpHFgJN9xYoVQtz//e9/IuE4KTk5eVHtvPXWW2X/zcXCVbOvvfZaIQbbQG2AEooS3M2BPmPg6SLlnhk/XiZyz149ocX37FR3STQuUjNmOIsIL/6k1GdfuSjw+2DZ0l5KULaL+/iPZ0wX6cnF5JprrhGSUCKOGzdOFhxelmHKe958800cdthhouYnJDg5pZTC1A6aNmsKfyAg+LDdLpa8Z9y99+Koo44SPHZnZ8niwDYNHjxYbBP9+vUTLKjhnHrqqbIQnXDCCRg/frzgzIvvJUZ8Vl1VRaA2EjhmiBSlijdnzhy88847oj7SkELpcfXVV+PoY48RYm/btg133nmn7OViMQOnDhiAp556qkoE/s/kdx1p9fvvsmB88cUXohpTFee+j9dHH30ki4GrQpdH4KeffhppaWmydycJZFKfMgAfTpmCsWPGyOKQ2T2ziMD8fPHixbj55ptlYeBiwQXmq6++wjHHHCMTn1KYks6n6/j8s8/B7+D2gmSZPnNGkRWeBOYCw+/nvpULU0kCv//BB+jfrx+eeeYZHHroofIZtwlUxxctXow5c+fIu9kv4j5vzlyR/Pfdfz+OOfroUgSmCk2cuFhR82BfqUJz4eRiyUWBWLkE5niRwOecc05VZ6+6vzZKYEqfZcuWyYTnpKDk4sQ6/fTTsXHjRrEqU4rQCkw1jXs+Gl4mTJiA77//XvaUtDCTgCQz/8YJTXWXk5eLAAnD7+C9rlWVEph7T5J06tSpIrVoMKOkevLJJ0UqUsK4Epj7V0pEShxK4Ly8PPnJfTCNYSQEv4sqP7UFtpN7ahqohFxxQ9All1wiajjv/eabb/Dll1/irbfeEqlMtZQqOb+bkpqEpsGIKjTbyXcRm+HDh8tCQAnMfr/00kvyHZTOlJYffPCBLEx8H9VfqrYk/KuvvirPkJB33XWX7Oe5eBIntptqNI1itDtQenMsiIHs78eOFW8BFx7iRPWaJCXxSWBKfF7UUqg+83dqN3379sXcuXNlkXzssccwYsQIWXDVVR4CtVACUzJRveQkIKHS09OlZ5RWVJ85UThpOXm5Z+SkJHlIeE4MThBaYTlZKCFIdE52upao5pKMnPBUy0liTkpelOaTJ0+WiUuJzL0gSczJzAWCkp77WZfAlJb8nQYe7kXZJlquSQD6oDlB+SzfRbWT6j4JIipxnMB8JhwOCykWLFggKiknO63UxIB7f7aJqjKNZNzb831sF/eflH4kKW0BVHW5sJGorrQj8d9++22Rlq7B69///rdIapKW+26+g1KXLjFiQOnOdhA3toHvptGKkpTfy598L7UivpvY813EgRfdexwj9pUXpXKHDh1E2tNqTcnMRZVSme8j/u4YKxKXRaAWEpiT2v1Xsqwmu8a/lwzkcH8v2e2Sn/Pv7jvce91gkKJSnSWMSryHn3NicpKfdtpp8p0kIFV5TsaSzxVVC4w3oOy73YCUkm0v2Z6yw+U+77bbfX/JumKu+u66oEpi5X7m7qfd38vrM9/tSnDeXxbzsni7QR3uvW7bS+LhLkxuEIj7DrcdLh7u7+7nrlaiCOwBAv/Vg0gNgK4UqqtUa6kiUrWl0cbd1/3VbVTfX1cQqIUS+K8eGqqOlE5ucANVXO7fKCVc9fevbqP6/rqCgCJwXRlp1U9PIqAI7MlhVZ2qKwgoAteVkVb99CQCisCeHFbVqbqCgCJwXRlp1U/PIkC3KsvK5qmqlJ4dY9UxDyKgCrt7cFBVl+oOAiUON7OA7KwDfLRKWnpSUWmcugO66qlCYH8hUExgw7CQm5N/YFXolHoJUj1ChcntrwFV76lbCJQmME8nTE5OqTIEVT7cjN/AIPhIlGe5JKvopSpDrh5QCLgI2ODh3kwYYSGJUDDpzz/gm1/N4PnCcJ5krTBrR10KAYVA1RBwk1X4k4k1SUlJsK3SBRwr88ZqSWCHxE48MeOK1aUQUAhUEQHWG+T/uA31+6WsEnAACVykBMSrPFax+ep2hUCdR6BkGml1wai2BK7uF6rnFAIKAQeBkrnf1cVEEbi6yKnnFAI1AAFF4BowCKoJCoHqIqAIXF3k1HMKgRqAgCJwDRgE1QSFQHURUASuLnLqOYVADUBAEbgGDIJqgkKguggoAlcXOfWcQqAGIKAIXAMGQTVBIVBdBBSBq4ucek4hUAMQ0CJhwznxWl0KAYVArUNA27UzSxG41g2barBCwEFAs0seZKNQUQgoBGoVAorAtWq4VGMVAqURUARWM0IhUIsRUASuxYOnmq4QUARWc0AhUIsRUASuxYOnmq4QUARWc6AKCLgeR6eCU8VXVe+v+I3qDmXEUnOgEghYdhSWZsFECLA1+KT2WRYsLQgNidAtDTANGH5dzvbR4wXaogACGhC0ooAVg+X3QddC8XKpVS/aVomm1ulblASu08O/985HYMOGhaAdg26x8qgfpqbJP146TGh2FLoZA3QfDFOHL0CixqBpfkTtoNxrwUZyUbVjReD9Pd0Ugfc3oh55X0z6YSJgR2HaGmIIIGTkwI7sRsHmFQjvWAUtfweiuTthWBqCSekIJadBz2iDYLOD4U9tBssXhI8FU7UE6JoPmubzCDo1pxuKwDVnLGpWS2wTsC1qz7CNbBhZG7BryafYuuw7pBvbkRzdCT2ai4BuwLZ12HoQNnwwtQAK/akIHNQTqX3Phb/54fAFU6VvJPD+KKVas4D6a1ujCPzX4l+Dvj1ucCJjNZ5Za0GjGm3mYcPnE2D9OA31wluhxQoQ4Oe6H/AHYZm8T4Nt2fLTQhC6HYGGKHJDzRBu0B1NzrgDiY3bAnoQusa3sqh5yWvPv9QgYGp0UxSBa/TwHLjGWdy7woAVCwK6DcPKhrltBbZ9+hoSNy9AgrU7fm5ARRZofu4sBvx/SuX8hMZAv6vQsPcg+ILcEQfh0/Q4i51T6gGq1xW9+8DhUVu+SRG4tozUn9xO2zLBo3lswwefHUZkzWysnfkC0nKWIdXKgs/2I+pzrcmVbwzpGbX9MP3JCBx+LtKPvgJWYmP49UCJlygJXHlES9+pCFxd5Dz2HF1BJgVgOAxr2yKsnvoEMrJXIGRvg08DLDuxhMSsSudtaFYUhf50xGw/Eo64EsGjrkUS1W/LUqdbVgXKcu5VBP6DAHrlccs2YWsmtN1rsea9e5C87XskWFSBA7Cp7sKCD1HZF1ftsqHZMYT1RPhNEzkJzVD/pJuQmDlIXFN+f8DRtZX2XDVY43fXCgJzfBlSoMd3VWy7ZeswHCcFAjBBE4ouE61mXaYRge3TZRLrhg7bF4Km0TvqQ0znFDacLaCmi2/VpqXWjEDzJxzAWW0jakXhMwqx9YsXoP8wCSnmbtgIwUaiwy/NgG7FYOo+aSf3rJr8zsAOGz4rAlOnir0nF23Ngt+KiSuKVmqjXmvUv/R1oF4T6D4fDPgR0vgtB2b8RK13PNvw2VZRkIltazB1Z4nyyXzj7DowbarurK0VBBaDCN0a8aXaZjABJwwnOyePbSGqJSCo0Q5as65IzIBlabBsG5bfxm7dQgvaa20dMV2DnxPXMMXXGuUE0nQkaBZCfv8BIzBDNmJmIWIblmPD5JvRtHAVdDu0x9zVTRMxElgzZIpbdsCJ1tID8NsRGHoQPstCwObne78iSEC4z3A0O+FSGL4kmAgiCRagsc8H5opZUfg1iwZ3WTSpX1jUMDinbB902zn60/m/mnvVGgJbXCjjy7tGMmsmLI1Ax0S6RbRkBDVnzaw5l41caxf09T8jd/XviJo2Utt3QUKbngiZhkhgscgaedj985cIZ2+Fz4oiI/NkhDLaHUACA0ZkJ3b/3wvwLXwJCboJw06MS9oSaFLNhgULNEDZ2JR0KBJjuxD1JyLZzEL98HqYvnrQxKK894sLxmZ/K7S9cjzMRochYNsQ6tI1daAuoxCWHoCl+0R7c2zhMYg3mwsuAsLdGs7f2lFShwpn2IoihBiM7A1Y+/1naNC6E1I69EfMDiI54KhBmsTc1qzLjMWwY94EbFr5LZIy2qFh26ORfkgmoCfCDAThj0UR1hKwbd5/YGz+Ccb65Wg49FFktMw8YMobCWXsWomNE29Ek5w5EkFlail77HdN20bADCPiSwXsKOrfNBV2UiuYWhDmmq9Q8PZ10HxB+EVb2heDLUQtHaGBoxHqdRECGjdHAfEjH6grZtGXDfFra3mbsGvdCtRv0RVavQYwgkkSwMIW+Q/YKFSv5zVYAhdnsjCowLQKoGWtwsYv/w3zx8/gT0hA6rFXIrnn+YA/GT7bjIfqHbhJUDHkNqJmHnbOfRu7tm5Aev1khHfsFFU50KQzmnXrgbVzP4GvMA/B8A4kHHIcdsz/CC0G3oz0Nn3je7CKv+WP32Fh5/JPUDDtfjSMroCl+2EjIW68ct7O0TA0G4nRfIQDDWGZEaSOmg8dPhToSQhs+BbWq0NgBFMrJCL3/4hGUNBtMJoMGQf4qEAnVCC3/3gvS77BoAXFKkT+qjlY98nzqF+wFjmJbdDs5BFIOuQ4wPY72xu9Zod/1jgCc6JEEEXIYjg9M2ECgBmDGV6NbR+NgX/ND0i08mBZUeQktkTy0cOR1nMYDC0JCSEXbKpEjvHhr6WzhQJzG6yNWcjJ3Yy8FVNwcN/zYNfLwE/Tx6PlKddgzX/uRuZlz2Pz0s9hhC0YDdqjSatDkFL/oAPYehNbZv4TvkXvIDG2XYxRjJgqvQm2Ydj5MLVU6IaJbYktcPDNb8AKNkaOlorAipnIeucOJPvC8qxpRhES8Lm39ZUaCI4xNafCxIZoMWIyLF8GtGAy9AM0WPz+bMtCgpWPrA/uQdJP78EOasjmfvzgs9Hy7NthahlIsH04YI2q5vpU4wgsq71Bw4KNQk2DjnyEslZg9bv/RPLupQgYTG0DDJ8JWFFYgTToPYYi4+groac0isNAlawmENhGoVWAYESD7Qtj5WdPo1OfoYgm+fD7tIloeewZ+Hn6JPQcOhJbf/0SMBOQ1u1E6IEUJAapwh6oy8CW925CcMUsBIwCxPQk+DQiWFoVNrVCFFrJSD3+GphtjkRikzaIhhohhAjM3F0wdv0O/48fIuf7WQgEdPgMRncxnroMgW0gqodQqCWg6bXvIpB2EOBLPFCdFX3CLswTw+jajx9B0m+TEbKzYZoa8jtfhqZDRsHQ05FUC9xbNZLAlmnIis2S84Ubl2L9ZxPQYMtMJCIXQH3KZcQiuRKLS3Vsu78p/D0vRKsTroKt0bfIv//1BOb451sRJFkWTKMQ27+ZgOwd+Yj4C5CclomWPfpi3f+9Ke4vQ9+OhoechoyuJyCiJSDRxx3YAbrsKDa+cQmS18+FzzTFIOhHDD6xNruXDcsuRCTQCNH0g9H4tBuR2/JYJNNFBAMRywd71X+RN/NhhPI2Q9dM6HsjMN04WgAxXwhJw15GWssesP3JB6y/3PPn2xFYlg/aqvnY/vFTqJe/BjnpTdHwlFsQ6nCs7H992oG1jFdntGskgalCM6neybsAAApJSURBVA/VilnYtfoXGOvnQps/HiFrF6JaA8SsEJLtfCCQCMM0kB9IQ+C46xFofTwaNGwM3Rdw1LYDqITuDXzbCsOyLexEIpJ2/YaIlYcEYzuQmA5fUmtEC7KAQEOYvi0IBA5FUNcR0LmfD1ZnPKv3jB3F+okXIXnTfAm2oK+W3tmyFljbjonbJxjLQ05GN9Qf+iQSM9pIQn/huoXY9sFYpEU3y+Kr0cdqGuVLYC7AzCHWfAic8wIy2vWD5a93QM1FtunY02Hkwy5cjaw1C5HaJBNak0OhIVn8wASAuc01+aqRBKbk9ZsRRMRw4ocvZw2yXjwfIWs38tK7AB2ORsjKQsGSz9HQ2IBtoZZocPMnSKYLw7ag+/w1hsAR00AQBTBME5unPoJdu39GIJyAwpYt0aXvFZg7fSI6du+KnMhqdOg9AlooFYY/AFLogElgK4YNb16J5I1z4I/lg3526i/UZkpe9FEHzQIYekiktBlMQ8ZF42HlbsbWjx5BWnQTLAZ2WEz2t6UQAMNt5D0lVgP6DAxNh6nrSLpwIpKbZ8LmVuhP6jG9GOLSFZ+vg2oBIkhifnM4F7s3rkF+9makpjdEcvO2CPgyEAmmwfYFwHCamnzVSAK72Sk8NMJGDGbWb9jy4gVIMXOR2/40tBr6KOzYdmx/4mwkWJuxGx3QeuR06IF6NUDmllQ6gXwjgkTTRsSfj03TXkP7k4fANoNYPOsBdD3pJmxZtR3h7EVAIAStzdFo27gJTC0NodABlMAwsOXjW+FfNgUpkTzEtBTH+irRUSX6Y9N3HUKUfmCSARoi9drCbxTAX7ALIarYuomQHkNIigDQT18ITTY9xcsRCezXgtgRCKDVFR/BaNgCAST+abnCUQnTYGURDRGbQSf5iC6fhp3zpyFxxzLosUIYGn3CUUBPh5XRHglHno96HU9GwO/kMtfUq8YTmCVaYtm/Y/0LF6K+sRsF7Qei2bCnoce2YNMT5yLJ3Iid2iFod+eHNY7AnOLRSB4KfvkfCncsR3aOjbS0ICJaGnbv+A0dT7wGa5f/Ar/1CywtGY0aH4ycxTOQcdwVqNe0ywFcjExs+WY8tK9fRr3wLhh6QrlRSJYVw46EVkjtMQCaLwS/bSCqMz3QsTjQYGXE8pG/bCbqF/7m+OU1uvjKRmbZMC0gq0kXtL5oImIpjREAQ0n/nMuSdYhhGjFJoNB2rMHWf12JRKtQwkOp7kvklaXD1MIoDPixKbUTug17FIkNDvlzGrWf3lrDCWxB00xECzbhpzdGIS22C/ZBx6PpKTcjaGzF76+PRsDejhyrNbpe9RD8Ia6WB0zxrNQQFEZN7F76PgpW/A9Jhx4BK283zGAqAhkHI71tbwRiBcjatBS6n5M6jE0zX0K7QeOQ2irzAHbFRPbq2ciZPBJphZth+XVnYpdSoW1YRiE2JR2MdufdBTuY4VipWROLgRiiJvtg5W/Cuo8eR5PICsAOAnQ7MVquZBKEbaFA02AcfhmannwrYv40BMXq/edQWOrxwUJEi8Bm2OqWX7H1g3uZ9iyRZSEzHwGzALEQAzhsRrYiN/FgtDvzNiQ3P7RS4/xX3VQrCGxbBbBydwNGDgoDDWClNEGinQM9awcMjX7HxtBT0+Hz1bQdiw07nIeNP03Htq+mAPU0pB56Ftr1Oc+RB/4c+Cy/TO41n76M/BXLEbDz0HzoXcho1fcABtLTSp6N7S9dgoTtP8EKMPkgDA2l1XibKnSwHgrtkBODbhpgECTtDr54EkBEY0hGPhKMsJPowCQOCb0sXlipmW/3+ZAx+FkkH3ocNCsJPj+ldMkc4f1HiZhoCFFoVKFNHUEUwoyxf2yVIW2kgU4WIjsJiMRgh1LkXyigjFjVGAnXAefUdOAqads06piISrwOExj4X36JDtJMH3Tdhl4Do2Ysw0IksgtG1jbYdg586QcjMTkJsKim0rxiSyJDZMdvsM0wdD2AUP3W8IeKazlWA8AqPUJ8C6KFsOa9gZwvnkKyYFkoCRe8RIBpTlgHkzLE7CyXFi8zy8+csQJdT5YBneGVEpPFJAeW6KknpWa5M45qIWzPaI9Wl/wL/pRm8NOdI06DP0cCG7CkfZS4psRP2tCZyED0xc6i0x4tec+MwGL7JbVS89f4Qnw1VAJXaf7ViptLnuJatrBbeSe8Hsjib5zCYTOMwM5fsf6tkcjIWwFdY13KYqlZ3ZgGMUOSnFYSEs2d8sqsQGuknHwtgj3OR1APObYy/QD6vWvFjKlcIxWBK4eT5++KGnkIWGFEfvwa2z4dhbRoBNANkVoia8UFU3UYaKk2aGGGgaC9BWFfBnKbnIhWw+6FFcpAwEe5HYSt0YylrqoioAhcVcQ8er8t1ljAzM/B2k8fQui3L5EU2ymk8tFCy3xmiUyqOgAmfLBtPww9iuz6XXHQ2fdBb5YJXbPFKuwETBzYbKSq96JmPqEIXDPH5YC2SnavLA9rawjrJvx5m7Fj2l3wrZoDv2UhRILZNkwfd4pllWnnd6eobHwfXMLmTNeShnxE0BT5ic1Q/5TrEOh4OhKYh6trCEOXsM2AbIJrdubPAR2USn6ZInAlgaoTt8XVZCFr7kr8PvNFpP3+HepFt8EKABE7X2hKO65Yli3+FhUVmYnxfkQkcIPRTgzHlDpaVgxh28TOtN5oMeBmJHfoB0tPQECnhdt1Ljn0V1fVEVAErjpmdeKJKAu152/Brq8nILJoBlKjeSgMsdaGgaBRgJAVht8yEfUlOBU6LKnyBVsnGU2x7rJ0TjQhA9kZvXDIadcADTJhM1mebie/krb7YyIpAu8PFD34jhgLJFCpDUcQXf0Nti2YjNTVn8HHhAYetyIHl2mwdRqonLRZm1FOZgy6bSLiT0ZW2qFI73kGGmSeAiQ0hqUnOmmKGhMF/hyfrweHYp9dUgSuayNeyf7K0UiahZieD92IQg/bKFy/ADmrF8PcuhzY8TOC0RzxFdO3S182gqmIJLeC3uAgJLfqjPQux8JKaQHbz8AP+lSpKDsZSlqNTxOoJFB/8W2KwNUYANdveyB9tdVo5h96xIQpNLNs54hQ2GGEWLaXKYJmHmwrioIdm1GwYx1YOje9QSMkpLcAEhtKiaMogtB8fomDlpMJ4wYqcUVJumEJH3M8MMTLeP6hwdjHw4rAVUSW5I3FYtB1/U/Lnqlik/7i20tmLFXfECURUbYNn49RdcojXNlBVQSuLFLx+wzDwPr16/Hyyy8jLy9P/lpeJFUVX1trby9PalYVj8TERAwfPhytW7cWHAIBtT+u7IRQBK4sUiUIfMwxx2D+/PkwzQrKp1bx3XXxdncB6NWrF77++mshr1KlKz8TFIErj5XcycihIUOGYPr06YrAVcSuvNupLvPfgAED8P7778thZ0qFrjywisCVx6roztzcXCxdulT2wur6YwhQ3abU7d69O1JSUuRlSgJXHlNF4Mpjpe5UCNQ4BBSBa9yQqAYpBCqPgCJw5bFSdyoEahwCisA1bkhUgxQClUfg/wG+MMY1siCqwQAAAABJRU5ErkJggg==;" parent="1" vertex="1">
          <mxGeometry x="100" y="40" width="184.61" height="400" as="geometry" />
        </mxCell>
        <mxCell id="usa-l6imX2tJEKurcfGp-3" value="" style="shape=image;verticalLabelPosition=bottom;labelBackgroundColor=default;verticalAlign=top;aspect=fixed;imageAspect=0;image=data:image/png,iVBORw0KGgoAAAANSUhEUgAAASUAAAIICAYAAAAovfgCAAAAAXNSR0IArs4c6QAAIABJREFUeF7sXQeYVtW1XX+Zoc/Qwa5J1Dw1NmKPYu+A2Cgi9l4jAiqCiIoClij2LsausZcYe4lG0ahpJjE2VIrAzNBn/va+vdfe597BoVmY0bnzvjxh+P9b9jlnnbXXLidVKpVKaOQfeYRUKtXIT5HcPrFAYoHvZgGHku+2llNNAZTihlgegFqez3w34ybfTizQXC0gwOKgEgeZ+oAjVCaFEuozGvtu/BJLMeOSiEiTAyV5hyWBTrFYhPwvk8kos5LPyd/lz+l0urnOoh/NeyebyY9mqJb5oA2PZQkopSJMW8pVljYXlghKvtgdzRb/++L3i99E/hz3Ch0w/Br+b3Eg8e80BC4OPjU1Nfjkk08wb9481NbWom3btujSpQvWWmstZLNZBafEDVzmfKr3gUKhUO/vDQG8298/GB/P+Jfl93H7y3j7WMevu6SxlmeRDSf5aboWUG5UAmbNmoV/f/gv1OYKKBULxCKjTcvafMrKyrDeeuuhW7duDa7XBkFp0aJFePvtt7HVVltBLiAT6tVXX8Xaa6+N1VdfXf/uACPmWxwIqqqqcP/990P+u88++2CjjTZSEPnrX/+KX//613j33XfRtWtXrLPOOsH6AjiTJ0/GjjvuqKzHr+kT+Pbbb8ddd92F//73v5Dny+fzaNGiBdq3b48tttgCp5xyil67oedpukPc+E/2yCOPYPbs2cHma665JnbaaSd9MAeUDz74AO+9957+Xewudpbxe+6553QeyO8FTOT3G2ywgf5d/vf4449j5syZOofWX399bL755vrnf/zjH/j888+xxx57hI1k7ty5ePbZZ7HzzjujQ4cOjW+Y5AlQ1HEsIJPOolSiR6K4UwJeefkVrL32WujU+n8ola8NZLvq75fnR8b63//+N7bbbruAL/HvNQhK06dPx2abbYZ77rkHO+ywg35+r732wuGHH44DDzxQJ3BdXZ1ecHEAkUnbt29fBTCZ4H/84x/xu9/9Dp07d1bguPnmmzF06FC0atUKV111FWR3lGvcfffduPLKK/HKK6/odWWSy4SXZzn++OPxxBNPoKKiQhFWnql169b46quv8OKLL+LLL7/Uv19++eUYPHhwAkzLMzPsM4ceeig++ugjnXBia7Hvk08+ib/85S/41a9+hZYtW+Kkk07C008/jTXWWEM3lxNOOAGbbLIJhg0bpvNAxumNN97ABRdcgHPPPVf/nsvllMHK2Mo8EIZ71FFH4bzzzsP48eNxxRVX4G9/+xtWWWUVvfdtt92m4/z666/rJrOs3XYFXjH56LewwL9r/oMHP3sIs2tnY/OOm6PPWr3RJtMaEo8SPemll1/BNhtMQ+7ji1HWaXeU/+wCICUSytKZrm9YMr8EY2R+Le4dNQhKX3/9NQYMGKCAcd111+kuJ2A0cOBA9OnTR1nQv/71LwUC+Z1MOtd4/vOf/+CII47AY489pkAk7KhNmzYKKMOHD1cgkokrD/Xoo48qhZOJLdeXyfzwww+rK+agJItBJvP222+Pk08+WZmRTOb58+frhP75z3+uDOvSSy9VIJRrJm7c8s9CZzoyWQ444AD07t0bhxxyCA4++GBMmDBBgeW4445D//798ctf/lJZjIylj7d8TzYS2bRkHIQpyb/J5iRMWABNNiGZB8cee6zOizvvvBPjxo3T8bzwwguxcOFC7LLLLsqeZPORyZr8NI4FZDwXFWtx0ftjMXXBV8ggDXHw915jb+y/Zp/wUC++/Cq2W/dD5Kf+HtmKTVH+iwlIpbJAatmgJHNO1v///d//6ZhvvPHG9bytBkFpxowZGD16NPbcc09cf/31CkKDBg3SySpAJa7UDTfcgJdeegnPP/+8/llcKZ+MMvk+++wzBTABGwEPuabsrBMnTsSYMWMUiAQlZeI/+OCDEDdCwEvYkjMlsYDsuOI+yDUEeCZNmqSAJC9WXl6uQCTfWXfddRXM5HPJz/JbwHcu2QwuvvhiBfXu3burbidsVlxlYVMyDh9//LH+Thi0bFQ6gRctwtFHH61u/SWXXBIml4CSbFZnnHGGgpIwoBNPPBFPPfUUbr31VnXhZWLKf4VlyXyTTUzmg7h5yU/jWeCL+V/gvPfORzZFt61YKmKtdmtj5MYj6NajiJdefg3brvsf5KfejkxFD7T8xXggVWZsacnP7vqkjL1scuLpCE548Eq+uURQOuecc5Riy04mX37mmWd0JxVqL7ui/FlAQP4r7tlqq62mF5abCsUXwBKNQFiNgJDsmg5K559/PnbddVfIPWRn/O1vf6s76n333af3jIOSa1cvvPCCumadOnXCbrvtphNYtAkBRXEr/vSnP6Fdu3ZJFG4F57LYVzSlnj17KiM9/fTTFVimTZuGjh076iYkG5MAjOg9AjCiBwg7kh+ZXOKWy3gLcxYqLnNAQGzDDTfUv8vGIZuUuH3yPwEeAa233npL55JMTNkAZS4IOCVMaQUH8Xv8uMhCc/Nzcd47YzA/VyOCMQqlIrbrtj2OXHdw0BlffPkVbKegdCeyFZuhhYBSOrtc7pszJcGVv//97+oFKRhZruISQWnkyJHKTESsHjFihGoCQ4YMgYDDz372M5x66qn6gKIf3XTTTRoFkwkoE/bDDz/EfvvtpzcSFiXMRtw8ByWZePvvv78KpfJvcg/RI+T34t7FQUmR2XbkN998U+8tu+unn36KbbfdVgFQAFF+n0TeVnx2ygQRPUfs/vLLL6trJjYVN04YqLhvv//97xU0BJgEUGS8xX2XTemwww5TF1rmS/xHQEnY67777qtjL5uJgJMwanHdBOxkYxL2JIxXGJq4/bIJJqC04uP4/X6jiJen/xlPf/E0aurmYP3K9dBvnX5YpVVX5UmiKb348mvY7pefoe6z36Gsww4o//lYpFYAlGRDEl1SiIx4TPGfJQrdsiNec801StdlF5QomrhxIoSKS3bkkUcqSxGUE7DxHVL0KImqiCYhE/qWW25RwHEgE6H7rLPOQr9+/TQqJ2KqLAr5r/xeJnwclFzwdDdDooK/+c1vdKeVSS87trAmWSDJz4pZQABJop4CQDLeAiD+Iy6VTBoBDNECJRAhG5BoQuLmCRgJwznmmGPU9RZ9wMP5HqVzPUo2Nd8JZZ4I8AjwCYOWsRRwEjdPNrLLLrssuG/JJrNi4/l9fdrXXL6UQ10hj1aZVhS4yRD0Dy+8+AJ69NgMFXgOaNUDKIsi6fzkkrO6xeWX+SXRN5d9lglK8qV33nkHW265pU40mUgPPfSQRkXEVZJd8rXXXlPtYe+9967nD8rFhcWIQC0Tr0ePHthmm22UzosQKmkGEl6WCStgIteRnVFARcTQrbfeul5EL/6wDkwivosGIq6euwjf14A0t+tIeFYipLLpyAbkzDRuB9GXBIymTJmCTTfdVFmTjIXsdpKvsvvuu9ebAz5ODzzwgArfsvm4MC7/FY1Q5oNoR8J+hemKFiggJ/NFWFXy0/gWqActikVRzP+zTz/Fx598ihat2gLIA0WRwx2I5L8N5wfI+Au+iAb5i1/8okG5ZanJk85+5EIeuvccpXgC5OI7WjxhLp4QJzuzXDOeiOnX9cUQj5w1FBZ2V27BggWqeSS76XefvMtKWhSb+2c8o17uKn+WnyVl08t3GkrGjH8v/uf4cyQpAd99XH/IK8i4CbjU1dUulRU19AxCQFx/bOjff9Aykx9qYvlOnJSW/JDT7pvX/qHGc+W+RXK3b2OBJRGEb3Mtd+WX9N0fFJQWd70SVvNth7Dxv5cAUuOPQXN5gpUGSs3FoD+F9/y+AOj7us5PwabJOyy/BX4QUFrRybiin1/+10s+mVggscCPzQI/CCj92IyQPG9igcQCTccCCSg1nbFIniSxQGKBJZWZJJZJLJBYILFAY1kgYUqNZfnkvokFEgs0aIEElJKJkVggsUCTskACSk1qOJKHSSyQWCABpWQOrIAFvp8jdFbghslHG8ECoQh+sXNNQoltqVCv9/qyGrut6CskoLSiFks+bxZYznN0Env9qC0Q5RCyO4D8v8L8WSjVzmPL4vJWyLTpjFQ6Yw3evvu8SEDpRz1lmsbDJ8mvTWMcvt+niJ3hhqI2e6ud/h8sePch1H7+PkqL5mgHylSLdijr8jO03aw3Wv7sN3bAwHc77iwBpe93JH+0V/MiZ3+B0AUwdnJx9BnpDiBn733zJBv5/tKO44p3kIgba1lHeP1oDfujfXABJWnolkKpbgHmTX4A8/58q3WGKCFd3gapTBaFBVXacbJYtwBtNumFyp4nINPWmNO3fPcElL6l4X5KX3OgkO6i0hq3oqJS+121aFFe7zVraxfh88+noKZmDrp06aw9cRo6p00axwnIyCEP8aOypDWJ/Ju0LfajuxzEqqurteGX9GlPfpqIBUpFlAp1qH7pWiz4y71o+csdUNb9l6h+/hq023YQyrqui6onxqDNrw9COtMC8955EC3W3Aydel+AVCs5XELeY8VZUwJKTWT8G/MxpFuodIeUlrTS9K1ly9baBXLChHHas0p+5DOnnHIaXnzxBcyfvwAdO3RCv/4H4YILxmg7U2/iJsdeSQ91AR1pHieNAOVHOoVKEz/pSCqtkKV7pR8gKo3ipP+3dL6U/u3eWLAxbZLcm0GN+X97GlWPjUbrXx+A9jufgpo/Xo757z2Crsfdi/LOP8OMSUdpN8ouA6/Bgn8+h9lPj0Wr9XZEx75jjUmv+OGiCSg149knDEk6QJ5//hjceuttegTSpptuov3Y5bAA6Sg5ceJV+veBAwcpyzn00EHak1vamUp75L322huXXTYBFRXtNFZzyy236RFaAlTDhp2JE088SS1cKOS18+jAgYcgk8ni4ovHom/f/ZFKlbR75Q477Ih9990HF110YYMHFDbjYWqcV5fGfgtmYvqth6mrXrnDsSgVc5j7xiTp6oeK7Y9FOp3F/P+8iLr/voGKnU9Aqqw15k2+H7lp/0bnfpej5TpboZTKLKUxbsOvloBS4wx5k7iruFjS6nbAgIF6gIMwm2yWO5u3vz3hhOMwceK1Cly/+90VeghAeXkZpPOnHPRw773345577sY222ytvxs0aLB2I5T2tv/970d49tlnFKDEdRNQ6tdvgLp24vo9/PBDeu6fnKIroNSr174KSs6gmoSRmutDlIqY/8ETmP3IeUiVtxClEClkUUwBaT12qRTr+ioumkTnyK7k/7fd4iC03/lU1ZtWtI9aAkrNddKZIC191E877XQ888yTGDp0uB4iIFqQtCsVF0zcueOPPwGTJ7+D1157Rftne5tkOURy6tSp6qIJ8Pztbx+gb98D9Misrl276CGWAm5yuIQAkfR9F7dw//0PwFtvva261aRJt2H+/IXYYYeeypTGjr0ocd8acU4ykkqBu+qZcVjwwZPofOA4ZDusikVT3kP1M5eh435j1HUToCouqMbMh0eg5brboWLLQxSYZj0+BqmycnQ+8FKky1sBki6wAnwpAaVGnABN4dYCFgIQcsLIP//5LxWb5XAIOezhkEMG6NFZ/fsPQC6Xx1NPPVHv9Il4xE52w5tuuhkTJlyKZ555SjWkPfbYU0/WFd1J/l1ASQ4eHDp0mDKpk046GaNGjcSAAf3Rs+dO6NOntzKlRFNq5JlRElAqYPaj56L20/fQ7bi7kW5ZgUUfvYpZD4/CKsfeh3RlV6Q0Z6kaX086Fi1+tiXa73EmUEph9hNjkJ/xX3QZdJ2mDGgOUzhIYMmnnPhbJ6DUyOPf+LcvKYuZN28+PvnkUz2h5Nln/4jXX38DG264AR544H4ceuhgzJo1G3/60x+VQcXpeDzEf9BBB+PLL6biknFjUVu7EKNHj0E6ncE999yFrl27qtAtoDRkyFCcdtopGDbsLDz15FO4/oZrceqpp2OvvfZMmFLjTwhlQKViEVVPXoCF//kzuh13D7JtO2HRZ5Mx874z0P34B5Ct6EatcN4szLjjaLT+v51QsdMpSCGFmQ+dhcKcaeg84CqkW7Q1UFrWwUvRiyeg1CQmQWM9RAn5fAH/+9//0KFDBwUOASgBmuHDz8ID9z+E557/I66//gY9kPLpp5/SI5YISiW89977eOWVV9GrVy919XbZZRf9r2hClBdKGqm7/vrrsPPOOylTEvfwzDPP1HPe5DSMAw44ELNmzkbNnBplShdeeEEidDfWdAj3FaZUwpzXb8Hcl29U10zApTh/NhZN+QDla2+GTItKdciKhRwWffIWspXdUd7l50KUUPvxWyhfqwc67jsKqWxLpNLLZkfxV05AqdEnQOM9gADQnDlzcMghg1RHGjt2LFZffVXMnDlL9SU5kvull17QE4kHDz4M++7bS92tNddcDX/72z9x9tnnYMqUL3D//ffgiSeewq233qLROjmiXQCptrZOo3a9e/dSt0xYmGhKctKy6E7yI4eJnnjiKViwYD769++HMWPOT0Cp8aZEdOdSEbVfvK+umeQcZduvjlQxj7rqL1S8LuuwhoJSYWENCnNmoKzL2kCqDPm501GcNwvtdz8DbXscGFhSoik1hUH9ETyDn+d244034dxzR6KyUpImV8fUqTM0IjZy5AicdtppWjpw0UVjcfnlv1NGJXqQpAkI07n8sivQZ799sMUWW2PddX+BSZPu0OsImxJt6JhjjsPbb7+FN974sx5CKTlKck05Vdlzm0SHuvDCi3DsscdoqoAwreT4rMabQOEk3FQKs/4wDHVT3kfXw29VtjTrweHIzZ2GVY67H6l0GWa/eCVq//4cuh93nwLUrIfPQb5qGrofdTsy7bpaPZzo3/Fo3dLfLWFKjTf2TeLOMlnq6ur0aHYRvAWMBFS23XYb9OzZM5zzLgDy3HPP4Y033tTPrLrqqujZcwc98Xj69Bm47777sNFGG2LHHXsik0lr9Ea+I2kAwpDkqHcRv+WkZfmOnLbsoCR61t1334X1119fI3UCSCsaRm4SxvxJPYSE+IvIV3+FmQ8MRWlhDSp3H4J81Reo/uN4dDpwPMpW3QBf334MWv2yJ9ps3BvVL0xE7uuP0anPeWi5bk+1hmhMTBeQmqTlM1ACSstnp5/sp1yo9kiaAIeAgrCc+GnFYgDqTQXk80XLJUojbXrBkmrX/Po6QVOp+i0vzKp+78Xv95M1+o/mxURbKqLuy7+j6rFRyM+ZifLVf4W6r/6JbNefU/z+96soX3Nj5GZ8rODTfs9haLPBbijBNxapkxQ0Wk5ESnp0/2hmx0p5UAIIq8OXxFQSAFkpQ9FEbiKAIqy3pNG06lduRO1/XgFytdohQKMZaW5eZatuhMqex6DFGpvpr78L002YUhMZ/uQxEgs0PQt4byRhTEKV65D7+hPkZn6sYrawqGzLCmQ6rY2y7usjXdaKhKhBV235+ywloNT0ZkLyRIkFmqYFNKlSeiulI2csJdJTAdJ9kl0B6KInTKlpDmHyVIkFfqIWIHOSjO7SUlz9b/vyCVP6tpZLvpdYILFAzALL754ty2wJKC3LQsm/JxZILLBSLZCA0ko1d3KzxAKJBZZlgQSUlmWh5N8TCyQWWKkWSEBppZo7uVligcQCy7JAAkrLslDy74kFEgusVAukFi1c5MeertQbJzdLLJBYILFAQxZIffnltASUkrmRWCCxQJOxQKqutpiAUpMZjuRBEgskFkjV1doRBIktEgskFkgs0AQskIBSExiE5BESCyQWiCyQgFIyGxILJBZoUhZIQKlJDUfyMIkFEgskoJTMgcQCiQWalAUSUGpSw5E8TGKBxAIJKCVzILFAYoEmZYEElJrUcCQPk1ggsUACSskcSCyQWKBJWSABpSY1HMnDJBZILJCAUjIHEgskFmhSFkhAqUkNR/IwiQUSCySglMyBxAKJBZqUBRJQalLDkTxMYoHEAgkoJXMgsUBigSZlgQSUmtRwJA+TWCCxQAJKyRxILJBYoElZIAGlJjUcycMkFkgskIBSMgcSCyQWaFIWSECpSQ1H8jCJBRILJKCUzIHEAokFmpQFElBqUsORPExigcQCCSglcyCxQGKBJmWBBJSa1HAkD5NYILFAAkrJHEgskFigSVkgAaUmNRzJw/wQFkilADly1f/7Q9wjueb3Z4EElL4/W36nK5VKJaRk1TThn5X9jN8fiMjJ9GJb/28TNnLyaEhAKZkEP5gFVjaILelF5Dnkp6mD/g82ED+yCyeg1EQGTBaOL550Ot1Enqr+YxSLxfCLxZ/Rn93/6x8UIFgeMPD3dyCT639fTCmTAVJpIJ+LwMlwqknaubk/VAJKjTQD4guulCoBxQJq5lSjWCiisqISmWwZgG8HTt8/Q5HFXEJd3SLMmzcf5S3K0aZ1G6TSGZSKAjo0Ym3dAhTyef2zgEp5eUv9L10n5SoNWJvXFsCbO7cGhWIRbdu2Q4vyFqoDlUp0u5YH2OTi8nExZwSKJUz54kt88P772HHHnmjVqm143sU/20hTIbntYhZIQKkRpkR90Cihpno2Jk6ciNdff10XzCqrrIqTTjoFPbbooYvef0qlIopFLtAlMRBnM/7vgbmkU0BRVrmwhhSKxYKCxNKYjH+3tm4+HnjgQTz5+OOYO3eufmfzzTfHsccfjzXXWBP5fAnlLdIYNfI8vPfXd1ESEEEJnTt1xaDBg7H9DjsAJWE+9UFJQCedKeGdyW/j1ltuwccff6xA3KFDexx88EHY/8ADUMgv/p0iGaXboAGgk3+nHUrIZtN45ulncPHFF+Kuu+9B9+5rIJMRoJTPKOqpPVJCpRZfHCaQN8IUada3TECpEYdfFo8QorOGnY3J77yNkeeORCabxQ033IB335mMh/7wB/ziF+vZgpGlXkAul0MmlUamrFxZhPyfMoRSURd9vlCrC7KsrBxABsViLTJpYV3iw+SM2WSRyy/Q78nnSsWMfjdiDhSE5fkWLJyDc846By++/CJOPulkbLzxpqiumYU777gTH374L9x86+3YdJNNUd4igwEDBuAXP18Xu+2+G+bPX4g3Xn8d9z9wH6659jr07NnTANaft4RMFnjyyScxbNgQ7Lrjbui1X1+0btUSL7/6Eu647TYM7D8QZ404B9lsyzBKxVId8vm8Aksm3VKfMS3PKgwJgrsCRkXk83UKXOVl5XjqqT/i4rEX4p777kH3bqvrdwUfc3m3VRapkthIhadGnBHJrXUI6moT77qxpoLM/9raWuyx+84YMmQ4evXZB7KmqmZV4Zprr0av3vthk002QbGYx+TJb+Ohh/6AmV/PQKsWrbDNb7ZD7z690bZNpa6jBQvm4pFHH8Yrr7yKukV1WG/99dCnT1/ccvNNOOjgfth2u61xz133o7Z2EdpXVuDRxx9BoVDERhtthIGHHIJVuq9Wz72SxS6gcd211+Hpp57EVVdPxFprrh3i6nPnzcX4cePw5ht/we133Ia11l4T/fsNxN5774tBg/ojXyihrCyNk086Fa1atsSll09AXa0AJxlJKlXC9OnTMXBAPxxx5JE4dPCh+u4CLYVCHs8++wzOOWcExl0yHrvutjtKpQLefPMN/OHhhzHz66/Rpk1r/Gb77bHvvr3Qrk2lMacSPv30E9xzzz3494f/RMtWbbDzzjujVcvWGDduLO69/z5077YGFsyvweNPPI7XX30VCxYuRJcu3XDAgftjiy23QjqVbazpkNzXLJCAUqNOBboZe+6+M3r23BnnnT9Kt/tcnbgUskKFA6Tx5ht/xoknHo8+ffbDnnvuga+++grjJ4zDPvvui/POG4158xdh9MgRePCh+zF8+DnYeJNN8NKLL+Lll17CF19MwXmjx6D/gINx9tkj8PBDD2KrX2+FwUcehqrqKkwYNx6bb94Dl//uCqTTLZBx1pEqYf6C+dh1151w+qln4OD+BwOlTMxaRcyfNx97770XTv/t6Ti434Ho168/dt9tTww+bBDqagto3aYc554zUrWyq6++CrW11JoU8DLAuEsuwZ///GfcMel2tGnTXv9NGZu6ZwXMmVONsmxLtG3XGi+88CLOPOO36Ne/P36z/Q7430cf4dIJ49G79344b/QopFJl+OKLz9Gndy+stsaqOPXU05Ul3XbbLaiuqcGCeQtw+x23Y/XVV8f5o8fgmWeewpChQ9Gta3c896c/4bHHHsX119+IrbbZWuS95dawGnX6/ERvnoBSIw6srL1MtoTHHn0U4y65CGuutQ5223V31ZLWXXddlJe1UrfoiMMOR/fuq+DicWNV/JWf1197A5Mm3YarrrwGf31vMo468khcOPZi9O27n2bj5GrrcNWVEzH+0ktw/bXX48CDD8TZw8/B22+/hWeefQbpFAHmncl/xSknn4A/PPIIunTpTp1JLpAu4t///g969doTd999DzbddEtkBEnsR4CjrAw47PAjsP5662PEuWej38H9sN0222OvfYXZAP/736c4f/QonDlkGPoe0BeFPBc7QaeI/gcdhLXWWQfjxk1QhVq0negGqvro5+tqa9Gr917Yc8+98dszTkdGKFwJeO+993HC8cfguhtuwYYb/h8uuvBCPPzQQ3j4scfws3XWUYD/8ouvcNSRh2PBgoW4867fI58vYPCgQ3DVxGuwxZY9/G1w3sjz8dmUz3DLrbeikCsZeDbi5GjGt05AqQkMfr5Qh08+/giT334Hf/nLm3jn3Xex5VZb4pyzz0GbthXYe4/dcd7o0dhxp53hUXlZsOKytWvXDndO+j1+f+ckPPPHZ1EquWBbxOeff4btt98WV115NQ7qdyDOGj4CC+bPwxVXXoFcTsToFObOm42DDjwIl024EptuvrGK1hS/S/jHP/6Jvn33xb333IeNN9mcYODLuFiCyFZHH3UM1lprbYwafS769x+AKZ9/jq5duuLLr75Exw4d0X9gf+y//4Fo2aJNYB8e/j/gwD745Xq/xMXjxjOvMS5ai1gNAQfgX//6EH379MLv77oLm226BdL+jevHAAAgAElEQVSZtDLMYqkWgwYeir323gcHHXwADh98GLbeamucOXyoCuTi1qbSJdw5aRKuu/Za3P/gA/jLX97GuIsvQv8Bh6hbqbdMpfDhP/+Jtye/hRdf/DNatiyzqF8TmBzN8BESUGrkQZeFk84UUShABVhZhO+993cccEBvnDtiFA444GDsscfOmDD+cmy19bYxIlFCJgVkylK44fqb8OgjD+OJp55EPmdsBCXMmDEN226zBS699Aoc3O8gnD3sXOTydRg34WLkc4y8CSj1P7gfLrpwPH691Wbh+wJK1dXV2LHn9hh78SXKUhg9Y4he2U6pgD333B2HHnoEjjhqMPod1B977LkXBgw8GGf8dghq5tRg0h2TUNS0gSi65e7b8GFnYsqUL3DTzTeivLxtYGIqs6fEfc0hnc7incnvoX//A/DAgw9hgw02QTaTRaFQkCQFHHX4kdh6u+0waNAhGHTIIOyzT28cd/zRKBZ4v3S6iD/84Q+4bMI43Pfgg3jh+Vdw+aWXYPMeWzBdwchZOp1C9+6rYsSIkWjRwoIISfStUVZHAkqNYnbeVHbx2kU5XHnlZarFbLrpxhq1LyvLoG/fvthuu99gyJm/xX59+mL33fbACScdH/QOWcwvv/Qi+vUfgNdefxlnDjkDd9xxF371q43UdZKQv7iFxx13DK6/QcTuA3D28BHI5XMYP+ES5DQ4RVDqd1A/XDR2PLbYMgIljwyOHjUaH330Ea6+5hq0a1dhwCQ5S3W44/bbcettt+DOO+/CL/9vPfTvNwB77LEXjjhyMCa//S4OPOAAnHvuSBw6eDBSKUb4+EO37KP/foQjjhiMkaNGYffd97RUAkkmKOKv7/4VF1xwPk466VT02LwHdt99F5w5dCgOOqg/BEDk+b766kscOugQjBlzEbbaZksMHzYM//vof7jjzjtRWVmpd5o/fx6GnTkUH3zwPu69717Mml2DM04/FbfefivWWefnFmwr4a23JiNfl080pUZcD37rBJQacRAY4SriyMOPxuyqmbjsst+horIdnn/+eYweNRLXXX89dtppF40miah7/pgx2Gbb7VBTU40RI0ZokuX1N16P2TOrcPyxx+CrL7/A+Msvx3rrro83//JnXHnllfjqy68wZswFKkSPOHukgtIl48ZCIuayIgWUBvYfgAsuvAS/3iICJTGLpBl8/fU0nHTSicgXihgyZIhee/6Cubj/vntx91136zP16rWfujyHDByE3XffA4MPF6E7jysuvwIPP/Ig7rn3Pqy26lpB5HZdSfS0m268CTdcfx2OOuoY7LnXXmjRsgXeeustjB93saYXXHnV1ejQsT2umXg17r77Tn3OX228ET7/7DMV+Tt17Ihrrr0GLVu2xjvvvo2+ffpgwIBDcMppp6KsLIubbrwRzz3/J7Rp1RY333ILunfvhhOOPwHzF83H6PPGoGuXLnj/vQ8wfPiZOO3032LgoIEoGItsxKnRrG+dgFIjDH88m1v+POWLzzBm9Gi8885ktGrdWsHgxBNPxoCBh2jSYSG/CLfccgtuueVmtGzdCrULF2HzHj1UZ5K8G/FCvpr6FUaNGIF3/voO2rVpg7btKnDyKafj/PNH4JxzRmL/A/bHBRdcoGH3kaNGxJhSFY44/AiMGnU+Nt9806ApBe2oVMLMr6dpSP/Vl19V1y1fyKGmqhqHHXE0hp81XHOgWrTI4Nhjj8XOO+6CfgMORj5fRK42h4MO3h+77rq7CtQaVYzlAYkulEoX8Ogjj+LGG67HzJkzkZbcopYt0We/PhgyZKhGIOWZc7mFuPrqq3HPXXehvLwctXV12HLLLXHuqJFYtdvq4qdpIuYLLzyPsRddhKrqapRny7Hl1ltip5674IabrsPNN92Mrl1XxfTpX+L80aPx7rvvamrBvHkLcPiRh+HYY49DWbZVEnlrhDURv2UCSo08AOrGpYBFtQuU6dTW1aJz586aO1MqMnzu63jatC8xa/YstG7VCqutvgbKyyR5kG6YaECSgzTli8+xaNEirLrqamhf2RGff/4xOnXuirZt2qGqaqZ+vlOnLiGKJ26eLNJOnbqiRQteb/EfubbcY+rULzWNoHXrNlq2MfaiC3HIoYfi6KOPQYvyVpg+4yu0ad1W3TxN7EyV8PXX01X/6d59tQavre+XljyreZg+bZq6ne07dFSRHOLyBfFbhO0ipk2biqrZs9GmbVussdpaSGfTSIm4r54hbTW7ahamTp2KsrIyrLHGGiqiz5w1E6t0X1U1Kk+cnPL5FCxctBAdO3TAKqusrq/t9mwC06LZPkICSk1k6GVxyuL1so+GCl6FQXHhMGS9eGmEMI94RbwI5znJfrbPegmK/D4OPpKsyHD/0rOZ5flc6JaPv/nGmzj77OE448yh6NOnN3J1wnxSSMdEbS/3SKfjOU71je7PHC+RaagoOSpaduRMqb4UPTcz0QW8SlqO43lRorEVrbwkyihXpmYpCp4j1USmQ7N+jASUmtHwf7+FugzX19XWIV8somWLVjFLNtS3KOll1Iym2nd61QSUvpP5frgvfxsAWfw7PzgM6A28peN3s8W3ed/vcscltUX5vtqlfJdna+7fTUCpuc+Ab/H+P5aF2xDQ+e9WNgh+CzM3268koNRsh/67vzhblEQazfL2PPrud06u8FO2QAJKP+XRTd4tscCP0AIJKP0IBy155MQCP2ULJKD0Ux7d5N0SC/wILZCA0o9w0JJHTizwU7ZAAko/5dFN3i2xwI/QAgko/QgHLXnkxAI/ZQv8qEDJypu0Sbz+aKGS/sHKK7xnzzcLuKLChKUP59JyWxr8prQVktqwZZRofJdJ1HBOjZ/4+u2uzO6P2meSpoyF97/dFb/fby2e+LnciaDfyizWDXMFjnJavreNntp72MWPf1rSnIyXCtV7b383PZSmyLGzwkg/OIGH5fm4LrfVlu91VtKnmhwoLSsxjwPGEgfJiynkC5gzd452OpSG8jU1NVi4cIGeeBF+eLKQ/gQ8W2al1/KOgPT/saJZKU3jnOB9rKuhgoo9QDgxxGquvtXZGYsZaXkBt97LO67HDvDwBO3lffMf8nNLW06+KRFQ3bANPE3MTku1kdTP2bFN2tCqoZ/YxNExlGsv6bP+VDb+3Dc5CdnAjh9YfJ7obfWaNqd0DtmN48WKdoFsNotWrVqjsrI9OnfpgtVWXQUVcmagtS2WUkV+/ceVS9bkQCk+H+JrT4aqWCigRUsWdn75xVTtk/PC88/jw3/8HdNmfK0V5l6U6rtNxDJ8AvPMrwimvuvSWvrWHHpS17tN/e80/Jn4F5a8RJf93W++35K+o8tRuxJ8K6j8roZc6veXZIHF3yX+9yW+5xLecUVsuayMcJ6hKWxGds+itqD5Nj/+TA3dL168LQXFXbt2x4YbbohddtkFO++8K1ZbYxXpp4e6XNEOBdUB/t6242/zPsvznSYNSlwjZCFyxI60rXjr7cl45ukn8fbbb+Prr7/WivRseQbZdP2jcXxhOThFxiAgcLB9kL55smrDu2W8P6rtPuK6xTdXo8/8/hJ23eUZmfAZuUbslI8GOV/9CzZ48qszuMUeaUUW4tIeu949DXO/j2vHAVK7BCx2Am6wcr3f+xiToHhngyU9v3TFlH7gsoL1DLmlnDrm91+ed9ORS8nBn+xGELaiOMELzy2gFR2LHj0z59nihEm5VPw6dgBnLkcPoXPnTuixxa+xz5698OuteqBbt1UgnRqk0URT3HTiY9PkQCm+I7DdRAoLFs7HPXffjYcefAiffPI/5OVYDDld1Y7kKaKIYkGaj+XJlOR/9pbGoIk69lvOU9JvZwd+9I/75vVwxuivXEHu5SfLqhJTFOZW4EkcdiCkG5itNmwSxNw3LhOn6PzvEheM+oN+ukYhHAwQLQ7qQQZd0YJy1u/7oroLvA5dB96TgG/PYo8hk9YtWF9zMgsa0/A9N7h9eq2IaTX0VgLgcWDxPy/+X7dH2Fy4Q9X7rj6n2UZYMvcDPrHBEg+otFOFI0vFtTQDDjWKFRc3MBiL8+Fo/GLSQOyFFbRM62T7XjklRp6foCdgpWNg9vAZEe1FdrqmfEc30ehACHlHjh37rAvYZPVwTm8/4ycEA+LirbPOOjjwwIP1EIfWrdrF7LFCu+NK+3ATA6WIWgozkrPP3pn8DsacfwHe++s7aNmKXQG9r46A0KKFC5FftAgLCou0a6K65ObrB0Ayc8qvdZLb5Atg4IuRQ01dKLZbhp47i8kIssOyx5EJ7gKUPIsWBWMmDkpL232Xtes2LCvInl7kDXXhLZuYURg14LCP83RZGiDEDfwYpO84DZfu2C754vI9fy49ANxBsAEGsyRG7KeUy7XkgAXyoKWzoAikv+OLL8fXv+l2+vFTtmHEAc6drgbkJbmVbDTZDLRJX1l5S7Ru2Uob3DlwidlEZ910081x3ujz0KNHD5RK8Z7py/HAK/EjTQyUAsdAVfVMPRr6rrt+j9mzZiriy64op7ouXDgfCxYuQG1dTk+PzZQIAkVx3/0gQRMSdc2mubdoQ3096joSpG2V6tqW/6XSacg5GcYjuCBC90fZ3XT5GmPhLLGT6dlUTCl7CUV5HtmhM0Lfo8Ug3RhVyFQaHXMs9Nwz3td6uYUdX3bVgu6YfHBeg5yAVxNgKUJuKhuqgrY8SWBuBg8xtiiEyXXaiCBEmwK1JS4UdSqCSGvvrsRQISM8hzf053HiYouiMhtuBmkxjH7H2anYVW4iAELiKjcRV7UkQyaNJ3W8CkVheGLHKNoaUabwZV5LHjXYtSTH1yGb5VjkZRxiCK/3sA3ExzElk8lAniBtQG5dWswUHAllQNpWzo5kki6aJgu4rW3iyXVoB16BYxfBts4deV9xAsIE5QMKQJP9lVSa0g3IpVHbTfT6FmgRkGrRogVatW6F1i1bo0wQy04e7tixi/ZSH3z4odqZVCdME/tpRFCKLQAzCsPS0Gb1w4YNw2uvvoK0RBJ0lIqYO68Gc+bMQUGsLz60tVzV3V8HxERFWZxhCXOH5HKWQWaL2UCJ1cUSOk2Gk8lmUZsXYZCLMYCSRdh0UpfkGkX9jucniLuTSQOibCl4yuQRpFR/xVDQ3CVdgAJKAfziM4xHWusbl3g9meh5XawGOLISZEWJXdTrMAAxgFJwK3ER2HZJgJDXlwMwBWjSQEGIloKYLKT4TC/xvgp2KZTSshn4tXhfvoO7auYsxVisuhUpApC+q4EBO0XSflzM9jx6edm9JVjB76XsgEoFKwMawghBQN5FwN8IRMSiVb8R15p2Kc8IsPE9U5m0bmxiODFhNp1CzlIiZMB18YtN5B8VjblonZ3rb8KHvqnrhAM1w/QWIOZcCUzd2I1qTRLcl+dVwCLTr5deUhKgFRcNyBcLyvqchYt9dGbZHCvpDOZup7NXXbssOlS0Rdu2croLAV86iMqR5+MnTECXzt2bXAvgRgSlxeGZE2/a1CkYOnS4HlWt7KhYRF0uh+rqWViwcBGypgcWdNDJDHQH9Vmr/ZqLXFSyKFJp5BTEZJKnw3HY0jJVdSTdFmU4jQPJ5JHBLbH1q65/BQDucnJfLiuChNzatYOsftcmtcwJXfAutkY6UiYrqQycOFxY1AZ0oRo7UXdPwUImFhkEodSFf9pPF74yAAKrfCejM1wmsUOzAbIfBG5goe8S3Mw46yPIOCt0NqnvoyvU2RoB3gMHuqgEJWz3FgASlhMt1IgZyLfU+uHjJgS7ICwtbY0l+PAqk03xIErbZYKg4y5ejHsonigghD2B4xkHcU4namjKSMQ2OqZ2JX2+8OLGsksaUCv6ib7+GjKGxozcZj7L60XP/NLGmmSOGhqFfDGFVU7OwOLlc8KYyW5oAxnhtLDxfEyZtEF1Ji6g3qZVG00dELdO2iFLyszW22ynx7+v0n01U+Ec3hdfmyv3700ClLjrFvHxJx9hyBmn45//+AcjBaUS5s6bj+qaakgfaflc1paKLCglwU5nI13QKG+0pHxJys4ijEH/roDE3VTuk5XJLgNsE0sGXzcg+beMuVvKLhwUov0sHgXxRozKO3TBu7sCZIR9yXU9KcEWNxeab60EJgEjrjhnebZgTNImlspCMrbiO7H+zgDUp21MM5PP6zTXwx4JmMKcCKyc5nrdDO1PzmGgbp/XN7LES3cf+ayBmum7ywaSI6m13BweEkBmZtgV3pDjQc/FpdzoefR+fnl9P7OlPTtxmM8VRdzMRTaBPJwe7L6z3Tsj9pdNyAFS35MLX91cZVCMgEqgQ/8llmcUxHvPPXPGKKBq0Td9tIwwInPbSO0N0PnubhTawcedNsimSpC4mr5bsD0fQrwzZb26g0rYJRbICxtPSvOX2rdvj3Zt2qkxZe5vsMGGuPzyK7DOz38RCxGsXBBa/G6NBkrxHCQBpPkLanDqyafg9ddfU+PJghAwkqNySmkOZqpUUMqtvncpg0KpSFdEFw0XrQyOuw6yEri4SVvkk2nRKHxCpW3XtRWi0QxjYDIxlHEoQ4kWlmg3MmGF1WjGlIGYTCOBNYIk9Q9x50hnshodlO8KI4ty7kjLNaqkDM92wLBoIi1K7CGLRxdKJqPnsMmP3kM0NfVjuGqV9fHR6T7ps5GbuGDl7hRdCn5PF52TkBAV4qJIp+Q0kfo7aTy0HNiLv7K4DnpSCQFPHSbRd2QsM6nw/BwfZy880ECfR3RAPVTTBOCQsMjFLEy1kCLTJH7L2BVRJvfzMRC2ZRoV/ScDAk/jMPAXtikPqIs5luUuRzbpg5vZhKkok9KXkfEikPC0lyjYELFPA0UiLSOasjHGAgnKkiR6qzaQ01uEIUZQ75OPrCdNjz0WhRR3NGVRDvU4ZQxl/cghFKUSykSP1GtTe5Prd+jQHu3atjdtNIXtttsWV109EW1aViCt+lPj/jQaKEWvLZQ/h0suvgS333Ebd5ZSETU1c1BTU2WzxHeXQtBYxNDOLrTMwyY3AYu0wTUYv5dcmyK1MCzZHSliy391wYfIHPmNzEm5VMF9dy5dZRmKNzZnSTBSKDNWRJHbFrBOMJ5dJgtNJo4zAVmwfAfTuXQRa9xJ76RLyFmOAqYs7uAr6IIQyY2Zu+5K8blkaunktseQ2wjNV1cvgDBtwR8HJv+b+XXG1ujWyGdlYmdQLOXDSbUOaBRzIwbgO3fE9mgw0bOImzGQi0hhmBpxl0eHLrDBSKMKkTm9mi16DRjw2gRZBgJoS2pdMtyFgrmM8RC9zQH9j2OY3psaXQg3xPUcY6YRwEb21PtlStQX1T2U5+AGQleSfybA23Oau+j3UhBznc2O0/LNI5hQwdEYlwtY5t752pA1IxutnG7Tpm2FHmbK4ARw2GFHYPjZZyGTlqhd47pxjQpKKjBngAfvfwBnnz1MXTYZm+o5NaiqqqJYaQivLEN1Ie6+eQ2l0YePQEmiXTKZKOaE9AGh0RqZIthEEbho13ImIgxIPpP1SS3sKzYBVXkolpC1ic9diLuX7EpFQxEFRgc5OwZIgc4WjxM4nX/6XiZ7e1Kn0+4ASgaIZhN5ZxE9nWWoY+suSBBL5Tm5Q/vipZdoNCq4bLYze7TNqFxsbhOOww4vAFgIeWIinHqeF3UZeRcq42RXZD2ipeWFMeq7RaF+/ln+x+/IBqGwIoxANg/QtqIPkVPE2JO54FxIaaRTBdWGCraQ/bMKyso2qGYzPcAcqGJJxXDBIAUe/ayJ7fLxrAGYs3J5Rx0Xlwi4kagGZuAqMkNBNwpuLxGgF3VMKFwTmBlkMClCvUjOVR0G2xgjRshnDvunu7ohGTjSMPmEdOfNudXvqYxQLKFD+w6oqKw0CQO4+OLxOOjgAwNbbixwamRQKuLTzz7GEYcdhqlTv1Ib5OrqMG3GNIJKUQbWxd400pK7JGRX6asqJyhJDoBMQ2ENQttFbM3HY+0MqeqOgKK5d74tEzhksjN/yfQCAFmNHqVQMGU7byIoJ7f5f4YTvkMK4Ei0SqNFYfGQUptCTGHSIlOyU5t0bf68P4epSeqtUQWK/JRAJHTKKXAIdwk5VDEmZJPS+Q13Z+pJrpXIjuu7JXda6kdczDatlVnSRWoo3yowGtN1nNXQ7XXx2MP1tgjNhH5GnDCsepnGQYiiLuPZ1kJA9bqmVak8FrQmY8wKKLQtSZmNs0b8+BzmpfKdxCW2PYTsiqCgrpZcRd18AyD6WVGEzCOD5q4qkbWIpUZAicxuTLWrzB91kix6yBgcwUifWQllLArhrrWBu2tb+nlLl/BgA6PFKWQkYmrvovbTsbd3sOkprKhLl85o2aJcx2m1Vbrj1jsmYa01f2abTMRI47Puh/5zo4ESWVIJ4y4Zh1tvuVF3FNlxp8+YhlwuB4lkiatBqu8hftu99FcW8jZhU5gLVSMyIZ82ZD0M7ApY6HgIO5FIhm+NMmZpICMDLFErS4IU48vAlqUZwdPJ7cEP3ydVwKR4I5qXTnLTEHg3cyVsIrgQ7qIsn5UTSb6XMSFcNQqduMIUbCc1rYGszt0ZunUEJ9sRYxnXLp4y0ui7b6QhueBsX420anNVVKw3t9dTAegC+9QkM5Jf0EOli0JTmaBtIE6O45AQd92oCwb2ZICoEKL7S3S/iIAqn6DdDZUozPPL0fOJbeiq+3Pr5qVCtsGWglV0EjHxwhheYKN8T50FcdC2OeU1vZqoqcEDKkXqxRvO0wXmLLXhY0TXwMi3Mp/HAZdiWh6Bm7FCim4+DmFAkLU5qtopdxb9cXfQNx2xbFm2DN26dUVZtlzB+aijjsXws4ahWKCw3xg/jQZKMkAzZ87CvvvsidmzZ+m7y5HQc2rm6E5SVibhTwEqy8HhCg1h+EDjDbSyNjrCSjQnxciS0tVYhjerLOj+yTBSw7LdJURpbCg8pB8mKX+vepSdZqtPZffSiSn0W+ixgaq6AbbrB/XGcqOY1GdMStVqTmZq30bnTf+S3CwBV0nslDdQzUhZI1RXogvIlAcVZIVl6iwnE5RyHQH5gqQOeETJGF2kvdnCk89bNJJrnEtUAwEO/CpAy+8zKrRqPhPXsaYw+K4soCv3kw1IqoOU6Qo7M9CS+4hALc+ljFNcm0KR+UcGJnpvYw8KUkoLaQVx+dRFNRdIE1dj0b1ofMiE5ZoKgS6w26CIvdxt0qf0MDt9ObWnByKonVH/8xwkcwTJuIzkyOamFlIQ5HVKMfdV53k6hTrVi4wC2lxy8COD45zmWERpBzoPi+Ku2vHuFokVLU91zQCefvw7o4wqn1p0UeZKZds2aN++o75/x46d8OSTz6BT504xvXHlQlMjgZKuIIy9aCxuvvl6Ret8PocZM6YjJ4vdFp0sJHWfRCOw3/ncEJ3HxlkHXJiVAozgvbo8QZK0EHmUmS0DK+5YSMrj45Cq22CWa5iVGpEuLN3kUxpFo2YS7Uw2XUzEtGidUh3TsRhCMtpPhuO7ul4lzkQsX4Yisdyf7iuTM03wsOeViec5frqkVGeiXsDvxSJEsdQBhoONKQTtiu/FXCMDRo9OWYTQ2ZS6Ti6GmtghIWsZOQIVM9AjICND05wrGyf5XN7CXcGWnghpLpHV2MfsFXMf41GyILD7ZsIoIjcER50o8qgX9IijsjkTbxT8LAdLP24hB4/wGYAGrS3sMrZhhnv5kNomarZi3y1Ppee8FgDXiLFtMmozDcJwZy2Xj0Oy0fl7cdf0x3OkLKIYMb0oF0s3YBfsffB0vvFmzvzKMxl069oNZWXl6qUcffRxOHvEOfr+jcGWGg2UvvzqC/TaZ2/MmzdPmUVV1UzMmTOPIXP3z4WomgFloxDgkcHxfB/qSpavbUnOzoSc1XIh2A5hJNYjKdHgxDQiY0USpRA89MJJB8AQ1bHkv+BYxkKu5hxFrkrw5amsci5HugUXRST8CtrKfi4Lh3OQDEIYhSYiOvMzcFTQtGiOA6Q/p4qoxr4EsLSExq5JxuTFvpGLyNC9uLEERI0YBVmXoOdalkksKBNhNiaf6P0tAqqjZBqg5/nUS7Q0LCETs5C7gZ08o2JXzEbaEELdXlufwr4KfCa9L/8QopiR2xK5I8rCRFszncw87vA9swbdK00AjUTrcJ+gHLoobu6dsD1lLwWUSa6WpZAIm6Tb5jkpHDeOH7sJUP8hm5QfT+8IWdxmCgULs5FuBHZJlvgwEiclM/ESJ1Mq68mTLCQvobJdBTp16Kjv2qZtGzz+5NNYbdXVwxuuTK60UkCpXjarTrAi7r3/bgz57RmoqGin2aXTp36pLEkGsWCMJF1Mg5q16Tkm7NoebBDDSJLoOWUZLvhiOotc3tMHMsgVpbredxjXqCIzZ8W10ElgeSC6y0b1TI5lrBeLsn7JBOhy5Qw9GWhjLpROdBc+dSJacZ5ew5IUPbnOqbkK9lLnlw9Jh8yfEhBTvsSMZq/HU1TwDGs+jzC8uM2ZC+UCM+lVlArARaLELpSdGFOyqoVQzmMhdvmsBgGszITiLPOD3FYqwhuAUtfgYmNQwUpmrHtiyI0yv4euKAVfic7WmeDsmzzdlojdKHAVrIZOssjN5Q+1crp+o+CHPI0zFLIOBkO4gF1wZ+hcfq8VAa45GTrLhhhq/zzZVewqaQbmcrGUhkAZRS7pPrtQT5LM7wiwa8mLlSe5YC12zBUY4PE9ScfU3PwynWhSs8nnZLIn35ealrv7Fq1W19M/I1FbCv2rrLIKWpSVY+7cubj0ssvRv//AUGbzkwYlWSy53EIMHToUTz7xBLLZDObOrUH17NmcHzKpdL6ZCKlhdsntoFugdNRpcj2VlomE8jnVm0J0h9NCRW5rd0KsIOiIm5RRbcfcLmMSBBTzbZzu6qowcDOPLEp988Xt+Sxch4HVaaglHs3wdIdouPW9vKwlAJo9hkxtA0XaJsqxUafAQ8OkJSaNcxlrUqe5OxTxfUcXsb+gkUZlBq5nOBPTiR8vzfASDwKAi8Hujt2vPaQAACAASURBVGo8VPNeovwo1YJMv3BWaa8Wim71867ymvAvrJjgkUatAo5lXBf5ruq+B9YZgazWLPr1wkU9wZLjQfv5DX1xR38P11WGVH85hn5EHlC1kQjOvGtVttBVB9RymxjXtBYmhiqc91YypY9eSiNbonroACdskYnBpu1p4zhPX+B3MilJKM7r2OgacilfpQPLzI+J+ApLGvUpKPnu1LGT5i4V8nXYe9/emDDhUpSVtYi1TVk50LRSmFL8VUSYmz5jKg4ffBimTPlMI25fz5yGRQtrwyDowlQR1yi6RTQ4GQkUXrkvC1mYhbQxCUqPLUAXSPV7YROXz6fonoj2YjlG9cuuuWNq6D5k3HiGsgjwkjrA7Y6CrPk27kYZi1CQtKxx7v6x/BNzz7iIvbeTZEepE6RP6xE6WQi6M3ohr6UBaAA/ZLBbsqT7rVYxT/fKXRsDuIy4s9QtxCUMAq4l8vHmBBcP6RO0rEwiaDCRO2QPTJHbFk/QpsytE51OC4GlXkLKUGThWLEsmRpXUohkmXPO0hyCEVuaQEsuhJ1FnbMIKmwnY30eQj4U5Xl/Jy7sKJ9HE24ZOCWhUy2FIjJNYRuAARmDrZwHat/AGK2djNlRJAA1leYFiZkliTLamBQPQvTMJ5Fpj94pwcDP0wbiyaKeGc5EWd+syYrMxLHnt1Ia37BtcYhLL7M8XyxqZ4Hu3bprb6Y11lwTd0yahC6dVkVmJWd5r3RQkuH8+z/exxGDB2Pe/Pmoy9VhxvQZyBdzwcWS9Ue1iJVqDGZGSWCspLYSBnO7GD52t4YCr9NrLZQNFeXcNVRMzwottsRCFR2FObBQVxvM6VZt1fA6mJEf75kwvC8Xry8mXWu6RjwpIApth5opYyGe0+QEjOwjChlzirE4WPUHy1uKBEh+w4MCrqmZIEZGYCCvC1FFaOcqUSGwk04tW7GQOu0c+wmCfMQuPGky4gGWWWwLVp9bgSrSU/RtNP2B8OuV/p7g6JpX7DGtTMbcRs+s9pB1aPQWZfFz7+L7UXrx1iGkF0xejcDaQdUZDz1J09RC3N1bw3jWFMeKLilZmLrtVn+orMdcXZI35rFxw7Hv2pwyrz+kOfi8YC121BHDvQT5vMgO0mhSAd3YqAY6jKkStDwVIJqn3KQ0y5jehbXGyWSy6NatG8rLytGmTVvcPmkSNtpwY5sAi21APyBpWqmgJC5TNpvC4489iSFDTlM+urCuFtOnz2Cg2xqmSZg4kypqvpCGbhVjUsiUilocK7tASGYTKdAmGAc7oq0yIgIsYniGZ5mfpHqMukkWqrXvCP3VkhPVEULXdYaKXUvwUHBoehQXqZnZ64tZREpZ46KLyc19wigxslQ5/a95Drqpep6dKZceVQtlK0F7iuUuBS+TzNJTEBxoqAGRVXGj9Ix326ptoUTlJ0ESpZhsFyKo2U6v+G+bxTfacpg7Fc+5UoDjZmDprmoU945UyLWsa7ow7qpEjMY9LqZLED4cfKjdlZDOSoSU7MXFfso2UQZ3ZHBGZDVUH3DaRGNrieCMivVt8Q4FViMmrCxoNDaR3M7mf3FvM7gL5Sq+quNupOhYFlWWeWPA6LBSX7xnMEJTSizIokm9Lj9o6gCNyl5UNi8aAhMD7bJMCl06d0F5i5bIZjK49LLfoVfvfVAQocs3gB8QjPzSKxeUpBSjPIVrrr4Ol182Xp9h/sIFmDVrZujN46FySYaUwdQqc4tMySAoNQ2tOlggKRE5pymeGxvtEFZeYJM+lRIR2TssGQ9zUNDIHsXNvBZzekGpdvqhUC27lgnNvqsqWwj5Kbb4LU1BnoNygoVXPZvaUhoiCd/yW6QiXCZmqqjirbMtJTzulnrDN0+DcCAz3UwmtgBuTtpZeOM5KTg1t8Vzs3RxB+GCnRqUJVqCoIKURpL4pg7Mkpskv2FuEItshf7H8MsDYCb0R3NaNaaYq+EumGzcWjYUW8DKOLVJnpWmmHPrYKYpAxoVc6bKMLpmaKdlgzFdJugonqhq80X7GdmMseZ4PpAqH+i8ijn2sZC/skndt8i0/XQdtUHI/ub4WUMG2s8Lf8M65zbqjFbf1+edJ13q2AuAM41DdVcV841XmyDoAQslQfIdGjq4rRGeSDmX5ZJpZMb01hLQuVNntG3bVt9pyJlDceJJJyJXt3IPk2gUUDp/9AW447abtdp9jojc1VVE+7CZ0HXycDjpKDWOlpbmoVRfNRuhzBQSmSnLsDdziUjRfS9iqYQ7XpwKLFZ0eIn1UbLB96Q2BQrLCtd4oOsqWhTLDPLQE8dapIRgVIxSx/VV6jU2Ib0WzCY+UyNcJzCXzrsaWpY4J7m9nSYsWe6RApEzuEhDDsBirEAXtNrHWIeuD5aahNINXVduH2czGatjK1jJjUX7tDiY9tT/7+6LU9joMk65AstYPBqoT++RTltNoUYujJe5mvJ3iTAZTSa7NHdJXfVIlI/LZmFnjpWl+HyIGLc6VuFsP76X+bW2GbDZHa+m/4kHY2LJlDpXFemiSKAYmmCjOe32SDZn1V4eqTTeF5iPzWPTV3lnApU/CRmnVE4YcNtz0o7UO1mBYJHeUgod2rdH+/YdUMjnccSRR2HUeaNQVxs/DeWHp0orFZRkJy5vkcaZZ5yJBx+8X5u4VddUYf7cGoraHp2SrNOwxi18rm1JSig3Y7LnD8XqdElSB6LM6YzV/gjL4hzhJIpPfNVqUtLeIYqyMXKjceuQNEZh0X1wEd85QCLQB81Cc00iZ4GiNl0mYSVCww0HLINcpo/XYZlY69ho2OyunspkpgWZc2ZaB3/vyZJx4Taq6I/1frKcJ9aRuZDP3ZTtRSLtwXdtdXNtR2dWATUWYZPyGYncebmL+GQs3yGzcTHZNxYWTccWruIpF6cuRatn1Mxp67nERUYXm9DCReZ6WuRu8t9CAqHVLLIrgmtDDiQR+/TcHn+GSOeRwl4W9zDIQLAno7B76WK2bp6qXZE10c2OXDK6fbR50cNnvq7NBZWB9LKU4Pt7aU5KniXW+dOSa5nDZppgqPGzzgMa5LCwjyUFU5U0K1k6iYM80wxo98p2lejYvoOm6chhA5dePgF1tXbgxA+PR3zCutrYNvgD39RB6ZSTTsHjjz+KTFkZqmbPwoJ5c3RSSrKejIVkLmvbUlm6ecs0tv7O4tblJUSsTy8Lg8ZnrxtObplc2tIjZFCSebH5VdQo35I1lFJ7f2md+K5ne/W27UaapWwJfrwUk96oI3naL+HHE27pRnJScvd2lOHOHhFEKwVQ9qIhIGUKWQ3zSpSPgqq+tmtA9py+eKmrEEVYasGKdNaD8u/qCntCgRWKetRSk/tiIC2LXjQ8X2TWwNPuz03Ay2IEeL1BPzcA14L8vT13Ksq1UWYQWuo6bFtkzN2qGLtynclBVbRHsY3yCcvFUvdHAFOSKb32zBdyyN42cHRUMsyJNi2CSn2gJ+h5GoT3qAogRWS1FUTmI4OrCb+mOSlgOYVUJIw2h5DH5B1GDcG9VzlbztA22qeqXiKsvw/bCfuKljmgnSukEN21S50eDppMeGXdJTcNSQno2KEjcvk8evfug4lXT2weTCmAUjaL2VWzMX9ODbUEbW/BxDg9CEC3Kg8BcR9j4y2GbGWnZpIYwcmFVFv9nAAWlpVeR35NL6fwBLgwq62KXJmCagaSQW0FcGHCWeW4iTWcANQx4o6CoQfbpXhZhs0FfyXKKFTgKUpano9MfnODRHwnUAoIUOcShhh0dls53Km9Bsob2bHsxBcLHbVoaSmcBgJhUTwJD3vhsp3MQl2Lbh2JjPMWm+Ahzcgyso1x6uQ3vScSSgm28t5haH0Pd5BV3c7sqrqZZvpZiQ8Xv7idYhuOlWemm8YT2gBHjCUe1OBTmthvhcCeGuJivtarheogd6t8QfvO5e6RJ0P6C5gOZ62JbYpwGFR/c5yvn4hLe3icWTZaJqW6V0cAsUMVVHc0791cOnlKeQ91/S2lJmNNwZhrynkdXFBz+TyYIv/SzjK7pexr31774eprmg0onYrHH39E3bdZVbM1eVIZkmS1ZjNYVJBJGW2R6o7EuyZa9EU+rwuxKBE5rgwRX3WyarjZXKxAbyVSx1JezQK23YddDi2B0JgNw/v07UXk1tNC6hU+GqF38dN2IM3UjhUA67Lw/kAyySVHyFqlUNSv71qGy2nbSO6IXJTF0Jvajm5juYfNNXWpQlkM66W4qGhHL0NRdmIuRboohzBKfpc8pCgbkZbkrprkMTGxL4Varlzu1rogvHMm6T9TOcRWlssVSiicLVJMd9cuKF/qMXtqA5mwQ70+nDCMbJqbhJXW6Fs5y7I0Z80gN3ZLzdGYDekqM86t+Z4X08o/lEsXCCtvcZ2PO4RpbV7Tpy0tCRbKpGxj4r4V5Yw5hDurkoxrBzhpxaO5drwCSqIiyDUtF017QSkgGy2yJGJTSDmW3sUy5s6GTG/zIHT+u+5qbrc1RFH2K1KIrJtQamQRvIrKdujQvqPWovbq1QcTr5mIRYsk6r3yOlI2ivt28kkn44nHH0OmLIvZs2dj3twaXVAUKgkOKlYLlbXdVian9kWK+e0hSuk+uyffOSPx8go7TSJIgFZprTuGhXmZyxIlbIdJY5mA3jSf1dWstOa84SRSCpwmCwjnqFlCTrz9qXEJo/kevfF2J6Z/KYOJLUwDHncxdTc1V4sV6PyfulOKL9Euqvui1sxF3S2pofjfvaqfBw5ofo6WNTCi5CkKspaZlew/3m4lCjmr26qG8+c3F8+1OlswUUQoCB1UYYKSYGUzgYVGd43KNdyptAVugQJ3J8Ue3kmCVcumSRnj1do0nWN0J8m5rbWInMtkbn5cG2PGPd83iMihJi62iRoFNOgy38rF/5h8oPPHAgvOWp2Y+4S055X3lsoDhuftsAjrvUQC5j3madPQ+TekFBudDYK42SN0e0ihRRpoKR0pBZQKOfTu1RcTr7mqebhvAZRE6K6ejRpx33RMGY5XUhQKM+3IGP13q6ci/YgYiQ2CaiCGFqT17KMTRD+rYOfGGVF7ajJsBuLiqflUgTob3WDCXQAJd6tMRDdQDbuse56+a3mCprAPE2DIHKLeyyF4Elv+/GOkc6j4a66Fdji0f/UManU59YinqKMBXTUKs4YbJnhHZ6rpjk40Dm0vRJNQJcz6fUt3AaYOUCejfmQCku22fn1lP3LsVDqjB4XSNSJ7VZ6gyarKcS1cHtXsuaDtIO5tkrWUwmshtSWL6VfKXKzGy59Zo6QM66uArpEsd7PpcpNgM8tfuyu4kG5Apg3ZMmnk1OeK8qKs5rfeabPKSm0OsA6a2iAZts1jC7/7s1Af8zGJ+BAB0/U10zxD2kXkknMTEDGcWdncgIKnxjY6sWNrHNSZQOmbDOd0eQpo3a4S7Tp0Rj5Xi1693X2zdfeNOfnD/KJxmNLJJ+OJxx5FNlumbW9r5s6xAY/KCMw5srO6uOrEuDLByVpkEkkoU0RtAyjzp4VFsCCWxpQWrH6ckvvT6mYJs/FWhu646zrzAlUHgkgc1gVpLpDoNRL900+Z0BPPV6o34fSJLUlAI00ETeou1lPJsy7dc9CPi4slOze7RWrig85iTigBJScwstt7D3BnWp5Y6pHCODCpOKztWXg1Hs3EfCxxfeW5vITBd1+mSFgdni9mL7TScmGpvmfhrVyLxcVylptkD7sYZglTyr7ozlF7YqSLSbS2UE3wDn2vbDtRDS6E4i1z2/P/vZ+S5ZXQBvr/9PrcVOQdrAxE+1AxumtKtGfWhmOg3FVlKx07sMFAKsQG9X05fySXjltJLBPUGby79yFq56VLXtpj0Ut7d2VG4sar6+gyK4E9LRuNtTrR3ku2I6jQH1JIPE+MNpC5Qc+TnQmUDUozwxLQrrISFR06mfvWGxOvubq5MKVT8MTjAkpZzK6uUqbEEYyS23Sn8CxfC2VRMzFXxRa5fEYztgtRS1PvP+SJgfE8Erko12Is8hPoNgEiGkzSZCME9ohWvW67jGSXx6gH/xwmnf2bRalYYhJi4N/cITlndNdj7R1BTJM9LavdQ8Fezc6DD6Id1cGqnpvjGoZhge/4TlGY8kDbe6sLn6juguhk9+4CxiYYy/Od3tutsEUrFyT/5//fXaF4aoYzQLJUN6UtaNOvPOrkiY7RYg/YpWwznS4iW5ZBrpZJk7Z7hRYf9GQ9ghm1JPLkXJ0SpvXwsU2Ml8McDMS0HM4SUjnuZMkh3U0f3QWsyKXzPc+TgyPB2aa+w6FJCH4OYdSyxNiRubQ8NcfTUOgCetdLOhUmons1ggFxvbka0q04juUAWldUon0HpgT06rUfJl5zZfNICTj1xFPwmAjdZWWYVT0bc+bMDWFqMY7kiLBTgE2/UFzKHjV6yq1NCO28KuFyRX2r+LfmYRJ5iPrJcFCJbzy5RAougysk/YqcIZEkUGS22WSnpbHlq+yI1tTM85NUQI7NQbof9pAWn+Oi9OOVo2xrLmxqaLKc1N2sp69YN0ttwSJiOZM81WvyMD6lBi4OPR6KqQS8n58lFz8RlzPSEzw96qRmt9weiuThfCH7sDWBi1W1K3Ba50ZPxFQXLSTuWRczI0CeohBcUjUTn1NHJ54XFFtg7spFYfioNxQt7Xf3vCL3MD30HusEYfYi62biqc4jCo2hiDmwXRtPDWZJAa+5z7Q2tU/OMKND4bw7z2HixsF3tN7duglx0NyTcl3QWY+2MjFWw2eJMrE12mzsyceZ37Nia3Nj+Z/onkxhIetmWoeRgRRQ0a49OjRHUHJNSZiSnOtWPac6akurLpdHqDwtIMP+Rpr9SlBx7UN1JAvIc7JHirWNiYXBuduJj19/p452Z4KSH/HMBe0knEFe20ct+iQyg+SMMFDmzcVcUOQi0dNvzeXhwrGt0LsimpupZNwzbOu11oh1ujS3TaFCy3DoynkxcEgy9AMC4pntFunT71rkTC3pCZ6eaBoXtTQMTyDV53PNyZMZXVwL4OgZULYwY2F/Z25kYKxX9AUWubzOfIjuXLNWnqO/opbFyKq5kfHoZTwNyC4V5eQY0/DujQH0/VmNXWQETSjKeBKpByrkCsw7igR6lQkMRAMLCpn6nI8asPHWCfZcYm6JmMp9QlG2RSE5p0n0pNmtfMabDspxPc6S+Rh2tp3lyjnD9fQUBViZK1bhEI5qsk2UHol1N0AKlRUVaO/uW+/euPpqcd+ag6Zk0TdqSiJ0V0dhc2MrYu7Ix5d6MJ5EwvbMFDBdS+Kikc8zAUQZjuxmeeb0SGU9w6HukHNnYu4Go1OsF3NAMrfE4IwLxBrvkzvEUhDNz9drRyfPxiK6oXiKgrAlwBmQeW6KLXvLW+JEcaZoRCJW3hDtzIzERK1Sw26tTMULia0aXqOZBbMNAY1tOCIXzF1mggiFfC/3YJ2aRQwNrjVyJSzJGrGplKLgoBCvrhzrGOOHOhDoPMeIfp75riqAm27iNX6ERMusZ5Y2GY0zo0gKcobpB5qSaNlZa7F2gZG/5UBobpTpZf4G+ls90JIn3Yjwz/rUEnKWuhAG1QHdWu64TVjCyKZxWhGgARgTpJRnMQ+LmwwPXNV5bn2uZByk+aF8RfX2OCkPfiP/XWapao+WHiI20sL2APORn8hooyUIWrS3ooIdKOm+MSWgWZSZxJlSTVWV5ilp1mtQH0zXcSCQQl4FF3M5JC/JWIN8R/xv2VG8QFTAJSwWwhQLEEl7GP1RkZSHRGpukyKNVVN7PZGdKOo9ixwclE2ZhuVCurYVNR+I64UrR7Vd1Trjb8dqcFZ4W2N6c/3qlU7Y/bXURARa7b1tbMRaAUsP5zppZ2LunAKyMRjDwLDqvPui2ItamEGHfr5+HZwCvekWGuLXuWvZ86YpRc8qgjsbi4kdnOFIzVUhL91EGRkTVzNnDCS4rIqKlmSp7MFdFO7woQRDSa6AK4VztTcRIxaFZSoCq+XpVnE5WsdP35M83cLrDWO5T8qs1DXzDgomfRtQaGlTgakS7GwQPUfkgllplAUnmLluJUExH1/aFIkN9TBRBWPTNOWpvWunrQkJOEiuUE5NxT5PqmUFvdAZJRmenpFoU1IP4LD0FZ///B7XBD1+XquyshKdJPqWrzVNqRmB0uOPPYZseRbVmjw51/oXsTxCOY14Q5kMCro1kMl4WxExonbik4liNWZaomK7NMeJOy+jTha2toVIqYrkVzUsLePw8Lb5KZaEx8nt8jEBQRiabXUk0A4oBnh0E6MTdk0pCVErZ0BRfqiRbb2RsxpjKi74x/qWu7ypQGrahoK6aQe6Bk2PU0HVs6EtmiNtV+WfNYJsi8/pvTJQP/8tFCD7oQw0hutFbuZ4HhZD7O470W66vqwTTJQXaM8VxHLLabIj23XRWC5kvRKgGCBGY7s42xEWzWZvem+mHekqZWqA5QfFonzxdibmZAeWqK1/LZ9JGbkBgYMfz4nzORa1uXEGxfXPjdKIDueCEUTWKpIKiVuuXoKlN3i6hzyz9gVz/dHcO248vJZn9Ivtykzn4kGk1nlAgc/SDgyUSONdlkihXUU7dGovoFRnoNRM8pROOukUPPn4oygToXv2LFTX1NC/tho2Okd2hppOBluG6mrRBZHcEa2rLqZQVkohp0zHzqz3NpMOElrQKPkm1t/afHf2OU7pLi87OF0En+AcTM+XiUOTfkS1KypczODltsT6MtJ7nV/entVYlO5jTs9tVetEtJ1NT+NV0duifqbLuEOpIGgdGOu5L84GLXoYsr1tB9ZJ712cvNDWAEZcNHFOJDJFF8CA3H1cuZ9WmnNcmEQYsc4gytuvXc/wjoxGney0GW4IymYzaeTznqXt8E/gC7qi1jz6UnYU5meYWEsGZ9ILGbHmBVFv0az/dEZde08jiCAs2m6icWdyrFzXD1qIa1seySXBjYIjGmgxxqdpAcJqclH2un7eNlNP23A2x9QVK1A2wKN3Z1qQH0uvL2U7rx2gqdKEuKfe0tjmccb8B2pGi2+ctrl4z3l1WTnfKtpWhILcXr2aUUrASaIpPUZQkjwlYUrqOtmR2aZdhh2XQ28lEDbxGaGyxe8DYphPLSQqQ2AqvZF98+8VGKKqgxgYMdPZtSmbIxSEVRMg8DjT4rPSFeTZamxO57jlRbfaoNU6z1L49gQ337n5HTZ9iw6n1EWmaQmeu0L9SPU2fzhZk5KgqBEwArhHw5wBBK3IIi86B0vQpntMGrT2rqbPebKiPJ0WGGgejwjUUQiNSZDGnAL59DSBwJdCWLCee64mYNJq6LhgrJQMJIqlRW6K9U/yf1X8dr3IiqU9RG9RKnl2YdnaGDBExqTg23w5PzHXxHsXxjUqpeNN9zAKvvCdPUrm+OxdR+XftHODdlHgvZ1FydwJspNen8/glqKL7OcA2jao7mz0jjazGB10l8+YvF7f9ksHL54g7W4eVxKl1cjt5DriRhTVvnlKQDNhSieffIqCUkaibwpKkjxpg+gRFC+lsA3UixOjqI2fpOPgxFWmAGTHYYcIhCeRedTIyku1xMTdHJsaXLy+fKJyB7o3gUZxF3MvxSJpop1oczjL4PWNzWk6bxFrKxFWqS9Cujuao2KNvLx/dij3CHVP5v6ENiGRpsZ7mPBpbgU9Sjus0mvkfCHG+pC7IE3Hlswz+jEhP+ANRVoudmeasYb+5ip5lrSnoNYTDw0tdZGp9mTiegC5KOPZAdCLn7l5GLqaGK4s07UiA1Rq/iyEDS1j/ABLczcVoG1Ava+Rl9zIdFARwQ5o43FIdLPjgQG+J00hmKedI/1ldV4Zq7F3i2U+WLcI8xas6DkEAmwN8DgkOx3XjpiXy3t5lp6jRxpv7hxHhUei8/dhugfSad1R7avtKxZPCWguoBSib1L7VoU5CkqkoHp0djaLXIHlB6oRWkdIdYmMJciprKotqbEtHqa7I5MoNfLkES4rHyHd9qQydgRUaPEVr2JsxlwnnvCgG0tYKLKoLVfKWYotRwEkmRx19tDslhj1/gkL24CAupmdQmICOw9QIuOSDgjR2ifICIMQ7UwSZbgDMnE0ip45eaLLS0ygHTzKSGpj0RljiqrtKnOx4l9hTnZ3ggXLYLQYNbAznlefkrITE4fD5msT3AV1foWFdEx9itWxmGECwJgr7OkHYTHF7B01MuN1PQ/LlT9ekgChvdL1r3I6cKR3ZcpSKApKGQv1DURcQbGsjIOnoEjbGDm3jmWYTEtg50djHpqiwVcU7Uznq9ai1e+3xFcwdyqWjR5SWsztjwdWGrKVF9FKYa3MMzmAQQ9kKERMlsmw4pSzA2fc7YMWYnP+OLDSQ06hfWUlOlg/pX3Nfcs1hyZv9WvfqjC3Zg4LcE2y8wZnXuWtNV0edbJkMTV6iPBbQqItpOh0BwMFy1xVNkZpW3uAa+aRZYkLvffrUdNw94ohaP44NyrawQB2cq2fzBv6fnvzdj/CSSZx7Hoe07be2dzwLY3RSzjiJSeW5BglHRp7MFFcC3Ld7RM7Wu8pRh3pFqvg7CFxo/kMH7NSXRZZSUvWCTxBz/Cm/N5byvLI9N9VKDGdLmYiAfuge5k465Qr3j7WsMPcCbOwhca5fOO6nnE/c7/pgvA77A6goT9e0p7fdRyW6VGL4eKzwmk/QNh0Oy1m1nkgC9ma8Am4x+IaVh0UGHZ8UWvWvTFtNnsLsrZbx24Qn08sW5LvhWodjxZYWocL2QrqJp55PydnZ9x4Fi+6Jmh6PXIU345aprDeNFoHbZttSoDWvj0WykzmzGHtG/exqORBmZAlsikkWIYxF4zzbk42X0Sk1fTTVeTUftukqNqCRPI2RNwOGhHv6bijgx3AxYDIi3pt4utJtVYnpsmLPseslYeWa9jk0d1a85/Y7lSfzTI/GdWmCxJF4ngUj+pIwSWKhHBvreGf9yZiqpFZD3Mp9hXNiTWkhHrJjaFuzVQFnax2hFTUAYBCqtXPSrYRCgAAIABJREFUB1bkmkNYSsGLjTKMufBdjzM2FvxWz2Q2cVgjnQQ+3xREWxKI53HfkW7j+VohGudRMGWslqltLhKJIcGJWdrmUtrGo/PJNTItMo7ys5h6wJ2IpwizSFf1Qz9gosimbTzuyM/adhc/yop2MJSdLRzYGUpmYi6w+3r2fOoVuEtqtUPsw225We6+xbL4fd144W2k81lSrWWIeX0k5VJG4RzA4/JC/TwlKTNpju5b1WzMmTtX55KWRWRMpbCBirMhT4plKNt3fu5G7CxqbSBscOWgATF+Ps9iU3YLYFsUL/BU9yx22oMnYnKCsIpcF6/RYRer6fExmTCUFngCoGsTFr3zhE93O8jiJa+Z/cSVwejKd9HY3SReiAuBUSUyAqvJUnHdW6VGVeXM0TJxzl0Wz2kxoLaiA5uYnrzHbHcFBbkVz8vWKJkmpqrbRQYQW0/BVdI3EaCxsiBOekvb00uSVXnRbaRXEYD9CGsdEwNszf62a4Q+Rr458TgHlEp55uQ4IYq1vmEOmtxX1RVGPvUwBMvMDhuK0Wl3L9XMlttmjCpgcSxJVl21WJ2xbzPiNjKcb5tBrIQmsFB3kcMhk97Az5hfOHJYrsoj23X+mqTgLrq75+4eOqOnPdgdVAuEjTVrkXRRzmYyl11twLywCmnyVsnkSXHfrm4+BbnspxQ1eZurZmElOfUh+rx2lprPXltg3IlMVFTNKZ5E5uyAQESn0FUn26GVMXGCuvCnkzrmEuiJo6rXkOrr8TpK6V3g9kiGHR9pdMlZk0eQPFPZMgIootsKUiC1PBOfzFzI/Bu9EY/YuA/KkoUgoruAaUW/Nr/quTby2VAM7DewlAYeT+6JdszA5jsI0Ecrne41wTHY3hmeF1ITIZgPFCOyfn0GBwhA1MG8PpBfU2ZiXo+nWYSEVz38UfKOmLpAXDeNUAkRM64D0YgHJWwT4hzjezCp1ZmSAa2Bmm6EwfPiOLMbBb/PM+zYstmPD9dZG9q7EOm0/xG7idCiliUfHyPjK+HfXKR39YurwRxBG2uyS+8DZXPIJh6TXu3QSwNcbiCUGsi0LZrtDxLyfgWUKtGxsoMe7ioFuc2m82TQlDIZ7RLg7pvvIDYNzKSk4BpVoY9gIXmLOqjYZ+Hj2KGE/LJ3GvA9zpLM9PQRqryqP0SkwsLUlvFtirA2uDdNhguL7hBzZymUy+4lvcH0DDHLrRIfP62tOzRAbLkznPkuGLPejbk/8TSGqFbM3jfm0jC/yia61YfF/+6ujr91pL8RnlWsNSE3RBHVCAQNlp8wO5pMie1fGvqhBTzW5y422aV/x7PM1dVVwsWSHunswIRuDz6Y/fReZkcPm7t+JEmRGgTw5ew5YTamGiywjH9LWXAw9CPFKd4z2dDdb/X6QkEvQdntwU2CtmDkg++gfwvRu+hgy3B/e0ZPM+D5a1EPJ7enu+Tf1KAMQEPqijvWwcFlbaC5tCHb38GHSEh26pPB2L0EZrT7pDUt5ARPo7Kd5Cl1Rk6TJ/vg6ubmvjElwNw3OyzRdxOylki0VfuqYmelDJo7Yq1XLdSrO7joKTm6dxGdN3ahtCSNlBZdmm/tyo0zDmdgIfXYoltWJiAuhGaX8xSCkGBHWTQQ/LDwyZCklS23I4cyg0c7KNBiXfXcHnPnvL5YF0CkLRHYyHBcB9Mqd2NFklzKz4d833DWV5ifdqKU5/RyHdZfmg59TFS0b5phKXabG6ss15etH0Bg+pg+e2QbumpGLbTvtwQebJHrAQlc7cqI7fc+lvEseGcTMXiy0YzAQntWmXBMTS2KiEanvnhgI2ppG0G+aZymHWoHA/2zN8wzxueM3IrGNY3Auw3EgibKErVOMH6EexQEiZ8DaDHloAsGcAxjQfCmXiqHntq1FciN1QXXM1CpWFTYIsk+b1MlaEpALPrWLN23KmVK80hQuY0aJXaaaZuT6gjeeiRyD6Kzsvgnn7RR1NmESN8HjRHQBYwYFD9vET1nIZacGbXKiGDH81RCcqQVPXpTfe5OkbsYTlEJbp434bIMbz080fpcm7Dq3ER2QM3wllwaS18QEdsXqiTNSbcCE1hCrZ/aQw9ZYI8mnvzBIlxu2Nz9Y5soawZNs+A/R10xTf0KBcbKLawLpVXk1dtI1E2KJagqNhjh4LoxOHGfi/uE8S4DYCVPZMoCCHXWp5uZ22TO6lRaj2tqYt+MxHEsyHjo/ro7RkYd6TC+eAWxTVd0rcoMpXeOgWwoLnZ2xxHwlnOB03ovb+2T5dcOWM0/MFoavbs+mb+raw3WQZN3kbUgp9ZEGpZeyN1wP4rJKglYmxgT+M2jcE+gfWU7VLZnk7dmdXDAyfHo22zWvmmbUl09aaX1ITM5VuoRj75p43+v09JJzYkpfxJhmNKNuUQyMHmGjsOxPrLArc2rZsJqxrQAg+tILmSTevDZ3K2LWIwMZtaqv4UKk91ZTyLf46yPtkexWKPEXk66JIz9SbmLC+s5UdW0sXu8Z5C14jUo4RpzCs7F5AcEGPaac8Ubee6RLc3gfngukNhcjmSSCJguWnPntNm9Jg5qDrx7NrRx7HBEd4Bseem/ayKougxSd+aeOIV8L/NRDdEOU5BxYNieRhS7S2W+fLZODpQwpuPRVy5acZPZwM2b8oXjlVSrklaxXsRq7W9CBoY9rZ06E8p7PEnVx9NAKIBmIB7W7kbzlmzeKahbuojSHaYiOAeVaSRnFebs/VR/DC59HDDM1TaBm1uisG5jdpY7Jb8QUOLJ0WTUmknu7qlnt1sf70i3Mj5oaeZZpNC23eJN3ppL9M0yurXzZFUV5s2bQ5agYq0l6llcNRdC47bgbIfXyWsiMGvHfMhsY3IpynY5aaVLv5r6h7g3srfwRBN+OO4iUEQ1l8l2Pi4AZ0sWRZLJaNKtC606dWJnwmtfHNMlgpbkZ37FmKEK80Z4/HTcAFz2fUnJ07IPA1zV0+x7yiTVBzOws5MwmDtp4Xd7p3irVI8euvCsi6tIUJL7yLPHyxI8h4t4wwemgB8zuvEYbXfirIjZh4GVuELiOk3Ucs45ooGjdRiI4h3+7xbECJ0J7Ohxux8VtCBJGmhzTHnwqOtZxkZilTvSdplHeMXy15xVOHPz+5iAz0ZvnhbBZoUeomeypT1McDLDUHH+efjftCs/tzB0RIg8sKjCyFi0HljpgRurGtA5YoydfoY7hzY/bF7b3qYbUtt2Fajs0BEFOc1k3/0w8dpmAko89+1hlJW10HPfaubMMXHYdhMrXpTMZmnV4O4EiXmUJWvwY8WvEtKMatx8x2V+jvvO1lhetyr2/Fbs06ZyEdMQjYN0gCTcjwOnKBolnmnmtSTL2jrzIlxLD6qnKagg6ZMxRJ2ia/E0V9MEQsKzFwjzcAHj/CyH0GZ0PIRTj0OyiFR0QCPJPQV5JhRQy/DUA2b68RjpaHF6RwayOtbEkc2ZrO8oaazMyJ0NRbTLM6WGoKG1Z3ZAggJnaOVqQGZM1ftZeY8ohy9NUNT2LXRton7d1NPcbydY2uakNvYkkPi88bIMysq6WEOnTdeH2L9ImJm3CVZ+5SFFL6qmdxtSURh1jIIYLjdEZUt27JHpZGo0x3LNyuZpzxTY/QRczku/hkfXtG27bWCeHKqRPmOSIc3EOoFJQEU0Jz+hVcdHKigshYObYQmVFe3RvmMHFHLNrfYtVmZSVT0b1TWSEsAcVc22ta2efZL8hFcXIeUUUMvVCYkuUduOkDPkjECpssU8rbJaEjcEJLwJfBjIUCcWlxgFvwr02RUg2eyfIOMTJio54Lx1ld13dN8hoxYS8WOsfd/y8+E874X5WBSTvchT/mzdLTRbUssarHTBQ9dez6fdFQzAvNBeTnuh8G4L0tyoqLSB0EkmYXk98qbWN1x3fgUcpgZ4HpkK6+I+WdKhJiHqRPdQNN1aZwsa9bQCZZrRIqyB6VEXYlkH0YNCr1uL+T/OPBlx5HHbXsAc5yEqeHsHBx839RK5GcTTQcTW5NGR7sdNgO4qBXPvpODHN0UMUMVsBxuFLM5rF6pDqZS7tjHXVXtYhS4XrjP5rKY99LcesAnMLPBCy+uy75qOJ7laeUk885woc+z1iIhYrWCFgFKH9ijmC2hWXQLiTd6cKTEEHRUPKjA5Y4j5MMHFivVI9l0loiK2Bdohk1JBz0RIG1y9SEyLCbTYUwtktvuZc0VlJjz5wtrPWqKZgp2BX6iD0pNA/GTd+mUGmiOjvn7UXD++zOL0Xp6V+SgOfbYLWp0VGR4zfWUXdHHUe4ZHhCZyr5hIx1A/uxb4GfGuWznvcU7HjovBrTJUcGwQTY5qXuxH681cyyObowsUudiuT7MUIypi1bQPD7eHNU67K2wZJSUAmV187GIukbNB4cXhZBT64ppbJIjM+SU2oBPp39GzBa3feynjZS7ucXr835lL4L6xFIEIOV3f8xw3utH8f6VUFijZsRNmm5C3ZflXDri0UVQETFTypllRFwmv97STo+yhY0huY///7L1rlhxJcqzpmRmJnjksIAEUdzVdxcttTFVxLTP94DrYXc1VTeONe880MhM5R+QTUbNA8y/JHzHgYRceGR7u5mb6EBUV7TobD9TtiH8VB/Li+fPj9etXx/2Xx+PHHy+S0f3sePv2r8eHT9JTYgQzrQZ1hwFHbFzU0Kl05NEbqQ2vt4565JXZZOA6S2kSGGMJby2gNNWRbWpIS9xKE/wZhdPuMoDKGcJ/Orp1+K49pqlMc7O0A2pT+m2EFI8ezs2q4XHyptJeEmNAUlecrk4+jKqc7XgUFZTMEhtMaRmHRgACz9WsWUI2VSc2uD8eEfx+shGDcLrKvZwSJWCyBKJSKRQwenNC2sOjvlO1cz1AJ2dGX6fildcJmFyuw0414BoG/AfLgbQqNriioOuTJujy743uzINKut2eNWJsDU8gFTKOpHA30RwVuoWV8TPg627iVT/giP+vPbUagKOGkL1aaZM6KYwo6bKA9vuEqo584XFMVwKGM6kj29w3YOncRHV9Vv85QFkNSYsrtKjwy4TfLvHsD104V4wAHpSVcDmqpySjdH9//PDjPx9/+OP/dXz5W4c57N7nP+/3/21z3379k/SUhCn99fj46QNY57RE7IXq/eW17J1NOzPUJXuyBNqcYWzsbIIucoBiR03Z7HNOp+A5YC9tenQFMJWJbuCmSAMOp92F/VBiZSauxtsPttt6eHwYuOea2zYD3LIRwYRIs7xtM313xNPq6WzYEJs3HUrVQAPwW6oxLOqmUCnIZ50W4gUORYd7cbaud7hY5fskUtqF9cs30gEpd6sl7a5Rjk2GQTbPWSIoBeuZ1JG+wMHvF9q7p3MlB64l5j3ihOTEHtPeUiJBqoKRoBHDG24PaXmruxiDOpe29+wbDIPLjySiy1qX1FinQ02Z7znbo93WVl3guxoNfnv098JHuXgtHgyjPM6BnsdhimwUCtawEjkI1+Gk7767c6REm4nIkxclh/snj1h6b57S+xDlhNnEncbTFAgcL1C4ppGLKzNJDYwJmUYWfCqRiI8HDZ+U/LdUYsL+1IjX13Ook1IaXO0QQnOSmlbwghfC1LJ8UrucOXAwFBENrmrDKAq7IaWTQJu9mIELAFoOZ4YHujTN50cpzM3HRIWVWXFUH66LQFObhtG9xmxqEi6NootkyjNgjFqJtDRuQenBSFRNyyLZaCQ9y0Gj+Zh0zYfGhzzVws2KUN2ChMg/h/uTrIQoIGtSekd4Vk0nGxU1hiVPTLhT6oKlTRIttWWnBxVwxt8P+E6ELGEP4XoqYlgTydELTo33F4MXLAgGf6aOnNRnp168tCUFY9N1VhyTHv/lrchoI+1CB0H3FTBC6STTUO0PxGSlKFGDd66wicSMDW6N67RpAVeUaKLnuHtxd7yewQEXlL798vMvx6+ekHs6NDjg86f3PlRNkeodhtEdy48eD6dD6+vzGwH9CvH73zJ1w5ySvUxqkFd5fAiF1g1a5XpKIdWYSQtKOB5D088Bq/fdd0Y5LvVQ5t8kWjL/J5KsNnQyKFE/XD1RDVsiOZL8aWcebzY74vB6Jtp6iWyymYs3BYeZ8Us7eBtDokdyRJAGZqqAC2S2DSqAH6PfVLbPzz0uv+6KoE8CRrL6GRgquEPGttxMCw+pEjWU6o/jmfk5UAqcbtqGpN1oBUwxFit9L5LH/ayJuyvi2bCgRKuORgsCJ4V8LD+o6XRTpxmaig54fzFyHmhf+ktyMKkLpDH36wwcGG5/e/HC+va7cFWM9+qoPVw1OTBXNJMq+xSER7VnGq0mAriTxnkl03ju+02Bo8MVVGXVz0gl4PXr15dXfVtG6dnx/t1fj08fP3hj6vWOdMMcBC2oh0Fv1Z5s0C0Nkh97SIQgDMShcmumrTQIJ2lTaMvMZ3pjRCOevb6icapRm1cqM2kB69xseHL4/klF4V1hHM8B5Rk3Hpe3DjWWzNFXvf8G5HKO0n/nfVl1nd53AftYxNxPrcb01Z1FMGW+B/QcoKvRRCffbZGsh15yJH2bjvjSXT/9cKv/kJREY4oYRb6iIel1g3F5DXJ4fO0xCBsZ1ra3qWWiuzFSvB0qkOWaNbrco/A8l8YXqU+vnwlXyGoHcV45wznLwYQSOe4YZSuljVhYmcWYn30zWUAMTMm5LSRk2GnsJZy3KF22vagRd2DKFTI1tXBZdO3DVSktvtpeUqgbvc9Xd3fHXdpMLoqntBjdz4wpff74gQbOpCbTfjBNsFj6joOsMagHb4e251sVA5ARKKXe8hLequkMj+rjKI9tJV57wYLX+n0GYbrc9XRcMcQrmjQJ56vX4/uvnEkIee5qb9MBXWYQ6r4Zijk6SznkJWm67I803QIuOxkV8X1pXKehY7x2x/UUrI7ZIN0LA930gmGbd9UbRTTv5AeGcBipDqdESQ/RrYoK6AjkB1+JsUDfnFTtN26JWOzjjvleOAtVO0ucQIWeG91L7X3YmGAqclJiFH9sgsYVFc3ixFi0B0ZVRKgni+C4s55JLVNVHSE5GRSx8pdVbiI0JM8tqu9XDtW2UWp4VXpG0rYMUggfC8cEFtopMzHHg2HW9JWqIoONw0ta7GkrGapRZxccTPdTOV3th+cvXhyvXr8G6PbY7gshT/780y/HXzS2+ySj9Pb4X58hTzp812KGkO8w1Ycxr6GqjPWBAXr14jSp5G8da53ogp6knczGtrRshQ8a+72gOOFtO9aDhbhCtRo1wQ/KJue+tFla4dH3bcNUFspYACDl7JIhez1dp2kLqT9gqrfp2dht0CvuvaX3FUZNqlcUNLhPf97SMAGqC/ZXCoWvpWrmFDggMJEC+JXXL7whKyOk4qkNrUi10R6pBd3pK8jEQNzKAJj3lf61Vu6CHxd8YWgjzTGeXqPTbhJldK46IrTs7ESQgQyTupRrRORE6lNF0kTA9jGkiWS7BZ2IyPrsVkuwMc56t5Sf1MhP00maW5gCdaMYRMFuzBNuKqJ0G2WlQoMdPgnkUHInyTMmDIetdNHtUA7pz2fhqQACETnTeBtATzSZNfp6c7x48d03Y7sv0ChZJeCDxnYTkZ9ubo8v3ojUblYFiMZDA84dO2RQkgNzuhU5LNFHhNLtvSd6yqz4goixRPoZQzt5wQX94POsrojRMEpLQ+ByR0zutfNGMFpJCdtVMKUpadsP4dCbKRW9DYIJfsL0jO5nhN+IsspNroHYo8XGAvK0pJnpxwqgVb6M7tX/bqwkqWSMV8mgtJ+U6Bfypi+ZmWEzqGCx5/V9ImV2Rhk+IankaFnxRhvpUGkVC//r8TSTZltp5d7SaRd6Bg6FRLXie7wfKnSsmw1myu0Obv0e8nOt8G4LP4kLniDusEaHv2sXMfccY+KqR2bA5bqtYhmbC0Y1ht5rSBhfw63nE/WCgQZRVlg6fozq9lPXsuc8BNiGu8T75kdSGig+tb2DStHojDRq7nXr5ITxvbx7MUA3DbkXY5QQedOIpbdqyNXY7gB8woNUO7MKZbCDOPdVdGqZWMbITbYr7LZX02Z50EHB66tR0T/TKsXMp6fk781bUDWHrioDHa/j68bnU3lruZVSNvYIprgPpA0ArGgblvS6xSYQhQQ70aZ4ZqkRGaViT9RF9hTl6iTwNJYyAxVUSWPtQmLUb25oV3hElBe87usTo5/dzKkG1Y4x59BaqTKpw1nDpsXEUvVLU2/XsWoDGOPlyYuDydirmur0jsApeBv0BR84N/mKxUwqRHTLuz9daSIsjctjxNLYSup+Oo6rh0SNVE+Rt2HdnPTmmRsd7c9WjIvno1roFKnYTpwCEWJT9VIK1rsd7fNIh+jz8NW2NTFPCpYimBN7T+/PsENeK0Y0LPOqTNKnztvMs/k7nNpnfw3dK+Ogcn6eKUIy+36NfZqU00aR9L9rb+XJpG+XZZQ6YunmZEqAMCW9CBPdjApHfjVeSSS9NV8Dz4Gk7ZzZUQioAFrTFefS06LQXrPzhILd7ERu2zDR3mmvW6Vo+5UxSi4Op92BoEPTUNzIMaV5nDARlHXCy4VKQVbfrR6knCpMXCqIeGqqOG0irYeEod0IjUokVSri8xrOXDgHm4ii5u5WuI1n1NeDhneTVK14N71sa72JMHEGLnc3XdRfbJM6bAz8vIoaiXJopl5M7WV4s/4hTdgYpHvfy09nbyZwtDyPwUAyRob4cTmvvNdG4a1aYeS2SLiRhikQDE/oXD2L8J39Kr+L9U1z1Biy/UfZUa7FEZ0oyg7O4zJ/BO+IWtf74nPExoynT3/mqoQQ5JSLN8h6Y2Y8Felhex55Zg/I2IzuPvRT33Mn5clXL4+Hh8dL4yn9SzCl0/Hm3dvj86ePhw6HtHI4LVh1pR2Kdiq2b0ghL2IqGd+I/Jf45nVPBISAvt3TwAVxVuF/ZBpqKnHdTK3eiechrMm6RmW/+mS35w0gsWN3ADzZzERK3UAJ0dtNHnAiMlJwonJgsByA5pjQ1Y5hnYB8VgQ4/ZZ+dtbudP11UgL/TaIvRZXCRIzbpdKFYUn7jNeaOW4w4VekBh8Jo+BDvZd/EvWUZ+ojdY0hNQbftMjlaSp20wwbtj3icpMUg/skyvPf9/uzSFKU8PVTDMH7E2GnhXhN5M2aqvmYVQI8qspEcTj2Tq7jG+QZ5NROGiEfbM/7MxylMaibmijfoP1Ll0I8HS5ocMK01DilrYHk/rQ+NaTd770PotQw5nO9swpcxfHO/pIYX3ejBncievZv5WP8qsXo1jST0VO6WI3ud6YEtHPcG7ovadKPHkzSe/iFhNkm+I03AjuABR18gJ6HHSSA+k/wAl4hkLaM59EfAc3V1JM2r9IFlkZMY0Uxnpt7NCh7fe0qnYTYSdNCVmz0EgGw0RPKQUoWFPBTX6/mY0r+7tPyY8RQTbC3IsaWwR11+bGjcxnj4nHSOQQ6oCoO2MioA9QMwWQHHZW9T83I3/VQuTE1wJbVE4bzRMpS4N/VyE6DTemb4QKr38rnIenHbggdKwQjI9JIQGuD0ciSzvyWtB2BLB80PDYiTnggqEYQrxo/I3PFXCV9MvM/F3I/XHA449UZqYVTIoJLYDmaWzwHf+9IMel29+1ouDfK3giTtSdow6fpORQX7gWsyfdvcJv3iuMi8m1FE3+G45Gxu6/r2qKrqWpfHwwOePmPEXm7QEa3MCVFSvCUogTp3c3kWvtsTewIPZBwFOqAWcWtojQOmo06CfZgRvak8QY6tKRDyqcxWAakp0pCaOPycpQD0N5uLAKA7peZ/KahNBuQn2WvL57O2C6fQIB3/2wIdD43lTgJPuFqjvGfSH7EsLEJM6QyCcKkWvWmbUvJ5vaplvePVItJixsXXd/hFDqHloNWaHetn7f/Jhymg951yBIP4L5nHCkMYTDjsfvvC6hes8um2rRL4jbQacqjPZER275GiIYEcntKlGpmqnncAwe4SeOKejJgYDS1YgwLg7doUbBzS2sB8rtRgCMCSRGduCGbvdF0uEYUPaXEWRnXPhpLjcq9b5+O+/Tyrh0Z45d9ShPzmjpTA6nvalV1eiCbek/6RpvJDz/8cPz+j388vlzSMEqLvL2VRrcipVVpc2tCgWGPwl4Srq3IUFhqC0MOjj4TfSBdj5JyE5t0rF+thk/KzHyvD6MacJsyRPiebavJuEQ9o1zZKonB1LajlJkMkoDzW9W2NXYndZIxrMvxrw0KpmBsY3SBeuSJDjxR17t4aUo6+sr45vLnRqkw0zvq1Y3UpZUEvaLYbf/AmtThKK3RRCeVjEPIHbe7wwaLo9X5exlQ0/o1YvWJcolOeBanE41iWjmK6F8PuiHHsM8b7azDzAO07QYZYegNpXHstNuFK8WqtLoR60RUkog8uFVX+qwYME6RUp9JLd4rGJmZFVcR/8JU5KfhgcnYiCHuJDRGXpwrqBCt6ILQRTom3QxpRz6eDFitVq1Jp9MjWjCf8d8FCRewr2d68Z1UAhixdGE8JapvN6eb44N63z5JeTIZVkvI0ZWWBsweoVTXqKkMLjmg6SZ2ZnG3eHQaQhebmnJ/PjOaxbxuJ23e2wHbB9AecCcgcsHSZTCJdHbftR/yEOASm4OTkLbsE21ja6fa00O6hOr6Heg6lfhm7Cq36BQyWetkrkU+s85V6+T7tvTLa4hTMEcn6YUPZ6qOhBdlS1OJ1C+3juyk0Hr3tAf5pzz+h2gBKZdIiaQtZXFxgMcnLZuULD11g/Imnd5SVNLt0g8SFad8vhcBpgoVg0oKCqeA8j49b3uLDu+MUKfRIod8a9adfUdERPGGB2jb0UTNSQeHQuEhqdFQd98c+9A+YSN3er2NJW5poq2QwH4ae31fngbMzkjhbkqhlAbSE5d9q2kmJk8+PBw//vBPx+8vqSG3RskNuR8+jiaPpDoM2yY6+jL9SGgBadNo/tcoOW6yDFSbGFBYQpnxmBAeOY9gVgpdHx4UKcB9MgHySrqy4467AAAgAElEQVTY6SoP3uBzFECxZWG8O+JdHtJYj7dTDpz5cAS8VZKC4IzXOB4TCp6a/oRpPmJzqbjVsuTwlKWte/BqmfmcKlcMo01GUhlAaxppbcjazhNw2ZIv0xdVplY88uBKmSxT8mHTSMSxx3w03Wj+Wjzc9xPAn6hoI/8lWrOXt2xsHI2HWxIW7VhTchxWNlEZJX8B0qiBkpLzI2dNy02QzhxI3lOpIb5pmO/GnDZ/VGrBMiKLdoChiRDbhiXRYnRlMbUOlLOdSiQNNWEvb4YkWbLkSDDHTG8TjsnipuyTnU/a2L2mvb7S5DjTYlFbBU+3IEzp1asLNUq/iqf07PZ4/+7t8e7DBzBFYzjoyDhWcZTJeA2rAboypKLv+bBAn4t+fnuRD05Bhn7m7ahrumKThlU2Ug5qjIsxThsnDJw+odBams2kB/BpMTi4GMrcaX6M13FEljaQpko6NL5VXyoVtWBJBUfhpBSPWKVzf6MPbLSXXWh/Ou7bWxemdb1wRcUI9ztGqIZuHcSCyFr/wiTFY5BLwah5vJCjJSB/7pcJtGq5yEoEA8yt5kDWkHOoc9iD88lfUwUkRQ6siM1xOpMorQxqS3wkLfY11myz4jdwpLhHXVvcN6I7wO3qRTlacCGCVaP1pkA41mgZjRUGX0kcTtpebXid6ltXgetNC054Uyk1DPi9Y27YJgxyQfa2b7owE1gvNtfXbveA97XmDDaVn8IDQZqeS4WNhyfgkM5a6f5vgcjDKC87fYOn9OHjh6miNTIpb4mAFMMBuIxz7MvSK7RWdtziYpVo02CU8HQ1Hgvz0MhrRR0Kg51OjJh8U0kiqHpLHWOzt7dZat3JTbu8cbBdVesK8Jlqj3EgcisY291/8Jd8MIKzNDIzQtXybQ65G3LjAbsWVHS4XkP1HXQnKQ2ckAM/9KJYDY+qzmoRPfWuSIeL9SU5jmFFAYFyetKJSWEy2CBGpHSoVbHGSBPNBltq+tl7rBPJ0/kb9ggpuJ4OrlsTK5eSGqw7AGaiyJbj5nttrPZBFKlgkb7GEM2Lyp8TFXs9YsQWMZK3oL1CJdhu7Szay1MnimZe4cM9ILYNRBzMaHN7TUKATJQphyRjO7pIifC6o/S9amUvKbaDBYTpoSiKdA4cKV6dh1FeslES0M3ct49Ou7Sxzbu5ZoN/eViVLN7eGgzolopWy0pHjMHwCxcZ09gFm2jOy6gh5vBoEz+yCSwRy/nwtaECNSLSZobU6E1ALEd/1/Vx3CeSEEgpZcRVOco46oQv3mRPYldrM9wcX6PdjLmIBIkMVza9da5bzUukQPoXXCZpC4pRiTJEHE7rxm6M7bmd7qUVo0j4hmO46ujHax8X+TN8qegzzbCF4FhnUULrR1xDz3VzHR0rk7BYiFxpLAQRDZ6eNKdVv1CykkoNKN6G3SFnBlA+aRjpijYcqWgvBNR3sFnTmfUEc4T7UxsEQXVNIynFxEC2K2OcYhuKpM8Vu3PiGHCdXbaxuxMFATU0tGWta9hdnftKk3CdlJ1t5gGasGnd9qfjXu89e08ZhucNOioM14zA2t/l0WWWicnU5idpz/O+S0d58d1qM7lIoPt0czrevBd5UsMo2Yg3Ki9v3AsddnNinKJhDJa2M8eEPUxUo+RuRN0zGcLhekXoNyzBmbgwlh78Nqr6RZOpq6JhB7SF1jZwnpibQldGIJcjspkxvNA2RFPXcSju36y2lEnlNo8c2zAH+VvYlz+vjQ1ow/NkONDwY8IJJD0puKnt+1XaPys1IHhgkZzKtb9q+suKeykKXR3tsbkY6wL4hDRbnBpjtykeWMlBulblMoUKQZSYC53hRo0x1jd6QEIOVg9xUZYZFmr7mc964Vp+z7tNm9EASFOxCPalZx3KSFjlE5WmMDD5ZoE9kvyOwiDqD01hi9+7Qhsh4Fz7aDPkvq3hgQVN8rui4c4GRoZpa+gs8RSHG0cf0yydeSay8CV3z7+7UJG3n34+hCnVKClSgkMjbCciqhnZIQaqlywUgRFzi6/Vu9CLbq8cESzgow1YPGM3YbDFsJzrRdLYOHtpoydEJQ6dbyKjbqJA8lEGPD8s/GmlUz1C9Zz6r/v2MobIVMcQ7DAgeDD1q4muoPQUHXPS0eqOV9VglagXqdHPn6ij6Zau7fXKDXWYgQ1VmN+9ApGA8CKOy5TDzXMqCJMLnYH8Bas3qkOIiz05ndzCc6aI4V6vcNhjZUo2nGOTBWxSZZWCHNSiWoBgGNr4j1HrLF2hh3Pek3+WARN9R46yN77ToqBwuEvy7bsN/3TwqaayE+5kS1DZTPq06Xl5lYt5N+otxiQdKu2F8FwTtEepNXccGz6OQdeD8DdA95hyf1Ujw1Smr66PlxkccHGUgF9qlE6n469v3xyfP3+efPu2ntW7ThWL9jiBC2kTKcjXviPcZZnN8fgKCM4lpIMUxUKnWGlXSdTjsDueGAH94CfO44gzvHlcwsZ46YC4GpQx2ZaxbZS1gZPeFAF0sQkcIUrvm1qB2hdO4EW0faxUs9K0brhVU+XDjjnBL+r9eaiCA3D+KyzN9+nxzuJudWNyfa/xFWL2UwafgKutM6RPwm5U7XR10gJ4j54IMqmN1vHx0Q2oLSK1MooLNlEIxnGqiow85wMuZAzhlPsp0Ayju9EYHkNqBLpvAgHiEH2Lq6kpAOwVv/b9LwpSXEqjC1UOMzyhuIoLGSEytpHV3KqBv2oSa776vkPoDsnSelPJB0sLWDy6EQ1YdsLPtE1g0dqtoSWOsMGQYtQijLg77b4DRkoh07PvrXGOEzGlJSrP9vw7IiU16V5m+hby5HuRJ1P2xSjxy3hwSIyl0Z/SH2aPtwuUTdmUz+I8MWGqDGGE0nc1pfqSL9N75Ghlx1QWnwZEhW4MHyqnKZTzqagk1cEiTfjQSpNNavSH/FxP18cpLQ+WKxl+TJGYGFsfzKStsDF7NoIVlH+SaOYMg8KQE/Jn8rCqcGmt8OFLCwzYGUcQ/C0Vr5aBtnfC7VL1KukBhwGAYe3sREBWAbVzIGaptIijjkRXbY9pRFHKRKMc42BJewTcUoXk2ZzeC1SWUWLQ3DaSCcdGVLNxhBIR+swbFmhVLs5jVgLsq4ZNe3FS6hjSypV01xVKmCraxF3BbdJTaGwnDtjPa8/KKi7Ru+yjdSSmpeZWGuIZ1IqD4lm7hj0Ea//1POROcwacnQgTS5T1XJHSq+/dZnK5RkkTcjXNJMb/GYn3aHFrwR2oZIf6wMTqXJ+YoCv5WrzbuDLA2XCOqhAob29wMJUibeL5zEQyfcHeJalcRD3SE0zd/z9VJjOum16ehc/higyw3vJ2Gkm/kr6pRcIEiCgPNq2YsnTcdyU4kAvppNhzAzxRjw+iSKfBf4K5PLqqFJGyzbg5HUy5nPP+99wgNm2ipzoM2+PQGgZzS6Egf68VHBUB3c9NRPt2J2JMKeBsUmi9Z62PxrZj+hbBU2eZ4LXvIQ5sw5789kL4hAaQVLoRgmvoq2LY1Ek/p6oZBQaOeauQJiZmei3juUOiS1SvP1fxsVaQtqNVEY0b9DNJrkZ7sVpWdTdnnKwUafR+rNqdrNmyPFHM3DlTNdaisziTMJyxrBq0DkB8fhaKRGziIUrAq1fqfftyeUbJgwOe3R7v3r47Pn3+6J2s8/1MzYbywJZ1WKWSznIzh2fzHOAgeLDAJxNl4UtlUBCnt8mq89khIIPkbPxifvox+j5LZFM4TDoR//sNgIthQU28w3R29caFnbCH+bM315PYV2yyFXdNvJfnIRpQKmbhuvB31I0/zxlFgrYuxHxHLE1NsHpOjHVB8TWQstwoECfHB1tRoJHcHjj50KY4MCTGiZiSioZmwecw8m5y3gwFbhrTQ6ww9XAXA3zo0mjd56ZitCKyYlRexaZm+X1pD733TndpCxCXXxI0OL5whfqMsT+r1zFeUphgjNcS76Pzvxu1hulRQxfCsHZTeGVfVuzbV7al/ERxbVlZUWqfHcewT1vxV9debmelsVSTTu57yabIGD9/8f8bpePtm7fHp88fOJIUpBgFE21SpwFVO9TGvL06nu4pnqdX1XiHdWfocx3ZDX92azidN95Uy0zkJYivTeWptz4T0WGKMQvmSQQ2ZeiA360LpnPepiVOvBuWRttlEUc11Z4w7RwWQasvbcRGgmRtobbGTBKXnx4DuzbvGI+kjE1MumY1wCz1kKVixmOQJyBsBNoV5EDenBb1oDiR00Gtg1s9vo1EY+C3Jl/xZTA0SW8VjcqQJRXDcPD9dPQ3cuq+iCLmY9Zp66EcklASmwL21SinEkY0AcbM+qmAkQIkRldf3s6CbE3Zf4oubVxZkRUGthXMSilDbuwbthNMqlnHUC0sP699VSudAuDDt0vKy/6KBEmiKb+VbZ91/0P+rJ3Nidia2RuFy1k8f353vLzE9G0Hut2QG6NUjEKLadZ1DqGRijTLSm3jq4ySqm5SlXw4jmc3x/Flh3L02a83RDXhG3VD1nE0518M46XdPNwek/IOYxWKUmAbc0AcgzWSaLh/fX1c+4RFznV0ilItc24UKcQaFmtcw7kyJpIDMcX+4kiTma5yM8qWTR/ZwAU1GxnCtqYZodiD1zcKjjVWxAYYdqWI/vl2vzc17py3iMlZ+SRhq4s8Wx8hA4IavZ4rMBIoAgJnBmRoF1Hz9JksXlc0D8MB3UPs1DHxAcqxFufpOIWS+ZURV24Jy2huXcVtN02HvlLlKm/Ha1AJkewxKrsskom0eQeWhokBlYHRNUsBgOLQ9YDrZJheLOxUED215Fu5Wr4lRoXno8GaCNlRb2gVljCp2qeNJs5b3zEpwu6Zc//zvp+uj5d3Arr/8RIHB7Qh93RYo/vjp2FzNPzWgt+cdFCT0MTSWwArB4gBf2hkGwhN/V8vxpwlS6la0Rk1xO3VKOfWGGj0qJM+hLTmLasR0W4RaSOvAEFK+BVYK1ZRPKaGzx3p4QOpsrNP7+Vn0rgagFXcLKWs+/iniXSS3tkw2zDFixoIKqCfjTuGmc1rGoArXJnikogBD8qhKO+Fw8WO5dAmekgUxYHi0PBffnaMc6wp0idbpXNSkyJAnUrjJ7KzcaoeXKu9YTbK1buyqB3pGhwq1CtdEfPPBd/Jmnidco+26YQQOY7FH1P9ihNoytNCArzKdc9JdBJ80S1AWXb7FSJrghjWx/exMK28sQ1rSEXZ7+vmeMyeREWUiu283Rg1CjYUOLyfohs/Rm+3Y40St1x8BjJsSg99vy80jFITcu+lEkBD7v0lSZfcihIgoPsDc9+8wVYgEL2jAnI5hEmvSpYj0u2BSijvzbn4Li1RdyMTHRFp2aM/0tfVEUCTS66YN7jB3pFer5yDkvJODSb7gkOHp03JvxWrAstz/8ntA4zihWkK1e6kkZbooMU6T5g1mzcHI8UCtSqARNwcDz44CdmTg7LG4cTIKDRqSGqkqxHBZFxUIgueKUZk0qR8lw1x0qyoHK7IzCSOScN1wxQwlqPQmCMMJM+yDhiHenSF8o/0ybFnmp20zYWiViaP+EUX31lfsIPDPdhTgvIFFQaiD86QzPVsNjSrlT+UyIzBMrUkgxcSOdlZ5l7rVGrKhonh6Ge9C0TlVgrH1y9CqaXIW1lMYcjvZrzJN9haDPO3z13DD2b4aKD7+0zIvSyN7p+IlKqnpOpbWdKqzhhkflQnf/g4M9WVzSbVxO5eG6Xsyubxjp6eno6HCq5/rQpTPVexDlVfrp0CtsJjxyoR/+TzGDA28/QhDcbRfwuHpZ4r99t+PBw34Qfeb2tIVRguQtzGcq5TGy+rOPD6OJ4FM0DLnJDG4Xpn3cVg6DyZOmFSKamCdaL9c6sDnUOYCTGrrowBjDIxstjLuPpPM0UDkBUrsiaVwI8KdO+TJY6TsBuMizy1MlXhgG0m8ZI2/coBBPhfeFejjJQ1ziJL+F+6HUW43JPafVxtctoJDlaeWKPOYW/4QGO81hoRC3r9msr2XbpE7NzOka9HY3tq83KQg85rcz+sNM97Ic4KsmTGi8Ug21Clykq0xf5rVDmAfSL/fDVwht8pDdKVpMEQrrYTzonCUCI9tMyuj+vrx+P5d4zt/vJwf/yP3/7z8TtNM/nCOfmv+nX15W/rtfxnf6k8yLPfXB8/1yjdqvr29nj/kRFLPiSds60IwI226BA15dh5RDhEDJBavXgS3qw9L1Qazkw2Vcuuk2MrbM7nOnkENQJOpdnG9Vo5QsZrJn1iMwLO0oqAgcu91OXHyw2WhePbWCzpNZu/T6l9XspSMayGttdiq7Q0ZNB3m21euZIdz4g9b6qJOVwRSm+7B59IAdPRgGOaJ9Ig2jR2QfRLY5oDtdQkmxomaRl5FXObOv1jVmXhc7pHvQdHCykIlAIBkFups04/geXflhnjLX6fEeVrtXNK/3lrJew4WsPQuaTe9z0aUYuPVUOmtRvb7g2QyIxc8MxIOAKOUe4rrpBdbCOGiN07LTcjFR2WfbPTBId29PePsNK1LFFc514m2qO6XfQ+R8T//OJFeEr3D8fFRkqoBLxn6QOW2kNOMNR8nKhAxqZOyyOiCxTZTcqQfT2+PoRQJweVN04rysrBLer+lPE8AVbxpAFZ52CU9ZxXly/0JigIvRCaanmd2feCn576GkOyR2LDy/I10+d3ZrDAXBj+WJCAdhF1wMvreSqFAW2iMLKLVWrX49x6tHmMdwmEsUJO1wK662BVxrfSJZAriL46HqoojdNuTHPe46r21Pj3Ogb1jQ+lsGDcv7PyKCzw7kuEhIrRxhj4QZEvtrQM1sKVW2spgXlpmezUdEDbdZ8KXyHyLVgYZ9J9uEsCF3fbsSmb6QL7WpWMvm5C2lR0UuVWWZOWS0ZEChYMTACioEbSRmutEzt95y+J6OhWmOwFIuIA3P4vonTaAKSNYr+jnOruA+Nbq9GYQHLJxVjk7dX3Brp//OGfjz/84dIipdPN8ebdu+PTh49+KcBFRAg6UNVJAoTF0BCiV8YBlT2Pdq5GhE8Ox0Uz4hWgCmg+OV+Pw/MX6AUuT6rTcOoLLyHSEVKB8ADU7o1i05+H+RykvdhDmsO9FBfpJovztIWoZyxhss9JythjvalM6ntCKuQsRFDKNiF9NMWNgArspT3NxA2baeDsZnSkhDF0GjbQywLC0cFGi4fCwEqm9AEGXsaBpE1jT3l9Zw6Ed3ytdmxpUZEeBplbPIywNBZju76I9CrOphjgpKisvbbHrZUCsgEm4t1STxvLGAfbgsQo36g9DmwQfM0G2YoUmQu4AdPcY70Ietl+n43O6lHnHTdmWQA323mpfn6754TWqVCi1y6X1Gb0RkXeXzFa0FyycvkqSUJzTxi6u7u74/XLyOH+NmO7LyV9E3lSIm9v36KnRP6L4VkjeFi5kYv1noyOdhJvWhi0Mfr5DAl0VQ7eif5P8g7BdoNTlCgpo8Yhq/QpoS7BDlH4FvrmxA5AmeoHH+mIntrF+M1UCbvVF2aU7yjlPwH7gJrbwdDVm5La7vT+bGmLiJFGTs9fPm8Iw9hTEJymILkROFNEXCAvMJ1LslwgK/1/LMmUgvyZkd9N2jIHwUYjG19H1PhOPu8FWZUNG2M1ayVi9TPaQATHiorkDjis+hgHs+lxhyPYscEvyequkmUxyILmE0H5gSMtl+dptOLvS5jitG4MGNXMGiJ9zCX5oVVkH218rLNNNmtSc0s7Tc0UCEMLG8Ek3Z6CUdJzi1IiGGOIlCvg5Ay4d47eUeu7T5sWRlAVxRfPnx/f1yj9EKN0CdW3X376l+PXX//NE3LfvHl3fPj0nogheDGqgRzYfVrIhDr17I6a0rmfWWbjkbUJo2sk42QvmQMB8AdP1twgHWQFWx5gmkpV83huI0B32dypmRsuiSh9eCE9rE4xQgo8U6VMiC0Vy0nFsLyj0cOpL5BaILJgPFuZr2bLKhJsSN6DxdEWT2fBdERueQav3em4un7ASCT9cFk6VSfsTrGQdTzmeMdASzddvtzpgZulGbo5srchQ9rL5/AlfgxpMoWHyKUszlaiYwP6Gm+dFpXEMUrBoQmwNvpfiLeL/u3IeuxB+uA22g6B5Ab+Fw9sqhxlSoPH0np6SHpoHaWQRC21w725cJJCxDja0cOqMV7z38CCyN02OGt+X6UCSLtY2IL0jbI9VdqfL8CNrScLTiob2ANy8uo0KO+uca+HUb5W79uX47c/ZO7b/ws95r/q138r0H1zOlkO98PnD27PUP6PmmLC9I3CTyRCO0gV9IplaFCgRhMzwBLktxkIYmiMqdZfTj9UKk8lHwJuo0XT6hhBweLksPW1+TAou/cEcE6kFKuR2tGwlRt1lSeCcWw8RhFfB7qvn4O7kgBGQpUBHXXCGG6qhEkrA7MDuiYNmR3VaA7A2M9UIHZjydcQT0GgzPimhS0BJQPTOnvqTKxAcQq/tfJq5l5QdHQX/YzdJR+0NlKGJZ4TVWl+cRKt9hzbbR3GwsEpw2cNCH4zcXkrV80105ytlFQ68GA6k5g3RMsbADNoCr6IDMlJt7Vt6puCGdHZCMaFOBsy6irPN61rcaMmtnujAWUiOKlFqm8zxnQyskqUGMxv4YebYyoPv84Y/Nl/rahqGOWr718dj1+kEnBBc9/OGN0Cus1Twp1taTa5ui195v94k10fNzciG1JaZmN7WHMRo0Njvm2WNoNEOrFK8SodFzT1C4sHITpIa8CyCWAorbqlFQHZEg6+X/TelDeNlIT4NWCdPiIQ0l49v4YEN4qF6Q8LguVtWjymnt3PtCp9ZBWrvOxo6lotCjpQi0bBVs8IbRkAbe+0SzAWCUgbgzwA07mcXLOuGjL9dHGuSToSPcRAKNpwRSwuw/SApImwlLlox5PvHfg92NYyazuSJ32gp0R600NcigaTPPi3UDIo6HFQN3E4eueCHzZ60Upo7dpOskWOofRyoUJTySsnklmv9+w9czvcT9zcJrHMgzASqnk6ZF4uX3UBcMoB1n0fW4RYjDWptuf7mYHPOtGYTdrviqjT+6vjxYuXGdvdaSb/9/Hlb6FW/AfP85/xV/+NkdKvx+l0c7x9L/Lkx40tTArgClw7Fv320gLhQwOb9VbyqQqXHx+3yWeQDFWVsqpeOqlnUyfEr561D4N5NenUt4IA3B6/5/BOaKFoT9Qiw/X4elJII5NEa77t9nFlczy7hSU+9ithv0FIXwPjWpa6J5KIb5ON4+ex0BeR1c6haaHAfjHtLqwm61eQk9vLZpR+TzSs0WBap2xBaYkWl32aFALeEfcEn6lM6SR5rugRzQCSByOcdhZ+7uFRGCC9fHCj1kDIPQq0MUlqrQnEzL+LI9nuj7HpbQtaKXntk/dXCiaFnDpAwNF1Io0WKpqCU/6vM1IFjQqX33MLJIkIzw9sUux1A2iSp48SqCoYqg09VbSp0hYyjyMbF1xwscYnxqhv0t9xNmJ8W6RAbX5/MY93GtutEUv3Fyxd4gm5nz7GC/Aay/OxoeBkjxq/KkiU1oMnCS/K9JN+mmO1QEI6Q5LGDMibkDkOtphqg5dGbtraPtTUzP2Ce73GFJ7oO+BvLNe46G6Clq3xrOzf1RNWz5nMdSqDC9RdY5kgYC6tJ1er/IyNmsLmdWpGob5FdSKfrdVivHFHA+V+y1kc65ku+jFaqY6uxzurJOrHPF1Y1xERVkagdIShJXQsd9bCWk4kGh51lZ2A4aPVxHsjzb5O3xPB2jY0XRv4KwlwG2SNnZUP1R0yCFmerEWP1VfYuodXbqKhxSHi7htbdgdnN6Y1h3e9Pj8SPL5mqpn6j5VIuSdwwqEX7f5iPyVntk/3YXjAjics80oMr5Lv1BdEE/HQgpBlZZRe7dW3f/3dZU3Ivbk9mTz5wXK4KYN64yRMFaP7MSAkXZM+jBB2gy3Vc4x+0grP/bNSdoxmDR6jxbRgNX7pimulVbP4G8N1cTqBVxWWNX128fpOx5qWPN3QLDpeqxMsiKc0LtxNmmY0h4Pi/cjIJJi+RFymOewet3QJGxoUIAkkV1Q3Jr2DKR15wa62aQpWUw+A99e/MJm17PXuXYDaQOaJAteEWE5h2xrUnLtmtrHDpaqpQoJbYUKitP7UNaL3+s4k0W5MUSd8K2i6FwncE+1kbcqPyDs8uVfsYUvz4T959wQKwKmtCp9bdlKJ5T21kTjp0UZ3EHAsGJyJNqxh02CTahPA6zrCgd2LmUixzqRfrazA+7BjrELaNQQQdjdYKmkkEa4T8IW7Dd8qBaCF4M/5CTEhUidJ0dMuBOmWrIAKJxVd/cV9nK/mvjVSukjypIDud++gBIxR8k5p+FzZB9IUkuES9drZHQcyOEHD5MyJT3MsfhFv70irh79IVEr79ZvwO7bv0rfHvY2USvgw5PZEBnjshMxhghfDKPDajvTl4s5D6v5905YaG6M/bTQNrmWP6EP/TXUsp2ImbEQ1cS+nz/f7BiUnTNtMq0bTMmZsxQuADx/CXdbUgvolmfL8q32EkKvpxpS1t16587o3tAMb3RvmxkBXyAsudDTxRNj05bKNpvraFwX7qbhiiShwJG1PRLLuUn9fVj9KnDTIYsKJNDG2ukMKUxKkmy3qnyleNhN1i6VtoHPj+cRGvoX2f+6VsQiTYl9jTAOi+UHplWvxIjtmxsk3lmvkmLXJ/XZP6d3cPX85DbkXZZR++emX49df/3S0+qb0bSQ4VH2LHFExgW5HgNDEmYlwkF5FGE57Qz1IxlxMk17YcythZdj6RSRyotzaSKGNtjJuLdsTrdVRl+q/17VqE0ZxYMowVNMcIFjKd6WRQ5asvvUAy1tE7i76lHUBrRwx6rktsbFN8einHHBtOI6/sbpAbeVoR7uiNpFp2tTZKCsYmr/SsuVt9Ung0YRlrqfDRPTXjM8pTQxSuipWxTKWekNRRinTRiOUB6cyiYzD7uTP3gqkbwPIN9PXv5fmnOhChuDYgiAAACAASURBVO5B5fwaraxPcbP9XTKRN2Y0xETY4kToy3glmmnFzyTHojmR2p1Us7SD4IOupHZnxxU25d+j/tqTGKKzKC8Jrt63qoh6jSzVKlLsLWtnRm7eTdLKPJeqb5r79miVgAviKU3vmykB747Pn96H1Yw8aNnZesWuwOU9IwmaP5jx3c6eBO06vGFuY5QKPjZHfzqsARSqPXgRTtjGYvJ/u540Zy4PPUBk+T45/M9OzNTyhFKnc1RO2jKAysUi1vkQufSPQRhPvtmi8yiJz7atuOclBGxHSkolJKovjpEIcmALESEbLWr71Akh6L8qEZJUrFW4OgT/tNJXl/bZwHAGNylIH5xwdurmiX3n55W6PpxRXXLoh83Mz9Me0zU/xwF3o6uf3Uc8+b1K7UH/DR7DfDTqjHoGU9LCH7OKZ0vqcSDleGGh9foB3vsuiHz2KuaSe+k7dEUvQyn2iueKY/MGXNYvLsf+7NCLlW0ShbWIkBe3SCKJUEcAMERVorjK1RDNYowLJ6wuAr3G2xNVTB2t53cvRiXgooxSIyWrBLzT3DfSNyJrFtD70nszRdMo9aUlqoyV8EfYxFRE2Vp4wACpDXHidQpRzpibevswj5FZBUdwZSIENF9vuWnA5rhah87eW01UNixj2bU8JSXeRvG6Zw8PSB6znuHvvS4/wkGxlK5wpQi2cRjqy7/90t47axREbYDbMy5Gca7iMhNqVV1hivqsdfCwxa7Jdyewa4XSAUyqb72DRXMoCAxkzFp3D4BBqQO+h9urEKiolXAnZKE0LP5TigL+x7wjOY9gYJsfmAkmurCDx6nA5hqJaBdetNpqpuO794WdHk0oPSdEzaRQqYd03679v/hn2lCdLbhHOTijb/njEGDdtCx9rvBNeM/7XqB8gAPelAdSNHjh9O318cW9bxcWKf37r38mffvw/vj8+ePx5V4GgI7/qxP0/Mz6pGwKGLA0llIOdzaTCbfdw+sFNvaFLSvAkgP9OAMv5UBOAlQFQirEjycEwzpDR3xQmC8XPaZGIk0FUqLmMG3jgzZZj5GhSLXMgLCIhwHu9aClMlAex3il+OdcCv5ORNAel8j9GEUzjReQr887fQyTuRo6jSg4ENIIEl9JlAgB9kpXkL8AT0kDrYoHFr8jbS5rmEfe1Byyel7DUJWJ8BxKjrX5BgmLc4nx2xQjaAWhKODjqPWTYXlY9JwxVGeqBIR2vYemk0N8neGXOaxme+zYy6qaqRn23ozuYjircgadIr2KrdBdC0hGE8vrZaNYGLurjhMBraIdx7+u1eSbbL09hVGY9F6IOia9inyI/Z0ezzgWBPGSDYzKpeg2MNQpBS8nruqbpEvuH8RTujCj5MEBki6R8qQpASysGif1e1jba8GHXb2odwE/2eBt2RgWc6IsG4e+58xto8gBb4cqyhXNu9b4WZ5lwvlNaZGNrzTh6XjUD1dwflxuhLYmyiur+DhO+kw2AHPS1jBAbRxHAiW9hUxoJSQXrARzV/s79x0ioUf/NNDa/9u4LA3O2ug2y+H28Cx8AN5SeE8xHKQBm2E/Q8llnMJ/UmqqtTX3h1BtsJpqrH1VCkW5rpdpj15gshic4Qskpef7W04nOCRiUoSoyiiOP93xDlDBHkdqt5FzjK85bC3IOYKiY79RS8vwMLjZh3oJ1vfK8NDByBKZMocumkU2Kpjbao3XmOoFGCNMkaTvwN9Ro56UemgD9siQiNtBo3XMeIeFxQ0tJNfyBZb2ls1mrfIMTu8oLSI7UwJef388KlL67T8dv/vX318OJcATcpO+MSG3Ho2ETV7bmHarSD5NCVm33ibO3dIeGqatDrL64Qwmgk0ZX3iiqrJXwPQVKj5nz9pYSS85iaClNfiOVVVqNNSUq5FcvaXvKmEAjjf4QOgO4+1HVZVIZdD0zpmb79QmXBgH+z6s3AGxuxbRL0rFEXwoKUiizQre88yL2EfFbcdyqFCtnrlA09aYxhDwmQ0It3GKbtFU3tY1GykZ87KHj8Jl9K71Zwxcgqo29KYiuidx/n3VHrbcjkrnIABJ6RcBluoqBme1gWQLTIqMKfD1jVeu17OnkUQp7FV6+0KujAHyn2tUsqu+/bzfQUZ/EdkSCRcXxNAmbS6HLJFZW55oYN7Sw+2947RwbX7lHUGefV32/Ks7TTORdIl63y6ozWQB3c+ON+/+esgoud/Zlabwd7Y0uNiQN1lK9wCQWeC8YVIJmhIb0exkN+Q1Vum+h0OYkfgaodJAPFNzIyW5eFD+iwJfUrPImHSDTxWoLi4H1yzgKghkw5X2IM/1OOV8DkXVEslY939PI6dD8jWAoJus6ogdcgjXx/+6QP+n4/jfbq+PLwLmB7JaRL1KfPRaS20z5j/Gx4Y+zbc9OK3wXWs13Thaj13nogZa3o0Mz0qHZNDUgrLajAJWRX2gMSvfqedTumvMxs9W3hfr47+bkELcIFWnoDPQfJz3sRlgX2YDzwdwt9xwjGyJDmnmxtc0Ul8l+QQ2aSVRdIxDDEqQSGmPQnEmbWOqcVkFkM3QbFwlIlI6rh2gTtvT6rFrem3cLYMJfCbqpL3JkACS2ujLly+OOzXkfhGj+8fj93/8w+VESsjhSrqEYZQNy52uNHVJToKxakwCyNdzb/E2cWSq5FeqfsJ4KjSJFAq8xuAZ7PRY6kWEs9ccSbFVGqIDnBSvv3Yej1pbkCNdm62OPseZ9Ggj1zV9oXq9Qvo1OTXfFA/oNSpXKtEXdmt5+4LYemaDpKreSNktKI6OjiVdcnNkW1RoMBZ0+/fZGmFh5PnQnsXpU05FE9l4vyeCavTI9I9V22KGY4D3rGfg7aRLaZ5OqmmZWg8HeLSxgZOVu/ZvdahqBDGAjR669k0BiQgwJtx3uWXZX9QOuH5SVxjlNcrhhal6NmByUlZHrE3J+fmppBGojKwu0SdOY+FqUApYixjcpJ5r1xHhtaih7NUVOmNhq1dR5t8GuBpL8/7HR+VMdSMI23w6XtzdHS9eMiH3onhKP//00/GXX389bm6fHe/e/vX4+OnDNwcruEBCWuLsFQB3Tpe8rYmKfgFEMNMX1SrUpiUkjEGXqsaOXoeilIbKRCYJcINt2Vul6VM4lIyYPZR1n8j1u6vSBoxHRucRYbShA8C3rZGcEUmDWQXAdd9XdnSMgYOaMdbdok+evfboWnsiuQQJVOZ0v+3/WjwZbb4CbU2zYGIoCsEp6ONuci4D3VYswOjWHgO/KSYvOGAPlUcOpfEYDCV8r9AKKgy3OvBjvDLfrX1mlihpJTDf5UbZLH2NOgY0wHxSvcUmzzPNuOXsBTTw5h36iOY6cM7OhftqaehZ42PT92bDifl1q4eLATFwhSfiRObZ4xCMKfY2+myp2JmJ38ECaZzG+LOXeh/JD2yUNXZM729Fw6wLfLuQh9v2kqkwuhYTciPydmlAdwcHqPfNmJINDwedaGQAhfE4zoiTmrWA01y54XbxDW+NVrhibLQRjM3GmD1Uw9lf3XJ3gO58fSOI6rzPbeVUg0ks/of3tw0aKZHnxU1Fj8eCoZwT5U1F9IFxZNKH3Jgbgw1uprdNGzJRiXWk5FVjj6Qn/aSKjcHzcFMi86KT0XK909c0yU4hYesfg+iZpubYRRcEJnpIKhGvLJ0db/RGIGnytL/PgRxi3yavUkPEj+mgKH2PZlp1r7axWHS5798VdQBHn5BJG9l0LzQCmey4gH9seoPe3CbPaEpTGmL1/frLAMYYAlqF9MPtDiDKrbTJqmQBXHcti5HRNmIN9d5HjN+Miir3M+94lC3pFPLzagKPru+0sNSziGmYSDx0hpDptNDel3i8cx4c70DPJTnci59mUqOUxMDl8Ep61AMBfKa6E7jXe2Un3jW83jq1rdljgySwNikBEESE0RrcU9lY0E5TFO6qkieNxfvCZQC0Sb7Md+5sZwzQzt2hxL/H4zm4MSL+tj2tyc+uv08EGW+ZkG2RL8lqpvpEkFeDhBvGk4OfVEcJ+Yo0oCZl0XORyrHjt1bfBK5LsKdgcH6Qkz1EVByNWfdNd8ZDJxIZbGcnmBL14IgaBZJqDy1ggGoVL+ibM2FyKn5VF13AP3Kx9AsWb1zOi000kVJ+D4rNnvBE30l2l5JBnWSNU6N7r6PpJjS9ak2pdcAGbyQDfEElbOx53ifRG2tgyeY6qkRr51pJIkJWpzyfkZ5Y3LxXr1hsH7YpudtMmGby8HDBgwNklEqebC8Rk0KX53HaYi8mHpEaJMMHsYzeSATGCFSoLRtsq4aAEyyvVr5OK0vsFQ4xEVCxlX4uUyA8lmhNyTEwHpXLQSTSRAouHq+upt6xfEQ6cZLbYegwgN4L9UR5VXgoYvgyZLM5WEvYnY5roDwgvEP1pluOrFgXgOxGoxiAYlMePJDxVMfTKVNBGvYHzxiQvIYbs0WRVAdDj834pt0Y6jtPYhCHyU7hoi0XE55OtUpOyqVvMslM9g1vK2x/leo94aQUC6dwbI0ObezNGWuyceTEdzKMVCTT2wIPypErGCC8sQVqDl8qFSw4VCJkpnVpnCXGzIBAwjGroJqcueR7u99Iqxp1L/FRsOwif0v/YjDNRkvR8m4ldFFa2vi8KDaGMeyYtCfgoWk9XmjE0usLNkqSw/3r2zfH548f21lSNxUvdm1MQoubPne/3LKWg4oG2MRDilDnOW6NnHL0bL9ykOYABkugckH6RqSeTZhSr9PJ8GCCsfqquqZSE6leFn8YHkBC80TNcFCs0Iuxq0mgcpeIoajYVuGiNM4BauTTap82k+97mya7+s625CRt/8NGjzEqV4brNuXjzjwe/TGAeNJbDgzRgr81AwimwlmgylEAHp117ZqWspiIsP8WEqoMmNtABijns/5OZkNOFRFbt3CySdWipbVXoyi3V66lfCDkhuFVNdUsR2reDgB9DOJEjKN2mQ1EK+xEoNVlImrlU00R9RdLF3UB4TbcXU/+MM+ORWvPJ86MPlCMW+z+3MGqSrMqTjOzH9sc3v1Oelrc8enQhNymbxfVZlJKwG6UiFkTUk8oS3+Y+3g875WXi6OTB2VTOq+u3/f89BJKmh6w2cbDRcUvsVT4JyXhLZDZh53zFJ5LMIfEUpDgIPDJ4HF9UgMrPn5FwBVv2QS1VaxNQzlpJtU79h/l9FSofA+6F9EdOOiN6tqvVrDdRzVNtPoxrVmB3N5vw7IeXPoB+f+0/CWdCwYW4HY1xzbQ2NplxvAkMuwobR+wFi44oJ3uKnZ8W2p8eELz8Lj0iqkluj3Dfwrqi4j/kJQnU3mfPbs+7u+/WpscAK4tFb1CDE54VDY6G6/Ijisp7FQDsgdi24mxojRR7LD0B1EP9AKZXrveddNmf/tuJJPK2XDK+3lThm0X79X9X5kR0tk9Am1yXefVSJBrlViKA6shLyG1UTIGVpjSRUdKkCffudXEAGOjiw1bEQnYLzibrhmHMZBwiVQQtmpjyqy6EoMlSSXqRettnJd7rCyTW69uTseDxqk6GikhEKkKfzZqlwCX7eQiSqGkW2xg5Yrt3arynxjgijz8fwbD1pjr4juNiih5r2hk8VWSOhk82YD5aBe161x6U1JlnNK9bXNkR8Sav1EarKdVj0YkOpLOWBfoMWXmrJyNSCo2c8163k7YCF7mN+UZbAyqg3rQtUrZTX8fdJZCIAJwSpN8oDfZ4abDTbfq+ekCYnoHRxC3FPgHtn4FnxIe1Clx/DBSjd3wAe7MxnBauoT3tFet6gwwohqSoNlt8HzAONfcPkfJTRMHNpCcMw7rHDbQ+xGxhH14o/d1sxyQdqImJPPY3LtMV9GLldqmK2CoNThJ7404e7xEDVtSjwgpXnykJKP05v3b46PmvmWLOCxtqhUgD1CChMCzy5zzs5FrcGgvqbdnLHQxk40hg7DVBvjqAmyDIiLrcxVaMz+n9Oxs6BLd4MNw+DCc2cwrXk8pP9+RhlQfqJThmz2w2RbOMxsnTn6NQlrernb8KrhKS8U5HugghY+Dt04TccYq1UhOurMd1MYWvaa+A+hhxS2s/37P/DtrkTWxDhOp8X3bOTZX8W3DKNIweWsiYU40EeJjIgi643NIZ71zex1IaYuV9zNExyWp0piiGNQwMfL9vPu2YvCSneIXm3JUjCNj0OOTU02yrXM9LkxhDF7B6ERNy/ExVLMk4jw87VAGl6LQsFVEpwlpa0g/eyc1vcEkYZ6HgV9II8zu54qUXr4ybnlx6Zv0lG5Pt8e79++Ojx/fA2B2s6UEO6ztSC5og/zvz07Hl4dHj5SZ6lLK08xzRy736jqzdL9+NZdHZ2EOntmsIaptLRI03G5l4BxA7QUOGOV9+tYwBwCwwl5CftRmy4FvY3DJfDuqTZk3qoMh/1PezbRY9eGVzxOKgY9/St/zvYmYylav5y+Ww4GGYFnpDezU4ktRKWPtOIQruvHfp/qZgv3gby4KxJDSXhEMIyTBIa3GWOtAGeDdfpa4pC4ph94l/oWrAA5H+zt7pMBs90z73fK4QyR03bbpdXXUg8+1dcTptblR3IsxIZ9+4IST8DUbGSLrSatjhM7A6bbdBMspT6r722l4qpDYSID+Vdgh+l7Co3k32gvhj9UJ8uz1xue0Fpqoy55PnOnna1pZBvoecT8dLzWM0tW3x+O3P/xw/OHyGN2MWPr0+WNKoxtw2ZCbHewDU/Kjm2nDOdnTiemC99y4hccU02DTofvD9Ip02hsPWkzZlmWTiaSdIYBg5J5g0RYI3lKlrVzsu24oN1YMUIxO9ArKrZBcz6gHraDYfD6biQCQY3ye1mVQgj6rcGYz8t96zQY38KmyKUN8tB9un1yVM0eoLJhwrQhPMKlmvwcj3PVPOjQhHYtSB6HPqJN+iH8hExo6znWYNtM0Ex5XzjOVslIMgkv2q/ocFCMLRRP1WncpzbWujmZvIGnCcxHVBJuqkmRGyjd4HswwVVYwKvocvceYTMEI9YkqG9tsUWYMIgoUKWCkZQZdJxJGD3koAVJ/6e8t8KGLPB4n45lUFm1kw9dDI72dA6Nl7JluvebLO43tfn08WOTtn47f//GCGnJLnpRKwP/8/CmSIHqRCMTLyl9L4zmd+H2hjpynGrKqQ4lb2BAh66M5s1ooOB45UdvB8qRQY1crHRyxMHWHJ48nEOAYagy4RN0AZJu+rDRvYRYrElClzpul1sobECh6IyLkLuS5Abv3a4FxJGnq77seADO7tE+M18LKtnOB4YiBa6QUgGbdNKd1aYjXGswxKeaGF67BzMdmjDRLlCbZORwYC0VC1pSqfEutiltYVorWGhc+qgA61cAOU8BYY7XaBpI/rEpeCIg6oDrwe9QYWW64SI6sUisLPSDdllm3vnfwqxJti5zfehMxaadaUDaifcOWtCndYU0kXkY1LTWbvIprk97XjbJQfdCa6PWfgmvZhAWa2M3hUj7QvtbOZngo7HNFSi+Ou1dSCRBP6QIbcjU44OPbd8f//PTxeNDCax77eAwm1t679Ly6mhe8owZHTbal70k/02ZZRUIWTfPhTVSSNMdGyukIpVmzdzOR138b0h8Damm7YGQT0VTDcUXxTilWvuDwnwpSyvS5hVa/nl1fHX+DX4BtiFFqWmQsJtrhsSYbfrPC85byi09geEnKamT26MgHASow4GqYwjKH0x/1FWKeN2hAKNufGqENVmvpQN91e3NzaNovAwFilBppdf2dohzHs6un4z6AK3YFp1KFhka3U67We9J7O6kyRdVKz/X3igXb5N/aq2kz6pGMsao6qQ04htRkQmGNTv8znXnYz3F30qhSEcBTehOtxjmU0e0CSzhOdo5l+odCYcHAUJackm4otSWJXbnFNbowYhnkcvYSEfq2VxGmU6UxsKSaU5xLyluCZuVWir1SHlAQoObsr8fN1c3x4vl3x6vwlAZTuogJuT//fPxFekqn2+ODI6WPiIi1Ly2ApIWscuodXnq0dg69VPYyr8qRVd4E52LFR+TQq2WjARJcEjQ/jH2ENNnS7owLb5Wmao25wK2A9rZFxMgorfRBM3KOR3Q1K2lC47bW73z43EqSA1oiVYDjYgZ4xQL5RH5Uhs5TODbd4pw00zvnsawwJCZ7JIdHmuObYLL3t1LHpJ55XyYpGiNbkHUpEHA0w+rO/bltJmlXjfMWHKVeVeMOFtZI7gwUX/ZmAdAmhoYbNe0/jaO3iKbpswzzVw7mSgNX3l1sbqLA0VhirSvYTzy7IkVtRxmIyJ8HKkgvWqgCNcoE4BhHkmE8nQdSJip0lBhcKWW06GJFN6q4YdJQQPXeT/Zl8l5VFp0z2I8saRqlyVKevHv96nh8UPp2SSoBP/98/Puf/3Rc35yO9+/fHf9LvW/tX0qZs+myEpvr0xq15BFHYepS5UlFogzwOcGJFUaEnT4yV4GKQwSnca9X0nLl4+qJO5cBgZYwLuiI10/QU3kPv+TMvbcBHRykGAqHpUzcFcylcDygMZrbZFYBM+cAFH8i3C/1oAaG1DZpZUDkYfIk9HF6E0iBIUI5Umn8pDR+gxCegfuGhDmIKZffOj2g6iRn4eECUKZ910pveQtbypLvyrnLwdkMZb1Ge7f6g/mR4kxdyKfp0wi84usLd3rEkHWCSeAXdQtAp9gj1t0kxoAZxgpWuAHzpEUlLQYvG0Y0nx2crkUD9/WttLq0ASJe3rP3ewobzU7taKe7oXuBn2V8vea7QUUwq9xeRf+eSb8hmDpFNdVlYVN2kDZyZAN9R6IE3E1D7iUZpZ9+PoQpKX17n/SNknqwgKRUTYVMKnTfEFl7X7peWrsd7AQybbb7LZJoAKMTs8Lk1XXcx58NpdAd0qEmubK5OsHDLzDXCDQyAwoANkNkmzJvgd4VudgrSsTLRok+qKaKPRJszAXQh0I3JfeJnIIlOWLaQU+vDR52pUccvlbnZDzc0HkfWVeBzJVliZ5JD4v+qxTk8atIGDGAfkXkcrcnFEKbkpAWP6EImX43HyXskoce8rO9vwrKseBnI4lSMSt+aHxIF2oLTdL1mY8X+RlHbDqsfheLVS7z6I9GykPfp/T1Ic6GFIyDj+H7lue1HJPfUaQmFmDP+5zUunSWTQGCKD6pe9QVui/Ar3INM7ZZ11XVTPSXqLmxn3G6TEQ2PnV9a4mXpvQ+LynsyCgZ1wyNonvNYH5auZ7f3R0vXyFdclFA908//XL85c//dojRrcEBiLyxKdsTZaVIpUcd3RlhsIbvjHaGMqd9BeC8YTXVkdlaLIQNmeafiERRl4h6Tj+sDCn8CakRVSS0scGHsgX2KERGbCKtokQ6/EiW1kOvUjugqq+VSpcB9kYG+Q5XGBOCWyNn8JnuxtxNiIbFkQbcZRdHPWBj/e4VqoLB4S11TcuL78FyzOE1ivJiFyIRKulzgNYt2GjUZuzKU1vgglXGhcAr0H5kgf0ag18VjPVZ2VqASPlIDHkvRHCn4Fr19rzjRk6JTlXIKAYk7Cz7pUNBKcuvYQ6L2xaaRIxVjcH+2hrZoLBQZ1Ocb0Xsjaj/Pi5bERYTgvls/Sh/olhBdW4Rbye93FJ5+in7slb5ppF5ccfY4HEGis4lXaJISenbRQHdv/z0L8evv2KU1PuGHG7CUqHbMU4eO+w2DqoYGSuGt4tXIsdpuXfFHG6CLBaxd8pn84unpMPGpj+O3wQgVDc123mrfqXNRZIfqqLg1anYeQyUAeES/qKjPFymykjooBRNwsDYQ9V42mCyq29vno4vbmEpPpTnYnDcpHTT2Z9D2iqBf2IDpu2Bw7Xh8G+4k1Ph6+N0ErFxKRgWP6oQmlnLrp4NB5r0KPIqqiIWgG7rS42aU0RLE08X7zzDMvnrqILV9M87eF/vkCgmmMi4+UZkkabxgQ2Rc3rFOo4i2RvZnFKZGIOJIsKWNjzAXTaFP910gMByglwfDIhGV96x9q+c330klXeDZDBcAv6O+MVfyhbw3g7GlT679svpsiIQ614e4I1MdGanHA2yOug9Eqshz7Dp4Yc5TdfwDbWZiKf0+vVxf78rT4Kd/Vf9uvryt53p85/7tdq0z35zfaj3TYMDHCm9f3d8+CCRN1680gtnxYkqiqs47Sm4axmI7Kq0gLRVAx2yxFB6y+mIn0VNAq9pHwYSg914um0qL8Rfuo+widNAbuBS5Ve0J7pNJ+y3FIX/qZ6Y0NnNrWUeB8QHfFa1i+8Jts1Y5TB/6AXEaLqdpanAAPlsXmkRVXqlAP0Y6rLeHYU0nYyCpVKwTMTV5xjW0IO/sA4b4a6b/5B5cltzsQmFKwwcLaviZ65gbt5/2WBuUA6nDH3wnhj9fFdTq7m9nc7QZ5xiQFLM/MweM9TWTVSYCgJRxHICpFKsotPKpEH6fit65j1iFLaUtBXX4IHc9+5c5kVMit1nmugvUa0dsnca1V/LM2dIKJ/hDCzJYoo6c71U6lZFlp1lAcDsdWcoOUNag04zkXTJxTG6jSltY7v9Yr1CvEBgmlRd8qLZq+BOMKj7YpKr58VVvxoMgVAeJ5JTN9VrXk7F71sep7YfALcz7ys7OiQ4Nleq1D5wjL4hpajUKfrQjou+KRcHf0iLSnErqSzCx4nb3xoovSLGw/QdIfclBdSj2QO2BzURgiPKVLCXvYlBN8sbUHTwq/BmOiWWlKY9YInAtmrYwsXOPSnOpCk1YVvfF++iCRLPQZtGjX3eazC+MuHNRcp3GxRO25aNrUk56Z43jaRgdquW0+a60qLikNpzlp7pewvrufbZy53CQoxBXXlxvrLJ3DTr95DIOemWlzDp11iNRDl+nWGPs+vjUkyeJOxdVeiuKxSYUTkYrHVhf21dKVZVKOGZOHauOsa3Zn9or7x8Dnny68PD8X/89p+OP/zr744vf6PT4L/q139LpPQv/+fPx5/+8ufjWTClTx/eM88tVh58SaeLvwMEhMk6rQubB+XQpbrQRNm4CoeXqbmrn8ixu7wY6wAAIABJREFUmEXMVGlrFUI7dC+nB/BMhEJbQ8L1zhFbPmnSkc6c38NnMIBiC/xGnCD90ihpl2UzE8ybN5uk1wBwU5WlrTFpOB6DpWeBF81QS+5UWxotosXcdsoQHKdVR31iB/WH1Tw9XSkwF7MLzcLRRadiCANMRNBCxFShUrhA24hUSWtydXU6HjW4LWTHqvuVTlC8JHFPSvAZABA+EGX1JIEbx02r6KDbaydjs9QEfKyTIhJlJF3v2lVVU0bBRr/TWQCj6zL8fsaYkP6Yi1TiYooZQxx1ZNzq6X7E2VsMjBBf6Om4nya8xESb1hIs8hh2gh/wJr8vQfc8D2OfFlt7/8ZSGRpYEZ1eH3fPn9so3T9oGOU/H7/74++O+79Bqfmv+vXfYpT2sd3v3r07Pn5+P/xB9hHKhZT82QT6NR3gLYUn11jhaZslCReaihTEbGCl65QozquIsQnpMb4oh7vX2X4mLLQp6A1Oszz931fW2JAgE8kZ03hsgD0euEqRXBuP3V67ImcEFIwI97N7TyfSWJfm/pPy2aZO7hICaQyy0+Vwe7xZB+9NiLk1GpPmkCJMJSm4mp/LN54mLX5omM6N/b4NiCZ3za6vLWkyCYWwW2RYXuMk/Iz+AVaxbSVgbk1kCyDnqjaoXWM1epM+UuUzSMi7GvZ0Q/lZ7gEWneKpDSpDAEoQrfNrRY/rpl3mm/TOS5cI3sl4BO1mR+WeDGucVQr1DJlukz3E/mVqjypyUqfoWtrujpBh4rIGuU9Px92Lu+PVy1fHw6PSt38+/vBHRUoXZpSkPClMqZiB1RVb8lYaZCkNtUcC/FY8rKJrThGS7u3GaZVnOYyuRmSyifANA9rt0JbWh7x/BP7rfXetn3qJvNPcI31s9fQc0m7qeL9oN/m7YiUbARUYNuZUpnAu4cjMsitt0EwEVG5LvlYa4Bb6mhSMNLLeOvBMlBByoCiK+Vbpxo/nVbQTQ0cKvQZp7s3ENPdSSSQt6fAADrMaowPteY1bIUVzalVJEwMMLkK7T4gcWzaIPEyY1kkLwdk2lcZyfBIJkt7HjCf0bL+jDVcdUQwnEc5qUm7Vc0UHjWYmmw0jPVhoB0koNbIRMFvK0YumLifIRHGgFZvsPzDkJG31pDEjQHkd8wQcgWRTon8vxPkElRUJRrFi00+HN7mt2yrJ+boiT74SedJtJkzIvZhIScMobzOM8sPHz8sPWmJwlUTVOaTQ26L/nZ12HMf9iLYRuvpdevFJcfpiduKft0p4PNAo9YJvji8G1XMwt0qe/k4jqq1bY7yCmXKNEJyCTKk4lY8QBdnChC0FyLWlooLqPYjJwa+1bI7QgUGS+bdGQhi8hELx9E776gldgmeii7lIYas3ttiZ1MUX1qFb9nQ8e85KQV/O8TKuPhjFdnq4B/jlVBV2BSNMm0uxlKwRJM2U+bdUk28rxhIrulE6aMBuBNsUs0sUvOXsAfkDEdQyqo3w3OzaSKtSjRNtFj4AC7SMW8iybrDO28JQ11Bl0kkrgFkbj/By1ROeFxIshLJ7ZuCb9XgnxP1kaFsEK9vbEW5girjWeWIb5bTV5PVEnjh9drOX2np1HK9evjyev3xpo3RxQPcySu8yYqlAd1oQMv9KAKMqn3qBW5XYYblIcj3WrlLIILmPJyTEVIxa1fAL9Yvd5Cc8yJCtYHQhrOb6Lufandc1FR+qXQk10Ax3dML9QAJtp359YBGpsHgTqbGJG34vJvngSdnk205LhII5s35TlTRnaslKTRjHjTG2HlJEzJpBoguV3K6FgGAiFAgWBcBRTubWyVi7rcSRT5nb3GULCnbi7sbv6i4L0ZYYjDAGdBE0k4bJIIUhTxtS9sZeeYtz2WVS/GwBuxOAJOXJ7LhESeO4XPU9j4DA9nE6E3E1C5qCCulxW/4YWrPx2jrxBEjQDk7vGmdB1ArNgApY5I5mtLuvW8ObLVV6gk1w9nMzBNYPZ9CK7aHhrIqT87Pwn4LtxeAzBxAje3f38ng5lAAipQtK3/50nJ49O96Ip7SLvNnxuU2QFzji7LxY/TNcoh6AiORHjqL7xp53exH1Q+2BpOLBNVS5QYYsDmtLtby93fW4EetyKGLzXPJHKD9l9ALC1xLmKms59zsEwC21WODD4baJWt+vx/HsdHt8eXygKXhQMjYeCpUcDEvLeq0SAwazoL02qVjMmDvaY4caFQ0oXba1MZLFah6znfRpPK+uLRA+fCut+U1StH1wZ6MHbBAHvRma7XcDwKfrALQbNhUGPnSHnetV2x9ek9OhvNMNtCY6ilCbLpHKnNdNKXvupz18VKXab7e10XRsdg1WK50lgsYCWn5moyeUqc77KbeLiqOY4Y7CY6QwNo2cKrGynkm7RhikKBpygvuUaJNO4xTQo8qBaWoY5+R3ca33a2YsHMAE6P/wgvTtAikBvxx/+fXfjtPp2fFWypMf3682Do/Qxttag5vcZdI7p07GMVDwA1dtM2VM0uARnG69hGF/V7a9PKFUklqt4SCtalU9S6/Rnined/SYht+ji6Khs7CnhZt2TE7xJd+Vz1ikfPOkYxyTakylxSnrAFM2lreusKnqdq7d7YOYdeKJ+J+mcByCc3Im/BsexjYLaKQYKe49VcwCwPX4p2AbIuCrLD5k0mBUkykM9nN13GZunTIlAP6mrqvdppHdYDLfNNn6OdPdL46X579RMjt7B42A94iqI6ay+XryMRBbe0jxTkDiRHRlTCeaYttADDChtkNOE7ros+a4Rfa5lUW6CTKAIu+WKbvRP29BIaliG7Fzs4NTuucyjjoQ2nLc22CAiaJuwsYrd00tRcfV8d3z58fLGbF0UdIlvxz//uufjuvb0/Hh/fsoTy5avc5pxwk5fZvBAHBqCFMxOPKyOpDW3d6qdcV6zOUwuFGPiHexpzbo2AqWWksweICxgIEOfgMIO+MPUOjAu/ZSqVsZ2JFFmQpUQ/NgL9K/rpQuFWUsAJ3wKwpo9c1HwL1Y45anpdUVH99fiYlhTW/a0FqtYTP4gOT5Y3gHC9lSP0t6mCQqTI2t3jQwS0n7yXYQrQtuAhJTcR2FWCUlmkX/gTGR0oJKVow6x3vrXvX3+latexUYvdSyNWIepz/QH58IYwPDcxwXs3rO56SWrP06xm17AcUCsCMtakiZ3yeK9f0IS9pIlrtZaEqn7wkuHQOPUNtEMfEx46jqdNLH2TTN2y4Os+Fgq4djy4f/tbNg+YK/6zoJb4yIFQUyBQP/EJ4Sc99+vEzlyXfv3h+fP3+AoxTd4WndwOyEeAgYXc9MFgGW47Qu3tL4z+MSL3POv03WOKvQNZwxJoOypQ9RwnvdkjXBp1E1L3jzSauqQghQEJyKSBp5C4Lu1a7iV7aKRHrnQmWEKN2jvu8QSs2HCWiqv5TRLT+p6aYfbTAgIsXGneIJXVe8jFU9SwNGKD/R1ZBWc0SZ2LJoAbwhjBQRaSJIy/2qxQJaA1Hr+pke96pONipT+leahAyWuWbbVJbiJr5kWQsp//sZvc51Pvy+PXg1TzKA2hcMjODuOxOCt3y+h7C/i8d2PgJ7a4VJkWIisvbqGdtb78ER3kyDXkaTNer8N+0LZumSoq8R4qhxfgMNDCG1OGVzjFbnks7FEK6ge1KL48WLF8c/mqd00Ubp3fHh44d5K/Uw6tqnX2hpOtcoodHT1KL+afGSCimvxs5IQITopk1N/8/5uG17yeQ5xUBKu+EfwGv65QOyd+OF0GcDEA+ODAh3lEBiGOZsCg0xXHjUMprtN4rmuPaTQeOAr/kOGZ6KyK3IDYxpeW6WN9kXFRn/cJQNfYt7KtfFjRBayYn16tMuklb3RHtoQyWS3cYnyajT5lMPnjTweDqQP8kz5h6Fl1gEzZ3yi/zpZygNQD8TapIjrBg8dkwZXU37W5VstBHMqFZyLFXWaaIS9tjKYGsgE133WRO56QdRF22Tcgz3TGeJlU8Rx9HR2V4+j+gqXat1q0xNTLvXx35KFWFPKyFyn4hoLrUY3lRAiQVJA1vNW85PRqkTcqUS8IfLlMNlxJJejr2py5/HcWu5kse0k3TRVrjddIem3Y0ok4POge/hgvxl6ZBETXyE4QLwdDBqSlf28jTvrp52956pBc050+cETH51YyWbg8qYMCNKuDmwMReeYyciZyspAWmHgZ1/r+i8761UiFTVVPlzNLH/+jZVmkiy2FWis7amFGT26aM9ov1nNgLmQa0NT3pDZOf0LlWnpkPDGq/K4xzrjq9KBVI0D0K6MI8jKVPU9+rquJc/UTk80U+HAOj+9Nmtcm8Om4TSnPalX1AfNP8pBqyAfqubdgKRrZkot9BWUnunyacbazR9DZctZKEQXHmPxoHcPcC7H2Z7NKlKdG10jYFNlS/rbCNo4L/760oFND8oA5igy2iJ+md9G2qhC4HtHvKdWE++AH/PUOe+NUWF6sCE3JeOlH4MT+lCqm8CulGeFNAt8mReo925iYQ26W3O2VoJksQ3oqkXoRLFmOUKtJGdaYcmj5herA65xBN2ZlejiYLBNmtlSvvlbpT9uM/yRUogVEc4eky8/AKaBGAryiJKIZVxubveNN6sGA5mFUAKcFnckxohrtE/9nq7jdp5PqRpJds1hudei5cB02KkqTpuSo7Zv5VVdfrl9S6BdcUUO5BOSwmGCF5NhI1ywPD47dHrAeeggb80dSr2FoeTdS5ZAJZsotlpmFXUBW7V3TTGYoicuT9rdsU5VTO8rSLT3EusPNFGjPPY0TiH9qVhdEKtcKE4FIy8S5M4N4zMOyLTXCb9tkHZIraQSXlNSZW912jfKc7VCkX1vrbgaXNhO5n16nihEUsGui9MT2m1mWjE0tvjg/SUIjMhIbCZd5ueKW/msrw34JFjvyQn4F8Q+bBf15FkG8moPLhErg3qYYL5P4iOetv4oggSEaDnPpp+9NpxiQFptxYuf3W5Oz1UMVLtD6PnF8MV49nUzXPjt/4r2TKkvXtwSxBcpeRlDgJSZ72kpKlnFOt7DOTYxmVkiTzTy2bXGz6LyvEF8WNoSwqtx/fnNHdOkactZEO+Fayi8ACxdZEBQAwXE+o84qPjY5tnlaP0H1WZwONZN7C4DnZMFVFVyrzH6ZXbGNx1Ivq0Vsy/OhUn1wR9w5Hs6f2qHG74dfA/23GnrzWkyDgHIkwhoJltCb1QTHwLHVdetKKOIOOdGP2V65X6boJZjNgaWrIZIufByWXr9jgzajN5/QpKwEUC3ddWCUibiWWSS1QTV4XmwsUXqRdYqRwwT2Vuq9LXvi7eItrb+beoHrYi5Qpf8hKCgHhMv+QoVKadwcLqCauJoILYFLjNRhuFx+uTBfXZwvyiCZJowZ/vwMKZLg0igk5TyjYNyZMOmpqQUEjXU1Ox1ym/qg9Vzy3DWyGq9tV5XSaa4wBOtc/KmFVuXCajjcZ+H66whcfU0p6xlHNawp7yKVGGDcP7mw73pILIB+dFBRBuD1vs8XL0ZXHvgxomDdy+I2tYA9Cpt44uBlfZqAOJgGQ6OyzCb5DFyfSX9gLUsuN06Aoi4lxVvfKx+A54RNHRUhHllgqnUlTfo9UpFu41KdjucfquSu7aij9ETufqGY7q2gPo9xbr1har0lJU6LlS79vL4+7lK/SUfhSm9IdLIk9KuuTGY7s/ffpEP5CnN3BIqOKkohVQDqZwqfgJib2YALujPxRP9hspD0SVsu0ZxjsMAFTFL2xWv72b8HTONWloYmcj245da1794zZEMIZnPOoWwWXTxHlhDNgpSUtWmudPxcOVBtG1CJl5qmgNsTgvHBhX4Nrnl0gJHAPyZJRk8/UIhSHRW4WF8BZS1icl1YCEZYC78fuEjZaIQkgxqVxZkzK3ydrxGgGxAabPDWKrg2Ml59Ot+zd1Irokok0kmiWtTM1SeeREl486iW+F/+IxWoSwNqC4RJYshm4xr8wmx5wOnm2Y9CvqwPDl9W4M73nvidY0otzTUdqwnB8YVGgzRDGzs57rz4EnBphfUU8LDnpyFE6pSk7fT0PB/EUVDp6/eHm8jFH68UfNfbsQo/TLT78cnpB7e3u8efPm+Pg5RsnjdtQhjTfVSCKFsYCc3XyKmIJPVEUw3oCOpNVfRkhfDerzVMXpXHJ92ieqHOk4KhwkSuWiBVxvZLxWi84aQt0nVx6NdkkTfwbKIcPUPq54LxmEm2fH8fQQbRuOjIiIOgxE/Bm82YxilB4DFuOCV1VqtIF2jGYdXhuTnDKTU83A3tjig3VASqSJltSXuhZ9I3j8xUGa0UJpQ+kEkuI3/d5JVXPEkixnvdMmkZhosJFh0JdjtdpoekCpeCaiMSYD9la2NtjbokX4/aSqiPj+Ev2TFWryTZNue92+aVKeCBhRPzfgGotaWt3cUvh1OwRRzbDgbTDLGwzWImX+98SI/GZfU/4GA2fULEUVjkumVGS2XdgneD69Qw9F7fRnJGUk8maVgIubZtLBAaebw9Iln6TRzTZQX1qx6XpaHYG+cC+1Dw4Lu9IQjjyYRT/JC+ufy8fpiBkc+Won8KdGwCzXkKEMPuDXHnZ4sx+A2+A9gzBvUiDhJk3dzVGJjC5DBVGw1g5iQ+vX7TXi++PMMtMLgDiR5OBcW806I4zgFTXq5L97AQDmdipt+XhPBCD32qiKKtX8vCKgxhrwuvQLvI8oiJx5INasf2kMBX3B3LoOAPk70kSkUi7O45NSVFhQfrIxMF2j5qOJFM7eK+FBCwKxW4sJ7TRcSa7MY85r03PjMRj8GR8FTb63Mq9I3wIWmOkwg23xLmJOxrxAOtcLoy9t6RotvKrUEhsi002amvHn8+uORVtihvaNmd5C9zLf48gXQ4lcCmRRRc3S6H79msEBUgm4IOmSX45f//xvx+nZ6Xj7VumbpEuiEKkN3jLz3mUeSHtVfqJ9bWLeiQhJJdscSHALbZQtIWwj4rxPfjOYRRyUj/GWWoBBFTT/muZKhd5rbLcPSkL/c0NJyukDZp1qqkDeCFHF1KbrlF5d51YRosHpKP5p8GVO+oDLNSZ5lqXXHTA2UYF1gsJxur/nQJ81yZZ8OL2CpHllEN+IYBiwfy+Z656R/6gjWBU2R1iOPFJZnAhhFSwmCirg880R07XlDPRLlAlhev3OBWbvlSOOro1xFqlAgP8lJcqmmOtI09PY0V02TLmX3trXUDF8vWwWdQM4cgw+hS3GOHuvrBIYazSKErghDVKloTmGJpW0Wq2amCs18frewbnsBKYi2rL+cmCVnpHB62BLrG313QueL+cCDso5uFP17dthlJelp/TsePPur8dnG6XMKsuuwIpHUL08HntJvK4OrIBqLbz++yXhL3um3l6pIM29aNqsNGUBrUl/JkVgo0cEMJ4ZyRKaWBkaqE38hb0SeKhKlYufAi+KiMT2buMOaiPo4Am34BDhrfRDMkr3mT1nYXltwjCPPT+s+2md7ITvfJeF5R2ea9IHz2zRsAfu0UUEf98yYAX8tTX1bJbI7ZihajjFuIw2g9NG+DuNBBcbWf+GZ46pmH4wDEcKB8Y8ZKwfnbL63KfMrcKC/grjv6KkOhyAJZFP0/OWpmSMvbVzkzeXfY7BJTJD1bQTkr1HcjD1LI4COznZ0Q9cE78rRdMpj+nPYqDr3svt4lZX6hUolMJGm5FtWP4+giq47TW4IUIk8sX896p+9MEla2JTfLCiaZyEA8VGsnrlLn0MydKaXtFD0Xm7c6QkSsAFSpdIo/ukYZQf3h6fNDjAufhZg/wc+L6SbtgegAK0DenNGcr0B8DNiLmJ/ObrR0BsTnWuXEZu0hAipQTNfvFtWShoKiYygwDVQlEEAJtFurCqIBugm63VUF6ez6X/wNewqiNUH5E3mo3x/jMcIIoE/q6SMgNK5yxx+AjSUFMMeZD0N0TSViZHJzxpaMoMerCOo9oT4uXNi5GliWVKO4kAYoQBkeFAEPBwyjD89fZZt/Jge+Bs2Nog3acDL1nK4kRrvcdFHByPMcbODkdrprU3ARVjsipmjZ1Zi8WwXzhR9VucsiVz1O87ba2xeTza5Kw2plujb6GIPVMf1CuP071BRZCVY4Q8kTv/np+K9UKxdCs8bCqsXv2Na9x0FrrJMkr31lP64fKA7tPpdLx/9/b49BGjpAPwTEQ3eccoEN7YEy9PR6WJTakYyGJbAcJrHAh12aKdT6/rkALxtnWdk0MCjMYgGsVs+qrbcT64CoeKjiQfLXv9nc3stCXp1UjOpe1oGlnz56T4SeVWUtHoyZhVrS5HKylKcJpWF8c0npuPKGdjBkZVgcqY8QSzfVfqNSa2ByhkREBjjEIBZSIO8lbwJBZ9GYX8VSPEmXjCm2ovWQ3xMgCLorA4YkkVHQEFMct9O9vfRimZXtAG7cHges0oedpekWI6gj3D6lbExtJ3Zy3cZjePEmFTGISOO5EjvX67UWvhSztTnuI+zib7zxja+c9bBtlgNEx3j2BK8IdY4DI+XqfUVgoftBldDdLiswDLUUe2XEkhAD8jGN/5NBNV335/YZQAT8h9e3z++CHVKXqnPGZ431TL2iDOHuqju/exKuE6RotGqV0bM132zhhs76nyfK6sCKlfjM8Kf0bNqum8hxO0PHtlR50CBXMmlaC8vkBoNg+MXNpWvIVG9TKxRtpX6EVb/JTeSx97DSjEJA1PiXN6BvbrLAhH8gw392JpHps2JMpiu8HgiGVjJ4QvD8pZiky7e2bgVm3loTXbLDmpEZZGnDGe1ftOsSf6VjFai+I6EY6Z2Y08YtxqlM9hcNYzSF2QrRgd9YFFxbKE0Kz2Yj+HF2RjYgE0RcIrwq02dx2Av61RdFp4vLadfqLViJQvriIQQsISWOKQN7dJ5qxSgKtK9Tr+SVUQ+R4MidtKtinLHaLaDN7vzfIjXFOwRRvCb9zLo79PW8vEWF8tEthGYd3fBWNKtJnc3j473rz56/FJ1beJduKNEmK3Q51qG5sWvW5CWKVQhMswUSqsvngppF6QMVuFIlrqAT2bxZ4DdU6YoyHy203e0ABgN1WZ3YCmSFPDtvxtPGJd1UJQV8oaQHWovxOULFax+ejBf3rw9FzFDBrCrwhkRWJ7f9sZJjsXalTQquAO/gc3S7parfG2S+z30pTTCojGqMoUXBFVxepIFZOMtHuULCoZX/hOe2tNWflbZz3vLpJ4+WxpJH1nXHMxz4thKnTkdRTDOo9eJmrdIIBCfKlv+SsazfsVt4qXhHPGg/kapJK+neCljZg8oNKVsrRZ5UV5Bl9pD2mn8ecT/VXSBG4c+F3vke3dSBBHVaKtfmiPlC5qQu7ZMEqlb58+JP0hlPaLuH4MSEpMKnC5+2CPpmeixuTJrYokDhjyG6++khtOt+z1DGHCwtmYzEumgkoZAUHBbIDgb/ki3fjfppPtR5pN4+sR8nsDPRDxlfdkQH6ah9d22rjr9oqa2Av3pA2/3Necio2nQ5d5es7asBrJlj0lbGc692AzP2OdnbYKIPYBIG1utAWTfOvoTyTRSmZ1sPZobU/XXHGMIfa1exBxHwHmq58UzE+Klxqd1NRN7HbrkoYO0agmBqvGs9U5q42mIbqOyfj1aEtte0jvqiOuEtuRsmP1Cs5jV2FHN/qV1ladC38XKZFMwvW+MMcNGJtBGI1u0PliQEzpAm0jWXTTpmzzDkqzzaEZTt3mNBup7Xw7GaXvX3+fCbmXKId7enZ8eP/meK/0LYfJVHvzJlb0A88EbhJpRFIhii9JQTIJoy8O8hBgpWonO7hdsDHuRWE4lTk2mTEs8qR4afStUZVkQ3CgeMO0U0yyFS9LOjA0PBuPNqOWaxWQIFpSjTCmpL1/R3Z42UdgMtzCkrVgXWD0BHzewPcUJTEyjUqCbbX6tnoMMcL8CjDt9Zy21lUFZBUahBDtTU8b/0L2V0O+Fw54f+vQLgD3bKCk0wxVKzu+KVXLCODV4D96sENbVghZqtY4T9OIO6OKNBIpRbXoZ9cY5VV64pckCfJUedc4gOp+Y4xKuvRuzfM6laICM+KB3pet5u1xTAB+jsGGSK/XQE6QxmEMy56Wr2i4+2nR2/AiU8ncrkmHy9Xx/Pnz43vpKd3fHz/++D+O3/3x95czzaQqAR/evz3etSE3L9tly4j7i7OE0Bcm4KyNQB61LRDZ1wsDKvObEJ2wew+0a1IkNZLyd34S7DYHsQZLpfrbG/ezGXz0QcpcsEQIyzgsMuC5Dk7P7Ur1mqXpO4fVGzF/YUk+hLkvt6B40yoVjWRLK2c9cSt3ysfyXbMGxfp3/AY2u0rz/b6JgKKSQIFhyV3oXiyp0lOY41hjyC3z3rB/W4PyNwYMg7IcwJyV/e/Di4J8sLENU62kpNSsq3yh88WACxfX0yjvm9J8xduWMV7qDLUdcMyqzoBetmkb44LKlQrRLu+Gd53UKbyzb18X4RXRUqdFi1pBgnfuDMEDucKoNej3opG4D7FGtO/gDLjkejM4gutrGKUoARfb+6bqm3rfPn56H+5HweYI+befK9U2t40oRO8cLY+dCfEwOXVhgk70nHgmEU69hoyFSvJt+tQ7b/rgl93DqJQlMq09PFRPVHHq4MMmQB7gBnYSKZKmYj6jbeINH3fJBiFHWiTYIXh3a1LK8XrpUyOlpXrkwzhjpdLUfEZjSNTHwLCVeooqoVsejGGlDNwrxroYB53uOa5JX3XPAlINrqah2q9pKwSA/3kFNlJqD2cK28VwilPlAFqBMv9GcrOmJnedCC64jquu0ZgiuITDBA6pPj5q6nuzcCtXOaWbwiQRH9FoHUIm70ZVwXy5zE6V4qkVUJXiegx4CZ/QR1rpdQSVqq19r1qHFOE18t5TrKZ74XzhMONvYuBslKbos8jC+IUat34mwzBTfeXZlQEAmyhS+sfXr48vX74cP/x4gcMoacjV4IBPm8dl8xIS5bB7/1Ynpnl1UqekMJPpGL/kQHkeVojGSQJPAAAgAElEQVRuGDJ+uAdYlQd59iHKDZ66hJXPS9LcR9nTu1cd3Z9lTrYwm0iEkD7PMrhED9RWsQkqUnndwYbj3QdlSo+WKz8Lm/XBcFQZPtOsRbCgZVlY68idj9dtaspy1Uevqt/u3XVvqmJWfA58bsM6uESipXj2SUsaMSbVnSbZ9JvNO+MbXVmqUW4g1gg577FVwF0gxbQHG4kY1OJALY8QRi+DSexhY+aJH4lGp5+vhNDAAGXn6+fORPeSfalSRp/lHsnVEcVYaG+kd7KYWJPmSLiNhjnSK3VbrF11vGaMeopBjXChvYW4Ngl55HWjya5rPn/+ndM3yJMXSAlQpPTG00w+JL0Kb+axuXkYyBZXQ4XSRzqeU2xlvThIqQv0nZffUGTzwu0FwrjcOuIRdOv0qdNiU8/ju9oSQhGanrW1uQss2uDZG4ayb3u4oozx2I1salkGW5jQCADZGz78rBSKUBDIM/eZAsquPnhmyBUsplS9sRjT4pIKeLomevCGq73W+coUzwFzzygFDjPDZM5QTA7oKgzQasKhUVimR3JnvLOURjA7+bH/VjylBq7HUC3bSLXYWPddmKlOQ/d9ohs/VYt9bTHsGHSnXwXEY/KeHo9TronoTMiwaVhmX82Ly0/cHNfS4AqZ0ftQoL1wqpL0N5Ij971ybbWbeP8mDX1QtBXOk6NEp8h0EVgJwvyMvcE7VcIamqnG5jraMeWY2cnTHLQXGWKjvaaSLnn96qW1y3/44cfL4ynZKLn69imVG8DBeoJuKm0dS3m0LSI/wyQLDtSuI0Or0GpeXJEBG6aRg9tYvqITbU/fzWODQpjmV+5NQCJoz+MLwn1y0N2Bi5Mr7t+9t05+wxAOCGIQPSN4uvH5umITiddzHqo0WXxiYGZP8NVhgCahf1dKWpxtqk7ymFLgcJQEh8aYRDlLO5kQJewZbrCvpc2ENaJgXQsHbBpVmRSsB+mF8SBy4Kxgr5a0MVGVW2VcFdswlEYHLtl/3XrZeBf9XzUzewLtqHPynDsONDFG/cjsOVrEVO1C1iUSgAHp6xDRG1/r2ufrPZhxrf0Ro8R1AhU47Q1nLPulZmWx97vX+mSJpjYDXLKjCzjNFiw/nJrB7MlEoVlq3fuSxs3PDrP/ajClC2wz+ZfMfROmRKTUF7OaLlKU6RRYl6bpP3J0FBC0hqJ7nXydg3A+ow2PU+C5ZXpvJI9SgvzXlMmG5oEN3rioFZ7YK0uM9IAhgVurFAXHAPT+jn3SCcnVXNkHNgaHjCkjp8G0XfDKvps0iNwWpPnJcr/rwKcgOfIramZt9NUopjHXwntypAxB7FImjQ4TahjbIJxo2qLH1EE04Jv0LXD0gM96RoxMDciKOJo+UqBiDelcbyQ81j6JbZ91rTkFgLLEl7PiOTGKvn5moBGwrvdFMJmCStK5WasN4PcrH2IPO6MaWGZOC88KvqN1xGeudDYuNDcU45MIuNVeIrSVAUDMrfNNpTCkXPfZsom9/eh1XAZzV8UsUI9Mz8r3FwXlOF58xzDKx0vtfbOe0tu/Hp8+f0xIAh4k4FCd6TSyVupzVRq8Zzaa8BqrvFV7DFZjcMBNQrPP3xPIAljjuAmV2+n9LJ3hMjaWTiEr4ZrZAMV99fFOFBkQ3LpHfGCfOwfQ3siupzmecFMttHHV7sJaro50e+mOzEHhSH9zmyql0ob+woZv3eKRenULTJQHbZR8tmN8o8aphtM27rI8SbF6+djj4ixujBUDOSx2rY0nkQR41p9RG8C4cUxvjmvx0RIxLmG2BSoTAgHQM/nlqxuL9xgr5x4lhhg+khRmxzlybF+kWe5p/j7DgPayerjiIR2u0VerQgjRkYgaR8cdQYykNSSbZUTU9wq/9gC9jzGGG5l3Hs6L93RciYuVFDpWrpA4CGm0ubUtPa05+4tm8Cp+4skXHrrWsJU7XVvTTL5//fJ4uP+a9O1CRN5+/qmDA07H+/fvjncf3+N5vUmIWBx9+/TASyoDudGqNlZ7O6vnY2epYYUGXustcgDZrkPEG2NVPk25NcFoSHXaE5ekJFUx3RrgOAbH3ooQgb/zTksFzfeeSb7GDSqNWicalDqRU6gv0ezhHoBI2Pj5m4WHZAcritxTlrV5K2CHMayB4fAuY8h9J1oK5uO2Bi8467+whx5+1rbMcg4ozOTgw1nxGGIszID9Y1jyvYkbhjPkKlMtTtLnue8uxAjnY+aGobDhLnYo4Y2yBj2QJcOmkXuMX9al4HQMqyPC4mH+NxxP2Q567tCRwMyqd5mFZu+Wo9an3+M11pW2pS1l3yIuXdXEzExyAfMkHixvu8fGEWfi9xWXJgL1YsfpD06BUXqtSOlemNIFAd0//fTz8e9SCTid3GIiXMn7L7O8bI+STtE0qhJrGgi7GbXYLe+mquYSbDaAAgZUBHKoHaLYl2U3tLF3lVixM3wB2UAPIq90DnQso3+y8hO7zEcjtExw9Xw5Wxa2qcHnzAZiRHOBbcb90AuXBy1qP7jGNgPM1bf0x3ce2pAq6YI/SdbjK20wVK/w5i2Dl6fqyCYEVbLSxedpBMDClbaRFCm1dXv+TtZNujrHLiGC32uB280qkvXcEIGqxH4iyloaUaz+YMwTSqwUrJ3+nS7jUvjW7gGhNA0d/idcS0e+k+qTqk7O2f42r3NA5pXxJVvnPQ0relI1GPS9Hoxv2Oc7M99PsHEkW+01q7v9Qmk/oQ/w6VAU7764x6qyrgaX9RwxcGPASlydnbx6KMP103vAKL0+HqXR7RFLF9aQW56ShlF2UzsaEDkx4mRDPnRlhU1YDLPDJMGRiges9GVVOdCQsfcJDmTBrITnjNyOdxzW8XYo0mLiiKEjdwquN54iqwI/mPJfjNmUgpdXrPbOhB+NtrYS/Jy9zRAv3MrQqSMv5sItsH+lQURGHdooo2HxfmmRa15eIkEVpwX2HzfPji+ebbampOwYVNMjrT/tJm04Lqt9X8P2FxJJBhIJfwu/TqsPkSNGh9+hKb3pE6VdxA7q7Ocx5kjx7taCoHX1Bmqd4DcBtLN2/raxdOWWrZhi0kE7kqhVVJuo4PqGFXIvTRdrBBJlBivkPokcfd+hC/i1tNBQ3a/NL+VDaZVKAmGPQpQOjrTIrYN/TnawOb665epjlYFz/XS80DSTlxeZvv18/PrnNOS+e+O5bwCx2dQhBUp17+ExbQPpWwOUC7BnvYChDCdkToqS8LR7TviIWhBkntKAEpKjvPLZqY+jJJX0ZapeGdaxGue1GYQ3rcyccN6UgCaKYfou2kATFD435XVOx9IJr/7NponDNZIeRCuJyG6JfWGy04dVHDwyzRbENwhyQ3rsJi+qS1oPldL1wB1s2XUbQnmn6U5CljXLkE/S1S0VSTTi+CO0r0YFTJCNOVZkmKjUBiNp0XTqp/t90tFhN7DyxudyT+yfgPAFALkgIoKuErZNpWn92j+NBANx2Zg7rc1aNopx1NQDnfgrOzcldxm/JW88EePWktJM2S8wg0UB63cQv9EoxCj2zLKj0TiAAOwotPt4JW0m2FY5s3Z7/DbvrOum7fvdP9wdr14J6L6w9G3NfSslIGO7I2TuKkKkS4zZ5OgDLkIAcyie0qurQRlvUyPhQxU9GqaiSIWDthT9mwDBB8mRWnNpDZp0KG4SG0dsyr+mAiMOr182SEW685IlheFx2f1zsAEOeMDaANgajaSD5yks+XW6zfcGk+reaSsA0QabiFR1yzScIvKLNWvaGmrDlvuQxjEPrh8iE166UHOQJhJY0i6oWMUhZI0EsLsNJUUFRtQy+EHfVEA4ZgMzojVwugoaMsalipVJWf3OHS3pQLYwIc1e6QQHS9KamNezKBgC/6VImm7r1XuXn6NAkkNe/Ch7Q99lIb9DeunnOZsikiZM1nt3mT3TW4Qf7iNDNMlXkd8Dz/u4jcOqwJzXxI4ikrdTSe3rQfhKXKWmsakxI+SjCTEdsjGcMIT8ogk0Khx+r+Y9hUdX5x1VjuffvTheff/6+PpF5EnxlC4G6P45E3KfHW/fvzk+ffw4ADFTIRKGOt1aITq+AqzDlZurADNbBWRGJ49+Nt6F6EhhvkcQ+FiVBWu8xd4mgy3tIQtup5oS26ER0qNzs0UjjVIGQvUInQ18jDdsAwnZXgluS0JXJw+OT6MOHemHFOECmnsFMkWtbQj23ufeGW2iHlKMrB7j9vrmuHfjatpUsjFTJ47BWAegEYmBU3XmBxTHzq10B9PLO6IHp3pU0vl5cqncadXXK1fFrBPlnr/Vx9fY0wYjrQ9+2nyN0502IXvEekiK1ZkODuTn7hxBP58qd8juTsrcYR82dsGGGgBWGqfGak/vm8Jt9+Tv8/hvnMCk02skhts5Hh4hfhokj/dqJN0iDnSKtDqJazbTqjCOpksE70zjwyBmDNKsw+A+mqqiG74mHqNkmfabZCrPv7s7Xr4SpnRxcrjb2G7xlNT7poX0wdcgyshlKO9uWpDcDooAB8bVuhx8C9WHveyDnxRrqmjxdg5uknJU+gMKfo5XNtpEuor2xUTOyB5SEUS0VuvKBDvm6lC8jvk8w6jW5vdgy3Jc1Ai7VQvLUdGzkTpigKRF3ejOG9N9U+ldK88mt9LUsPhMsbR1p0lWBotJ1/2GhxWX6KHxYfLHWKRGGYvEmavHsPIz18af9P0PSqA6RivSJFoool9ykwZ0jQRgSof64FJ72lgqk/KNURzGfUGsFizOfn6rJNoI8TxNj5quI08cXpLtmt65tNpjuaLOWRnnKix0NJVurVpRpGtJzfKsS9ImJbT00dmohS3i563aQDLPpsl1Fp3OY+caQnFFBzupxAC7twxWdjHtFWnRQyqs8e75d8erV98fjx7bfUnSJT//fPzlz386TqffHG/fwVMi1dfmvTlurh6TswNqC2QsHnE8PgwpEjmSYAX7QSgXJi9zp9QXWFQP1cmqg3s0k5Sse675/Yb/UEGhGdebd5PnZWOzwatmUAC3RqIKggCdSx+osPOg+Pk3R3hbs/mVZCVF0PMggXybNxRm1BByerbOWglqL8IsNjie/M9l5Q4b2FCyVoVW8lLw+cntGBpS+Xd4XAzMzeAYpDpVVjSRM9iI/sXi/Rn+eEbjsPNItFRFgjHwOZYzO21nyielVdo42v08afE2ZGOJTnk/0UG3k0P9YMxUjL3wTSyx1BoZ+ACxu2+cqNTv189+XtUdA5IKXAmLw5E7M/hw9eykr8X/wpiXL1XDvSsy0DStAhEDLth/XMctL+XqGT5Ycisa614pXzmQu7sXx+uX6n27NKNkntK/HbcnTTN5c6j6ZszHkxaWjIg95F4HDpPWPUAK+dubtHWhgz/Ej48mdJ17N6E8yinax0kHC7zG0zRFYCcSHxQQdK/S1mpQOVEf7nruVARHnGsFEdOoyzVpiejmbNTB5NqMgU7Cas+bto7h8MTRO56o14+uTz1xoKg5aCvrirlxawV6RVpXvHpjKnR/eq/EPsiu+ifDum7qUQNGiT4XcoWJeKdkz6zoMt52SBWUS0gQfGj4NFu65Dcc57FRmFIwKFWjeORKXQlSWhDYHnNYRcuAqWHb0VIeQ9CCDnkBZn2a9CkOIZF6Rqzx/EmzakD2lLfvnN3axH5i7DOD1wCWfckn+hxTuEmEbqfYfZtt4b0TMimSJmuIRotMyjbuXkhPSXPfSN9+98ffXZKeEjyld+/fHe8/COhmnDMK3DCDxxM4n6H6dHyVrOoCh8tLqfFgZj2/6i224zUcIcs1YPVSZk5ve4zg6aQSsLggmnwLYDuESEdv26ijRAIMV8Rb/ua4Pr5kegdSvAqR10ZaB6mlY05YU6bec1UvJ6saTIWTcn269vgl8CM2W3/fJs9GZQKnAWhZP/AEgDFX36TflPtcRmgQmN7SxAZnhypRR8gZGKuK2rkyFOXPSJG0radVxVHyJN/MMSf6KDDrCCuRhtPpEiHjhHZqF5FJqlcEXX5nllcx0TQ4Vgx5K7/lUfne/X1Z11hyrS1z+UKkrFPYqmI7v82RdeRiuKfQAMJra9Q41c5gWGz5xTKH59R7aZS2XKavM/s+PKa8g2dqmaIq5FafwgP/0f14Qu7r7y8RUxLQ/efjRunb+//n+OgRS/vgSFbXKcXWWFk9n27gamZ3Y3PSONxLwRKtGHuDmZ+7NquLJ/8fe+8BZ/tV1Yuvc87M3F7TCN0QOkRAeEoREAT/AkmAIE2MXdEkUpSuD5Qgz1AFgoqINCEUaQGV9wQRMPB/KqgEQQNBgQTSbq8zc855n/Ute//m3pubk5tkbpk9fiTJzDm/svbeq3zXd60lpq5ddncB4PRblqiwvKxAhjjcSJ/bs1JYlNrLXkOGN94qbsVqfKC0wShemNwAkQRrmts8lzrFBcEFgHy1Z3FCAL/W5zJ8ETueOFwp1JBa6gRlmSESxgNypQmdCgXTVCSDPgXZHc/Nz3n0T1FHJW2twePFP4JnK4Qo5TfXIYTC6cL8NjGuoVDK/GC+srwcupVkNuO9OvwcJ0SpdKV4ixHR3hCmKH1XqwWKgtm3Myb3ow0OfBk388eQBno6MhMIh1hjnZuLISrr2oTIdTKu7CTg8NPMMeObnArq++IZNJHZRo3eOdcamOM8oQV4cwh7CYznWmBCUAmVTR6zpCgbTsjduHRr3wbT/di0aUvpErAAUFVmJC1Xbr75DO2Q+WEqnzGy+zO7/7a8l2w8ptACaViEQl7oXDS53dRUtMxy6Rl+uWDR6CcXHptD1gitWenWdIibNJdpHfP53MXR2I5vV1xx7Qfo0S5eIq4Bm5PJW3AI597V2OBMZyG9C5WL0n/W6qmui/20FXrqYCcw2qUiLLSY+jwsaiqJLmoiL8tKQEcxn6T27qYqQJW8JnCkl4kgGaeZYakLKdy+12n/jl3Bg3DgDEP6ws6XwkHSwcCuQmA2eePvZ+EQihKhWjUud3J39J5jZi1p8JSCQtLBRsLeiAyQgPf02lPxpHGZRbcJK1xeJvcfccJ66LHu/k/tI+xkDLbI504OGTsgJJcMpNOy7qQFZE2iC4CLki5rRK+MyRzuS7L3BZYXj82thG1IjEeOY/26dbFu/ZJUSu4SsDw2AVPaHNO9Xsy6qZcJf9oYnlbrfcJwiClVZkgAGTPf5f7dWmT07MlUbGUB4hS7ywAOLABC+98dj0WZNntaGGipGXH5DGCEi8hJl92tTWgRPVxS+w/ZDTbF6Gx4YSk8+tocyo6wup+ftaKhDArgUy7N0Jdhb85Yyg4HrFnrKCUB4cB2xCR2JY09FUx+zQMHzpjuI7ZxPg/qrlIpdKZp+H0q+S/DBw5kyMdlPbHZsWz1OkjvU1QOO8NeZycF4JnKFSBrndacHjRPN7wv1TrC67BX3KMHUxi5umd+ASG5Wqmwi4u8nPK+KTcCwDjfRTWIuiEPb6pPz2Mu2ym7pxc4dEqfwbPhc3OvqhOkoSY5K/kMeB51MTDgb+Xa7SOWv0NzQnHKsH4INdX10spOhiiv2Z0WYxlnCIqWKlLq3FUcRrkh2+HOz8UZpz8h3njhG5bI3Ldzz1P2ja1LElNCqFFPb+VwIIuiwlCUhinOhiWq1dnEMLJEgRsVpSNEBdS/xvVsKqIsikmbAa1tmcHIJ2G9XVUeVg45C41eBj/HY1L/i/AGdwQOjEsPpNBIWax1F2zCpheXKS0ZPZrCalNL21X9XjgOqs3BfLZL1A0nTEPw5mT6F48o9xHhg59bVpceR76rbb3Dk6pcmM1aeNC8uXmYVQVvHEWkUNO5c6WokPTc8lA6upB+UikWVlFyGqUhFQKTDlXxUjkYeu66JZUwCEUpzBHeFjKJenIZnYKXoesBw6YiMymgfL/sfAAlalB+4VLq+aWFisuqTHPZC3xmXoeluA65LQtuBUUGpW1MhccVGAqmEE1kn24Wdhx5JohRwZEUEzw/np7S2vUbYn5uPs44YwkppfPOOS8uvvijMRhkO9zs0b2tDMRjqjSzHCQKYt6aLGTiFx78WBUDmanAFbC33ShOng9iJqWhYRW5fDn/HbH3vn1+5Jl0lVIHLengAhVDwLQUAfTlOJjghr2uslknBq1MpRjoBTD9m54KnlDkTYCy4EjlIVRBoApAEdbIu+y2z3DOjsqPLUVSwYCNXrzLfFJhGPKaGB6ZvKrJKHoO3EtYnT2WDDVcTJxUjjLpBN6pODE+pPl3eRz5vRQ+24q46X2xSNBR6KYghj89JwlJVfqQkkI2GIb6PySFpnFKb0Dxa3K+MGSUagL3SJtDhgVD7eqBKUMnhVm4bh0Hl6atNt1lBF4zjmaLl+wb5gbKQNiSCeuysiFNgU8ITKo6qpAVf5QYkV1Kj52DNQQllLDT+FUmkGg0ASl0uVfCIEuIOx7HhnXrY/0GKqXTzzgj3rS0GN3Mvm3duiW2bNtSvAXE8iKMGfaznBkOVBXhZUoFk6EAMzp1LjyRHVdS56YhrZGeDcOIbIqVG7JUzu/j3ZQMj62aQiCnY4tFk7Kz7VLCUA245E7VbUW+HrVP8apKbRs8B560hciGDguBkZLJWVBm7nsoHM1sEzpCKkSws4IqEAHx+/K48N/qsoCgA+UWUpYCVuGLdZsoiB3OmjAB55oMC3oD+fRy/Oga8rcqFyolafwdeVOd05uuTGKKDju6EbBLXRQqmX/UJScihCpgNH1ct8PJEg2G99UrxRFGGK0Onpq669CSHpySEP1eDJTFTezToDeWtigSK1UbnFo9AAWukidnEDmHTtk/VItU6oi7evpZTCawv85MA71EtlcZCZ9i3y/OlesYAVKWYR3WrFoVG4/bELNzs3HG6Y+PNy21LgHTnmayg10CWFOkujbF+pUtbMiPliLxnYL+OL0qQdvzyFAvMxLoc6NKcmRGy5jsupwMJZQGxo5zbViS5ehhFXa/wiqCsx5ZpL5Cug76K2siLAmNnrBLE0gSJ486J/fq4btaSAxnWmGGhf5zRxq0ga6e124zDs7Bhw5d2eoV4S2nLhYcDFu4kyGq2SJ5VBhnJY6mQxY9DPWrtCz+oZS1nFUSNWmpiTulEWHSgDV3CjeUrqbR7w7k7HgkToDIUmFApIuV7UUIzHLVfOFrFdrEQmVhTxz31eBHYFfSiZB1OecVc/Sxzr9PQ5Gy/csQbg2NBsiLalaYMARAbEer1gwyxExa+KZct6L4tVZuSuivIBRXiCtNVGfL6feugKBvZ4a4ZCBZs26zF2vWrkKP7uw8+bjTl5in5C4BCXRv374Dw/qwAO7MiENSXdCqnMi5AASQ/ZdQra/6njz4nHKEg452HKibSneeYRw8hRFLREzS7Rb45r8jUOln1o5+GXp4Cz1yn6Z0s5Eky78NeQqmxoOYVz1eutVwxTvETltXuuC0ZIYZCshbUCoHO/k55vxwT4EMbJkrj8+9nEpZg+umWOfEAmN6ZXCy0kPJjgksSldIQFkVB86fFpUA5QsOJ/C7hZ6FAfgBiggzC8jYjPKmIUn2MMB/tefNNSHQXA1C0cn6voux3eaDcqDnNz2YUm2fmWnEqFQ5JrmR+W4TVrlrPvwVh8OuguJiixNsGSnWAgeN+Q5cBzP7uUKY6pIhkrBIK2LQLHK/eSlVuT+fobpr9eANeZ0X+sc2FoXjJJJuFi5QfvK6pMg92cKhtZV27eNllj0XNxUp36cfa1fn3LccHLCUp5ls3hI7d+SEXM4js0dQwE5wSjqJURMQFeFYifngUk84TS+SoDJcUF1oqE7WrBI41dPIvVAIjm7Qxc05M8XOjqng+Jm09jrFHV+Ye1V/UKuT3Bwqn2UxKe5jO8tZ7gDSS1kMj5ATgrwacRXUOanQNt+53+cBslLg4SANQpD6gm4AivyopH0eC0uYz8TQ1FQJexVU/DWgMhGUHh+Vjw8rVZsxvgWN7ATym3zKKLUqJavOxM/gYbobnkVWsDqrT3VEUIYwtQO6X8o7xO0cWtu70me9BCxwrYkW+7yi06oAti5Z8UxU/1iHElSAnUqN3k4Cl4YBiteKiSeUZvm+oAG20mX4Ts+es9lK6OiBmmjO5m6XbLFSzIo8INJduutqHljJrnQggmR0r42NGLE0t9Q8pdoON4HuHTu3semVa4469WRWTrD4uQhyowmAE9/LA+D2JAREOcrBqVzymbJNiBSWNYNd8gKUOnzLBdaGku5ITyY3FJQSGpFlczXH5iJr2vNRNX3BHDtYWLcpPxUwJ1AwFDRZ1AE/VFMJBRiS6b8ZJcmDojeUnTyYBa+4m1PbqLj3F7qHNL1OMZ15MXU3SK/MGIvcBE94kZPKm4OBTa+xy7qwJ+jukVwfWWhkObkeBVxD+pXjoTwThbqispdxTbkHJqP6EXyyVPtb2fyOKjvZsZJqVzoKPoJIhel1s5xEikTWAZNvxAzHq6QnDYVAA0VdWRv8QSmpSJxZSmaDS3kHV5X1ngr1EAE4PyMhW0QmCku9KH9YQT1jmDwvhCyo2JyNtP/IsBKfksHXsuMMofPk+g2akLsEMaXMvm3esiW2ZY9ueAl0iRlRyJsBzirKYik0FbmtJNiYYWJ/aMYZGepk2GVFli41mnXBcKk3jyBJWDHthnwEFjcKB8m2o2JH0w2nS4/uBJ7xhpYVFacoWSYPPtDZs6pByw6n8MWvgtJTajm/nzwsZw0Z7tXAqlhMuy3CdHLbYehC9jYSPlELSmpqHQGqyniKMqduR/0hkC4pMOzrwhFiWhpYR4dNnuEulLUwG6p+cXxUYpNAKgB3dfvkAVW5Rwd05mTirlI2nlZ8qAX8L4DBMhwMQCIymja3x0XTGMSod/FUYXq83BNTKOyG5Ev4V0qBHOl15jiYlEjPUr6Y1pUYn8Y1Cesjv02YEYwL763qpQXvbGNmcB7vKKC74Ic2aEXhEasqGT6+bZ3UnDKmk11qGZ1tJJJALxeDAzYkT2keQHfylPbuTaijy5WXwG+hf/Rm93bt+cM15tkAACAASURBVC10F102rdvMsn6ce252nvxYTE9PxeZNm2PH9m3MfqmJGw7sgjmrXBT26qBgS/oW3o4d9KwFm0IFPRpi2aUvI4N4sLOBHPAA/F6uvkI+KqVaZgDYvfQkqoadq6tVFr5iy449VwpVa+gpqNd3Kmxkth8ylcFrYA5Wtk2pDC56Mnx2+UmFymTPS3xObEpYfBCpHaxYk7Gkw7kiV/HXWjviDAiri8ckzdXBkzKlntKcQ4htuqTnyVGh4T6q2csrsP+bAe+qjGnlXVbjoJVvaczNBdtdCoQ95VR6eQ3wRsVbK1QBaRjPVsM1lXanJOuQBBQc61lQ7d85FvTUabQEC5ZsY+5DhOklTCxNd6UNzPoeK8UvbBEbpjo/3HN1fZ0QICzI31cjZXa26AhqtGdCBvwzv6eeHU/eMXJ+vXzvNWvXKHxbav2UrJSyIHfzptixYzsyYixcVMEiOu0lsdGtLtIbYouJPKRp2ZIBnin9dKPJXNWG0cYAMW4wgJLCcYFvnwCvMhsoX+DBQwAorKY2gadr7uaFPpJmqLERWxcg8oGv/aXhSmuTwpkQXwWlDtawzs4VT44cGm9+KhtFLmaQC91hVp8tT5FRg97W/Tt4aQVqRQ4qVWi1Q4Gr9AHwO4uncgUcWoVXDjdSHkncdFiIgE+gO7oO5LifnJ2nHuJWWp66QoSK5SfuKEkPTO+LFjRs28Gz6OJlpcs7GBx1Dj1E1HuV1h9UdBA16gWpYrseBf26/O2wdGGYlvLMe4LmYEyrQOb0yukh2x+V0pDczZlDV069E/BD/Z1ZR/7BZZI0x/w9sULSKxAJCG7wdBzXIVKE7tVeiZEs4eGILe5tTd/R9UCM7SSTMoJYsyaBbo/tXmL9lNJTmulMyCVm5MprsaHBCBZpTzVwgia4YKMpCBzKTJs2tyCTHwJbxY/JcK54oIrvEXYotEKbkDKNw6A70FtiAfC6SOjkCfFAG6X46ZaZYiivT+UFMHEepa2vOz3dScNzGoiMmIhtPJAVj6GHV8Fb4gLadJ2EGImT1cvAEwt/s2wKBaAY5RrGwvsQKM9nqiA2Qy/3kmINWL574rYIjyFIhyZ8KBMQ4enp3cy4d6mQXrPghHQM7DnZuHtdF3r1UPz2jLsqRJ50wZwU9vAhtBYmWep+ULbl3U23kAKV51iVVHFYUbjNndcBK/1nhYp1Tl7xcwsmZUczs3TznZCditbjo2pXiQUUjpLJVSM8efdJmfVkmnn3t8ez0Aj7xwXg69Zmj+71MTc7t/QY3R+7+KORPKUcr5SM7k7eAi6BsQKXOeRSo72Gdhcp/twCyLi5fWlJ4aaFYTdpLkCnjiwHNEJ9MF2cIQ5amJQJugzN0NURnQblZZV2lvK2C9+E98dllA1HjK7QiVkpBm8Fb+rQApzmr5M6xL2RJ+VQzS1QCidpv2uwzNVejjetPUMnzgv7V7L0cxVUTJsV1rU0PKOnQu/Oh4/AOOvhWKBckC9lpqSrF3BnSC/IT2ZoSqDHbV26qqaOKFI4Zo+zZvELk1kRmALNmo3k/X0vTTNReG2lh70j2kIqADxf1rNZPiVkk0JUiJQedsF4FFIh7ANXqeOBSmFA2XlSi/bzHBSYqQEyfvDOs7uFMnOuqRSu1AVczPuiQe9oGbQCqiVAuWfyXgDgsS+pOAm2Vwy1eEpLTSl5cMBgeio2XSelJO8DldKodlftmjGN5KUoa7NwUTQZQ1Xfc55pJhc9N0IulnpXssxA5EUnzZPR22Nqjucts3WwTrUNiZIwxYoXT0TmBlZS4IM/C69Nv7MX5E1stjI9C1tNPlvxxCq/EZNu68igGg4Y7zEWhFBIWaWqlAgoq1VR4d9k88rckKmUkzPDQ4rgppQ7dPlhWBGyASN6w8K4TlU1PR2Yqopjm+uEHrE8JKVtyz5zz7rs6IV+z/5eEL1FKovSmL/wayrGZo/JNYcIjuQxAvXKVsvqHIl3V6GsQ0SYDSk9Dj2QGRkMYjRK/yVpGAplNS8tw2bX3xWcyrPU9unnbbtqQq5xP3ia86qBixHaung9cjy8QzcbnIQsMMY+zwdwPdU/em+DF5XrpXeQJzmPiCMNCD0/GjiW9OQGXr8uJ+Qej+zbkiNPZj8lNHnL2rdt28hzcexeHCJuQDvsjreLxXYI7xCnn5MnKumS/B9m4+C5gEEtjwaZD/ZaSjXojAw7XVIxdLteGm/ycTGozAkaVF75nSkVBANcxoFUfZeyeqg9kllnws+7j55UKXJV9iYfHeRPld4Q33IzOUlHYZmvbHJpXtrkw1K5Ls+GWAnv5xawbhMC71RGt2B8HWuKWSadbKl9ETam70U22iNTveCysMxJLgSb21nLTvBgzGM/5aRrUtnQUMkZIcnRD0pHjpZfxEtI1LLB+7DmDt5emWjiZoDuAKCMnNaC9/JYr5ql6vBRFNoq9i7eVQW8De2RvS5vWZliGDCDDa5MSOynpP74d4xEBwXFu8fubMcrNDdLmq+LxSHSQDmNIAUppZIFFBcQlIAcHLAUGd1o8jY9FVs2bcaU3FwEjEqSs0C0sx+90TyruPcZpw0rAK+cQHQZbIp9U6eO0vLRRVVZLLexwj0rQrRyKIMuXXYu9MVIs5SJFUn9tV1g9v+BB2Bllf2QUbhaN5RODzAIhw4Ej71DjdoISO8oJEy9VSqZ9WECYU1LwQXT++EBzJAP6WQAQ0PoZ0EfVMolRCQPKzcu1gLAtvsCkQog293pNeTjFtGfGsR4fj5ydFR6IwCzMXCBY1ztEQJOZkqMGa/OIaZc6yHrYh7YFx38zZlOKKrOIE4SDb2J7PkygKPCkgPnLp2I1JVNk0FCcFPGNWmfJfscY7+G8kSpcHHwlYTgq1Swn6QHMq5Z4+c5hXwX877ILROPqJBDff2aWXbQnMkdZAU95aTzHfvcWC13r8S/11RjwQpB0+BVsw1yeszZ5C3nviWj+3Gnn7l0at9ybHcqpcSU0lPavn176YtUyWQSrzYiKtEkaWzervnhjuOBA5ZhdrSydYjN6zTZvLLZuvnVdI9zg+XmcU9mLhbb2JoYBzb1PvhHbjw3Fis1nXb/dYydpfEoJyreaknhaYgwKpSCB83AtV63C4R3M2y4lDNI7knFXBXT9K7BK9ki+VQ4JGpVW1qtqJkYipSFnVUapfTSNJRNjpuy5fZGz2ZvyKOK1kEPh4uF4Y7C59B2xl5Op1EenlUhD2xUoXUYV0olksREE101vt2eWa7HVGZcWc5SGPDYMMRpgC+OOSa8W+lfFV8HqkIfJipvqJjxvCpoCplCClbhP/pGeXP2Ympa/DlQI4ycsk8UIaAkvnLPFq+5E3IyAqZX1CWS2qN08gLnpj9ExW2KvBguzDes3wf2KUiDnpSwL3n6a9dkO9wlOWKJSoljuzfF1q3bOmQ9ZTkU3BeGK7wKNaYSoFcZ3TorWmSOg16QWoD1RsiiViieOZYbV6W3TAt3gXJgIIzzE1+So4R/LLx3JeFhHDi8LllDKzqFaewbxewHsZYKfuOYLbB6nSJe39xgr4I9hz30eARZ14hQgD7R6iy6TAJFekOJWdAxcDlN8YPUcVLkx6RlCGjlq6WS48gp0ivEQ1K4U3A5Z+jU1wHJCJW2YBAm4lqGX50Ilm/ZGRIJVQIv16VDlu0oZhCZE2A39sUsrljS+bziSRHfIs0E5Tqla2mX4azwudNtgOG/FKJVUxmtLmUloJrhsj0UqQ3UttG4pceI8E17yn4i9UHNMlrh4HPycoT4wbcFLCHoYhbQRN3/MESVzE1/1GtswBy0C3OhvG/4pXVr1seGjfSUltyIJZAnnX3btq1TVSVwVDVBGCQg8iAYy1ME5dzprxR+Ch8BM9faX9wjEgcrCg0bDReJ/Ymm1JgDbKXSv5kKAzwRlz6IEJkeQqbBhwJyqVe4yDlLDt6HAHd0qByMMHEXygynTJXiJecIAhMY6ATqyaOx5c5SEfZscu6O1wKrfETAmQxsKTiHrws2e/WaFMgwbe/2vT4Uysh4qi0Je9nwjsXA/f4UvSB4IaOYLj2qE/eqawUMT9icsa6aCVPrJYIlxN2kdHzgEJ4onM/rDrIsRQc6H6mgSQqzgDOWXtc1W8dGNRw2kXSO0q9IE5ixvm5TVXhQ8iy64eK+HicyZFmErbBcGTdPvbWiRUsd8IPYxjaynwDqPIcxnT21Oy1TPAuQvC2VBYFhTwtiOwuxablRjKs95dA3BwVkZho1nghn1YFUhk2VlWXKNPlkqTwHkZ7Suo3rl+DggA558rpNm4ApAftX2GN42zG5GbXYXthMItvJcaZ1JZZkbxeGXAfOh5vZm2pVfYgB8JqXUsyU435bQ/NgKmGQ7jgVSirHxLZqB02aLwCz5soghOliVz6MnOGSm5HEPx4evlPlNxGklyeJy7OtK5p8lQNl2FThW4atCG1Seel+C1q98DCbIc3DVHtjJ+G0SxCt7G7zZngf4ngktjIEJ/iPd8Hi8ro8cJ5qy4XLXkLmYhkDLNQPZdzSfmBgJ+ARuwojdZ6sBFUvHw+wsDlly5gG59ugW6c+XHAVeY/O9Dllbk8JNZTihFle8L+ESXFfmr3Oh2Xvd6b9M+vF3u7QGCUVn8qKHnxFJRBm6QHhddM28J0U1xqPM7gFoy2DJ6hQyB1DXGbYLENHhaKrjHMOIstMVm9YF8P5YcGU5vaMmHVdpJ/DW2YiT2nr1q0FX8AAQWfXdUB45ugFpDbPrpP0YOjKm70rqLB4GN0N2uUIweNVndmgz1DCR49hFy2t/7+MlRZwoiSSDphwF5RsDIB3EJBVCKGOifiqi2LVztQuuZNd6fmgXEMtKJAFl+vNwIsbngqXRw6eiuFiKWXu5Q4LWdkoZq6UeVowaFMtTtQOmM9PJUyFRuVC9cPG9jweMteMsUho7ZT8WP7EQjqKg6BGMSR+WtzTmsLhr/QPAHiB777u/j3Qme4GzlU6NbhusOwGBpaKf9jwX2pXe4JjkUxCK8eYCq1kAXk9btGuF0oNDL6SEjQg3ObvgCPR88kMZYaxGLXeMTCor6TO0rRb43rFEabcgF0JbbIy0771oIyammDix92duR0saNIiMMl4FLF23bpYs4GtSx73uDPjTW9+4xLp0S2gGzyl9JS2bqt8Eez2ml6FUbGScDo424jMi3cjcl+xVgI3S8ggUDvBTfZuZqU/LN1gUDAGzvJiMSosHPotycrjrLADYx6mVEpI0co7s1IpnQ6VgYHH1zlk+WoOcRKIRH1frxdzyXMpykIeiK5NQIPte1mkS3VDi5xs6jH6S6OKTT2Lcl49x/ZU0+YsowFpupQdr6ooQiljKQXei9wetJctWFRacoK1xpX4frwnx0bz3123aBIoFRS7S+L6OZZK33OGDe8ngCoPYYZA9Do0oZhasZRicEIK3KhSvApml8teDFarRxZZ0rR17DNEjxY8OY1EIojPBysenO/TwZmgnNVxMr9PwFoDIkpNp1LxmY2NUcyg40WWSrHnFoYpWCmjqJr8Ij4f5w4ap8y9mrf0VOW8IrhHyvTm84IHpWkwWJ8csVS8s060kFitem0lfLBmzdpYqzKT5Cm98cI3Lb1hlKmUtmzfimkmLH7kRnDldfdQ17S+3FDNZaPisvXWQehwxPPTmfnB1ArsH7dadWAoPo9HKttvy1YlHdPturu8Q3ooJGJywRnzd/oauROkPtNVruAGSSGRs8PT4YQc58F3OEyd7ItOOXtvp/VFSQJ9xJTV1CCJkukJ1lljDskqKC7MxW03DGRD7hoiaSWh58jrZyFzbnSMflKbjcIidiOzEl0y/jBPi9SHChjj8qpz49qZM0X7Xqbydry8EsaUbB0VpsNvAOmIUWsXCCcuqnpWlhahFffDAhKn3lvav/u1kt2gkvXkYCsuN+zT82NtTOmo/ZSwS3vO+GbCQftWnhX8Uc9r096D7Dp7wMoKxhXNBWlfhsAendSgWXYICNpDqV+UojX3TD3sU/GnUlq3MSfkLlHyZHpKm5PRvWMbyzwSUIVlJp6SQHiyZZ1Kt+KxHSJZz1bMBbkKXLTRrdzAT0kLZLZzibar1jCQSJvLkU2lxQf2oYclsn8Rx6wxY1YmvIo3Y+Kz43hu41p5Tz+FM8dcyQ+lkcWbZguolSpCVRHvapaGJEFkY7LPOEEDZsfEyO5mWBjSKAoufaDcY4kngoowvTeGG/Z5mHjsq3LeCk+p5/4AYC3Z0nl9YiUwMIgz67nGdVF+U3/ZlZtDP3hbcJ1YhA1AGZiS6/xklHSg1StUBFhq9MJJQltijXmXt0SFyBAbGFgJds2FErG+gzHV7B7fr/vDNZH3p+6V/ARDs+woycbHXFjkPgRJkBpBpcO/0ywT6Obn0qPMzyWfnDyrpESInFt6M3hoQfVOHaY63O867d3+TCUM73HE0saNx7Gf0ulnxhuXTI/uc8+Nj3+sUgIwzQReiTNPTOkDozDJDEs25Ajt5OMt2Ozq7yMWW9kA5otkVkwYQXeGlnkiTNnWDoY+S9w3dctSz2U9i0Fo/o0kRp4/oBEYDa1DKQuHY62NWEl8NSmMI+hxTCIAIt0tgDi/Sg9KoacIgnD5lcHK54MyRBlI9bwM+pLQbBqCjwI3sbN9o7S2nhxS5s17o1fsBPLveBkLiI0iH3anGzuULM8igLjSIuox57WoxFNho2uBPbBCvGRig/pFTcC1JzxiCWGvBkUwg+uMYM3sITREhpcgPNuqyHMTQs9ERXkAPminESFCRnh3Ltw2s0Ps86w0QEkPr12oLVKHDhHrXmc4yGLziBWDfuxN41yUV8XzsC9kQrxfC48Px6h60VTE9N7sNUPBwTjSg2OTtyXaJcBKCQW527ZGDlMs01zFVC7gqEEbbwQJMH+dACgY3Sq/sH0nI7eC0HlYXS5gfVbzLzqYOtR5jSyIxEZWD2W40DiI/L3xjvwmn4FeGwtYFX+JLpUeDVnVDKmovIQhpCL2Rimhkrw/lZj4wGukgrAibrAsa2EPHyoZthTuKHRcn0obAL1ATsEIPmo8Zzjj8jREspPP4TyD3o3vYH+h4FR+fjTXMw/LyqZ6N6QWUHlCgSh0KQZA/aU8bcSOU8XueMCJbxkLIjHSWGJ9Jl18HwC+6zUYOpKeLdijiFxUZulVQcT6pl0ZaFs2GbSHQ52l75RWJCqQxT5QNwzJ2+Er7oOaOeWfy0OK8sEkbwnzrZpqUkNhJRrlifmq/eBnEkpe1pOKkq2e85fuPLnkGN0uyJ2amolrN10Te3Zsw4KyLki4EnoV0THnplDvGoGrZhun5+R6NzRu17gk5b7Y27ggVY4m6G2gK2Ue6nkqrASN2XWDBxm1RlKEZQM44yF8ijmpDi6ByawM6RiuUFkQadCTALcZgXULb0MlLgV8Nbiv7A0UwzhAFpw3vjAaA9fK6RtzmWP2pBEoRtvObnUBd7iPaDf8sIIxpsUow7wf87VqWEAQWopJ3TVBiUF20Ra+dsv09Zm5YphpBYSzjXiNRa5TU1JmpoeUFsHcH+BP6W95P89D4z1qv6VE3MBXo4gFD3S8XmnUMm5b+FdXLiBsqrAWGVvjP54qI22KUp68S/ZGZ1c7ZemqV537IDlsyUPjOjCMo2fmpoI4BFI8fFa39CHdRR1FFd4DSnc/cneVREhfR5FzcjNlwMBBHnLiUc6C4tfsWrp69ZJldHMYJUcsbYrt27bS8on9TBnZ7aggoVtyms9Er0OsYGXESLaEXcDiizEj8JxrYi4ldaAcc1ktp0pRBqKm7SQpsrWoHrQAWS4z8WZm07gMo5jFqVYwt9CgJBbTGUeKWE9KxWaA2xECLXABZnTCbJHdzREeg4dXijNU3HJFa9jQekc2kJOalSYinpFFswwH53IOmSx1hgC1dapwETyv5ru5AFeJB3tQ9mbYLF+N1HBRTwrh2rLhnVGsjiLplLdgUIPeJT/rfkfAWeSZFJ+spMqrL0zHgc+bP+rZTzxQWI0CHWbgsqsC6no4ExBwAihpJjFa6dJT8p4FSRMl/WxHIlWO/TKd3mNmwebnSxhH8Rskd6haLF9twlbIxGqq5+wbY7bCn8ob5TnJrhBU9eqpoIchhsYHc2cDSEZlOy7IzcaI7BKwhCgBHLE0DaWUmFJBZBLzEMmrbjI1BsPmZy8kVnyXCYbaFIr15en0ejmCB/aGdl1lWGTmV+6MJ6o6/hJFh+0iHMaICIcDxFqFBYAkHkD7Mw9PjhMaCnvCrXXAOepJnB0x1b1NuEkyzc+iWB42FVgYi0D9lkpAECKxS5LZzPba8buOhcxrFXJeZugyDQ+rzW2bJSigFGg066wOCvEZ3g+fd/iJth98XuYO6OGQz1TZ8AuVbS2UJphfy3NMynRvcB4UH+na68pET5uTYidM2HfxtfBETlJxx8WqiL0f9s3uVnwn59yxRo362mtW3c2Ko6nxn0dgORM76nPAhClPeB/VU4qKAPWgdL9NRd6veH3a69Xb5KCHfCxUIJTyFJUkibmCXkw6B2T80xP1tXlgEuf0aHX68WvXrovjBHQv2dYl16F1CT0lKBAIihvd2SqsG/xcbVKMgE6wWSl+WQtnJfJipfo8MSAdTnaRVL8fkAcN+tLqy4gjLJqano49c/Ol+Zip+aich4LwUa2ujqdDYEOU0oU60JtaUbtBAFRpw4tXq0WwctRMFicILvwMAanS+erGIavMd8Bnsf8YIhALd0qPyilr3xg62JtkGn1K03SHGOnjsIJhRHHlCp7kKnhbawGpZfCmNfXCbokuLGYOgcArn4VKkpKoIaJ/VzxGewcGxIUfQrKilaSMME6roGYpk3lQQ1gGxFtRWYvE2KnxM4if7W6mB72YLZN2+E4Mh5Ty1wknMVXbFNlQeoQuPmaipPP/1rqF+a0wU+EsvWyy9u0dwyBrrzo0q09UeWImbHK/q4kdv0rvPcNSeY+cIci1yzKT4zZujNnZuTjz9DPjDUuNPDk1NR2bN18XW1IpiQavfVosBW0LF4XnoqAE2Arc4GrhgU0mqFMbhkkq+dHGAtRB0dyPstnFbcJoJs+bKw/UyWKAkcuDA0a5NlthZAvJYGq88sz3JQai9C41JjAlguB+XxwwfZ8OWOaRWY5Qs15W3VTWtP7EBvBswHgyt0RXXkYZIYy7IWisJ5WAvAL3WQIgjZ1L8l5dG6F92tR0lKpng8t0LDgfTjP9FPZZx3k16bVVTQFZlbIdmgT8rvAlKlN7QYqeNy9yJOu7Yn6urZMTJj2rqsKOMjdfDjijW/0SbKPSF0TAp6Z32PVGk+hKecrAOjZXUkN6FYC0r2d8zZSK4hELaK+G1mF/iQ+1utJ56Z2Bkyls015RJ8vmLxAbJIif8s25b8dtOC7ml3STty3XxdZt27AfCTDzeNGgKFbXXgV9Pluy9bI6vZvxEHDtinVZGqMUGO0s9IY4R20dYTC94B+ynqQOoHAELACoO2WFsiCXzGwWZdoJSeJBds0EKC9bz5CGitP4EjIexeIxzU71QkDcJSkwtgqbWJLL56hkPyqotKS9qV7MowrTzpjS366j8+HBPDJ2MkSIgIevIRoa1OtZ3ew+P8IxU3orO134Z3pUFfcyQRJhBRqKWQFm9klsZ/wuSzGoGvIAlXSQ9gAsei9iWb8Xsx4xrndgbyIPMjBwyAPqcNtOyMKuC+Xs8rNgUSebvHZKcJuZMjzCyrCT0bT8kSkTDQVt7eTM4xodYBzGoKt09ZzmSulhSmY0N4w9GhuybkY1r51GsXRIANuepSP2xuDRi6oCu6IxYOKZK/9rSvsInULTEOc0k+PWHw/yJHlKb4jZvQwNF+vnsNS+nXfOuXFxNnkrnSe3YDfhMHY2PFLpcuN5HsWnkAdsa0YD5lkZCwL4so2dKnaXRRkPboSiIDrW1zvcKVjuYjNdsClQCIu1cq5PIZOtodxytjDNze+psQLxcd/uPQnE5qbDmCCEA7XWTTpJca5CDxMy1TOpYA+6jjkx1pzgySi1jKEMimOIU1DeBkcrTNzxTtVwjgetwOXFs60coxqpdntHFxwGyYCKjZSyIJFcrdZNNateso6GvUofPLO85c2UA8Q4C4cVnCc+eMn4FRqFMrx+J2TEsHuqByuTUMK3Glb6bmOUj5hX5e6bRbG4o4EpIHhX8sLw/hVN4AUh9ur5oeZQzQrdyiWpK+yJVIdfpkIyJdRdILrTYnhxjt/KvxMn5a04ITdblwzjdJWZzO41Vrg4aumwKKVzzzknPn7xxTGY6sfmzVti+46tiM9zDcxV4lEX0UuZtBRi/h9njBnTqRq8KBevaAkjirOu4kOHezxs5sPwNhpnI3yC/ov4NMI+2Da2bsky60t4EVRQh6jmNEdNyfL5cfC86RR6stey96cZ4G4xWDeFYAHuWQHkfiKGXPJAFAbmN9PTwTw8h8MKV5HiV0qf3Cd2mMI4bnuwOoosCBb4ayqMwy7dKzNU9FiojAttEeLuhDp6bmYP/TeHuyaZ1XFI3TNrAioq952sQrsTBNTFe6N4K0XCEqytXjrn3iz0vMIgW7SAsq/QV3uocNlqaC57RcXQwXzsYZbwskPoIl+sk6V1VwUZ2Pqcjurt+WaXAGIGqaQYRlKpoH6zjP1iCM+1lWFTmM11rR07ia3RwKxJoHu9+ymx9m2JKKXfiIsv/khMT83E5gzftm4VpkHeUP5kB8N0m+YgcyBK3CCq6s/fDXpT5IXokGXPndLgDfEf67i4rUrlVJmhlWEd2bgqX5ASy//O4sVKzFTph9Brlnbw0CdImP+NhuyZitXQA2BdAOiFlMjZ4CYhCFpHf7NkBJbZcaQsN16uEEEZKiYO5ZQ/iixrbpeeoegIlfznTcet7pa9mDuGBv+MnpLMCM4NNrxauGq7kvOj5ADCCycK7EESt/EBRNgKtjQVDvqMW1njX2hMiFNVJVdUPWMOFkYTVMNDutce8wTK2dXce7kmzFlnl/cG8gAAIABJREFUiALuVbxSegmOCp3NrQxx7kHqMj+nwvQMScGHq6Uo3H+Uj5VdN9lhTMv7lMbJRbHm4DGkTd5ZzsozEG0cjUaMP6wY6DRp48qQiqJhqh4sgNrNTorRylBPgBIl/Hv2ywqFbxvM6F5KZSbnVKW0acu1sWNHTshlhh/lICq5yNYOGNvTaYnh+iguj8IN+J78d1r26rKTSMYN47amSd9H0aq+ry1I3WesRVR8ZNlwZlSoysIs7Q6XxahrYOE1VdYtIxxhWnbYiFB1QrfrAW11ap0VdK8mh0iWQd2tvIHxFFrIAiWXv+VvXNTJMVXamBBbPSx5tVQIIIGKpzPvhTK/ye1NJHudG/wDByTZwm7wb4uMxxS4LG+4O2KJj8zFQLiptLUxmDy83VHifGeuJsmvysrKY6K8iE9iRt6CNazv30lQSmmYBtHtflCTLdQtfE769AP11vKRr1hZifQLBYlhOkI9rUDKC2xvfY3rSC+IbYL5wRrRiTOmrHQayaz0ZwfVNC7E3Xh+Cv7P75fXLqoOZ2htYkpLUSllj+5PqEf3tZs3x44dWwsInJ0jDVAn7Nud+8YshfsVsQq933FXVQ4mv6izeuniUwuVnsSFgClvhnwX9roBd0Ps2Qo05m4XINrPTpLV+zDdryQG7Zxp2IE3F9u8KpeIx6FiItac4Lvdasw7XTAAAfwlKTduMCmSrjw6GqGMxbYKNQaja5iL1Z+iQpzPRmvUyOLR0wNFlhEep0IseC9st0HchW+U/20vpoQM2dUzJxQX94bcMIRY/aSSsnAm78yBmsTYhMBRsckAoOA1j5soDjXjWuUAVj7C0BJzFQVtxVvDNqci6r1NJwA/SRqKB1hdNVXRzNYmemnRUrBjZNCQuR1moXVWBbB9Ckm51fiAiiFSLo0wlXhuU+KJ9LwNoBsj4pRn4pPYSeW63Nv2TLs4HqgqHY8JoTXWlAXd8IKVoVybE3KllB53+uPjTQC6lwSmVHt0X7dFPCVhO2yOxa1Oi+HK8HpovIGdacnFR8GjNwrGHNU4Gtsq431l58gWp/sLtxjxfRIWZYUAb4iwqcMMpdDPSnn1pVE1t1s/AeMxLmMPp9uIq6bF5NHZg3EW0d6XLDrJBrL69h45pNOKuRAmZatZVCuSHEiDViTE4hIjkbe+0KMqiALBXfbvAbpXmsqx+8CYByYPZWlDyw2eQDlHUFe8AnWCro6XpWaQyhYbFdfo+lcL/92N/GgCsuOVOzUYh6qft79ijAzvYjoAMDJ5wkqYFOA4127AfQDbJbwFXRiwb7JtrfaTmviRU9VhvSNrWKcpo4ldB7OD4lFrHKaaK0UCoDPCUZLG0hBzP6l8BXF9GocOfYBxLxNBYqVjT2PdtZdMjVjAc6KShZLC5oX/SCGOs8lbUgKWYkGumryVwQFJCVBIM6OaJbQMLcAxYW1uMPeBdiU5QxEclpK5q5wZytojbih7KrqMoWssjjS9Xd/0lEyOcjxo4FYuMdLwwpKQEZEGyMdmxoOLzKjB5Qpd68oaJb6jQkRYLAE8SJGlcpSXJ8WTChUlBMJHuO8qOZGeQJ1DXw4DuhfUsNEbGc+qA2KaJ8+A+D0uTxEFotYj2korxBB2JAStTmMRjRwpbHmGriqFaJU15LrU94DhgQehRm0In1m6UZQxXKqu99HJF8r7NJ5Sri0sp4b5CrzMYRPQzL1BeTkbCZk4VNSa4zoQuYwMrIa+p35F4AB1Mn4IpxRSIjwthSq1HQk8IO13J3DSqHg+oQtoRSOTq2oA3NQI+pzgWYGuoP1u7FLtnElr4AFat8bZtyU2Yum8c8+LLDNJpXTdFta+gTI/ZntXVOlrxI/bUMD6wXevWh0urpSJJ+NK6xBbkiJxzZI83Qp4Coh1yphZIAGbtrDd9in6HU1uzVjldTEiWRbJbUdlfKRweVwNpnb9AZd/MFQgaraAaCk8RLbZhpbGTWcB/KJ0YNS0M+u20MLEhyj/kM83ZJikALX0P8JEWzPfsYvdeI70BRzNDn3BSsQZRLShVUs8hzwolZFxQSMyGQS/JfBXtdFlc3x5MmYdG1vUgWGo4jYrojOUCS5OccsImMtUWt+Y6GoWut4H59ZlNLq2pjOLyVFAaYzb0lRas+E9z8+9zB1SpYLvD0YxHBJyMPRg7pDX32TflN/y6UHsmWNASxgh5aH+0BAPSbDd/VGuI7qJDQqxwKRA+LwIO8I+TRLqFL1hebfeJ+vXrYuNG5KnNBtLK3w797z4eColje3eisEBskxYeHo+BhDJ5aFTYQfKoRg3Ov8GYphT8VoU4xQjMPT0k6OG4PIO2bXPeKUa9xeimpw1PBtabbjjYoYlzFb0E19KZeAzhUZyScpTdgoH3biH1RQ1mBt18Vn4cgiD3GWgkzjx/DK8L8BQJ8iLS1l7T3U6YBKmUQLAIYPjGqevF9QaUimS+cx3wNOjab5mlUlpwGsh25XgMZICsvDGsnQPvFtJ/Qg3UoatFFBLhoW0XQBfvmNRygCw+Vxd7EROozxFArzulc41ZXg1jVCrF7PO6HYthDxDXNdtPwrY7gJr7k3/APmxReJuYjim7K+xOuyDDujsNYd45VVDIQnHgqcGHFXj462AdePuXqfHxf9jJ1Kfngqke/fRkIkrl9dERptlW+vWrY8N6zSMckn16O40edu8hXPfEENrbFAKG96SQVSXhMuopbEiACsjV7RV9/B3FABASMbaNLosUAJO5HuIjzNU2NUXsKo9ps9z8/gM03tjO42q8Dp9oYRjlFHN9kRyw2R7ETXx4qn2pJUKgHatIgYWegqIvECeAx1VZXHIWpASF44GSeA8qPOj8C2wzO2hyCvBg8gbNfZQQF8x7FnYaTyO7GM+3zwVtKIZNg5zKJ2Fxp3Trwb5NV1g46CwvAOcF55PwYSovUDLyPBNKW9SEtTB1AMYoMSLWcCBT5Z47q/sMGDPVbX0XgphdzA7+F1l6tduBTRmfClCblLQUsjwnvGg8pLNXtfor6LwHTKm8egoMjeEy1DNOJeTCmwo5/Y4asVcmguqx5T3AZ6Ba008lg8M5BYJjFxDhnnJU9oATGkptsP9+EdjajAdqZS2bBWmpLHRSQNgLxuD3qp7K1vGWTQPp6w9eRjbCL8DOE0WuN1kWzjP+kJ9kqyUu+9BQeoQp+eSOxlT19SeVHikGsxrGoQ9LhXipgLIVq4AT2UhaetVFAlGbWamapU/eueg+p4eSR4gJ67Y/EvZPzxvtdQ8GMImzL/RgSkfo+GHRk3aRR7I7k+xugSyykhx87zc8lWSXYD/sIkdDy6Y9Z0+RvS6CL7jQMlbqmlvsQhpJfgepZNmLfCFNwEPh0/NKFtUjI4PRe+CGTh4R9Qc9KYVfgJDA6dMh70seC3ws3dZvBzRUlDoqzKZQtLUUIdcb/hvcmLz2Gd9Y14ePK1B9trSiCg8J0OranykmOVpdbN1+e9OArF0RwmPEmMIszM1QRGDOVGpfag/mXHLf7JEKu9Orl0qpnXr18a69dmjO1uXnB5vWirkyfN+/Tfi4o9/BK1L2HkyPSW61mldkH2w+1/y7Fo+9cam8he6DRJgDWPsQaSQ0dfI3esVphVMRaUH4N6IXc1DzPAAGY/OQXKI6R48KI0pIeXCgMr4DNK8Qyoo5WbIA9QBq/gT8TKXVaQyTB9sTkMg7cEsrEy3WrG6o8bz5uObKKskUB1eTdbsdcONkiHoJgusZSl3srg79xE+RNKe/TWqLGas6uQTAvpqlYKMz1BKle6Qwwk/hoHZGqx3FZFLYxxB5b1UqqHBksRcCKKzxCeVpqsLnaW1Grd3I4UkJWbjVagYYqpgFT2A0ttPnjqnvVALsckOS1sMtuejwBjI4wV+mvMCncmTImU2mHiFeWbMuuYoS/6wc+jCaTlGCrnqypKC3NvBFzQ1JWVk6kGXVJojlpZmO9zOiKXNmzbH1m3blUpm2j5xnmzTQZo80+Cyi5FdS3ri1ODgpu5Ihm1ulMTtZEE5K36oXjocPgjObPEYxDZGDb3pAtr8hSbg0JuglaOP7I6YIHJx3aUg5YgUQJsGmJsr/8EMiApoZcWplGi5UzEnk31+mPBkLfRFaljainwTuwsixTlsoF/OLSvIgLpkIT8m7+haMipo17HpwKZ3mO5+dkLLFHha13zfMsSS14OyUc0c+/rQEwLjWbhICRfkE7hnFJQWwPUa03Wfs/KXO8xxHUh6QFI2yVWz0jRzGaUn7AAJz8DlLLhd9RDpcWjMdQHR3XRYh76T2vc6yrWRx1YxNIL2SrerGZzxsTS2+e973c3UvZCUjOG0ZY6bKuqySzvAv+dIsHnxkzyVh+vL6TL9mMs2qlKE+arZmws7LDdeJjmy2YRa1yzoroHsata+VfLkkuqn9NxnPzc+9KEPIvu2ZeuW2Lx1C5xKONs4uLSerGC3i06zlPgMuv/JIhc14hYRAGFt/QSQquYrW+em4Nk+l9dIQJqAlpUgjzWUg0pYOD/MYHoFpaX/lC8TkCL0Ek6yehO5H7fTx3g3udHkBGkcNqaCDB3hCGjmTC+A/yIFWomA6FCa1i9MqeuMlVYf+b7J9vWBwoQNPAjTblA9JuRhF5ulTgDLhMiS+gPabnBbQw1EHHOWk5bEHqx6VhuD0RTe/Cu8USnuiv50ekM5FJF1Qkpdn3fLFLf5wJh0vSd7dsug+b4O4TqTTehhdCkOfGaXjtAgFtFRhNo/xruY2OAsQEJ2Cmm16Gh9nLhbPpNi19xxmHDsrKz3O2+g9jh8UTx+hvDaAwtq15AJ1vjuAqQTIDcfyvMGvWdLGxRwzNiQMG+yft362Lh+Q8zNzcdZT3pSvPZ1r10a5MmX/s7L4l3vfBuKHrds3Rqbt2y2SoJgOKGD3g+EKKuPjQIdAge9zvvKw1mwFKfBFFJgN6XpHrInd812Y6FRbmEcA325taGw8ekeYXCk2OSsIhdYbrqAW5NoQ+bfWRJCQiGGBSKzVwmgZuLmtTWKkl0cO5M5XCMnTx0XRWYOoW7FW1JKrEy3S8lNytBTGxadCLkVCZaSaQ3lLhCd9WoMUqk4+X/2pjjyXKe8HHYuEBMAUjylDUEX+6G3h/MojM9GwaUVpcujr+3iaCtFAkMsmxBGRIrN/t6WPlrGkecXQEetjNISUrLkh8aMYSrDLvKJOvVsXa+TwBWe1AWvDrG0QRSCdcJg9QyjhqPnTsMi3a14wOrP7Gx8XL23/PjgPQ3ItCcOp5q4DnpKMRKqx3sJ32JYK3PeYfjn6qRCygxcToU+++yfi999+e8e20oJ1nqmF2/8wzfF6173ahycbIW7efMmKKLEXvIQTE/xAIMLggPSwUmU2uWQAFVQaXifF1rwR5l0kWxdUOq74LGsEl3/tBZDhoAuL+nUxvkgOvNGbNz4ioiSKscwfFU3cz00Bp0N5+BwwhGp/Z486db3JBeS2g4WDV2AWbGWwGn2fQany1NUOszhcliVJWSmjRNQcuNn98nCeJayz+/kTHlM/9XOFR9TA+lr2AoWAB4t+WXjyBAkmRd2jlwwa+4U09s+DLY0mdBgGN5VUvm+7o1gPcjJJ5UYCuM0UHvgjsIogDbCS2Y1qdg7VgO/oNyx99RaiDqJIZ/7SlkNu9cUdT0VtPukZ5mOgXgoxEI+1WAID04tfbUw2oAmIvFG7D1UalLxprcuRYLC73wPuMiUhu8PwwpjpahAXp0TF+bSELCXR5hwALxIYZiCJjI7esJxx8XK1WuAwz7nOb8V5z3r3JibzYSNCuwW2qRb5L8WtXWJldJffuDD8YIX/iYEu2fP7rjmmmtk7fjitKeqzO9U2dO2KJSwx2RBy7/2YtjF1hGgZVIGxSCmlpfeWGmwrhIAlVG45W7+HVNxU1nKU/KhzykV2CsAtXWESqjBDQol4j464v8Q8DZhU4dNaAkyI53q/7LJOhuSx8cQAu9RsBhou1pHWO6vsCAPQPJZalDijU58Aj4StCeVB6NSITkdvgwOtZ5hXjVyXYCaB5S3QejCh2R1OmRJwWUigJwncn5K+CkvAkfWll6pbre7RaZMbY9oa9Q/STd3j6TMhLHym54g7iMvyZ6DDRoze3pwHT1H+nSS6BXiuWQ03WvdrWQy3Y73riiR6t3o6WL9kaqv9Xr21lKB0ouujdvkxJEU6UJe44Vlvy7EEL2+zthBMVu4prpBBsnf6sfxJxwfMyuWx6A3iP/1B6+Os570hJib7Xjht4gaWnjRRVNKRVn0Iv71X74cP/dzZ8fu3bti7+zeuOaqq+QZ5YZks1YoJYDDasiVvZL7EbOqJyOASLc1P94dMsmWqfZQPBeszlf3wc3UODIi6tKXC8OOAiIodnAIHh3VFsmKzQE3EJMYDdvJYamKQWrHDeXRiZHZKnhk8jIYLrArI2bKaZBld4Pm39IiVlzKmSUuKK241a2tszxNFb3av6PVXDhRlZ6EDqxUFQijODHiSMibKM3q4TGSKJiFvVl/2MU+8kBh0CMXA2O/k+7hVrl8ZhWYypMxdmWF7yxerhXOkNxd+BhyfGyo0G9LCgO6z8WIWqf8HaroO5NACsWg1JtRETFEZP0gbZbhANesEYCnM0NvJz3/DInBplbIpVcnudLN+6Xr0JcLaDT3BTwiy1SRANfFYZqeA+9QPfW8HxrKCYawB4cOASo5wiPmO8EjnYoYZKcFe5Dc21ODqTjxpBNjemZZrFy+Kt7+znfEaafdr2Z4FkEh4X1n93YC8kW4aQrqe9/7dvzMz5wd37vyCvB0rrnq6ti7dy/H2cDDYKUUGD4CoYn/cLVZ+KkY2fEADppTqSYPpveR12NxacFc8j2zTUpuBC+wdpEGPiA0SpqBQxSnvXk70QpxAnSYlV2h0cnwJ2vWhFUojUy+TMf9FuHOgGrZ//gI8QziZ3q3TvhR5tYBt6oNuzgOygQ5Pp9UID22zqgiYEedZ0LL08SrALyTVS/nZQHoawg4L+cyH7eHSTWE5mgaSACPRHhXyhs6DgCODn8BDIWDKc1Ob4dYHMRBQEhdI/jc+Tf8iTqvMPt9kJkYr0B64nFd/Ih1QVwTZuHKChBcVlaABonrJt4o9ZRKXhj6Ocjk2rERoBoRuvWKs4QFKJcbWbpJVMyOnU2l3JRlsddOfMkdFlLRKtxWZ1QbH+Jjwgh1tq3s+bxWqlzH5cuXxcbjT0JH2FuffJt457veGbe61e1iMHBbw0VQEIdLKe2d3RnP/o1nx6c//bfRn5qKbVs2x6bNmxmjA6BVL+f0MBxipEeiyum0trkRU1gsTpXXJGxjHoMEaEY9kaOKU7/35pd16VahMIMjVaGSjuL1OhYpLGEFKzRxPIyacWZLZHc5zzwcO+1fHybWjcmzM0KLA8IcXTFVhV/IG6GcDcROHwj1aobm5Ggf8r5k7NUmBa6/C+7sIblljA44Co7xHqz01wOyT7cycw5BaAzMidbhhXxZM2evt3RU0GIwI8TXS/yKBoAYmVUWxzjxCylXKEp5E8ToanaqZDTLrhHVwwcSMnb3BGEwOpxU7AxRRXnWv9ff0WMxVYPGgokAjV8qqkodH7EZwG8RubTSPKDkQNmioSAOpv2jYQWmbWCv+zPCjoi5UbmjlTHurU7ukClJrOgX586TxVAwc2qaCUzsqBcbNqxD9m04nI9HPOJR8fo3vD6WzazS2KzFUUhY0cX2lPhq4/jzP/+z+J+/85JYuWZ1zGUId8WVZKkiQ8PT51YPsIpqr09LyxQ9IjmFFq4gT3IZSghkvbqegMVa8BEc0txQKkxUxTqyTfkhWOJUkC6EXMgqLtfzc3BIKjYXoWhuE9bFZa+fnOabKrcPUJiV8NWFzowYa8eKFlF9HA8Ksi2pPVViAPtdrDwPP78qj0yW1iEKz5tiHuFaOOzatFa8DKEQ/yCcNC4EABhuwwBcqm4IOpgi7yjfc9TjoE16tUoeSH8wOcHOiemR+UDCn9V4pOTWpDOcS5vj3Fn7ld8hFyebxrknE66lkegG7YmBZekED3w5lJIbS4t6Mc6EypBhGHE0rkkau9ozifLMa1B/SHN0PA9n0ByNqxBBha8D9FaqrXM6LH2k46nQ0Esr906OrdUEYjiHkEPyk9jHO41CSj6TEWiACJ+MNXmENCjv/ByMHXBQFxzTYBRvHe17Kz52m5NvHTMzM7Fjx474vZefHz//878kHd31Am955XQYlBI3yjcu+2acecZjUWOTQtp03TWxfccObj6FTgYBuV3Es9MB54Kpx7XCG9IJSneYYvSwkK57k99Bb0YlKVIC4JIIc0BkBvarGboMg9xKAwxyZ59sYUvowXHPsGKddr24fPFcOFEl25+WkMD6gn6BvEBnPYjFGDXC+0uhMUTV/6uvExStBgMsDBn5LSTgzHo2VcvyxG32TSgIj0HYwLrEGgro9h1+WL5nHhwXmOIZTQnQx+khUmilb5ocE4IrUyDAIkdWPImatsdjGszXGpCAwf8zNmRKAz0djksnht9H2QeUjouWpXj1a8rKrYCldUpWs5OB9dIVjzdBCMSXXTIlvW9n+OzfpGbAtGS8I8MqIRVY1UIZ0LrYizSwzjfgfmAPdfVUQjcAytZlKZCBPDqz/VP5r1mzKo7feALWNPmDH/3YJ+LUU0+1Zb7lNVHnDodBKTnLM4rnPe+34oMffH8sm1kGTOn7V19FjKZPAiGEnQIdsREaGMRp1bKPsTgkRgGYwWEUDxVm4NJd9hKEHrIzIZ2RCvQ6y5VeljdKolA8+J7rli646544XpCtLMg/5FaqFsVpaVsw/EUZErrlxCk4X07Avrgo9EaSNa6hSnZVVPXOQyECKaIDEucKOAzj6WMpRUtjKZ6RGdlqwuYMVyc76D3iGrB82pRPX50ka0fQA+9XeCNSbHw7PrGfkc3mRIVgFQrViDwjeDdaf6xZoQVJ2UALqGAnQWZwdnKN1ZoF13d3BNUyquwD+k6ZPzLn3XaX6KM5Py5T8dRfLFMneyXfVAMSapbBTGmHl96jTMxkb1WHnPZghEEpwZFPXgxVXlZ2KasUWMykd9M+t9Ex1IE9B8+cije7W/g9F66W2wH14lYnnhTTy2ZifnYuzjrrp+JVr361qikW10vCHj0c4RvDg3F885vfip/6qSfEju07oGyu3Xxd7NyxQyF93cDk/NCEsp6ILq9saGmlSqyRwC/bonIzgpQ3FZyLpkwMRc3Ke4NBqSQw502NxUwu5Cdt4XhAkvsEIiPY++asKCtiEDHv5ibvOpTsgU03G0/r9rNqEVKyOQLypUqYDergF94qXS5gN5tijwpzSUy8U0xa591z85LUWPERAuBUJd3+Uhp/VzAqs6r3U0vuYSRaArtSmiHOyvss3s05cIkJOu2NtcKL8VkgXjh8KsRVaLoQ86kcL/PIHD6VxIce1H6m8gtitItrhBbH5MRJO1r0xWusvDJeCYaoYIvmNlEFKXotaDgUEv7EViFpydSlivtaGF7ynYwhOtS2r4w6SpM6F/CViCWiIWgxukoMubhZCr96eXy96cEgVqxYGRs2bsAbrV69Oj74gY/EKXc+hZ0wD8PPYVFKXLRkpA7jt1/8O/G+978XG3V2bjauuvr7rDZ3G2SXY6imKA80WmAovCJDQBkUAaDkJCnDo/g8Q0K2Oq24issLaJ3J62FIgVJufJYttrTR7AmZHFc8ANe0sae4AUp8r2TTF9B2rTP4IsIpUhF00/4ppySJAh+DAiNAmdfN7AzCs2I3lRMUJuVkEPExPj8bypc9Ty9QD5j3gPIVroVwRszsBViUvDwq8w4Ir+syW8hncWhWsmR4D1p7kytMjrXBmUpqgerDoIa1XjRkPHF+Zy0LvLccyY2SCsc9MiJ8J64hjphwLIanziN2qLAdPM9GY4GWyV5ZANxECSihIpfRBFl76/RWhBUWxSAXEBeWv9XtjIEKAAL+GZ5iYCbWv1JC7KVpY5hLgP0DI5k1o9q5eLuy/ayaySbPnmYnnHAiiuPzJk9+8lPj/N9/eYzmBws6USymbjpsSgn7YzyKr33t3+Lss38mdu3YjdOyc9f2uDrJlLIchEaUunXvI0so+SbZWwk1bbmZ7Shzvhl7LFez5f5LxJ3ksgNnyHCQbj9dbDdsr10LjE+Y6UscosZ4eevp0uMnSAnwBtfmM73fUT05JNQ4xLiohHLEDsYkOTUlj6VTu1pT+RrLnRvRXgZwL3CjSgPJQhikLqPXAq8wD/1UP2bnXWLC3jqMjBhCEn+pnJ0CbTkbkKGi0mQl47jPLqa3k/ccxKA3BOBf6E86zHk5tDYGACyyZWf4Ql4jsZekjTBzSQCazIwxwmgrOWIpSrGP8oAlY1+OC7SNmPS9UUwlRJDvqp4juT54HXkfyOQSRUZYTPmmUXWmMIXlLLDJrPQyLOuFxkA4k5hvtAsC/WF8RTkp2BuLbz3nLa/sZhkLnBl5Svl9YqHpPXHIQAEYZK3y+ZOztfH4E+EppRzTS3r7O94Rd7/Haezyeph+DqtS4qEdxVv+5I/jNa+6ACUDufGyFm7btq20QSW64iKDt+LWJuLREIvWUS9mlMtA7ILp8WqXjMiUgupq2eWBQG2hNYm4RgYZC2NY2Q2ba4RqWSLDtPVcdjJwpstuiw5DPlkO+K5MX/6BFk3vIZ7Ogn0hbyQ3nAsqy+NKAULZSEZ5rYxY0+GBsqPJJ/iqUIihmnA+Th7A4UOtnjGg4q0oVQ+ijNA7g9XAPgTuI63f6SOuBvjmCSUJNhV0ekQAWzvSz8OZa6VgFYsIiWh9EeZo7Dia1rl5kQSFVq9y4hKSy7bAxuCKE9TREF4jlBqV4aDcLN2roxC8eFaWogMtGoTEteDVog+WGd9JqlTmzloRlBOGfwjLVctJj12N6jQEgPuvDi1lWMg+TeDYyXPOa8HLRUM44nm+voDEki1lyNmL9Wuzd9IGXD8TTs973gviV37lmdHrZYJhAXy2qOrpsCqsDpiHAAAgAElEQVQlnYDYu3dXvOAFz49PfPziGAyyd/AIQyq3b99BC+IjK+YqjUoyUDvZE1k1hHUeBzSqbUkRHqhDYk7YdbbCoZudXVpdXqwqNRVNmigJL4+LTidujK4CUKrj9AL4eYKuNVKj0qkhnbUklILATWwmpHGFoWk8jnQrD0v30AOTqixHvJenceQTyvNCmhtZHXoPSUB1qNXRlXgQc4OQWIcCpECnplQOgYMhjlF5MI1/Tm9PnR3R3H4BuM6AYlo0A4wJUmYLLGthhpkVZ1irFih8KXbOFGSOAFG/t8Ky92qOGp6yZJt0+BkHa+FYZwEjV/aPiajkXsH7VK/awqnqGAyEx6VvUy0pITTGWjZz5YqHrAxy1wAVlnyRl4uBXRhMWkw+EFA09cSiolXK1fIW3gV/rHDgZJRFns1RShs2bGCiZTiKxz329PiDC/4gZpatLDnFRdVEnZsdFqWEw9DxHjKE2bT56vjFn//F+PrXvyYPaRybr70udu7aSRyB3ijphDAeaS1yhHdiTDm0ch6HCdiosRZV5Qs7JfYEWMFpZVsTHnT6CZhxy7Sq3G8oFnWJ5HhxFnBaQbAhnHoiDXkFYwvaR7BoZGZXFq0zjDxEcoOE1lJGtPRMwsnV88GF8hIDG2RRWlRUtyMi5AM688XyT1WaFXyBCpBxjTwKtYaBosvuAbkaUvIZOvEtejGvWWacQybrrKb6tVWxskzSvsaacFXmHriuWZ6Rc9KEV7GBmTNQJTVI44QFNNlQU2RUvkEFYZyow4aH18EYEYpMMuwOQy8Jzk7Br8FnJhkItjPhwQJVGBM8T7YgocR5f5U5QeF6YptQNik6RgHQeET71BiP/cOyDpDvz1YoMqJJszBVo88uloDIvJ4wmpyml9cETFGiTiYY8kqrVq+M4zceX/qX3+3ud48/e9tbY+OGkxa18Pb6lN5hUUoHfphRfOlL/xy/9dznxHe++13E67nKW7dtiW3btxSGNs9ezXDAesCdrWEIGsTlmRIPB007ulk2hxyOtNWNQOpG1tHFtfSwWP5CzorDAADhqcygaPoxpz7HxJ2IFwGzkYG3UsWVNFTRymZBA3x5UzbqJVNnpSA6QeVLO9UvzwZAp+eE8Wb538z3EIS21TZ2X7lO9ELFnazDQBMzM7dLOQTibKZ4UD48ZgZTVdOlQ8V2ruKbyYKDpwWPKBn7bllj2gbfC+Vu5eo6pMpk5QcKuKwMFwHhOuQhQ8Uy0KDAjkpfSBHmkyfGwoIkN8Gra72Qtc0d7BKcIksYHWfvZEX1wpCIykUEaOkYQKvJnabSZKEv1RWwN3usGiVPPh7Jk2mAzeOi1U6sqCpmNmR1Rrofa9esjbXr1iDUS7zwtre9Xbz6ta+LH7rf/bV6h8s/qvc9QpSSAZ9RfPMbl8ev/sovxbe//d/Q+mnj9uzdFZs3bYrZuXnWL2rPw9vKKawAZUlCJFWA8sUCl7KOWnleIAWFHrD/4qAY60HMngC4ZIVIQUWZJMhWi8Y6scISwSHJnszqS8LnQPsUfo+pfWWpSuav4lxGLIhPEngfqb6C0Ba9OP8Ps3w8DPybarkQLrItBkMJgsv5XWBMakhfAXmWQ1CHMvS0F5f/PZOM9C7h3CGPsJGSKFAIog4pxcNw6EgaQ04TkYiUtiLdgwkLHCu0lCFusm87W1Mhco9kttZJt25IBGRKpUnOBPYU25OvxhwgKwNYkpMVBd29xHcimx7F0tLiZfy3ldwBz3JtzuY/V0oIlwzZ1i61QPvQQHXSWeaEkxVOlTKciGYd0CaWCK5WHgJ7X8K30oOemorjNhwXy5YtKyzy297u9vGnb3lrnHLqKQqXDx+43RXfEaKUJNy0AFMRl37lK/GS335xXHrppaXp2PxwDr2XduzYWerd5DmzBYRClQUvVw6VsQ1bEIYlOtoCUlX+IMuWlmivWhtPDVhn5LAzlVUNJmsNEby4LM3od8f/iORYrK+mUCjTBC9ATRwFI0m50GL6nuQN8bS7f7MPDJSK3Px079mhUliHko9uWEeHj9KqHTp5Xd+DnTKJ8ZTgw95ZJ0VvWefnAfI6psUdhIEUbnXV7lCasPTpzYiBbb6P7oMIiJBPsSHdf8NhRIjL/tx5P4RW8lK90sRb0uh0yRM1ewWvV/cwUF+8KtUKdivytQhEOZX98zVM7Sh7UOGiKwcMlRErY3eJvHe2VkbkS0DTvBWy7vE/NFjGHqnshYoiWyyDJG+SRk/Y4tQgVq5YjTa3ydQmLjaMe97rtDj/Fa+Ie59275ifM03m8HtJ2J2Hgzx5sFfnRhvHd6/4drz5TRfGhz/yYbiZJEP2Ym5+T+zYuSt27dodw+EcsxwY/CfFVjZfJZT5fnUDsqpajhKnh6Q1VEdD7GMVPJrrwcBdTSxVeZ/fZ1V+vRZYTmWKL30ObhAdqU7LEPQNl2vNEgzFdOYC4VAKgu/wZwiWO4S1S6iOBaJNiCMuD8MZKI7XBuM4OTDKltnD8ek3cEt1atIm+5wzM2YnjdwuZoiSo5VjwTsERDTWo/JPDjzLffR9KeOFKoefUeWaDqEVY02vG1yGpwMvyhOK5THnARZzlhOHkRsvSt2yK2OR0I+J70DdrkBba570DOBK/pwOP1IiBQqwASlLI1Caz4I2LpC3gGsH0qahyFjYa2VEIBeu4w1V6TsW9jw94VBsExcz09OxeuXKWLVqVQwG08gAAksbDOLMxz8xzjn3nLjtbW9P/FHKdwGD5TDqpyNOKVUFkqUD4/jLv/xQnP/y30Mv75npGY1uRmordu6ejZ27dsT8/N6Ym+fMMbLt6lw4/qdGP9vUYH0YzhQKv9jfGXax4yL9KIPq2aWR+FGmsnlUGYxVHMGW0Lh017MHaC2PCLzODnUBPbhVE+dN6UTA/kmBhfECuioUReweQ3wHhJF6L45nIqBT6FwStgFoPNcBdmZRWp2N6u90927tVOl5aaMYqccUZCXPwVSPfSOflB9adribgpMKELH4SEoAgJXA8r5ONO5ayOrDlQSBEwX7HLaFCZeFT1RyMQW/Wiiffb97IDkd7GxP8nky7vmert+0rys0iZ5eL2LZYBDTK1aAd7Ri2fISpuVGmJudi5x++9u/8ztx1pPOitEwB2sQBzzSfo5YpWT3OLNPl33jP+N9F10Un/zkJ+PKK75LYHuQbb9EmhuNYjg/jHkopsRN3G3MdkVNeZQtYcKJ1lA2nzR/pfrhLmcGRFkUKwyHe8R1FqbhjeD2Nd4yGcZcdC+8wONiERWbdLyOVJRWdgWM1tepK2wdKzucG9vXol9HLk9pGqnwhBfiW4vdLIuPp5TFJ7/G27Q+e3mPErkyA2ZKRYkK4QnRdWSDt30VXSfz6mGYip+IAdIzc5V/yWaV1fYz8Z8GeV3uUXAtsZ9r6xpn7BZ2n4DxMXC/QCdxb5T16JA4sRL6jqejQK6d3tfVrFUDZiPGa3a5IrqxvXF4kTXsh3Hxk7jkClcg3ykN0/TUFOg0UPyYZjziWO7oxW1vc9t49KMfHU99+tPi1DvdGeHiYra3vbFK7whWSj5CPHSj8Vx89ztXxCc+/on48Ec/EN/8xjdgKadnZmJKTajQuF5gt3z1EoBMKhgoEjf+KmBBd3vySs68sOjUz7oQ9fD5rffuHvIb+q3ewPSF63mBfa1t18Oa9J1v8ufKi3be+EC/W5BhsEHY11+6cU/D21ALmwhavaMbd63r/bSWjdfv4JM3Md6xIbgeJ06Ps+8u6v63PWL4U/j8/HA+Zmf3QlGdeupd4olPeGI85rGPQZat309S5JEBZh9sZY5wpVQf3VhT9u3Zvm1HXPKFS+LvPvWp+Nd//bf4/lXfi507d6rosw50lProeCuHskn3Vy0HusqBwqzrc4/3/ewkT3Ww7xzK9Sa55831mfp81TO9oWtP+snu6tT7+LeTrd2+z3Jj5HmgO9yY7x9MDge6Tvd39HgH7H3V78WqlaviViedFD94n/vGIx75yHjgjzwo1q5dFTkKzvWYNyT3I+HvR41Sgi/SASDdUiPHfl999ffj6quuiWuv2xLbt2yJXXt2oXses0tdZLb6TyWrtSCUsY2tsTauIM/JrvwkCyeq3H4fLcfFHtCkp2+Cm9anvtl9hQnuThRuXxkd2Dec6HJiXk/qSR2aAprwSQ7+MWckD+7yHNQRO9hbiuLbARsY+iVLP/GjdWvXx8bj1sZJtzo5TjzxxNiwYaP8Jjbe6454v1ne9xa+yFGhlJyNObCHkl0IiRNkBi6zS926okMF80jSvB7pH/SPB/pOIit0m/cFsm8eb27/e96Muu4W3oLt8h1tc30bTr/ff0MiKzjuo4gbc/swTZnsc3KMre46hnafhhVH2gocFUrpxgjtQNmjG/P99tkmgaNNAodqeI/U9zzmlNKRKuj2XE0CTQKTSaAppcnk1D7VJNAksEgSaEppkQTdbtMk0CQwmQSaUppMTu1TTQJNAoskgaaUFknQ7TZNAk0Ck0mgKaXJ5NQ+1STQJLBIEmhKaZEE3W7TJNAkMJkEmlKaTE7tU00CTQKLJIGmlBZJ0O02TQJNApNJoCmlyeTUPtUk0CSwSBJoSmmRBN1u0yTQJDCZBJpSmkxO7VNNAk0CiySBppQWSdDtNk0CTQKTSaAppcnk1D7VJNAksEgSaEppkQTdbtMk0CQwmQSaUppMTu1TTQJNAoskgaaUFknQ7TZNAk0Ck0mgKaXJ5NQ+1STQJLBIEmhKaZEEfSzdRlOojqVXau9yBEmgKaUjaDGOpUfZV3E1RXYsre4t+y5NKd2y8j3mru4xV5MPdOEU3e404mNOKO2FblYJNKV0s4rzWL/YOAZT+Y51ZNTB35iDnnIYYh1ffqzLqL3fTZVAU0o3VYJH+fcnnV6bM8W2br0uPnbxJ2LXzp0YbX7Qn5ybl1NbV62Kx53+2Fi//rgJR0a3iXVH+Za6yY/flNJNFuGxf4FUXKPxMF78ohfEhz70lzEaDstQzet7e4w+7PUwHPGJZz0pfv+Vr4xBb/ogEz73v9LNNf762F+hY+sNm1I6ttbzJr3NgcDpnD7c64/jhc//rbjofe+N5ctW1DHmN+Qt5Vzgfj9279kdT33K0+MPLng1phl3hyeWkegajX6TXqB9+ZiQQFNKx8QyHtpLQCH0OUp8/ymrY2DTs7Oz8cd//OZ4/etfE8tmlmM09I396fX6MTu7N5717OfGr/3ar8fMzMyBPSag5xHjkcHxG3un9vljQQJNKR0LqzjBO+yfkk/QuheXXfaNuOyyy2Lbti37KaZUJt/65uXxrne9M/bu3RPjcSqk/efZT3D7iH4vls8sj2ecfXbc6U6nxHA4yuiu/OTc+9Vr18Rd7nzXOPXOp8ZwmErxEO810QO1Dx2pEmhK6UhdmZv5udIb6vd7wKfz33fv3hFvecufxIUXvil27dyNjFr+PvWAPadUFFNTU7FixYqb5WlSCe3evSfm5uaKAhylO5ZhHpTdOFauXh3n/Pq58avP/NVYtmxV9NOVaz9LSgJNKS2p5WbSbGp6FG98w4Xxh69/LRVCvx588pD445DuUEK26xPrgjCx6ylJKY10/2c96zlx7nnnxnC+hXJLbItGU0pLbMUTtN61c0886lEPjWuuvna/tz+8Ga9Ksjz++OPjbz/1mVi5agUwJv8c3udbYpvlML1uU0qHSfCH67b9wTi+eunX4swzHrsA0+k+z+E7+BleJtbEMPNjH/tE3ONed4/RsGFLh2u/HI77NqV0OKR+GO+ZSumSf/hi/PRPPzmmSM8+pJ9UHFQeDPe6isy/74aCk9+E3tL8/DD+4j0XxYMe/MCmlCYX3jHxyaaUjollnPwlilJ6+pMBYt/Yn6JoehF79u6NQX8Qy5eviFUrV8X27VsBYs+PhrF8Zib6/cECkmVXid3Qfefn5+Pdf/G+ePBDmlK6IVkda39vSulYW9EbeJ9+fxyXXPLF+GkppRujKMYxjl70wDN64AMfHA992MPi3ve+d5x00kkxPTMTe3bvic2bN8VXLv23+OIlX4jPf/5zsW3bthgMrJzyCkkquL5wzJhSRCqlv3jP++NBD/6R5iktsT3alNISW/Cb6imluNauXRtv+/O3x33vd58Yzo9j+/YdMTs3FzPTM7F27aroD3qxc+eu+OY3L49XXXBBfP6zn42p6ekYjYYLpH0w7KoppSW2MTuv25TSElv7m6qU0rNKhXHPe94rHvmoR8bff+azceUV34VHtHbdujjlB+4UP/6IR8ajf/L/i9ve9naxdduWeMXLz48PfeiDHY/phoXelNINy+hY/URTSsfqyl7Pe02slBRJmVe0L2gNoqX+v9dP6mMvxknAHGX2bBB3POUH4pm/+sx4whPOit17dsYF/+uCeO97/wKcqEkA8KaUltjGbJ7S0l3wiZWSyJOpHIbDYSxfvn/d28HwqFQ+23dsid9+ycviV575zBiO5uOXfuGX44tf+IeJhN+U0kRiOiY/1DylY3JZr/+lJldKPWBAj3nMY+P2t79dvPWtb4UXdANdlMqNs6QkPably5fFq179mnj0o38iPvWpT8VvnHcOMnQ35C01pbTENmbzlJbugu+rlA7k7eTvsrTkKU95Wjz/Bc+P6emZ+MAH3h+vOP/lGaBBeFkXd7CfrKHLz6Tyude9T4v3f+D9Mbd3Pn72Z38mvvSlfwa+dLCfppSW7h5tntISW/sb8pSyM8BwOB9nnPH4OP/3z49lMyuRxM9uI3/2Z38er7rgD1DBPx670VtN46coD5RR2zu7J972tnfHo3/ikXHhGy+M88//vVi9alW4zo3aayFNoCmlJbYxm6e0dBf8hpRSekhnnvmEeNGLXxwbsoVtgtjpOQ2HsXduT7zrHe+IV7/6AnpLbC95PcLMHk19dCbYs2dvnPWkJ8Xr//D18bnPfSGe8fSnwPtiK5Tkb4+aUlq6W3K/N2+e0hLbDNenlJhl68XPnv3z8bwXPjdWLF+JQC2b/rOzAAU1Pz8Xn/j4X8WLXvhC9Fi6vp9Ubrt374ZCSwzpvve9X/zNJz8Zl132zXjUj/8YrpP3S0B82fLl+6m25iktsY3ZPKWlu+AHU0qDwVScdtp9Ymb5DFL80zPT8YrzXxknHH9cvPR3Xxr/dfnl0R8MYnp6Or78pS/F9u3b1HBkoTxTEW3YsDF+83kviFuddCKU26qVq+O+970vFNQ///M/IaOXYdsXLrkk3v7nbwP3qfvTlNLS3aPNU1piaz9J+NadJ/KhD38s7nPf0+JpT3l6fO7zn4llM8vQZztZ2wzcrr+C/y53vWu8+jWvibvd9W4xBmaUoWC2ux1Ff6oXn/70p+J3fvu345qrrtovq9eU0hLbmM1TWroLfkNKCRhPj50gd+7cGX/ylj+LMx//uLjwjW+OV7zi5ehC6YGUB22Nm10uh/24053uEH/61rfFySffJtITi1EiSKO45AufjbOf8TOoozsQPaAppaW7R5untMTWfhKlZBb33r1744lPfFK85rWvjSuuuDLOPONxCNmojG6YsWRqwf0f8IC44IJXxW1ucztgTP9wyefiJS96YXzve9+/Xuk3pbTENmbzlJbugk+ilCydVCAbNx4Xf/Ge98apd75T/P75r4y3vvVPVMM22RABKKbxfNzpjqfGH73lLXHFlVfGs5/1G7Fty5YY93vkOzVKwNLdkAd48+YpLbHtcGOUEkK58TjOPfdZcd6zzourvv/9OOfXz4mvfOUr4bbeN8TMBurU68VwNBd3OuUuce2118a2bVtBNShTdptSWmK78OCv25TSEtsOkymlheHZ+vUb4nWv+8N48I8+KC77z8viZS99aXzhC5egSZwLbLukyaQD1AEBhM2Tr8SxSgs7Vl6f+Fv4tsQ2Zgvflu6CT6aU9pXPOKampuN973t/3PPep8X8/N540xveHG95yx/Ftu1bY2owjZAu0/yZ8l+/fj3+mZ0nE3sytpRkykmwqLx7U0pLd482T2mJrf2hKSWGcbc6+dbx4pe8KB7xiB9HFu5bl/9XfPGLl8R//de3Y9uWrbHhuA1xxzveIR78kAfHRz78kXjDH74xhsMkSd4wKL7vMjSltMQ2ZvOUlu6CH6pSssRWrFwRD37wQ+MXfuHn4od+6P4xNZ0e0ihGwxG8pcFUP/bsmYvP/N1n4kUvfF5s2bL/5N0DS39hyNiU0tLdo81TWmJrf6hKCRN2e/3oDUaxd3YYg34v7nH3e8eP/ujD4vZ3uEOccOLG2LZ5e3zt61+Nz1/y+fjqVy6NqakcHnBoAs5QMAcHtB7dhya/o/lbTSkdzat3CM9upfSMn37KDbYPOeDlexwekOB1ejPIvqkwN/+RIHe/N4AHxelLNz50y29RKbURS4ewxEf9V5pSOuqX8Ma9QCqlL37hH+PpT3sSGdY3SmnUEOugU1DKoNus/r/xrpKLeN970QfjRx74P9o0kxu3xEf9p5tSOuqX8Ma9QI7t/v73ro5H/fjDD1rlf8NXvQFW92Sk7/1uY2U3M7M8/vZTfx8nn3xCoHaXfVLazxKQQFNKS2CRu6+Yk9f6vVH8ws//Qnzuc589wOjubjnuYRBOTt0djeIhD3lo/Pk73g4vqSmkw7AOh/GWTSkdRuEfrluPe+P4yr99OX7u7LNj+84dMdUfHDEHP7GkVatWxtvf+e447d73OWgXgsMlv3bfW1YCTSndsvI9Mq+eo5F6o/jSP/9TXHTRRfGtyy+P2dm5wATcwxglZTfKU045JZ761KfG/X7o/hHjVJZHpgjbU91yEmhK6ZaT7RF9ZdesjcZ7Y9euneiRxJ/DF74l4zu9pH5v2QLP7WCTdI9oIbeHOyQJNKV0SGI72r9UFU93qOSR8FZZS7dv3dyR8FztGRZPAk0pLZ6s252aBJoEJpBAU0oTCKl9pEmgSWDxJNCU0uLJut2pSaBJYAIJNKU0gZDaR5oEmgQWTwJNKS2erNudmgSaBCaQQFNKEwipfaRJoElg8STQlNLiybrdqUmgSWACCTSlNIGQ2keaBJoEFk8CTSktnqzbnZoEmgQmkEBTShMIqX2kSaBJYPEk0JTS4sm63alJoElgAgk0pTSBkNpHmgSaBBZPAk0pLZ6s252aBJoEJpBAU0oTCKl9pEmgSWDxJNCU0uLJut2pSaBJYAIJNKU0gZDaR5oEmgQWTwJNKS2erNudmgSaBCaQQFNKEwipfaRJoElg8STQlNLiybrdqUmgSWACCTSlNIGQ2keaBJoEFk8CTSktnqzbnZoEmgQmkEBTShMIqX2kSaBJYPEk0JTS4sm63alJoElgAgk0pTSBkNpHmgSaBBZPAk0pLZ6s252aBJoEJpBAU0oTCKl9pEmgSWDxJNCU0uLJut2pSaBJYAIJNKU0gZDaR5oEmgQWTwJNKS2erNudmgSaBCaQQFNKEwipfaRJoElg8STQlNLiybrdqUmgSWACCTSlNIGQ2keaBJoEFk8CTSktnqzbnZoEmgQmkEBTShMIqX2kSaBJYPEk0JTS4sm63alJoElgAgk0pTSBkNpHmgSaBBZPAk0pLZ6s252aBJoEJpBAU0oTCKl9pEmgSWDxJNCU0uLJut2pSaBJYAIJNKU0gZDaR5oEmgQWTwJNKS2erNudmgSaBCaQQFNKEwipfaRJoElg8STQlNLiybrdqUmgSWACCTSlNIGQ2keaBJoEFk8CTSktnqzbnZoEmgQmkEBTShMIqX2kSaBJYPEk0JTS4sm63alJoElgAgk0pTSBkNpHmgSaBBZPAr09u4fjxbtdu1OTQJNAk8DBJdDbtm1bU0ptlzQJNAkcMRLojcfjppSOmOVoD9Ik0CTQlFLbA00CTQJHlASaUjqilqM9TJNAk0BTSm0PNAk0CRxREmhK6YhajvYwTQJNAk0ptT3QJNAkcERJoCmlI2o52sM0CTQJNKXU9kCTQJPAESWBppSOqOVoD9Mk0CTQlNIxvgeSGds7xt+xvd6xJYGmlI7a9eyqm31J+furoXGMO8qpqamjdtmXwIM3pXQULHJWAvV6+yqSUYzHvRj3InqjYUSvp8/09UbjGI9HEeP821T0evl7K6+81kg+VFNQR8EWWFKP2JTSUbfcVCyuWBzP7YrhtqtjtGdbjHZvjfHeHTEazkd/2cror1gXg2Vro7/6uOit3Jh6S4rLXlZTSEfd8i+BB25K6ahY5FQi6flYqfRi73f/LXb/x2di7xVfieGm78R4fjZiNB+j8RD+UC960e9PR/T7MVh9fEyfeGosv8tDY8UpD4z+ijXUavC+mmI6KrbAEnrIppSOlMXeFyLq6Ao3chjt3hJ7v/2l2P6P74u573wlYjgb48FM9AczMe6NozdK5CjDMiuvPvTOeDSK0TCV1jCmNtwuVvzgY2L1PX8yButPZliH0C711IHCxCNFQO05looEmlI64lZ6oXZKh2Y8vyd2f+PzsTOV0fe/ETE/G+N+18uZrPtMKqBUUDEeQSGtuNejY/X9zorBquMjUqmF8agjTijtgZaQBJpSOoIWe7/0vX6x+X9fEDv/6UPRG0zDm4FXJK8mfSOg3RP8pB4bSX/1eoMYze2O6eNuFxsff37MnHwPKCt7TRNcrn2kSeAWkUBTSreIWG/qRdObGcfctd+KLZ98Vez97y9HTM1UdPuQLp+Kax+PCrHdMAYrNsTaRz07Vt71x6I3mGo40yHJt33p5pJAU0o3lyRvrusorTa7+b9j80dfFvNX/ecChlG9zYGUzOReE6/Tg5rq5/8OpmLNw341Vt//pwiQt58mgcMkgaaUDpPgD3bb4c5r4+r3nBfz13wrev0BE2Rwcg6giG6u5+8nntSLDY97Say6x0/cXFdt12kSuNESaErpRovslviCwqrxOIY7rovNH/+92PNf/xjRG3RudmMLRg5BgaXDtGpdbHzi78ey2/ygnCn6Uu2nSWCxJNCU0mJJ+qD3SQyJH9h6ydnUblQAABLeSURBVJ/F9s+/I3rJ1sYv98+sgcUNHVXDNaTzQdruMrcX3jS/18+vHOBZKh1gHP01G+LEs98WU6tPqHSBhjQdETtlKTxEU0pHxCqnphjH/Kb/jqvf9Wsx2r29cBoPxB1KYiR0UuLU0DBdNcO/im4JEqUvxs9n9k5K7YDv3ovxcC7W/vDTYu3Dnxm9wUzLyB0Re2TpPERTSkfCWo/HMRrujWs/+PzYe/k/Ekfaz59xODaOGM4TpB6PyC2amrp+uCm1VtbGwUMaRyQvoDc4QC1dFUTSBXor18dxT35NLDvxlI5Smox6cCSItD3D0SuBppQO99rByRnF7su/ENe8+9zorVgFZvaCH5WEZFHueDAdM7e6c/RiADdpPBrG7Pe/To7Rvj/jcfSXrYjpE+4iZ6kXw53XxPym71ZF4xCwEwriMuNRrHrAT8WGH38u9eORpI/yvbPQWD+QCzxHgvXt5+iWwFGslCY9KeOY23ZVDJatif7MStV7HSmLpuLa+b2x5a9eGTsu/Zvo9ZMnlD8doFoKo9fvxWD1iXHC2W9Bse14NBfj4TCuuvDxMZrdXb/m7w/nY/rku8UJz/gjXK4/tSx2/NMHYstfXxCxbBUUz/WWlqRCW746bvVL74z+mpOOoMM+jvHeXTF79WVUynABxzG15oSY2ni7I+g5b449ZuPEukevFTtGHLvK9yhWSgdwDDpLxXqxUcxf919x3V++KJad8iOx7mHPjN7UMoVHN8emuenXSIs/3HJlXHfRs2Nu27VsNXIAKDo3Iops1xwfJ5z9p7H3O/8W2///d+EB5q++HAzvcT/LSDK0G0e/N41rjaeXxdTGO6BY9/gnvyZ2/fv/iW2ffFWMZ6iUrvcnN/7srlj3k8+PNT/05CMGVxoPRzH3/X+Pa9//3BjNz0ZvPIrR3J5Y84Anx/pH/WY1OpParJu+hLfoFaCIYhyz134j5q78j5g67vYxc/I9o5cUDoCEGY4fW3WLx5RSqrsjPYCIuasui80f/92Yu/a/YWXW3O/xsfZhz4x+egm9gSyPvZJbdG9dz8VpAfdc/g9x3YdeIqxo349mSELlkUpnatXxceLZf4JauAxXlt/tETiYWT8ynN0Z177nnFh+pwfGuoefI0+Cf8tDvPEJr4g9l30mtv71q6K3bDX7LR3kJ+vklt3xfnHCU16LEpfDQw1YqF1S6Wa4eu37nhsxv5fA/dzuWPOAp8T6Rz33iFGeN89u4tpt/af3xo6//9MYZwJkZkWsesBZsf5h50RvyiTXY4uycewpJXhI49h9+Rdjy/95TQw3X1k36ngcy+784NjwyGfHYP2tDwr23jyb6uBXAVDd68fWz/5xbP+Hd6HINj2e6/uB275sFYpo5669PFbe7ZH46I5/vCimNt4+1j3i3Lj67b8YK+76sFh5r8fE1s+8GcW8Gx/z4th08fmx7Pb3gYLe85+ficgNPUEdb3/Vxjjxpy+MwYbbRALgh/MHCmg0H3Pf+3pc977nxHA4hwZ3qZRWP+CpseEnfhPs9/0b4h3Op74J9x6PYu93/jWufe95MqDJvR+jTU2SXFefdoY8w2PELZSojimllKFQHvKd//n3sflj/zN6wwzERwvP3ngc07e5B6x/f9kai+Em7JxD/6qV0rUXPTv2fOuL+5AlF163YD86mElKOv4J58f8lu/F5r++IGbynZ7xR3H1238pVtzlR2PFXR4a1170nBju2RG3+pV3x+ZPviZmv/MvrG0bJEh+MExC3lmGCOOIE57yupi5/X06eNehv/PN8c3ZKy6Nay96VoyGcxGjEZXS/3habPiJ39rv8kfzcc39sfXvLoydl7wjxtPLS+3jaDSMlXd7aBz/xAtuDnEecdc4ZpRSLmBakN1f+9vY+uk3xmjPTvF1Km+nSH88jOmT7hwbHvuSmD4xM1mKzxEmLZYrLJB7PI6r3v5zMZ8tSfZreXvg/YIWJBGx8YyXQrHu/o9Px2DtrWLVD54eV7/jl2PF3R4eq+77+Nj55Q/HeG42Vv/IM1BHN3vlpWj6hnBwgs4CGS72x+PY8PiXx8q7PvwwgqsZou2J3f/59zHctSWGW7+Pd4NCSs9yOBszt79frLj7j0VvNB/LTnlQTB13B7a6m1CmR9zJzBUejWL7lz8YW/7mVdGbWqEuDj0q4R9+Smx41PPqmhzN2ncf4R/lSokrAbd+fnds+8I7YscX3gOshKolD6+angk+Ljmt8TgGG24dG37yBbH89vcXXmjvYTFWWATH2V1x5R8/KWLn1omVktdw9f2fFMtuc2/m6VIpz+6OLZ/9k1h263vFyns8CmnzzOYlbWDb594Wc5u/Uw7pZG9IGub6Rz8n1tzvrE7ny8U9wlA84/nYden/js1/db4Mx/5lNOPhbKw67bGx7pHPisHKdQn3H6U5Kq3OeBTDPVvj2vecF7Pf+w+2rhnOxWDt8XHCT18Y08f9AJXSZIu5uIt2E+52lCulmnXY/n/fE9u/8G6An9knqKZMvXm7CodNrjPl3V+1IY574itj+vhTGLfnIi9itnW467r43pseTys4AcZT13oco707I+bnSrYOQPjytZGHMykCmaFJykAMpqO/fGVEcptubElcbxRrH/LLsfZBPy8u0CIKRy8r04P12fX1T8WWj78iYphtf5M8WsW28p6Pjg2nv5TA/1GaNt9Xv+Q7D7dfFVs/c2HMXfHvMXXCHWPdw34tpk849ZjtFHrUKyVbidHubdjCm//mD2LXV/939LL/UP6M5kuWqfQKyvBn97bYcNb/ihV3elD0p5dFb3rFTdDtN/6r3nyj3ZvjylRKYGnfmJ9erPnhp8X0re+lopOI8d6dseXv3hwztzstZk44JXb+68Wx7sfOjS1//8cx3nrVPhHbhNqpF7H2ob8aa3/kZw6bUrJUSPMYx66v/k1s/dQbkY0C8DuaA7C//hHnxmDVRiU2jm73ASOxlPQYp4LNfZyGZmo59vYYBNtsX5z2d7EghxuzPw/9s0e1UupuO6e3N33spbHrK38T/ekVsKTZH2j6uFNQXrHzXz4Se6/4avT7gxju3hLHP+X1sSIbm2XpRRayLronnGHnnvj+W54ao23XTuAoEQ8ipjSOjae/NPpTM7H9K5+IwfrbxLoffnpc/e5fAw9r+e3vF9Mn3yN2XfrJWHn3H4tt//h+DBjIXZyHuy8W9MG2DvCY8TjW/+TzY9UPnnEYMaWOf4iymbnY9fVPx+aP/E9k21bd5/TYkHSANC6HOUN46EfR3+ToLGJhY0yo2fOdf4m5a74Rw61Xo1h6euMdY/kd7h+DLJjOn2OsY+hRrZS0IkwDy6pc99GXxq5L/yp6MwkM9uL4s14Zy+70IHgT1138stj9lb+GtRnu3BInPO11sfxuD49ezyzqm76lJr2CFWr+85p3/kLMfvdrAqEnuEKPAPT6M18W85u+E5v/6pWx7Db3ihN+9q1xzbt+OaI/E8tue294Ubsv/atYcc9Hx47/+/6Y3/xtWlVQEVI5Xd+95EVlDd54BBkuP/Uhh18p2XNQeJah3Oy3/yXWPfzXoz+zfOEcu6MW4E6Rz8fs974aO//5Q2hhkyO0qHyKzwiPcOb2Pxirf+ismLntfaKf2bnFxB0m2KaH+pFjQClpvbRhN30sFc8noje9Msa9URz3hFfG8lMeiAN/3cdeFnu/+klMABkVpfRjC6xrmTx0qBK9Md+ThbvuQy+OPf/xdzE+gBveDbKy3q23clWsecgvx/z3vhbLfuABqIXb9eW/jOn1t401P/rLyL5N/b/2rjZEqjIKP/fOzu7s5uquO7uurFEppoZYhFkUEpR/CsoQik3wRxT0wyBIgiIIDD8KE2OJ8lf1xxKRQAvXxd0CIUlKofwsUhEMzdWd0XF2dr7uxDnve8c7M/sxrrN77505988uu3fuvO9z3nvec857znPmLETj/cu5DVNowVMYOX8EyXO/YsbK15G5/Bfif+6HGQhpLoGxFRNZXBSnau/+DPXkJnKhsIuXQ4vm40kUU6MsfWe0l8Ne0x/7qggyuRziZw4h2rsVudSImoehutLYhzpKO1HiLdHV1GHW02+ieUU31RFVZAhuP8S3SqkkYqCzk6P7NiJ2qhdmfSNzEs1esxkN8x/nF2po/0bETx5EINjAR8vhV3ZwTg8Fgqf3ykeU+CQp9vtu3OjvGf1F4iYB6pWjlUk1XlRmkjh/BIYRRNOSZ/JDt4YjGNz9NtJDF9HQuRgtL23Gv5uWo2vDAG72bUfrmq1InB3A0MFtKvBdXPhbDALVlLV1oX3tFzCbWl3NU8rEhzDy92Fl5Y1aiGMP3uJEUnJvVCKlnxSUxSel179/D6l/ftMxwNHMWXLjs+zmmQETdeH5CHfv4Cx9Pm31r0pmIfpWKZUqESW8yIEtSJzuZ0uJdpPWFz5EiCwKw0T0wMecx0Q7K/nqbWu2oHHhSlcChfaJEo2Rs3b3vKtaJzmq34vnSLGkQHM7wut2Mnd3/EQvEDCZ7sRuLskncpQGYdbpZpQBhB5YgVw6yekP8dN9iBz8VBUnjxHFsvmW6Pi58aFVaFv9kbaS3LA+FFKpy6cx+O1bnLsz9kXKO4t7Fq9Cy/PvMwa+yVPi4mISXRpDP2xE8sKxMVPJuNMxbSgUWzQNTg2gtWyEZlRBTK3KlBIJ1bp1HbnUcH6vCDSHYWh/m6hmc6m4jkFZMJvb+X+K8mK6rsJ9zKJTlVtDuLZ3A9LXLyCXpf199Iti8cHmTrSvI5aAmZw0aFHy5eerOblQ5WTpCnJauZk06ruWIry2R6U6BEOIH9uLSO8nOuY2Tg4CxbgzSXZ/G5dQOYubiYh0IJBENnZtXBvJzncw6pvUKVzepnJDmU5yPVFu0q1rvImMeRX69EzER5sVbzK+D/RXmVIiIdpMjNrh0VaQOnHK/y2/tN0z7/OBbhpXzkL0px7Ejn6nC19Vh1u7M65anIpDkmrWgl1Lb++IuSyXj5DZXxpHyQENM9DAPd2IgDuA7M0rSFNDgokUMSeXdqLztV0wKIjshcAxWUl5d2wshcqH6RPPb5I6Y+o/poq01WFEGa5nniHA5XhfBYGpIveNbd+CMpGJ21DbC9vlnTRnIfXfWQx+80ZpO6Ui8jVl4mfUu6nZJFUFv+NyfsauleP1bQdNbTK08bM1Zz27Hs2Pvaof7CZGzrPKicehZqUTYSv4skz5o/JGtHLl9DZUxtf6PYpUvHwLt+MyAPDKLToqozvFqlGVCqfwL5pon9e17eqMthtNs5B1UmBkYDviR/dwzMs+r7ct9fF5tR0yKTg+LAwJFyrpogx3p1hNk9t6d3T3INDc4UrMrXiV2WNXP8uwIHwf7i3nPZvmdVrOkCpwT5VZShVAxKVHUPInBd8Hd63nBgI5i1yQ8S2Zigy1mAaX3MZshuvdiCJFpQFo99cLLlxFJi0P8TICopQ8Ih3VBIBKKPo4GVKxvBaeNGmSwTuskStvgsoCMTl4Hlr4JGav3gST2ClFEZUHoNxVMQREKVUMyrt8kN1tJJtG5NA2xI/vgxEM2qST+RO5KbOdtFUWaL0Xc9Z9BSPUVHicXp2ewl0KTT4+FQiIUpoKVO/imezGpeKI9u9A4mQfcz1NRFs7+a+zuaaoTMeC2TqXOaYa5j2i2RImDipP/rvlk4LA6AiIUvLYysi3kUzEEOnfjuE/DnB2OidVUqHmBJk6dzIdFROnM+UsjMaZCL+8TZPSB0rCxDZL5p08X+4VBCaDgCilyaA2HZ8hiykZQ+TnL5E81QsrnXZQclR2AMHOB9H23Aeo61jgyAOi7xCfrbJIy9PKQUCUUjkouXQPZ2tomo7YL18jffUcMxzcVhbFESaHHWX/Wny6RnPhgHaakyKbHn6RiznrZnbq4k++waUZy9cKAlWV0V2d4mRKWxjIJm4gengnEid+hJXKIEBEXwa14FF020wJNX7HJL6JycEyCQTnLUPLqncQmrdM9ZqzyxPEOKrOheSjWYml5Ath8dEcB7zTV85g+MwARi4eQzZyidkmFb2Fo+aN2eq0htLdXIh1k+oAqZEhtWAKzX9Cd3NRhZ3qEo3ki+VQ5YMUpeQHAbOuoNo2ImhTbaPIckpHL4HaDSUvHocVG0QmdpVpfin50Wwk/vEwU47Uz12EhvseRX3HIgSaWgDtAqoUJKWQRB35YSHUxhhFKflIzs5SCy7Y5HZJ+rIsZJM3kRuJM70HxYuM0CyYQc1VTqmZuqC1tBhXVJKPlkHVD1WUks9EXFLLx2aOwwVzBpbsbOySejifTVqGW1MIiFKqKXHLZAUB7yMgSsn7MpIRCgI1hYAopZoSt0xWEPA+AqKUvC8jGaEgUFMIiFKqKXHLZAUB7yMgSsn7MpIRCgI1hYAopZoSt0xWEPA+AqKUvC8jGaEgUFMIiFKqKXHLZAUB7yMgSsn7MpIRCgI1hYAopZoSt0xWEPA+Av8D5+bybwAJno4AAAAASUVORK5CYII=;" parent="1" vertex="1">
          <mxGeometry x="410" y="40" width="225.38" height="400" as="geometry" />
        </mxCell>
      </root>
    </mxGraphModel>
  </diagram>
</mxfile>
